<svg width="958" height="411" viewBox="0 0 958 411" fill="none" xmlns="http://www.w3.org/2000/svg">
<path d="M86.4872 51.6468V224.141H64.6898V78.8641L20.7416 94.8881V75.2115L83.0703 51.6468H86.4872ZM262.987 206.231V224.141H150.701V208.47L206.903 145.906C213.815 138.208 219.157 131.688 222.927 126.347C226.776 120.927 229.447 116.096 230.939 111.855C232.51 107.534 233.295 103.136 233.295 98.6585C233.295 93.0029 232.117 87.8972 229.761 83.3414C227.483 78.707 224.105 75.0152 219.628 72.266C215.151 69.5167 209.731 68.1421 203.368 68.1421C195.749 68.1421 189.386 69.6346 184.281 72.6194C179.254 75.5257 175.483 79.6103 172.97 84.8731C170.456 90.1359 169.199 96.1842 169.199 103.018H147.402C147.402 93.3564 149.523 84.5196 153.764 76.5076C158.006 68.4956 164.29 62.1331 172.616 57.4202C180.942 52.6287 191.193 50.2329 203.368 50.2329C214.208 50.2329 223.477 52.1574 231.175 56.0063C238.872 59.7766 244.764 65.118 248.848 72.0303C253.011 78.8641 255.093 86.8761 255.093 96.0663C255.093 101.093 254.229 106.199 252.501 111.383C250.851 116.489 248.534 121.595 245.549 126.7C242.643 131.806 239.226 136.833 235.298 141.782C231.45 146.73 227.326 151.601 222.927 156.392L176.976 206.231H262.987ZM287.73 212.594C287.73 208.902 288.869 205.799 291.147 203.286C293.503 200.694 296.881 199.398 301.28 199.398C305.678 199.398 309.017 200.694 311.295 203.286C313.651 205.799 314.829 208.902 314.829 212.594C314.829 216.207 313.651 219.271 311.295 221.784C309.017 224.298 305.678 225.555 301.28 225.555C296.881 225.555 293.503 224.298 291.147 221.784C288.869 219.271 287.73 216.207 287.73 212.594ZM287.848 108.556C287.848 104.864 288.987 101.761 291.265 99.2476C293.621 96.6554 296.999 95.3594 301.398 95.3594C305.796 95.3594 309.135 96.6554 311.413 99.2476C313.769 101.761 314.947 104.864 314.947 108.556C314.947 112.169 313.769 115.232 311.413 117.746C309.135 120.259 305.796 121.516 301.398 121.516C296.999 121.516 293.621 120.259 291.265 117.746C288.987 115.232 287.848 112.169 287.848 108.556ZM376.569 127.643H392.122C399.741 127.643 406.025 126.386 410.973 123.873C416.001 121.281 419.732 117.785 422.167 113.386C424.68 108.909 425.937 103.882 425.937 98.305C425.937 91.7069 424.837 86.1691 422.638 81.6918C420.439 77.2145 417.14 73.8369 412.741 71.559C408.342 69.2811 402.765 68.1421 396.01 68.1421C389.883 68.1421 384.463 69.3596 379.75 71.7947C375.116 74.1511 371.463 77.5287 368.793 81.9275C366.201 86.3262 364.904 91.5105 364.904 97.4802H343.107C343.107 88.7613 345.306 80.8278 349.705 73.6798C354.104 66.5319 360.27 60.8371 368.204 56.5954C376.216 52.3538 385.484 50.2329 396.01 50.2329C406.378 50.2329 415.451 52.0788 423.227 55.7706C431.004 59.3839 437.052 64.8038 441.372 72.0303C445.692 79.1783 447.852 88.0936 447.852 98.7763C447.852 103.096 446.831 107.731 444.789 112.679C442.825 117.55 439.722 122.105 435.481 126.347C431.318 130.589 425.898 134.084 419.221 136.833C412.544 139.504 404.532 140.839 395.185 140.839H376.569V127.643ZM376.569 145.552V132.474H395.185C406.103 132.474 415.137 133.77 422.285 136.362C429.433 138.954 435.049 142.41 439.133 146.73C443.296 151.051 446.203 155.803 447.852 160.987C449.58 166.093 450.444 171.199 450.444 176.304C450.444 184.316 449.07 191.425 446.321 197.63C443.65 203.836 439.84 209.098 434.892 213.419C430.022 217.739 424.288 220.999 417.689 223.198C411.091 225.397 403.904 226.497 396.128 226.497C388.666 226.497 381.635 225.437 375.037 223.316C368.518 221.195 362.744 218.132 357.717 214.126C352.69 210.041 348.763 205.053 345.935 199.162C343.107 193.192 341.693 186.398 341.693 178.779H363.491C363.491 184.748 364.787 189.972 367.379 194.449C370.049 198.926 373.82 202.422 378.69 204.935C383.638 207.37 389.451 208.588 396.128 208.588C402.804 208.588 408.538 207.449 413.33 205.171C418.2 202.815 421.931 199.28 424.523 194.567C427.194 189.854 428.529 183.923 428.529 176.776C428.529 169.628 427.037 163.776 424.052 159.22C421.067 154.585 416.825 151.169 411.327 148.969C405.907 146.691 399.505 145.552 392.122 145.552H376.569ZM588.18 124.697V150.854C588.18 164.915 586.923 176.776 584.41 186.437C581.896 196.099 578.283 203.875 573.57 209.766C568.857 215.657 563.162 219.938 556.486 222.609C549.888 225.201 542.425 226.497 534.099 226.497C527.501 226.497 521.414 225.672 515.837 224.023C510.26 222.373 505.232 219.742 500.755 216.129C496.356 212.437 492.586 207.645 489.444 201.754C486.302 195.863 483.906 188.715 482.257 180.31C480.607 171.905 479.783 162.087 479.783 150.854V124.697C479.783 110.637 481.039 98.8548 483.553 89.3504C486.145 79.8459 489.798 72.2267 494.51 66.4926C499.223 60.68 504.879 56.5169 511.477 54.0033C518.154 51.4897 525.616 50.2329 533.864 50.2329C540.54 50.2329 546.667 51.0577 552.244 52.7072C557.9 54.2782 562.927 56.8311 567.325 60.3658C571.724 63.8219 575.455 68.4563 578.519 74.269C581.661 80.003 584.056 87.0332 585.706 95.3594C587.355 103.686 588.18 113.465 588.18 124.697ZM566.265 154.389V121.045C566.265 113.347 565.794 106.592 564.851 100.779C563.987 94.8881 562.691 89.861 560.963 85.6979C559.235 81.5347 557.036 78.1571 554.365 75.565C551.773 72.9729 548.749 71.0877 545.292 69.9095C541.915 68.6527 538.105 68.0243 533.864 68.0243C528.679 68.0243 524.084 69.0062 520.078 70.9699C516.072 72.8551 512.695 75.8792 509.945 80.0423C507.275 84.2054 505.232 89.6646 503.819 96.4198C502.405 103.175 501.698 111.383 501.698 121.045V154.389C501.698 162.087 502.13 168.881 502.994 174.773C503.936 180.664 505.311 185.769 507.118 190.09C508.924 194.331 511.124 197.827 513.716 200.576C516.308 203.325 519.293 205.367 522.67 206.703C526.126 207.96 529.936 208.588 534.099 208.588C539.441 208.588 544.114 207.567 548.12 205.524C552.126 203.482 555.465 200.301 558.135 195.981C560.884 191.582 562.927 185.966 564.262 179.132C565.597 172.22 566.265 163.972 566.265 154.389Z" fill="white"/>
<path d="M655.317 166.555L632.6 229.096H623.316L649.473 160.475H655.458L655.317 166.555ZM674.357 229.096L651.594 166.555L651.452 160.475H657.438L683.689 229.096H674.357ZM673.179 203.693V211.139H634.627V203.693H673.179ZM695.754 160.475H704.567L727.048 216.418L749.482 160.475H758.342L730.441 229.096H723.56L695.754 160.475ZM692.879 160.475H700.655L701.928 202.326V229.096H692.879V160.475ZM753.393 160.475H761.17V229.096H752.121V202.326L753.393 160.475Z" fill="white"/>
<path d="M56.264 269.061V337.682H47.168V269.061H56.264ZM85.013 299.931V307.377H54.2846V299.931H85.013ZM89.6788 269.061V276.508H54.2846V269.061H89.6788ZM119.323 338.624C115.773 338.624 112.552 338.027 109.662 336.833C106.802 335.608 104.336 333.896 102.262 331.696C100.22 329.497 98.6491 326.889 97.5494 323.873C96.4497 320.856 95.8999 317.557 95.8999 313.976V311.996C95.8999 307.849 96.5125 304.157 97.7379 300.921C98.9633 297.653 100.629 294.888 102.734 292.626C104.839 290.364 107.227 288.651 109.897 287.489C112.568 286.326 115.333 285.745 118.192 285.745C121.837 285.745 124.979 286.373 127.618 287.63C130.289 288.887 132.472 290.646 134.169 292.909C135.866 295.139 137.122 297.779 137.939 300.826C138.756 303.843 139.165 307.142 139.165 310.724V314.635H101.084V307.519H130.446V306.859C130.32 304.597 129.849 302.397 129.032 300.261C128.246 298.124 126.99 296.365 125.262 294.982C123.533 293.6 121.177 292.909 118.192 292.909C116.213 292.909 114.39 293.333 112.725 294.181C111.06 294.998 109.63 296.223 108.436 297.857C107.242 299.491 106.315 301.486 105.656 303.843C104.996 306.199 104.666 308.917 104.666 311.996V313.976C104.666 316.395 104.996 318.673 105.656 320.809C106.347 322.914 107.337 324.768 108.625 326.371C109.944 327.973 111.531 329.23 113.385 330.141C115.27 331.052 117.407 331.508 119.794 331.508C122.874 331.508 125.481 330.879 127.618 329.623C129.755 328.366 131.624 326.685 133.226 324.58L138.505 328.774C137.405 330.439 136.007 332.026 134.31 333.534C132.614 335.042 130.524 336.268 128.042 337.21C125.591 338.153 122.685 338.624 119.323 338.624ZM149.298 265.291H158.064V327.784L157.31 337.682H149.298V265.291ZM192.515 311.76V312.75C192.515 316.458 192.075 319.898 191.196 323.072C190.316 326.213 189.028 328.947 187.331 331.272C185.634 333.597 183.561 335.404 181.11 336.692C178.659 337.98 175.847 338.624 172.674 338.624C169.438 338.624 166.594 338.074 164.143 336.975C161.724 335.844 159.682 334.225 158.016 332.12C156.351 330.015 155.016 327.47 154.01 324.485C153.036 321.501 152.361 318.139 151.984 314.4V310.064C152.361 306.293 153.036 302.916 154.01 299.931C155.016 296.946 156.351 294.401 158.016 292.296C159.682 290.159 161.724 288.541 164.143 287.442C166.563 286.311 169.375 285.745 172.579 285.745C175.784 285.745 178.628 286.373 181.11 287.63C183.592 288.856 185.666 290.615 187.331 292.909C189.028 295.202 190.316 297.952 191.196 301.156C192.075 304.33 192.515 307.864 192.515 311.76ZM183.749 312.75V311.76C183.749 309.215 183.514 306.828 183.042 304.597C182.571 302.335 181.817 300.355 180.78 298.658C179.743 296.93 178.376 295.579 176.68 294.605C174.983 293.6 172.894 293.097 170.412 293.097C168.212 293.097 166.296 293.474 164.662 294.228C163.059 294.982 161.693 296.003 160.561 297.292C159.43 298.548 158.503 299.994 157.781 301.628C157.09 303.23 156.571 304.895 156.226 306.623V317.982C156.728 320.181 157.545 322.302 158.676 324.344C159.839 326.355 161.378 328.004 163.295 329.293C165.243 330.581 167.647 331.225 170.506 331.225C172.862 331.225 174.873 330.754 176.538 329.811C178.235 328.837 179.602 327.502 180.639 325.805C181.707 324.108 182.492 322.145 182.995 319.914C183.498 317.683 183.749 315.295 183.749 312.75ZM271.504 330.518V337.682H226.59V331.413L249.071 306.388C251.836 303.309 253.972 300.701 255.48 298.564C257.02 296.396 258.088 294.464 258.685 292.767C259.313 291.039 259.628 289.28 259.628 287.489C259.628 285.227 259.156 283.184 258.214 281.362C257.303 279.508 255.952 278.031 254.161 276.932C252.37 275.832 250.202 275.282 247.657 275.282C244.609 275.282 242.064 275.879 240.022 277.073C238.011 278.236 236.503 279.87 235.497 281.975C234.492 284.08 233.989 286.499 233.989 289.233H225.27C225.27 285.368 226.119 281.833 227.815 278.628C229.512 275.424 232.025 272.879 235.356 270.993C238.686 269.077 242.787 268.119 247.657 268.119C251.993 268.119 255.7 268.888 258.779 270.428C261.858 271.936 264.215 274.073 265.849 276.838C267.514 279.571 268.347 282.776 268.347 286.452C268.347 288.463 268.001 290.505 267.31 292.579C266.65 294.621 265.723 296.663 264.529 298.706C263.367 300.748 262 302.759 260.429 304.738C258.889 306.718 257.24 308.666 255.48 310.582L237.1 330.518H271.504ZM325.797 330.518V337.682H280.883V331.413L303.364 306.388C306.129 303.309 308.265 300.701 309.773 298.564C311.313 296.396 312.381 294.464 312.978 292.767C313.607 291.039 313.921 289.28 313.921 287.489C313.921 285.227 313.449 283.184 312.507 281.362C311.596 279.508 310.245 278.031 308.454 276.932C306.663 275.832 304.495 275.282 301.95 275.282C298.902 275.282 296.357 275.879 294.315 277.073C292.304 278.236 290.796 279.87 289.79 281.975C288.785 284.08 288.282 286.499 288.282 289.233H279.563C279.563 285.368 280.412 281.833 282.108 278.628C283.805 275.424 286.319 272.879 289.649 270.993C292.98 269.077 297.08 268.119 301.95 268.119C306.286 268.119 309.993 268.888 313.072 270.428C316.152 271.936 318.508 274.073 320.142 276.838C321.807 279.571 322.64 282.776 322.64 286.452C322.64 288.463 322.294 290.505 321.603 292.579C320.943 294.621 320.016 296.663 318.822 298.706C317.66 300.748 316.293 302.759 314.722 304.738C313.182 306.718 311.533 308.666 309.773 310.582L291.393 330.518H325.797ZM343.989 327.313V334.335C343.989 337.195 343.267 340.211 341.821 343.384C340.376 346.589 338.35 349.26 335.742 351.396L330.793 347.956C331.799 346.573 332.647 345.16 333.338 343.714C334.029 342.3 334.548 340.824 334.893 339.284C335.27 337.776 335.459 336.173 335.459 334.477V327.313H343.989ZM423.073 330.518V337.682H378.158V331.413L400.639 306.388C403.404 303.309 405.54 300.701 407.049 298.564C408.588 296.396 409.656 294.464 410.253 292.767C410.882 291.039 411.196 289.28 411.196 287.489C411.196 285.227 410.725 283.184 409.782 281.362C408.871 279.508 407.52 278.031 405.729 276.932C403.938 275.832 401.77 275.282 399.225 275.282C396.177 275.282 393.632 275.879 391.59 277.073C389.579 278.236 388.071 279.87 387.066 281.975C386.06 284.08 385.558 286.499 385.558 289.233H376.839C376.839 285.368 377.687 281.833 379.384 278.628C381.08 275.424 383.594 272.879 386.924 270.993C390.255 269.077 394.355 268.119 399.225 268.119C403.561 268.119 407.268 268.888 410.348 270.428C413.427 271.936 415.783 274.073 417.417 276.838C419.082 279.571 419.915 282.776 419.915 286.452C419.915 288.463 419.569 290.505 418.878 292.579C418.218 294.621 417.291 296.663 416.097 298.706C414.935 300.748 413.568 302.759 411.997 304.738C410.458 306.718 408.808 308.666 407.049 310.582L388.668 330.518H423.073ZM475.48 297.904V308.367C475.48 313.991 474.978 318.736 473.972 322.6C472.967 326.465 471.522 329.575 469.636 331.932C467.751 334.288 465.473 336.001 462.803 337.069C460.163 338.106 457.179 338.624 453.848 338.624C451.209 338.624 448.774 338.294 446.543 337.635C444.312 336.975 442.301 335.922 440.51 334.477C438.751 333 437.243 331.084 435.986 328.727C434.729 326.371 433.771 323.511 433.111 320.149C432.451 316.788 432.121 312.86 432.121 308.367V297.904C432.121 292.28 432.624 287.567 433.63 283.766C434.666 279.964 436.127 276.916 438.013 274.622C439.898 272.297 442.16 270.632 444.799 269.627C447.47 268.621 450.455 268.119 453.754 268.119C456.424 268.119 458.875 268.448 461.106 269.108C463.368 269.737 465.379 270.758 467.139 272.172C468.898 273.554 470.391 275.408 471.616 277.733C472.873 280.027 473.831 282.839 474.491 286.169C475.151 289.5 475.48 293.411 475.48 297.904ZM466.714 309.781V296.443C466.714 293.364 466.526 290.662 466.149 288.337C465.803 285.981 465.285 283.97 464.594 282.305C463.902 280.639 463.023 279.288 461.954 278.251C460.917 277.215 459.708 276.46 458.325 275.989C456.974 275.486 455.45 275.235 453.754 275.235C451.68 275.235 449.842 275.628 448.24 276.413C446.637 277.167 445.286 278.377 444.187 280.042C443.118 281.708 442.301 283.891 441.736 286.593C441.17 289.295 440.887 292.579 440.887 296.443V309.781C440.887 312.86 441.06 315.578 441.406 317.934C441.783 320.291 442.333 322.333 443.055 324.061C443.778 325.758 444.658 327.156 445.695 328.256C446.732 329.355 447.925 330.172 449.277 330.706C450.659 331.209 452.183 331.461 453.848 331.461C455.985 331.461 457.854 331.052 459.456 330.235C461.059 329.418 462.394 328.146 463.462 326.418C464.562 324.658 465.379 322.412 465.913 319.678C466.447 316.913 466.714 313.614 466.714 309.781ZM531.659 330.518V337.682H486.744V331.413L509.225 306.388C511.99 303.309 514.127 300.701 515.635 298.564C517.174 296.396 518.243 294.464 518.84 292.767C519.468 291.039 519.782 289.28 519.782 287.489C519.782 285.227 519.311 283.184 518.368 281.362C517.457 279.508 516.106 278.031 514.315 276.932C512.524 275.832 510.356 275.282 507.811 275.282C504.764 275.282 502.219 275.879 500.176 277.073C498.165 278.236 496.657 279.87 495.652 281.975C494.646 284.08 494.144 286.499 494.144 289.233H485.425C485.425 285.368 486.273 281.833 487.97 278.628C489.666 275.424 492.18 272.879 495.511 270.993C498.841 269.077 502.941 268.119 507.811 268.119C512.147 268.119 515.855 268.888 518.934 270.428C522.013 271.936 524.369 274.073 526.003 276.838C527.669 279.571 528.501 282.776 528.501 286.452C528.501 288.463 528.156 290.505 527.464 292.579C526.804 294.621 525.878 296.663 524.684 298.706C523.521 300.748 522.154 302.759 520.583 304.738C519.044 306.718 517.394 308.666 515.635 310.582L497.254 330.518H531.659ZM585.952 330.518V337.682H541.038V331.413L563.518 306.388C566.283 303.309 568.42 300.701 569.928 298.564C571.467 296.396 572.536 294.464 573.133 292.767C573.761 291.039 574.075 289.28 574.075 287.489C574.075 285.227 573.604 283.184 572.661 281.362C571.75 279.508 570.399 278.031 568.608 276.932C566.817 275.832 564.649 275.282 562.104 275.282C559.057 275.282 556.512 275.879 554.469 277.073C552.459 278.236 550.95 279.87 549.945 281.975C548.94 284.08 548.437 286.499 548.437 289.233H539.718C539.718 285.368 540.566 281.833 542.263 278.628C543.96 275.424 546.473 272.879 549.804 270.993C553.134 269.077 557.234 268.119 562.104 268.119C566.44 268.119 570.148 268.888 573.227 270.428C576.306 271.936 578.663 274.073 580.296 276.838C581.962 279.571 582.794 282.776 582.794 286.452C582.794 288.463 582.449 290.505 581.757 292.579C581.098 294.621 580.171 296.663 578.977 298.706C577.814 300.748 576.448 302.759 574.877 304.738C573.337 306.718 571.687 308.666 569.928 310.582L551.547 330.518H585.952Z" fill="white"/>
</svg>
