<svg width="958" height="411" viewBox="0 0 958 411" fill="none" xmlns="http://www.w3.org/2000/svg">
<path d="M86.4872 51.6468V224.141H64.6898V78.8641L20.7416 94.8881V75.2115L83.0703 51.6468H86.4872ZM262.987 206.231V224.141H150.701V208.47L206.903 145.906C213.815 138.208 219.157 131.688 222.927 126.347C226.776 120.927 229.447 116.096 230.939 111.855C232.51 107.534 233.295 103.136 233.295 98.6585C233.295 93.0029 232.117 87.8972 229.761 83.3414C227.483 78.707 224.105 75.0152 219.628 72.266C215.151 69.5167 209.731 68.1421 203.368 68.1421C195.749 68.1421 189.386 69.6346 184.281 72.6194C179.254 75.5257 175.483 79.6103 172.97 84.8731C170.456 90.1359 169.199 96.1842 169.199 103.018H147.402C147.402 93.3564 149.523 84.5196 153.764 76.5076C158.006 68.4956 164.29 62.1331 172.616 57.4202C180.942 52.6287 191.193 50.2329 203.368 50.2329C214.208 50.2329 223.477 52.1574 231.175 56.0063C238.872 59.7766 244.764 65.118 248.848 72.0303C253.011 78.8641 255.093 86.8761 255.093 96.0663C255.093 101.093 254.229 106.199 252.501 111.383C250.851 116.489 248.534 121.595 245.549 126.7C242.643 131.806 239.226 136.833 235.298 141.782C231.45 146.73 227.326 151.601 222.927 156.392L176.976 206.231H262.987ZM287.73 212.594C287.73 208.902 288.869 205.799 291.147 203.286C293.503 200.694 296.881 199.398 301.28 199.398C305.678 199.398 309.017 200.694 311.295 203.286C313.651 205.799 314.829 208.902 314.829 212.594C314.829 216.207 313.651 219.271 311.295 221.784C309.017 224.298 305.678 225.555 301.28 225.555C296.881 225.555 293.503 224.298 291.147 221.784C288.869 219.271 287.73 216.207 287.73 212.594ZM287.848 108.556C287.848 104.864 288.987 101.761 291.265 99.2476C293.621 96.6554 296.999 95.3594 301.398 95.3594C305.796 95.3594 309.135 96.6554 311.413 99.2476C313.769 101.761 314.947 104.864 314.947 108.556C314.947 112.169 313.769 115.232 311.413 117.746C309.135 120.259 305.796 121.516 301.398 121.516C296.999 121.516 293.621 120.259 291.265 117.746C288.987 115.232 287.848 112.169 287.848 108.556ZM376.569 127.643H392.122C399.741 127.643 406.025 126.386 410.973 123.873C416.001 121.281 419.732 117.785 422.167 113.386C424.68 108.909 425.937 103.882 425.937 98.305C425.937 91.7069 424.837 86.1691 422.638 81.6918C420.439 77.2145 417.14 73.8369 412.741 71.559C408.342 69.2811 402.765 68.1421 396.01 68.1421C389.883 68.1421 384.463 69.3596 379.75 71.7947C375.116 74.1511 371.463 77.5287 368.793 81.9275C366.201 86.3262 364.904 91.5105 364.904 97.4802H343.107C343.107 88.7613 345.306 80.8278 349.705 73.6798C354.104 66.5319 360.27 60.8371 368.204 56.5954C376.216 52.3538 385.484 50.2329 396.01 50.2329C406.378 50.2329 415.451 52.0788 423.227 55.7706C431.004 59.3839 437.052 64.8038 441.372 72.0303C445.692 79.1783 447.852 88.0936 447.852 98.7763C447.852 103.096 446.831 107.731 444.789 112.679C442.825 117.55 439.722 122.105 435.481 126.347C431.318 130.589 425.898 134.084 419.221 136.833C412.544 139.504 404.532 140.839 395.185 140.839H376.569V127.643ZM376.569 145.552V132.474H395.185C406.103 132.474 415.137 133.77 422.285 136.362C429.433 138.954 435.049 142.41 439.133 146.73C443.296 151.051 446.203 155.803 447.852 160.987C449.58 166.093 450.444 171.199 450.444 176.304C450.444 184.316 449.07 191.425 446.321 197.63C443.65 203.836 439.84 209.098 434.892 213.419C430.022 217.739 424.288 220.999 417.689 223.198C411.091 225.397 403.904 226.497 396.128 226.497C388.666 226.497 381.635 225.437 375.037 223.316C368.518 221.195 362.744 218.132 357.717 214.126C352.69 210.041 348.763 205.053 345.935 199.162C343.107 193.192 341.693 186.398 341.693 178.779H363.491C363.491 184.748 364.787 189.972 367.379 194.449C370.049 198.926 373.82 202.422 378.69 204.935C383.638 207.37 389.451 208.588 396.128 208.588C402.804 208.588 408.538 207.449 413.33 205.171C418.2 202.815 421.931 199.28 424.523 194.567C427.194 189.854 428.529 183.923 428.529 176.776C428.529 169.628 427.037 163.776 424.052 159.22C421.067 154.585 416.825 151.169 411.327 148.969C405.907 146.691 399.505 145.552 392.122 145.552H376.569ZM588.18 124.697V150.854C588.18 164.915 586.923 176.776 584.41 186.437C581.896 196.099 578.283 203.875 573.57 209.766C568.857 215.657 563.162 219.938 556.486 222.609C549.888 225.201 542.425 226.497 534.099 226.497C527.501 226.497 521.414 225.672 515.837 224.023C510.26 222.373 505.232 219.742 500.755 216.129C496.356 212.437 492.586 207.645 489.444 201.754C486.302 195.863 483.906 188.715 482.257 180.31C480.607 171.905 479.783 162.087 479.783 150.854V124.697C479.783 110.637 481.039 98.8548 483.553 89.3504C486.145 79.8459 489.798 72.2267 494.51 66.4926C499.223 60.68 504.879 56.5169 511.477 54.0033C518.154 51.4897 525.616 50.2329 533.864 50.2329C540.54 50.2329 546.667 51.0577 552.244 52.7072C557.9 54.2782 562.927 56.8311 567.325 60.3658C571.724 63.8219 575.455 68.4563 578.519 74.269C581.661 80.003 584.056 87.0332 585.706 95.3594C587.355 103.686 588.18 113.465 588.18 124.697ZM566.265 154.389V121.045C566.265 113.347 565.794 106.592 564.851 100.779C563.987 94.8881 562.691 89.861 560.963 85.6979C559.235 81.5347 557.036 78.1571 554.365 75.565C551.773 72.9729 548.749 71.0877 545.292 69.9095C541.915 68.6527 538.105 68.0243 533.864 68.0243C528.679 68.0243 524.084 69.0062 520.078 70.9699C516.072 72.8551 512.695 75.8792 509.945 80.0423C507.275 84.2054 505.232 89.6646 503.819 96.4198C502.405 103.175 501.698 111.383 501.698 121.045V154.389C501.698 162.087 502.13 168.881 502.994 174.773C503.936 180.664 505.311 185.769 507.118 190.09C508.924 194.331 511.124 197.827 513.716 200.576C516.308 203.325 519.293 205.367 522.67 206.703C526.126 207.96 529.936 208.588 534.099 208.588C539.441 208.588 544.114 207.567 548.12 205.524C552.126 203.482 555.465 200.301 558.135 195.981C560.884 191.582 562.927 185.966 564.262 179.132C565.597 172.22 566.265 163.972 566.265 154.389Z" fill="white"/>
<path d="M665.688 142.162L635.911 224.141H623.741L658.027 134.193H665.873L665.688 142.162ZM690.646 224.141L660.807 142.162L660.622 134.193H668.468L702.878 224.141H690.646ZM689.101 190.843V200.603H638.567V190.843H689.101ZM718.693 134.193H730.245L759.713 207.523L789.119 134.193H800.733L764.161 224.141H755.141L718.693 134.193ZM714.924 134.193H725.117L726.785 189.051V224.141H714.924V134.193ZM794.246 134.193H804.439V224.141H792.578V189.051L794.246 134.193Z" fill="white"/>
<path d="M72.5237 269.061V337.682H63.5691V269.061H72.5237ZM94.5802 269.061V276.508H41.5596V269.061H94.5802ZM130.116 325.899V286.688H138.882V337.682H130.54L130.116 325.899ZM131.765 315.154L135.394 315.06C135.394 318.453 135.033 321.595 134.31 324.485C133.619 327.345 132.488 329.827 130.917 331.932C129.346 334.037 127.288 335.686 124.743 336.88C122.198 338.043 119.103 338.624 115.459 338.624C112.976 338.624 110.699 338.263 108.625 337.54C106.583 336.818 104.823 335.702 103.346 334.194C101.87 332.686 100.723 330.722 99.9059 328.303C99.1204 325.884 98.7276 322.977 98.7276 319.584V286.688H107.447V319.678C107.447 321.972 107.698 323.873 108.201 325.381C108.735 326.858 109.442 328.036 110.321 328.916C111.233 329.764 112.238 330.361 113.338 330.706C114.469 331.052 115.631 331.225 116.825 331.225C120.533 331.225 123.471 330.518 125.639 329.104C127.807 327.659 129.362 325.726 130.304 323.307C131.278 320.856 131.765 318.139 131.765 315.154ZM173.334 338.624C169.783 338.624 166.563 338.027 163.672 336.833C160.813 335.608 158.346 333.896 156.273 331.696C154.23 329.497 152.659 326.889 151.56 323.873C150.46 320.856 149.91 317.557 149.91 313.976V311.996C149.91 307.849 150.523 304.157 151.748 300.921C152.974 297.653 154.639 294.888 156.744 292.626C158.849 290.364 161.237 288.651 163.908 287.489C166.578 286.326 169.343 285.745 172.202 285.745C175.847 285.745 178.989 286.373 181.628 287.63C184.299 288.887 186.483 290.646 188.179 292.909C189.876 295.139 191.133 297.779 191.95 300.826C192.767 303.843 193.175 307.142 193.175 310.724V314.635H155.094V307.519H184.456V306.859C184.33 304.597 183.859 302.397 183.042 300.261C182.257 298.124 181 296.365 179.272 294.982C177.544 293.6 175.187 292.909 172.202 292.909C170.223 292.909 168.401 293.333 166.735 294.181C165.07 294.998 163.641 296.223 162.447 297.857C161.253 299.491 160.326 301.486 159.666 303.843C159.006 306.199 158.676 308.917 158.676 311.996V313.976C158.676 316.395 159.006 318.673 159.666 320.809C160.357 322.914 161.347 324.768 162.635 326.371C163.955 327.973 165.541 329.23 167.395 330.141C169.28 331.052 171.417 331.508 173.805 331.508C176.884 331.508 179.492 330.879 181.628 329.623C183.765 328.366 185.634 326.685 187.237 324.58L192.515 328.774C191.416 330.439 190.017 332.026 188.321 333.534C186.624 335.042 184.535 336.268 182.053 337.21C179.602 338.153 176.695 338.624 173.334 338.624ZM233.047 324.155C233.047 322.899 232.764 321.736 232.198 320.668C231.664 319.568 230.549 318.579 228.852 317.699C227.187 316.788 224.673 316.002 221.311 315.342C218.484 314.745 215.923 314.038 213.629 313.221C211.367 312.405 209.435 311.415 207.832 310.252C206.261 309.09 205.052 307.723 204.203 306.152C203.355 304.581 202.931 302.743 202.931 300.638C202.931 298.627 203.371 296.726 204.25 294.935C205.162 293.144 206.434 291.558 208.068 290.175C209.733 288.793 211.728 287.709 214.053 286.923C216.378 286.138 218.971 285.745 221.83 285.745C225.914 285.745 229.402 286.468 232.293 287.913C235.183 289.358 237.398 291.291 238.938 293.71C240.477 296.098 241.247 298.753 241.247 301.675H232.528C232.528 300.261 232.104 298.894 231.256 297.574C230.439 296.223 229.229 295.108 227.627 294.228C226.056 293.349 224.123 292.909 221.83 292.909C219.41 292.909 217.447 293.286 215.939 294.04C214.462 294.762 213.378 295.689 212.687 296.82C212.027 297.952 211.697 299.145 211.697 300.402C211.697 301.345 211.854 302.193 212.168 302.947C212.514 303.67 213.111 304.345 213.959 304.974C214.807 305.571 216.001 306.136 217.541 306.67C219.081 307.205 221.044 307.739 223.432 308.273C227.611 309.215 231.051 310.347 233.754 311.666C236.456 312.986 238.466 314.604 239.786 316.521C241.106 318.437 241.766 320.762 241.766 323.496C241.766 325.726 241.294 327.769 240.352 329.623C239.44 331.476 238.105 333.079 236.346 334.43C234.618 335.749 232.544 336.786 230.125 337.54C227.737 338.263 225.05 338.624 222.065 338.624C217.572 338.624 213.771 337.823 210.66 336.221C207.55 334.618 205.193 332.545 203.591 330C201.988 327.455 201.187 324.768 201.187 321.94H209.953C210.079 324.328 210.77 326.229 212.027 327.643C213.284 329.026 214.823 330.015 216.646 330.612C218.468 331.178 220.275 331.461 222.065 331.461C224.453 331.461 226.448 331.146 228.051 330.518C229.685 329.89 230.926 329.026 231.774 327.926C232.622 326.826 233.047 325.569 233.047 324.155ZM287.575 269.061V337.682H278.479V269.061H287.575ZM316.324 299.931V307.377H285.596V299.931H316.324ZM320.99 269.061V276.508H285.596V269.061H320.99ZM350.635 338.624C347.084 338.624 343.864 338.027 340.973 336.833C338.114 335.608 335.647 333.896 333.574 331.696C331.531 329.497 329.96 326.889 328.861 323.873C327.761 320.856 327.211 317.557 327.211 313.976V311.996C327.211 307.849 327.824 304.157 329.049 300.921C330.275 297.653 331.94 294.888 334.045 292.626C336.15 290.364 338.538 288.651 341.209 287.489C343.879 286.326 346.644 285.745 349.503 285.745C353.148 285.745 356.29 286.373 358.929 287.63C361.6 288.887 363.784 290.646 365.48 292.909C367.177 295.139 368.434 297.779 369.251 300.826C370.068 303.843 370.476 307.142 370.476 310.724V314.635H332.395V307.519H361.757V306.859C361.631 304.597 361.16 302.397 360.343 300.261C359.558 298.124 358.301 296.365 356.573 294.982C354.845 293.6 352.488 292.909 349.503 292.909C347.524 292.909 345.702 293.333 344.036 294.181C342.371 294.998 340.942 296.223 339.748 297.857C338.554 299.491 337.627 301.486 336.967 303.843C336.307 306.199 335.977 308.917 335.977 311.996V313.976C335.977 316.395 336.307 318.673 336.967 320.809C337.658 322.914 338.648 324.768 339.936 326.371C341.256 327.973 342.842 329.23 344.696 330.141C346.581 331.052 348.718 331.508 351.106 331.508C354.185 331.508 356.793 330.879 358.929 329.623C361.066 328.366 362.935 326.685 364.538 324.58L369.816 328.774C368.717 330.439 367.318 332.026 365.622 333.534C363.925 335.042 361.836 336.268 359.354 337.21C356.903 338.153 353.996 338.624 350.635 338.624ZM380.609 265.291H389.375V327.784L388.621 337.682H380.609V265.291ZM423.827 311.76V312.75C423.827 316.458 423.387 319.898 422.507 323.072C421.627 326.213 420.339 328.947 418.642 331.272C416.946 333.597 414.872 335.404 412.421 336.692C409.971 337.98 407.158 338.624 403.985 338.624C400.749 338.624 397.905 338.074 395.455 336.975C393.035 335.844 390.993 334.225 389.328 332.12C387.663 330.015 386.327 327.47 385.322 324.485C384.348 321.501 383.672 318.139 383.295 314.4V310.064C383.672 306.293 384.348 302.916 385.322 299.931C386.327 296.946 387.663 294.401 389.328 292.296C390.993 290.159 393.035 288.541 395.455 287.442C397.874 286.311 400.686 285.745 403.891 285.745C407.096 285.745 409.939 286.373 412.421 287.63C414.903 288.856 416.977 290.615 418.642 292.909C420.339 295.202 421.627 297.952 422.507 301.156C423.387 304.33 423.827 307.864 423.827 311.76ZM415.061 312.75V311.76C415.061 309.215 414.825 306.828 414.354 304.597C413.882 302.335 413.128 300.355 412.091 298.658C411.055 296.93 409.688 295.579 407.991 294.605C406.294 293.6 404.205 293.097 401.723 293.097C399.524 293.097 397.607 293.474 395.973 294.228C394.371 294.982 393.004 296.003 391.873 297.292C390.742 298.548 389.815 299.994 389.092 301.628C388.401 303.23 387.883 304.895 387.537 306.623V317.982C388.04 320.181 388.857 322.302 389.988 324.344C391.15 326.355 392.69 328.004 394.606 329.293C396.554 330.581 398.958 331.225 401.817 331.225C404.174 331.225 406.184 330.754 407.85 329.811C409.546 328.837 410.913 327.502 411.95 325.805C413.018 324.108 413.804 322.145 414.306 319.914C414.809 317.683 415.061 315.295 415.061 312.75ZM502.816 330.518V337.682H457.901V331.413L480.382 306.388C483.147 303.309 485.283 300.701 486.792 298.564C488.331 296.396 489.399 294.464 489.996 292.767C490.625 291.039 490.939 289.28 490.939 287.489C490.939 285.227 490.468 283.184 489.525 281.362C488.614 279.508 487.263 278.031 485.472 276.932C483.681 275.832 481.513 275.282 478.968 275.282C475.92 275.282 473.375 275.879 471.333 277.073C469.322 278.236 467.814 279.87 466.809 281.975C465.803 284.08 465.301 286.499 465.301 289.233H456.582C456.582 285.368 457.43 281.833 459.127 278.628C460.823 275.424 463.337 272.879 466.667 270.993C469.998 269.077 474.098 268.119 478.968 268.119C483.304 268.119 487.012 268.888 490.091 270.428C493.17 271.936 495.526 274.073 497.16 276.838C498.825 279.571 499.658 282.776 499.658 286.452C499.658 288.463 499.312 290.505 498.621 292.579C497.961 294.621 497.034 296.663 495.84 298.706C494.678 300.748 493.311 302.759 491.74 304.738C490.201 306.718 488.551 308.666 486.792 310.582L468.411 330.518H502.816ZM557.109 330.518V337.682H512.194V331.413L534.675 306.388C537.44 303.309 539.577 300.701 541.085 298.564C542.624 296.396 543.693 294.464 544.29 292.767C544.918 291.039 545.232 289.28 545.232 287.489C545.232 285.227 544.761 283.184 543.818 281.362C542.907 279.508 541.556 278.031 539.765 276.932C537.974 275.832 535.806 275.282 533.261 275.282C530.214 275.282 527.669 275.879 525.626 277.073C523.615 278.236 522.107 279.87 521.102 281.975C520.096 284.08 519.594 286.499 519.594 289.233H510.875C510.875 285.368 511.723 281.833 513.42 278.628C515.116 275.424 517.63 272.879 520.96 270.993C524.291 269.077 528.391 268.119 533.261 268.119C537.597 268.119 541.305 268.888 544.384 270.428C547.463 271.936 549.819 274.073 551.453 276.838C553.118 279.571 553.951 282.776 553.951 286.452C553.951 288.463 553.605 290.505 552.914 292.579C552.254 294.621 551.328 296.663 550.134 298.706C548.971 300.748 547.604 302.759 546.033 304.738C544.494 306.718 542.844 308.666 541.085 310.582L522.704 330.518H557.109ZM575.301 327.313V334.335C575.301 337.195 574.578 340.211 573.133 343.384C571.687 346.589 569.661 349.26 567.053 351.396L562.104 347.956C563.11 346.573 563.958 345.16 564.649 343.714C565.341 342.3 565.859 340.824 566.205 339.284C566.582 337.776 566.77 336.173 566.77 334.477V327.313H575.301ZM654.384 330.518V337.682H609.47V331.413L631.95 306.388C634.715 303.309 636.852 300.701 638.36 298.564C639.899 296.396 640.968 294.464 641.565 292.767C642.193 291.039 642.507 289.28 642.507 287.489C642.507 285.227 642.036 283.184 641.093 281.362C640.182 279.508 638.831 278.031 637.04 276.932C635.249 275.832 633.081 275.282 630.536 275.282C627.489 275.282 624.944 275.879 622.901 277.073C620.891 278.236 619.382 279.87 618.377 281.975C617.372 284.08 616.869 286.499 616.869 289.233H608.15C608.15 285.368 608.998 281.833 610.695 278.628C612.392 275.424 614.905 272.879 618.236 270.993C621.566 269.077 625.666 268.119 630.536 268.119C634.872 268.119 638.58 268.888 641.659 270.428C644.738 271.936 647.095 274.073 648.728 276.838C650.394 279.571 651.226 282.776 651.226 286.452C651.226 288.463 650.881 290.505 650.189 292.579C649.53 294.621 648.603 296.663 647.409 298.706C646.246 300.748 644.879 302.759 643.308 304.738C641.769 306.718 640.119 308.666 638.36 310.582L619.979 330.518H654.384ZM706.792 297.904V308.367C706.792 313.991 706.289 318.736 705.284 322.6C704.278 326.465 702.833 329.575 700.948 331.932C699.063 334.288 696.785 336.001 694.114 337.069C691.475 338.106 688.49 338.624 685.159 338.624C682.52 338.624 680.085 338.294 677.854 337.635C675.624 336.975 673.613 335.922 671.822 334.477C670.062 333 668.554 331.084 667.297 328.727C666.041 326.371 665.082 323.511 664.422 320.149C663.763 316.788 663.433 312.86 663.433 308.367V297.904C663.433 292.28 663.935 287.567 664.941 283.766C665.978 279.964 667.439 276.916 669.324 274.622C671.209 272.297 673.471 270.632 676.111 269.627C678.781 268.621 681.766 268.119 685.065 268.119C687.736 268.119 690.187 268.448 692.417 269.108C694.68 269.737 696.69 270.758 698.45 272.172C700.209 273.554 701.702 275.408 702.927 277.733C704.184 280.027 705.142 282.839 705.802 286.169C706.462 289.5 706.792 293.411 706.792 297.904ZM698.026 309.781V296.443C698.026 293.364 697.837 290.662 697.46 288.337C697.115 285.981 696.596 283.97 695.905 282.305C695.214 280.639 694.334 279.288 693.266 278.251C692.229 277.215 691.019 276.46 689.637 275.989C688.286 275.486 686.762 275.235 685.065 275.235C682.991 275.235 681.153 275.628 679.551 276.413C677.949 277.167 676.598 278.377 675.498 280.042C674.43 281.708 673.613 283.891 673.047 286.593C672.482 289.295 672.199 292.579 672.199 296.443V309.781C672.199 312.86 672.372 315.578 672.717 317.934C673.094 320.291 673.644 322.333 674.367 324.061C675.089 325.758 675.969 327.156 677.006 328.256C678.043 329.355 679.237 330.172 680.588 330.706C681.97 331.209 683.494 331.461 685.159 331.461C687.296 331.461 689.165 331.052 690.768 330.235C692.37 329.418 693.706 328.146 694.774 326.418C695.874 324.658 696.69 322.412 697.225 319.678C697.759 316.913 698.026 313.614 698.026 309.781ZM762.97 330.518V337.682H718.056V331.413L740.537 306.388C743.302 303.309 745.438 300.701 746.946 298.564C748.486 296.396 749.554 294.464 750.151 292.767C750.779 291.039 751.094 289.28 751.094 287.489C751.094 285.227 750.622 283.184 749.68 281.362C748.769 279.508 747.417 278.031 745.627 276.932C743.836 275.832 741.668 275.282 739.123 275.282C736.075 275.282 733.53 275.879 731.488 277.073C729.477 278.236 727.969 279.87 726.963 281.975C725.958 284.08 725.455 286.499 725.455 289.233H716.736C716.736 285.368 717.585 281.833 719.281 278.628C720.978 275.424 723.491 272.879 726.822 270.993C730.152 269.077 734.253 268.119 739.123 268.119C743.459 268.119 747.166 268.888 750.245 270.428C753.324 271.936 755.681 274.073 757.315 276.838C758.98 279.571 759.813 282.776 759.813 286.452C759.813 288.463 759.467 290.505 758.776 292.579C758.116 294.621 757.189 296.663 755.995 298.706C754.833 300.748 753.466 302.759 751.895 304.738C750.355 306.718 748.706 308.666 746.946 310.582L728.566 330.518H762.97ZM817.263 330.518V337.682H772.349V331.413L794.83 306.388C797.595 303.309 799.731 300.701 801.239 298.564C802.779 296.396 803.847 294.464 804.444 292.767C805.072 291.039 805.387 289.28 805.387 287.489C805.387 285.227 804.915 283.184 803.973 281.362C803.062 279.508 801.711 278.031 799.92 276.932C798.129 275.832 795.961 275.282 793.416 275.282C790.368 275.282 787.823 275.879 785.781 277.073C783.77 278.236 782.262 279.87 781.256 281.975C780.251 284.08 779.748 286.499 779.748 289.233H771.029C771.029 285.368 771.878 281.833 773.574 278.628C775.271 275.424 777.785 272.879 781.115 270.993C784.445 269.077 788.546 268.119 793.416 268.119C797.752 268.119 801.459 268.888 804.538 270.428C807.617 271.936 809.974 274.073 811.608 276.838C813.273 279.571 814.106 282.776 814.106 286.452C814.106 288.463 813.76 290.505 813.069 292.579C812.409 294.621 811.482 296.663 810.288 298.706C809.126 300.748 807.759 302.759 806.188 304.738C804.648 306.718 802.999 308.666 801.239 310.582L782.859 330.518H817.263Z" fill="white"/>
</svg>
