<svg width="1154" height="683" viewBox="0 0 1154 683" fill="none" xmlns="http://www.w3.org/2000/svg">
<g filter="url(#filter0_d_146_3035)">
<g clip-path="url(#clip0_146_3035)">
<path d="M28 28H1110V638.884H28V28Z" fill="#FFF87B"/>
<rect width="1081" height="99" transform="translate(28 27.9414)" fill="#FFF87B"/>
<line x1="914.006" y1="76.4121" x2="953.949" y2="76.4121" stroke="#FD0404" stroke-width="3"/>
<rect x="975.031" y="56.4414" width="42.9428" height="42.9428" stroke="#FD0404" stroke-width="3"/>
<line x1="1038" y1="96.8241" x2="1077.94" y2="56.8813" stroke="#FD0404" stroke-width="3"/>
<line x1="1040.12" y1="56.8807" x2="1080.06" y2="96.8235" stroke="#FD0404" stroke-width="3"/>
<path d="M151.36 162.453H163.128C165.797 162.453 168.051 162.86 169.891 163.674C171.746 164.488 173.154 165.692 174.114 167.287C175.091 168.866 175.579 170.811 175.579 173.122C175.579 174.75 175.245 176.239 174.578 177.59C173.927 178.924 172.983 180.064 171.746 181.008C170.525 181.936 169.061 182.627 167.352 183.083L166.033 183.596H154.974L154.925 179.763H163.274C164.967 179.763 166.375 179.47 167.498 178.884C168.621 178.282 169.467 177.476 170.037 176.467C170.607 175.458 170.892 174.343 170.892 173.122C170.892 171.755 170.623 170.559 170.086 169.533C169.549 168.508 168.702 167.718 167.547 167.165C166.408 166.595 164.935 166.311 163.128 166.311H156.072V198H151.36V162.453ZM172.137 198L163.494 181.887L168.401 181.862L177.166 197.707V198H172.137ZM192.449 198.488C190.61 198.488 188.942 198.179 187.444 197.561C185.963 196.926 184.686 196.039 183.611 194.899C182.553 193.76 181.74 192.409 181.17 190.847C180.6 189.284 180.315 187.575 180.315 185.72V184.694C180.315 182.546 180.633 180.633 181.268 178.957C181.902 177.264 182.765 175.832 183.855 174.66C184.946 173.488 186.183 172.601 187.566 171.999C188.95 171.397 190.382 171.096 191.863 171.096C193.751 171.096 195.379 171.421 196.746 172.072C198.13 172.723 199.261 173.635 200.14 174.807C201.019 175.962 201.67 177.329 202.093 178.908C202.516 180.471 202.728 182.18 202.728 184.035V186.062H183.001V182.375H198.211V182.033C198.146 180.861 197.902 179.722 197.479 178.615C197.072 177.508 196.421 176.597 195.525 175.881C194.63 175.165 193.41 174.807 191.863 174.807C190.838 174.807 189.894 175.026 189.031 175.466C188.169 175.889 187.428 176.524 186.81 177.37C186.191 178.216 185.711 179.25 185.369 180.471C185.027 181.691 184.856 183.099 184.856 184.694V185.72C184.856 186.973 185.027 188.153 185.369 189.26C185.727 190.35 186.24 191.311 186.907 192.141C187.591 192.971 188.413 193.622 189.373 194.094C190.35 194.566 191.456 194.802 192.693 194.802C194.288 194.802 195.639 194.476 196.746 193.825C197.853 193.174 198.821 192.303 199.651 191.213L202.386 193.386C201.816 194.248 201.092 195.07 200.213 195.852C199.334 196.633 198.252 197.268 196.966 197.756C195.696 198.244 194.191 198.488 192.449 198.488ZM212.493 176.833V198H207.952V171.584H212.249L212.493 176.833ZM211.565 183.791L209.466 183.718C209.482 181.911 209.718 180.243 210.174 178.713C210.63 177.167 211.305 175.824 212.2 174.685C213.095 173.545 214.21 172.666 215.545 172.048C216.88 171.413 218.426 171.096 220.184 171.096C221.421 171.096 222.56 171.275 223.602 171.633C224.643 171.975 225.547 172.52 226.312 173.269C227.076 174.017 227.671 174.978 228.094 176.149C228.517 177.321 228.729 178.737 228.729 180.397V198H224.212V180.617C224.212 179.234 223.976 178.127 223.504 177.297C223.048 176.467 222.397 175.865 221.551 175.49C220.704 175.1 219.712 174.904 218.572 174.904C217.238 174.904 216.123 175.14 215.228 175.612C214.332 176.084 213.616 176.735 213.079 177.565C212.542 178.396 212.151 179.348 211.907 180.422C211.679 181.48 211.565 182.603 211.565 183.791ZM228.68 181.301L225.652 182.229C225.669 180.78 225.905 179.388 226.36 178.054C226.832 176.719 227.508 175.531 228.387 174.489C229.282 173.448 230.381 172.626 231.683 172.023C232.985 171.405 234.474 171.096 236.15 171.096C237.566 171.096 238.82 171.283 239.91 171.657C241.017 172.032 241.945 172.609 242.693 173.391C243.458 174.156 244.036 175.14 244.427 176.345C244.817 177.549 245.013 178.981 245.013 180.642V198H240.472V180.593C240.472 179.112 240.236 177.964 239.764 177.15C239.308 176.32 238.657 175.743 237.811 175.417C236.98 175.075 235.988 174.904 234.832 174.904C233.839 174.904 232.96 175.075 232.195 175.417C231.43 175.759 230.787 176.231 230.267 176.833C229.746 177.419 229.347 178.094 229.07 178.859C228.81 179.624 228.68 180.438 228.68 181.301ZM256.756 171.584V198H252.215V171.584H256.756ZM251.873 164.577C251.873 163.845 252.093 163.226 252.532 162.722C252.988 162.217 253.655 161.965 254.534 161.965C255.397 161.965 256.056 162.217 256.512 162.722C256.984 163.226 257.22 163.845 257.22 164.577C257.22 165.277 256.984 165.879 256.512 166.384C256.056 166.872 255.397 167.116 254.534 167.116C253.655 167.116 252.988 166.872 252.532 166.384C252.093 165.879 251.873 165.277 251.873 164.577ZM268.523 177.224V198H264.007V171.584H268.279L268.523 177.224ZM267.449 183.791L265.569 183.718C265.586 181.911 265.854 180.243 266.375 178.713C266.896 177.167 267.628 175.824 268.572 174.685C269.516 173.545 270.639 172.666 271.941 172.048C273.26 171.413 274.716 171.096 276.312 171.096C277.614 171.096 278.785 171.275 279.827 171.633C280.869 171.975 281.756 172.528 282.488 173.293C283.237 174.058 283.807 175.051 284.197 176.271C284.588 177.476 284.783 178.949 284.783 180.69V198H280.242V180.642C280.242 179.258 280.039 178.151 279.632 177.321C279.225 176.475 278.631 175.865 277.85 175.49C277.068 175.1 276.108 174.904 274.969 174.904C273.846 174.904 272.82 175.14 271.893 175.612C270.981 176.084 270.192 176.735 269.524 177.565C268.873 178.396 268.361 179.348 267.986 180.422C267.628 181.48 267.449 182.603 267.449 183.791ZM308.294 192.873V160.5H312.835V198H308.685L308.294 192.873ZM290.521 185.085V184.572C290.521 182.554 290.765 180.723 291.253 179.079C291.757 177.419 292.465 175.995 293.377 174.807C294.305 173.618 295.403 172.707 296.673 172.072C297.959 171.421 299.391 171.096 300.97 171.096C302.63 171.096 304.078 171.389 305.315 171.975C306.569 172.544 307.627 173.382 308.489 174.489C309.368 175.58 310.06 176.898 310.564 178.444C311.069 179.991 311.419 181.74 311.614 183.693V185.939C311.435 187.876 311.085 189.618 310.564 191.164C310.06 192.71 309.368 194.029 308.489 195.119C307.627 196.21 306.569 197.048 305.315 197.634C304.062 198.203 302.597 198.488 300.921 198.488C299.375 198.488 297.959 198.155 296.673 197.487C295.403 196.82 294.305 195.884 293.377 194.68C292.465 193.475 291.757 192.059 291.253 190.432C290.765 188.788 290.521 187.006 290.521 185.085ZM295.062 184.572V185.085C295.062 186.403 295.192 187.64 295.452 188.796C295.729 189.951 296.152 190.969 296.722 191.848C297.291 192.727 298.016 193.418 298.895 193.923C299.773 194.411 300.823 194.655 302.044 194.655C303.541 194.655 304.77 194.338 305.73 193.703C306.707 193.068 307.488 192.23 308.074 191.188C308.66 190.147 309.116 189.016 309.441 187.795V181.911C309.246 181.016 308.961 180.153 308.587 179.323C308.229 178.477 307.757 177.728 307.171 177.077C306.601 176.41 305.893 175.881 305.047 175.49C304.217 175.1 303.232 174.904 302.093 174.904C300.856 174.904 299.79 175.165 298.895 175.686C298.016 176.19 297.291 176.89 296.722 177.785C296.152 178.664 295.729 179.689 295.452 180.861C295.192 182.017 295.062 183.254 295.062 184.572ZM330.828 198.488C328.989 198.488 327.321 198.179 325.823 197.561C324.342 196.926 323.064 196.039 321.99 194.899C320.932 193.76 320.118 192.409 319.549 190.847C318.979 189.284 318.694 187.575 318.694 185.72V184.694C318.694 182.546 319.012 180.633 319.646 178.957C320.281 177.264 321.144 175.832 322.234 174.66C323.325 173.488 324.562 172.601 325.945 171.999C327.329 171.397 328.761 171.096 330.242 171.096C332.13 171.096 333.758 171.421 335.125 172.072C336.508 172.723 337.64 173.635 338.519 174.807C339.397 175.962 340.049 177.329 340.472 178.908C340.895 180.471 341.106 182.18 341.106 184.035V186.062H321.38V182.375H336.59V182.033C336.525 180.861 336.281 179.722 335.857 178.615C335.451 177.508 334.799 176.597 333.904 175.881C333.009 175.165 331.788 174.807 330.242 174.807C329.217 174.807 328.273 175.026 327.41 175.466C326.548 175.889 325.807 176.524 325.188 177.37C324.57 178.216 324.09 179.25 323.748 180.471C323.406 181.691 323.235 183.099 323.235 184.694V185.72C323.235 186.973 323.406 188.153 323.748 189.26C324.106 190.35 324.619 191.311 325.286 192.141C325.97 192.971 326.792 193.622 327.752 194.094C328.729 194.566 329.835 194.802 331.072 194.802C332.667 194.802 334.018 194.476 335.125 193.825C336.232 193.174 337.2 192.303 338.03 191.213L340.765 193.386C340.195 194.248 339.471 195.07 338.592 195.852C337.713 196.633 336.631 197.268 335.345 197.756C334.075 198.244 332.57 198.488 330.828 198.488ZM350.896 175.734V198H346.38V171.584H350.774L350.896 175.734ZM359.148 171.438L359.124 175.637C358.75 175.555 358.392 175.507 358.05 175.49C357.724 175.458 357.35 175.441 356.927 175.441C355.885 175.441 354.965 175.604 354.168 175.93C353.37 176.255 352.695 176.711 352.142 177.297C351.588 177.883 351.149 178.583 350.823 179.396C350.514 180.194 350.311 181.073 350.213 182.033L348.943 182.766C348.943 181.171 349.098 179.673 349.407 178.273C349.733 176.874 350.229 175.637 350.896 174.562C351.564 173.472 352.41 172.626 353.436 172.023C354.477 171.405 355.714 171.096 357.146 171.096C357.472 171.096 357.846 171.136 358.27 171.218C358.693 171.283 358.986 171.356 359.148 171.438Z" fill="#FD0404"/>
<path d="M162.581 283.195V332.961H152.361V283.195H162.581ZM211.629 306.95V326.672C210.854 327.606 209.658 328.62 208.04 329.714C206.422 330.785 204.337 331.708 201.785 332.482C199.233 333.257 196.146 333.645 192.522 333.645C189.31 333.645 186.382 333.12 183.738 332.072C181.095 331.001 178.816 329.44 176.902 327.39C175.011 325.339 173.553 322.832 172.527 319.87C171.502 316.885 170.989 313.479 170.989 309.65V306.54C170.989 302.712 171.479 299.305 172.459 296.32C173.462 293.335 174.886 290.817 176.731 288.767C178.577 286.716 180.776 285.155 183.328 284.084C185.88 283.013 188.717 282.478 191.839 282.478C196.168 282.478 199.723 283.184 202.503 284.597C205.283 285.987 207.402 287.924 208.86 290.407C210.341 292.868 211.253 295.694 211.595 298.884H201.648C201.398 297.198 200.919 295.728 200.213 294.475C199.507 293.221 198.493 292.242 197.171 291.535C195.872 290.829 194.186 290.476 192.112 290.476C190.403 290.476 188.877 290.829 187.532 291.535C186.211 292.219 185.094 293.233 184.183 294.577C183.271 295.922 182.576 297.585 182.098 299.567C181.619 301.55 181.38 303.851 181.38 306.472V309.65C181.38 312.248 181.631 314.549 182.132 316.555C182.633 318.537 183.374 320.212 184.354 321.579C185.356 322.924 186.587 323.938 188.045 324.621C189.503 325.305 191.201 325.646 193.138 325.646C194.756 325.646 196.1 325.51 197.171 325.236C198.265 324.963 199.142 324.632 199.803 324.245C200.486 323.835 201.01 323.448 201.375 323.083V314.265H192.01V306.95H211.629ZM249.329 325.065L259.241 283.195H264.778L266.043 290.168L255.481 332.961H249.534L249.329 325.065ZM244.236 283.195L252.439 325.065L251.756 332.961H245.125L234.085 283.195H244.236ZM274.759 324.895L282.859 283.195H293.011L282.005 332.961H275.374L274.759 324.895ZM267.889 283.195L277.869 325.236L277.596 332.961H271.648L261.019 290.134L262.386 283.195H267.889ZM313.895 333.645C311.023 333.645 308.449 333.189 306.17 332.277C303.891 331.343 301.954 330.056 300.359 328.415C298.787 326.774 297.579 324.872 296.736 322.707C295.893 320.52 295.472 318.195 295.472 315.734V314.367C295.472 311.564 295.87 309.001 296.668 306.677C297.465 304.353 298.605 302.336 300.086 300.627C301.59 298.918 303.413 297.608 305.555 296.696C307.697 295.762 310.112 295.295 312.801 295.295C315.421 295.295 317.745 295.728 319.773 296.594C321.801 297.46 323.499 298.69 324.866 300.285C326.256 301.88 327.304 303.794 328.011 306.027C328.717 308.238 329.07 310.699 329.07 313.41V317.512H299.676V310.949H319.397V310.197C319.397 308.83 319.147 307.611 318.646 306.54C318.167 305.446 317.438 304.58 316.458 303.942C315.478 303.304 314.225 302.985 312.698 302.985C311.399 302.985 310.283 303.27 309.349 303.84C308.414 304.41 307.651 305.207 307.059 306.232C306.489 307.258 306.056 308.465 305.76 309.855C305.486 311.223 305.35 312.727 305.35 314.367V315.734C305.35 317.215 305.555 318.583 305.965 319.836C306.398 321.089 307.002 322.172 307.776 323.083C308.574 323.994 309.531 324.701 310.647 325.202C311.787 325.703 313.074 325.954 314.51 325.954C316.287 325.954 317.939 325.612 319.466 324.929C321.015 324.222 322.348 323.163 323.465 321.75L328.25 326.945C327.475 328.062 326.416 329.133 325.071 330.158C323.75 331.184 322.155 332.027 320.286 332.688C318.418 333.326 316.287 333.645 313.895 333.645ZM356.517 324.895V280.461H366.429V332.961H357.508L356.517 324.895ZM333.138 314.914V314.196C333.138 311.371 333.457 308.807 334.095 306.506C334.733 304.182 335.667 302.188 336.897 300.524C338.128 298.861 339.643 297.574 341.443 296.662C343.243 295.751 345.294 295.295 347.596 295.295C349.76 295.295 351.652 295.751 353.27 296.662C354.91 297.574 356.3 298.872 357.439 300.559C358.602 302.222 359.536 304.193 360.242 306.472C360.949 308.728 361.461 311.2 361.78 313.889V315.461C361.461 318.036 360.949 320.428 360.242 322.639C359.536 324.849 358.602 326.786 357.439 328.449C356.3 330.09 354.91 331.366 353.27 332.277C351.629 333.189 349.715 333.645 347.527 333.645C345.226 333.645 343.175 333.177 341.375 332.243C339.598 331.309 338.094 329.999 336.863 328.312C335.656 326.626 334.733 324.644 334.095 322.365C333.457 320.087 333.138 317.603 333.138 314.914ZM342.981 314.196V314.914C342.981 316.441 343.095 317.865 343.323 319.187C343.574 320.508 343.973 321.682 344.52 322.707C345.089 323.71 345.818 324.496 346.707 325.065C347.618 325.612 348.724 325.886 350.022 325.886C351.709 325.886 353.099 325.51 354.192 324.758C355.286 323.983 356.118 322.924 356.688 321.579C357.28 320.235 357.622 318.685 357.713 316.931V312.453C357.645 311.018 357.439 309.73 357.098 308.591C356.779 307.429 356.3 306.438 355.662 305.617C355.047 304.797 354.272 304.159 353.338 303.703C352.426 303.247 351.344 303.02 350.091 303.02C348.815 303.02 347.721 303.316 346.81 303.908C345.898 304.478 345.158 305.264 344.588 306.267C344.041 307.269 343.631 308.454 343.357 309.821C343.107 311.166 342.981 312.624 342.981 314.196ZM383.758 303.874V332.961H373.914V295.979H383.143L383.758 303.874ZM382.322 313.171H379.656C379.656 310.437 380.009 307.976 380.716 305.788C381.422 303.578 382.413 301.698 383.689 300.148C384.965 298.576 386.481 297.38 388.235 296.56C390.013 295.716 391.995 295.295 394.183 295.295C395.914 295.295 397.498 295.546 398.934 296.047C400.369 296.548 401.6 297.346 402.625 298.439C403.673 299.533 404.471 300.98 405.018 302.78C405.587 304.58 405.872 306.779 405.872 309.377V332.961H395.96V309.343C395.96 307.702 395.732 306.426 395.276 305.515C394.821 304.603 394.148 303.965 393.26 303.601C392.394 303.213 391.323 303.02 390.047 303.02C388.725 303.02 387.575 303.282 386.595 303.806C385.638 304.33 384.84 305.059 384.202 305.993C383.587 306.905 383.12 307.976 382.801 309.206C382.482 310.437 382.322 311.758 382.322 313.171ZM430.379 333.645C427.508 333.645 424.933 333.189 422.654 332.277C420.376 331.343 418.439 330.056 416.844 328.415C415.271 326.774 414.064 324.872 413.221 322.707C412.378 320.52 411.956 318.195 411.956 315.734V314.367C411.956 311.564 412.355 309.001 413.152 306.677C413.95 304.353 415.089 302.336 416.57 300.627C418.074 298.918 419.897 297.608 422.039 296.696C424.181 295.762 426.596 295.295 429.285 295.295C431.906 295.295 434.23 295.728 436.258 296.594C438.286 297.46 439.983 298.69 441.351 300.285C442.741 301.88 443.789 303.794 444.495 306.027C445.201 308.238 445.555 310.699 445.555 313.41V317.512H416.16V310.949H435.882V310.197C435.882 308.83 435.631 307.611 435.13 306.54C434.651 305.446 433.922 304.58 432.942 303.942C431.963 303.304 430.709 302.985 429.183 302.985C427.884 302.985 426.767 303.27 425.833 303.84C424.899 304.41 424.135 305.207 423.543 306.232C422.973 307.258 422.54 308.465 422.244 309.855C421.971 311.223 421.834 312.727 421.834 314.367V315.734C421.834 317.215 422.039 318.583 422.449 319.836C422.882 321.089 423.486 322.172 424.261 323.083C425.058 323.994 426.015 324.701 427.132 325.202C428.271 325.703 429.559 325.954 430.994 325.954C432.771 325.954 434.424 325.612 435.95 324.929C437.5 324.222 438.833 323.163 439.949 321.75L444.734 326.945C443.96 328.062 442.9 329.133 441.556 330.158C440.234 331.184 438.639 332.027 436.771 332.688C434.902 333.326 432.771 333.645 430.379 333.645ZM471.155 322.741C471.155 322.035 470.95 321.397 470.54 320.827C470.13 320.257 469.367 319.733 468.25 319.255C467.156 318.754 465.573 318.298 463.499 317.888C461.631 317.478 459.887 316.965 458.27 316.35C456.674 315.712 455.285 314.948 454.1 314.06C452.938 313.171 452.026 312.123 451.365 310.915C450.704 309.685 450.374 308.283 450.374 306.711C450.374 305.161 450.704 303.703 451.365 302.336C452.049 300.969 453.017 299.761 454.271 298.713C455.547 297.642 457.096 296.81 458.919 296.218C460.765 295.603 462.838 295.295 465.14 295.295C468.353 295.295 471.11 295.808 473.411 296.833C475.735 297.858 477.513 299.271 478.743 301.071C479.996 302.849 480.623 304.877 480.623 307.155H470.779C470.779 306.198 470.574 305.344 470.164 304.592C469.777 303.817 469.161 303.213 468.318 302.78C467.498 302.325 466.427 302.097 465.105 302.097C464.012 302.097 463.066 302.29 462.269 302.678C461.471 303.042 460.856 303.544 460.423 304.182C460.013 304.797 459.808 305.48 459.808 306.232C459.808 306.802 459.922 307.315 460.149 307.771C460.4 308.203 460.799 308.602 461.346 308.967C461.893 309.331 462.599 309.673 463.465 309.992C464.354 310.288 465.447 310.562 466.746 310.812C469.412 311.359 471.793 312.077 473.89 312.966C475.986 313.832 477.649 315.017 478.88 316.521C480.11 318.002 480.726 319.95 480.726 322.365C480.726 324.006 480.361 325.51 479.632 326.877C478.903 328.244 477.854 329.44 476.487 330.466C475.12 331.468 473.479 332.255 471.565 332.824C469.674 333.371 467.544 333.645 465.174 333.645C461.733 333.645 458.816 333.029 456.424 331.799C454.054 330.568 452.254 329.007 451.023 327.116C449.816 325.202 449.212 323.243 449.212 321.237H458.543C458.589 322.582 458.93 323.664 459.568 324.484C460.229 325.305 461.061 325.897 462.063 326.262C463.089 326.626 464.194 326.809 465.379 326.809C466.655 326.809 467.715 326.638 468.558 326.296C469.401 325.931 470.039 325.453 470.472 324.86C470.927 324.245 471.155 323.539 471.155 322.741ZM508.958 324.895V280.461H518.87V332.961H509.949L508.958 324.895ZM485.579 314.914V314.196C485.579 311.371 485.898 308.807 486.536 306.506C487.174 304.182 488.108 302.188 489.339 300.524C490.569 298.861 492.085 297.574 493.885 296.662C495.685 295.751 497.736 295.295 500.037 295.295C502.202 295.295 504.093 295.751 505.711 296.662C507.352 297.574 508.742 298.872 509.881 300.559C511.043 302.222 511.977 304.193 512.684 306.472C513.39 308.728 513.903 311.2 514.222 313.889V315.461C513.903 318.036 513.39 320.428 512.684 322.639C511.977 324.849 511.043 326.786 509.881 328.449C508.742 330.09 507.352 331.366 505.711 332.277C504.07 333.189 502.156 333.645 499.969 333.645C497.667 333.645 495.617 333.177 493.816 332.243C492.039 331.309 490.535 329.999 489.305 328.312C488.097 326.626 487.174 324.644 486.536 322.365C485.898 320.087 485.579 317.603 485.579 314.914ZM495.423 314.196V314.914C495.423 316.441 495.537 317.865 495.765 319.187C496.015 320.508 496.414 321.682 496.961 322.707C497.531 323.71 498.26 324.496 499.148 325.065C500.06 325.612 501.165 325.886 502.464 325.886C504.15 325.886 505.54 325.51 506.634 324.758C507.728 323.983 508.559 322.924 509.129 321.579C509.721 320.235 510.063 318.685 510.154 316.931V312.453C510.086 311.018 509.881 309.73 509.539 308.591C509.22 307.429 508.742 306.438 508.104 305.617C507.488 304.797 506.714 304.159 505.779 303.703C504.868 303.247 503.785 303.02 502.532 303.02C501.256 303.02 500.162 303.316 499.251 303.908C498.34 304.478 497.599 305.264 497.029 306.267C496.482 307.269 496.072 308.454 495.799 309.821C495.548 311.166 495.423 312.624 495.423 314.196ZM546.521 324.621V308.146C546.521 306.962 546.328 305.948 545.94 305.104C545.553 304.239 544.949 303.566 544.129 303.088C543.331 302.609 542.295 302.37 541.019 302.37C539.925 302.37 538.979 302.564 538.182 302.951C537.384 303.316 536.769 303.851 536.336 304.558C535.903 305.241 535.687 306.05 535.687 306.984H525.843C525.843 305.412 526.207 303.92 526.937 302.507C527.666 301.094 528.725 299.852 530.115 298.781C531.505 297.688 533.157 296.833 535.071 296.218C537.008 295.603 539.173 295.295 541.565 295.295C544.437 295.295 546.989 295.773 549.222 296.73C551.455 297.688 553.209 299.123 554.485 301.037C555.784 302.951 556.434 305.344 556.434 308.215V324.04C556.434 326.068 556.559 327.731 556.81 329.03C557.06 330.306 557.425 331.423 557.903 332.38V332.961H547.957C547.479 331.958 547.114 330.705 546.863 329.201C546.635 327.674 546.521 326.148 546.521 324.621ZM547.82 310.437L547.889 316.008H542.386C541.087 316.008 539.959 316.156 539.002 316.452C538.045 316.748 537.259 317.17 536.644 317.717C536.028 318.241 535.573 318.856 535.276 319.562C535.003 320.269 534.866 321.044 534.866 321.887C534.866 322.73 535.06 323.493 535.447 324.177C535.835 324.838 536.393 325.362 537.122 325.749C537.851 326.114 538.706 326.296 539.686 326.296C541.167 326.296 542.454 326 543.548 325.407C544.642 324.815 545.485 324.086 546.077 323.22C546.692 322.354 547.011 321.534 547.034 320.759L549.632 324.929C549.267 325.863 548.766 326.831 548.128 327.834C547.513 328.837 546.727 329.782 545.77 330.671C544.812 331.537 543.662 332.255 542.317 332.824C540.973 333.371 539.378 333.645 537.532 333.645C535.185 333.645 533.055 333.177 531.141 332.243C529.249 331.286 527.745 329.976 526.629 328.312C525.535 326.626 524.988 324.712 524.988 322.57C524.988 320.633 525.353 318.913 526.082 317.409C526.811 315.905 527.882 314.641 529.295 313.615C530.73 312.567 532.519 311.781 534.661 311.257C536.803 310.71 539.287 310.437 542.112 310.437H547.82ZM574.446 328.791L584.256 295.979H594.817L579.949 338.532C579.63 339.466 579.197 340.469 578.65 341.54C578.126 342.611 577.409 343.625 576.497 344.582C575.608 345.562 574.48 346.359 573.113 346.975C571.769 347.59 570.117 347.897 568.157 347.897C567.223 347.897 566.46 347.84 565.867 347.727C565.275 347.613 564.568 347.453 563.748 347.248V340.036C563.999 340.036 564.261 340.036 564.534 340.036C564.808 340.059 565.07 340.07 565.32 340.07C566.619 340.07 567.679 339.922 568.499 339.626C569.319 339.33 569.98 338.874 570.481 338.259C570.983 337.666 571.382 336.892 571.678 335.935L574.446 328.791ZM570.345 295.979L578.377 322.775L579.778 333.2L573.079 333.918L559.783 295.979H570.345ZM636.175 315.222H623.494V307.224H636.175C638.134 307.224 639.729 306.905 640.96 306.267C642.19 305.606 643.09 304.694 643.66 303.532C644.23 302.37 644.515 301.06 644.515 299.602C644.515 298.12 644.23 296.742 643.66 295.466C643.09 294.19 642.19 293.164 640.96 292.39C639.729 291.615 638.134 291.228 636.175 291.228H627.049V332.961H616.795V283.195H636.175C640.071 283.195 643.41 283.902 646.189 285.314C648.992 286.704 651.134 288.63 652.615 291.091C654.096 293.552 654.837 296.366 654.837 299.533C654.837 302.746 654.096 305.526 652.615 307.873C651.134 310.22 648.992 312.032 646.189 313.308C643.41 314.584 640.071 315.222 636.175 315.222ZM659.246 314.846V314.128C659.246 311.416 659.633 308.921 660.408 306.643C661.183 304.341 662.311 302.347 663.792 300.661C665.273 298.975 667.096 297.665 669.261 296.73C671.425 295.773 673.909 295.295 676.712 295.295C679.515 295.295 682.01 295.773 684.197 296.73C686.385 297.665 688.219 298.975 689.7 300.661C691.204 302.347 692.343 304.341 693.118 306.643C693.893 308.921 694.28 311.416 694.28 314.128V314.846C694.28 317.535 693.893 320.03 693.118 322.331C692.343 324.61 691.204 326.604 689.7 328.312C688.219 329.999 686.396 331.309 684.231 332.243C682.067 333.177 679.583 333.645 676.78 333.645C673.978 333.645 671.482 333.177 669.295 332.243C667.13 331.309 665.296 329.999 663.792 328.312C662.311 326.604 661.183 324.61 660.408 322.331C659.633 320.03 659.246 317.535 659.246 314.846ZM669.09 314.128V314.846C669.09 316.395 669.227 317.842 669.5 319.187C669.773 320.531 670.206 321.716 670.799 322.741C671.414 323.744 672.212 324.53 673.191 325.1C674.171 325.669 675.368 325.954 676.78 325.954C678.147 325.954 679.321 325.669 680.301 325.1C681.281 324.53 682.067 323.744 682.659 322.741C683.252 321.716 683.685 320.531 683.958 319.187C684.254 317.842 684.402 316.395 684.402 314.846V314.128C684.402 312.624 684.254 311.211 683.958 309.89C683.685 308.545 683.24 307.36 682.625 306.335C682.033 305.287 681.246 304.466 680.267 303.874C679.287 303.282 678.102 302.985 676.712 302.985C675.322 302.985 674.137 303.282 673.157 303.874C672.2 304.466 671.414 305.287 670.799 306.335C670.206 307.36 669.773 308.545 669.5 309.89C669.227 311.211 669.09 312.624 669.09 314.128ZM720.325 322.741C720.325 322.035 720.12 321.397 719.71 320.827C719.3 320.257 718.536 319.733 717.42 319.255C716.326 318.754 714.743 318.298 712.669 317.888C710.8 317.478 709.057 316.965 707.439 316.35C705.844 315.712 704.454 314.948 703.27 314.06C702.107 313.171 701.196 312.123 700.535 310.915C699.874 309.685 699.544 308.283 699.544 306.711C699.544 305.161 699.874 303.703 700.535 302.336C701.219 300.969 702.187 299.761 703.44 298.713C704.716 297.642 706.266 296.81 708.089 296.218C709.935 295.603 712.008 295.295 714.31 295.295C717.522 295.295 720.28 295.808 722.581 296.833C724.905 297.858 726.683 299.271 727.913 301.071C729.166 302.849 729.793 304.877 729.793 307.155H719.949C719.949 306.198 719.744 305.344 719.334 304.592C718.947 303.817 718.331 303.213 717.488 302.78C716.668 302.325 715.597 302.097 714.275 302.097C713.182 302.097 712.236 302.29 711.438 302.678C710.641 303.042 710.026 303.544 709.593 304.182C709.183 304.797 708.978 305.48 708.978 306.232C708.978 306.802 709.091 307.315 709.319 307.771C709.57 308.203 709.969 308.602 710.516 308.967C711.062 309.331 711.769 309.673 712.635 309.992C713.523 310.288 714.617 310.562 715.916 310.812C718.582 311.359 720.963 312.077 723.06 312.966C725.156 313.832 726.819 315.017 728.05 316.521C729.28 318.002 729.896 319.95 729.896 322.365C729.896 324.006 729.531 325.51 728.802 326.877C728.073 328.244 727.024 329.44 725.657 330.466C724.29 331.468 722.649 332.255 720.735 332.824C718.844 333.371 716.714 333.645 714.344 333.645C710.903 333.645 707.986 333.029 705.594 331.799C703.224 330.568 701.424 329.007 700.193 327.116C698.986 325.202 698.382 323.243 698.382 321.237H707.713C707.758 322.582 708.1 323.664 708.738 324.484C709.399 325.305 710.231 325.897 711.233 326.262C712.259 326.626 713.364 326.809 714.549 326.809C715.825 326.809 716.884 326.638 717.728 326.296C718.571 325.931 719.209 325.453 719.642 324.86C720.097 324.245 720.325 323.539 720.325 322.741ZM754.402 295.979V302.951H732.869V295.979H754.402ZM738.201 286.853H748.045V321.818C748.045 322.889 748.182 323.71 748.455 324.279C748.751 324.849 749.184 325.248 749.754 325.476C750.324 325.681 751.041 325.783 751.907 325.783C752.522 325.783 753.069 325.76 753.548 325.715C754.049 325.646 754.471 325.578 754.812 325.51L754.847 332.756C754.004 333.029 753.092 333.246 752.112 333.405C751.132 333.565 750.05 333.645 748.865 333.645C746.701 333.645 744.809 333.291 743.191 332.585C741.596 331.856 740.366 330.694 739.5 329.099C738.634 327.504 738.201 325.407 738.201 322.81V286.853ZM793.333 332.961H782.498L782.566 324.963H793.333C796.022 324.963 798.289 324.359 800.135 323.151C801.98 321.921 803.37 320.132 804.305 317.785C805.262 315.438 805.74 312.601 805.74 309.274V306.848C805.74 304.296 805.467 302.051 804.92 300.114C804.396 298.177 803.61 296.548 802.562 295.227C801.513 293.905 800.226 292.914 798.699 292.253C797.173 291.569 795.418 291.228 793.436 291.228H782.293V283.195H793.436C796.762 283.195 799.804 283.765 802.562 284.904C805.341 286.021 807.745 287.627 809.773 289.724C811.801 291.82 813.362 294.326 814.456 297.243C815.573 300.137 816.131 303.361 816.131 306.916V309.274C816.131 312.806 815.573 316.031 814.456 318.947C813.362 321.864 811.801 324.37 809.773 326.467C807.768 328.54 805.364 330.147 802.562 331.286C799.782 332.403 796.705 332.961 793.333 332.961ZM788.309 283.195V332.961H778.055V283.195H788.309ZM839.988 333.645C837.117 333.645 834.542 333.189 832.264 332.277C829.985 331.343 828.048 330.056 826.453 328.415C824.881 326.774 823.673 324.872 822.83 322.707C821.987 320.52 821.565 318.195 821.565 315.734V314.367C821.565 311.564 821.964 309.001 822.762 306.677C823.559 304.353 824.699 302.336 826.18 300.627C827.684 298.918 829.507 297.608 831.648 296.696C833.79 295.762 836.206 295.295 838.895 295.295C841.515 295.295 843.839 295.728 845.867 296.594C847.895 297.46 849.593 298.69 850.96 300.285C852.35 301.88 853.398 303.794 854.104 306.027C854.811 308.238 855.164 310.699 855.164 313.41V317.512H825.77V310.949H845.491V310.197C845.491 308.83 845.241 307.611 844.739 306.54C844.261 305.446 843.532 304.58 842.552 303.942C841.572 303.304 840.319 302.985 838.792 302.985C837.493 302.985 836.377 303.27 835.442 303.84C834.508 304.41 833.745 305.207 833.152 306.232C832.583 307.258 832.15 308.465 831.854 309.855C831.58 311.223 831.443 312.727 831.443 314.367V315.734C831.443 317.215 831.648 318.583 832.059 319.836C832.492 321.089 833.095 322.172 833.87 323.083C834.668 323.994 835.625 324.701 836.741 325.202C837.881 325.703 839.168 325.954 840.604 325.954C842.381 325.954 844.033 325.612 845.56 324.929C847.109 324.222 848.442 323.163 849.559 321.75L854.344 326.945C853.569 328.062 852.509 329.133 851.165 330.158C849.843 331.184 848.248 332.027 846.38 332.688C844.511 333.326 842.381 333.645 839.988 333.645ZM880.765 322.741C880.765 322.035 880.56 321.397 880.149 320.827C879.739 320.257 878.976 319.733 877.859 319.255C876.766 318.754 875.182 318.298 873.108 317.888C871.24 317.478 869.497 316.965 867.879 316.35C866.284 315.712 864.894 314.948 863.709 314.06C862.547 313.171 861.635 312.123 860.975 310.915C860.314 309.685 859.983 308.283 859.983 306.711C859.983 305.161 860.314 303.703 860.975 302.336C861.658 300.969 862.627 299.761 863.88 298.713C865.156 297.642 866.705 296.81 868.528 296.218C870.374 295.603 872.448 295.295 874.749 295.295C877.962 295.295 880.719 295.808 883.021 296.833C885.345 297.858 887.122 299.271 888.353 301.071C889.606 302.849 890.232 304.877 890.232 307.155H880.389C880.389 306.198 880.184 305.344 879.773 304.592C879.386 303.817 878.771 303.213 877.928 302.78C877.107 302.325 876.036 302.097 874.715 302.097C873.621 302.097 872.675 302.29 871.878 302.678C871.08 303.042 870.465 303.544 870.032 304.182C869.622 304.797 869.417 305.48 869.417 306.232C869.417 306.802 869.531 307.315 869.759 307.771C870.009 308.203 870.408 308.602 870.955 308.967C871.502 309.331 872.208 309.673 873.074 309.992C873.963 310.288 875.057 310.562 876.355 310.812C879.021 311.359 881.403 312.077 883.499 312.966C885.595 313.832 887.259 315.017 888.489 316.521C889.72 318.002 890.335 319.95 890.335 322.365C890.335 324.006 889.97 325.51 889.241 326.877C888.512 328.244 887.464 329.44 886.097 330.466C884.729 331.468 883.089 332.255 881.175 332.824C879.284 333.371 877.153 333.645 874.783 333.645C871.342 333.645 868.426 333.029 866.033 331.799C863.663 330.568 861.863 329.007 860.633 327.116C859.425 325.202 858.821 323.243 858.821 321.237H868.152C868.198 322.582 868.54 323.664 869.178 324.484C869.839 325.305 870.67 325.897 871.673 326.262C872.698 326.626 873.803 326.809 874.988 326.809C876.264 326.809 877.324 326.638 878.167 326.296C879.01 325.931 879.648 325.453 880.081 324.86C880.537 324.245 880.765 323.539 880.765 322.741ZM907.117 295.979V332.961H897.239V295.979H907.117ZM896.624 286.34C896.624 284.904 897.125 283.719 898.128 282.785C899.131 281.851 900.475 281.384 902.161 281.384C903.825 281.384 905.158 281.851 906.16 282.785C907.186 283.719 907.698 284.904 907.698 286.34C907.698 287.775 907.186 288.96 906.16 289.895C905.158 290.829 903.825 291.296 902.161 291.296C900.475 291.296 899.131 290.829 898.128 289.895C897.125 288.96 896.624 287.775 896.624 286.34ZM938.665 295.979H947.586V331.73C947.586 335.103 946.834 337.963 945.33 340.31C943.849 342.679 941.775 344.468 939.109 345.676C936.443 346.906 933.344 347.521 929.812 347.521C928.263 347.521 926.622 347.316 924.891 346.906C923.182 346.496 921.541 345.858 919.969 344.992C918.419 344.126 917.12 343.033 916.072 341.711L920.413 335.9C921.552 337.222 922.874 338.247 924.378 338.977C925.882 339.729 927.545 340.104 929.368 340.104C931.146 340.104 932.649 339.774 933.88 339.113C935.11 338.475 936.056 337.53 936.717 336.276C937.378 335.046 937.708 333.553 937.708 331.799V304.523L938.665 295.979ZM913.782 314.914V314.196C913.782 311.371 914.124 308.807 914.808 306.506C915.514 304.182 916.505 302.188 917.781 300.524C919.08 298.861 920.652 297.574 922.498 296.662C924.344 295.751 926.429 295.295 928.753 295.295C931.214 295.295 933.276 295.751 934.939 296.662C936.603 297.574 937.97 298.872 939.041 300.559C940.112 302.222 940.944 304.193 941.536 306.472C942.151 308.728 942.63 311.2 942.972 313.889V315.461C942.63 318.036 942.117 320.428 941.434 322.639C940.75 324.849 939.85 326.786 938.733 328.449C937.617 330.09 936.227 331.366 934.563 332.277C932.923 333.189 930.963 333.645 928.685 333.645C926.406 333.645 924.344 333.177 922.498 332.243C920.675 331.309 919.114 329.999 917.815 328.312C916.517 326.626 915.514 324.644 914.808 322.365C914.124 320.087 913.782 317.603 913.782 314.914ZM923.626 314.196V314.914C923.626 316.441 923.774 317.865 924.07 319.187C924.367 320.508 924.822 321.682 925.438 322.707C926.076 323.71 926.862 324.496 927.796 325.065C928.753 325.612 929.881 325.886 931.18 325.886C932.98 325.886 934.45 325.51 935.589 324.758C936.728 323.983 937.583 322.924 938.152 321.579C938.722 320.235 939.052 318.685 939.144 316.931V312.453C939.098 311.018 938.904 309.73 938.562 308.591C938.221 307.429 937.742 306.438 937.127 305.617C936.512 304.797 935.714 304.159 934.734 303.703C933.755 303.247 932.592 303.02 931.248 303.02C929.949 303.02 928.821 303.316 927.864 303.908C926.93 304.478 926.144 305.264 925.506 306.267C924.891 307.269 924.424 308.454 924.104 309.821C923.785 311.166 923.626 312.624 923.626 314.196ZM964.881 303.874V332.961H955.037V295.979H964.266L964.881 303.874ZM963.445 313.171H960.779C960.779 310.437 961.132 307.976 961.839 305.788C962.545 303.578 963.536 301.698 964.812 300.148C966.089 298.576 967.604 297.38 969.358 296.56C971.136 295.716 973.118 295.295 975.306 295.295C977.037 295.295 978.621 295.546 980.057 296.047C981.492 296.548 982.723 297.346 983.748 298.439C984.796 299.533 985.594 300.98 986.141 302.78C986.71 304.58 986.995 306.779 986.995 309.377V332.961H977.083V309.343C977.083 307.702 976.855 306.426 976.399 305.515C975.944 304.603 975.271 303.965 974.383 303.601C973.517 303.213 972.446 303.02 971.17 303.02C969.848 303.02 968.698 303.282 967.718 303.806C966.761 304.33 965.963 305.059 965.325 305.993C964.71 306.905 964.243 307.976 963.924 309.206C963.605 310.437 963.445 311.758 963.445 313.171Z" fill="#FD0404"/>
<path d="M149.48 501.009V500.447C149.48 498.543 149.757 496.777 150.311 495.149C150.864 493.506 151.661 492.081 152.703 490.877C153.745 489.656 155.006 488.712 156.487 488.045C157.968 487.361 159.629 487.02 161.468 487.02C163.323 487.02 164.992 487.361 166.473 488.045C167.97 488.712 169.24 489.656 170.281 490.877C171.339 492.081 172.145 493.506 172.698 495.149C173.252 496.777 173.528 498.543 173.528 500.447V501.009C173.528 502.913 173.252 504.679 172.698 506.307C172.145 507.934 171.339 509.358 170.281 510.579C169.24 511.784 167.978 512.728 166.497 513.411C165.032 514.078 163.372 514.412 161.517 514.412C159.661 514.412 157.993 514.078 156.512 513.411C155.031 512.728 153.761 511.784 152.703 510.579C151.661 509.358 150.864 507.934 150.311 506.307C149.757 504.679 149.48 502.913 149.48 501.009ZM153.997 500.447V501.009C153.997 502.327 154.152 503.572 154.461 504.744C154.77 505.9 155.234 506.925 155.853 507.82C156.487 508.715 157.277 509.424 158.221 509.944C159.165 510.449 160.263 510.701 161.517 510.701C162.754 510.701 163.836 510.449 164.764 509.944C165.708 509.424 166.489 508.715 167.107 507.82C167.726 506.925 168.19 505.9 168.499 504.744C168.825 503.572 168.987 502.327 168.987 501.009V500.447C168.987 499.145 168.825 497.916 168.499 496.761C168.19 495.589 167.718 494.555 167.083 493.66C166.465 492.749 165.683 492.033 164.739 491.512C163.812 490.991 162.721 490.73 161.468 490.73C160.231 490.73 159.14 490.991 158.196 491.512C157.269 492.033 156.487 492.749 155.853 493.66C155.234 494.555 154.77 495.589 154.461 496.761C154.152 497.916 153.997 499.145 153.997 500.447ZM183.709 493.147V513.924H179.192V487.508H183.465L183.709 493.147ZM182.635 499.715L180.755 499.642C180.771 497.835 181.04 496.167 181.561 494.637C182.081 493.09 182.814 491.748 183.758 490.608C184.702 489.469 185.825 488.59 187.127 487.972C188.445 487.337 189.902 487.02 191.497 487.02C192.799 487.02 193.971 487.199 195.013 487.557C196.054 487.898 196.941 488.452 197.674 489.217C198.423 489.982 198.992 490.975 199.383 492.195C199.773 493.4 199.969 494.873 199.969 496.614V513.924H195.428V496.565C195.428 495.182 195.224 494.075 194.817 493.245C194.41 492.399 193.816 491.788 193.035 491.414C192.254 491.023 191.294 490.828 190.154 490.828C189.031 490.828 188.006 491.064 187.078 491.536C186.167 492.008 185.377 492.659 184.71 493.489C184.059 494.319 183.546 495.271 183.172 496.346C182.814 497.404 182.635 498.527 182.635 499.715ZM229.266 503.182L236.321 478.377H239.739L237.762 488.021L230.169 513.924H226.775L229.266 503.182ZM221.966 478.377L227.581 502.693L229.266 513.924H225.896L217.278 478.377H221.966ZM248.87 502.669L254.363 478.377H259.075L250.481 513.924H247.112L248.87 502.669ZM240.252 478.377L247.112 503.182L249.603 513.924H246.209L238.885 488.021L236.883 478.377H240.252ZM273.797 514.412C271.958 514.412 270.289 514.103 268.792 513.484C267.311 512.85 266.033 511.963 264.959 510.823C263.901 509.684 263.087 508.333 262.518 506.771C261.948 505.208 261.663 503.499 261.663 501.644V500.618C261.663 498.47 261.98 496.557 262.615 494.881C263.25 493.188 264.113 491.756 265.203 490.584C266.294 489.412 267.531 488.525 268.914 487.923C270.298 487.321 271.73 487.02 273.211 487.02C275.099 487.02 276.727 487.345 278.094 487.996C279.477 488.647 280.608 489.559 281.487 490.73C282.366 491.886 283.017 493.253 283.44 494.832C283.864 496.395 284.075 498.104 284.075 499.959V501.985H264.349V498.299H279.559V497.957C279.493 496.785 279.249 495.646 278.826 494.539C278.419 493.432 277.768 492.521 276.873 491.805C275.978 491.089 274.757 490.73 273.211 490.73C272.186 490.73 271.242 490.95 270.379 491.39C269.516 491.813 268.776 492.448 268.157 493.294C267.539 494.14 267.059 495.174 266.717 496.395C266.375 497.615 266.204 499.023 266.204 500.618V501.644C266.204 502.897 266.375 504.077 266.717 505.184C267.075 506.274 267.588 507.234 268.255 508.064C268.938 508.895 269.76 509.546 270.721 510.018C271.697 510.49 272.804 510.726 274.041 510.726C275.636 510.726 276.987 510.4 278.094 509.749C279.201 509.098 280.169 508.227 280.999 507.137L283.733 509.31C283.164 510.172 282.439 510.994 281.561 511.775C280.682 512.557 279.599 513.191 278.313 513.68C277.044 514.168 275.538 514.412 273.797 514.412ZM305.999 508.797V476.424H310.54V513.924H306.39L305.999 508.797ZM288.226 501.009V500.496C288.226 498.478 288.47 496.647 288.958 495.003C289.463 493.343 290.171 491.919 291.082 490.73C292.01 489.542 293.108 488.631 294.378 487.996C295.664 487.345 297.096 487.02 298.675 487.02C300.335 487.02 301.784 487.312 303.021 487.898C304.274 488.468 305.332 489.306 306.194 490.413C307.073 491.504 307.765 492.822 308.27 494.368C308.774 495.914 309.124 497.664 309.319 499.617V501.863C309.14 503.8 308.79 505.542 308.27 507.088C307.765 508.634 307.073 509.952 306.194 511.043C305.332 512.133 304.274 512.972 303.021 513.558C301.767 514.127 300.302 514.412 298.626 514.412C297.08 514.412 295.664 514.078 294.378 513.411C293.108 512.744 292.01 511.808 291.082 510.604C290.171 509.399 289.463 507.983 288.958 506.355C288.47 504.712 288.226 502.929 288.226 501.009ZM292.767 500.496V501.009C292.767 502.327 292.897 503.564 293.157 504.72C293.434 505.875 293.857 506.893 294.427 507.771C294.996 508.65 295.721 509.342 296.6 509.847C297.479 510.335 298.528 510.579 299.749 510.579C301.246 510.579 302.475 510.262 303.436 509.627C304.412 508.992 305.193 508.154 305.779 507.112C306.365 506.071 306.821 504.939 307.146 503.719V497.835C306.951 496.94 306.666 496.077 306.292 495.247C305.934 494.401 305.462 493.652 304.876 493.001C304.306 492.334 303.598 491.805 302.752 491.414C301.922 491.023 300.937 490.828 299.798 490.828C298.561 490.828 297.495 491.089 296.6 491.609C295.721 492.114 294.996 492.814 294.427 493.709C293.857 494.588 293.434 495.613 293.157 496.785C292.897 497.941 292.767 499.178 292.767 500.496ZM322.088 493.147V513.924H317.571V487.508H321.844L322.088 493.147ZM321.014 499.715L319.134 499.642C319.15 497.835 319.419 496.167 319.939 494.637C320.46 493.09 321.193 491.748 322.137 490.608C323.081 489.469 324.204 488.59 325.506 487.972C326.824 487.337 328.281 487.02 329.876 487.02C331.178 487.02 332.35 487.199 333.392 487.557C334.433 487.898 335.32 488.452 336.053 489.217C336.801 489.982 337.371 490.975 337.762 492.195C338.152 493.4 338.348 494.873 338.348 496.614V513.924H333.807V496.565C333.807 495.182 333.603 494.075 333.196 493.245C332.789 492.399 332.195 491.788 331.414 491.414C330.633 491.023 329.673 490.828 328.533 490.828C327.41 490.828 326.385 491.064 325.457 491.536C324.546 492.008 323.756 492.659 323.089 493.489C322.438 494.319 321.925 495.271 321.551 496.346C321.193 497.404 321.014 498.527 321.014 499.715ZM356.17 514.412C354.331 514.412 352.662 514.103 351.165 513.484C349.684 512.85 348.406 511.963 347.332 510.823C346.274 509.684 345.46 508.333 344.891 506.771C344.321 505.208 344.036 503.499 344.036 501.644V500.618C344.036 498.47 344.354 496.557 344.988 494.881C345.623 493.188 346.486 491.756 347.576 490.584C348.667 489.412 349.904 488.525 351.287 487.923C352.671 487.321 354.103 487.02 355.584 487.02C357.472 487.02 359.1 487.345 360.467 487.996C361.85 488.647 362.981 489.559 363.86 490.73C364.739 491.886 365.39 493.253 365.813 494.832C366.237 496.395 366.448 498.104 366.448 499.959V501.985H346.722V498.299H361.932V497.957C361.867 496.785 361.622 495.646 361.199 494.539C360.792 493.432 360.141 492.521 359.246 491.805C358.351 491.089 357.13 490.73 355.584 490.73C354.559 490.73 353.615 490.95 352.752 491.39C351.889 491.813 351.149 492.448 350.53 493.294C349.912 494.14 349.432 495.174 349.09 496.395C348.748 497.615 348.577 499.023 348.577 500.618V501.644C348.577 502.897 348.748 504.077 349.09 505.184C349.448 506.274 349.961 507.234 350.628 508.064C351.312 508.895 352.133 509.546 353.094 510.018C354.07 510.49 355.177 510.726 356.414 510.726C358.009 510.726 359.36 510.4 360.467 509.749C361.574 509.098 362.542 508.227 363.372 507.137L366.106 509.31C365.537 510.172 364.812 510.994 363.934 511.775C363.055 512.557 361.972 513.191 360.687 513.68C359.417 514.168 357.911 514.412 356.17 514.412ZM387.103 506.917C387.103 506.266 386.956 505.664 386.663 505.11C386.386 504.541 385.809 504.028 384.93 503.572C384.067 503.1 382.765 502.693 381.023 502.352C379.559 502.042 378.232 501.676 377.044 501.253C375.872 500.83 374.871 500.317 374.041 499.715C373.227 499.113 372.601 498.405 372.161 497.591C371.722 496.777 371.502 495.825 371.502 494.734C371.502 493.693 371.73 492.708 372.186 491.78C372.658 490.853 373.317 490.031 374.163 489.314C375.026 488.598 376.059 488.037 377.264 487.63C378.468 487.223 379.811 487.02 381.292 487.02C383.408 487.02 385.215 487.394 386.712 488.143C388.209 488.891 389.357 489.892 390.154 491.146C390.952 492.382 391.351 493.758 391.351 495.271H386.834C386.834 494.539 386.614 493.831 386.175 493.147C385.752 492.448 385.125 491.87 384.295 491.414C383.481 490.958 382.48 490.73 381.292 490.73C380.039 490.73 379.021 490.926 378.24 491.316C377.475 491.691 376.914 492.171 376.556 492.757C376.214 493.343 376.043 493.961 376.043 494.612C376.043 495.101 376.124 495.54 376.287 495.931C376.466 496.305 376.775 496.655 377.215 496.98C377.654 497.29 378.273 497.583 379.07 497.859C379.868 498.136 380.885 498.413 382.122 498.689C384.287 499.178 386.069 499.764 387.469 500.447C388.868 501.131 389.91 501.969 390.594 502.962C391.277 503.955 391.619 505.159 391.619 506.575C391.619 507.731 391.375 508.789 390.887 509.749C390.415 510.709 389.723 511.539 388.812 512.239C387.916 512.923 386.842 513.46 385.589 513.851C384.352 514.225 382.96 514.412 381.414 514.412C379.087 514.412 377.117 513.997 375.506 513.167C373.895 512.337 372.674 511.263 371.844 509.944C371.014 508.626 370.599 507.234 370.599 505.77H375.14C375.205 507.007 375.563 507.991 376.214 508.724C376.865 509.44 377.662 509.952 378.606 510.262C379.55 510.555 380.486 510.701 381.414 510.701C382.651 510.701 383.685 510.538 384.515 510.213C385.361 509.887 386.004 509.44 386.443 508.87C386.883 508.3 387.103 507.649 387.103 506.917ZM414.202 508.797V476.424H418.743V513.924H414.593L414.202 508.797ZM396.429 501.009V500.496C396.429 498.478 396.673 496.647 397.161 495.003C397.666 493.343 398.374 491.919 399.285 490.73C400.213 489.542 401.312 488.631 402.581 487.996C403.867 487.345 405.299 487.02 406.878 487.02C408.538 487.02 409.987 487.312 411.224 487.898C412.477 488.468 413.535 489.306 414.397 490.413C415.276 491.504 415.968 492.822 416.473 494.368C416.977 495.914 417.327 497.664 417.522 499.617V501.863C417.343 503.8 416.993 505.542 416.473 507.088C415.968 508.634 415.276 509.952 414.397 511.043C413.535 512.133 412.477 512.972 411.224 513.558C409.97 514.127 408.506 514.412 406.829 514.412C405.283 514.412 403.867 514.078 402.581 513.411C401.312 512.744 400.213 511.808 399.285 510.604C398.374 509.399 397.666 507.983 397.161 506.355C396.673 504.712 396.429 502.929 396.429 501.009ZM400.97 500.496V501.009C400.97 502.327 401.1 503.564 401.36 504.72C401.637 505.875 402.06 506.893 402.63 507.771C403.2 508.65 403.924 509.342 404.803 509.847C405.682 510.335 406.731 510.579 407.952 510.579C409.45 510.579 410.678 510.262 411.639 509.627C412.615 508.992 413.396 508.154 413.982 507.112C414.568 506.071 415.024 504.939 415.35 503.719V497.835C415.154 496.94 414.869 496.077 414.495 495.247C414.137 494.401 413.665 493.652 413.079 493.001C412.509 492.334 411.801 491.805 410.955 491.414C410.125 491.023 409.14 490.828 408.001 490.828C406.764 490.828 405.698 491.089 404.803 491.609C403.924 492.114 403.2 492.814 402.63 493.709C402.06 494.588 401.637 495.613 401.36 496.785C401.1 497.941 400.97 499.178 400.97 500.496ZM441.351 509.407V495.809C441.351 494.767 441.139 493.864 440.716 493.099C440.309 492.317 439.69 491.715 438.86 491.292C438.03 490.869 437.005 490.657 435.784 490.657C434.645 490.657 433.644 490.853 432.781 491.243C431.935 491.634 431.268 492.146 430.779 492.781C430.307 493.416 430.071 494.1 430.071 494.832H425.555C425.555 493.888 425.799 492.952 426.287 492.024C426.775 491.097 427.475 490.258 428.387 489.51C429.314 488.745 430.421 488.143 431.707 487.703C433.009 487.247 434.458 487.02 436.053 487.02C437.973 487.02 439.666 487.345 441.131 487.996C442.612 488.647 443.768 489.632 444.598 490.95C445.444 492.252 445.867 493.888 445.867 495.857V508.162C445.867 509.041 445.94 509.977 446.087 510.97C446.25 511.963 446.486 512.817 446.795 513.533V513.924H442.083C441.855 513.403 441.676 512.711 441.546 511.849C441.416 510.97 441.351 510.156 441.351 509.407ZM442.132 497.908L442.181 501.082H437.615C436.329 501.082 435.182 501.188 434.173 501.399C433.164 501.595 432.317 501.896 431.634 502.303C430.95 502.71 430.429 503.222 430.071 503.841C429.713 504.443 429.534 505.151 429.534 505.965C429.534 506.795 429.721 507.552 430.096 508.235C430.47 508.919 431.032 509.464 431.78 509.871C432.545 510.262 433.481 510.457 434.588 510.457C435.971 510.457 437.192 510.164 438.25 509.578C439.308 508.992 440.146 508.276 440.765 507.43C441.399 506.583 441.741 505.761 441.79 504.964L443.719 507.137C443.605 507.82 443.296 508.577 442.791 509.407C442.286 510.237 441.611 511.035 440.765 511.8C439.935 512.549 438.942 513.175 437.786 513.68C436.647 514.168 435.361 514.412 433.929 514.412C432.138 514.412 430.568 514.062 429.217 513.362C427.882 512.662 426.84 511.727 426.092 510.555C425.359 509.367 424.993 508.04 424.993 506.575C424.993 505.159 425.27 503.914 425.823 502.84C426.377 501.749 427.174 500.846 428.216 500.13C429.257 499.397 430.511 498.844 431.976 498.47C433.44 498.095 435.076 497.908 436.883 497.908H442.132ZM460.003 511.189L467.352 487.508H472.186L461.59 518.001C461.346 518.652 461.02 519.352 460.613 520.101C460.223 520.866 459.718 521.59 459.1 522.273C458.481 522.957 457.732 523.51 456.854 523.934C455.991 524.373 454.957 524.593 453.753 524.593C453.395 524.593 452.939 524.544 452.386 524.446C451.832 524.349 451.442 524.267 451.214 524.202L451.189 520.54C451.32 520.556 451.523 520.573 451.8 520.589C452.093 520.621 452.296 520.638 452.41 520.638C453.436 520.638 454.306 520.499 455.022 520.223C455.739 519.962 456.341 519.515 456.829 518.88C457.334 518.261 457.765 517.407 458.123 516.316L460.003 511.189ZM454.607 487.508L461.468 508.016L462.64 512.776L459.393 514.437L449.676 487.508H454.607ZM494.061 478.377V513.924H489.349V478.377H494.061ZM508.953 494.368V498.226H493.035V494.368H508.953ZM511.37 478.377V482.234H493.035V478.377H511.37ZM526.727 514.412C524.887 514.412 523.219 514.103 521.722 513.484C520.241 512.85 518.963 511.963 517.889 510.823C516.831 509.684 516.017 508.333 515.447 506.771C514.878 505.208 514.593 503.499 514.593 501.644V500.618C514.593 498.47 514.91 496.557 515.545 494.881C516.18 493.188 517.042 491.756 518.133 490.584C519.223 489.412 520.46 488.525 521.844 487.923C523.227 487.321 524.66 487.02 526.141 487.02C528.029 487.02 529.656 487.345 531.023 487.996C532.407 488.647 533.538 489.559 534.417 490.73C535.296 491.886 535.947 493.253 536.37 494.832C536.793 496.395 537.005 498.104 537.005 499.959V501.985H517.278V498.299H532.488V497.957C532.423 496.785 532.179 495.646 531.756 494.539C531.349 493.432 530.698 492.521 529.803 491.805C528.908 491.089 527.687 490.73 526.141 490.73C525.115 490.73 524.171 490.95 523.309 491.39C522.446 491.813 521.705 492.448 521.087 493.294C520.468 494.14 519.988 495.174 519.646 496.395C519.305 497.615 519.134 499.023 519.134 500.618V501.644C519.134 502.897 519.305 504.077 519.646 505.184C520.005 506.274 520.517 507.234 521.185 508.064C521.868 508.895 522.69 509.546 523.65 510.018C524.627 510.49 525.734 510.726 526.971 510.726C528.566 510.726 529.917 510.4 531.023 509.749C532.13 509.098 533.099 508.227 533.929 507.137L536.663 509.31C536.093 510.172 535.369 510.994 534.49 511.775C533.611 512.557 532.529 513.191 531.243 513.68C529.974 514.168 528.468 514.412 526.727 514.412ZM542.254 476.424H546.795V508.797L546.404 513.924H542.254V476.424ZM564.642 500.496V501.009C564.642 502.929 564.414 504.712 563.958 506.355C563.502 507.983 562.835 509.399 561.956 510.604C561.077 511.808 560.003 512.744 558.733 513.411C557.464 514.078 556.007 514.412 554.363 514.412C552.687 514.412 551.214 514.127 549.944 513.558C548.691 512.972 547.633 512.133 546.771 511.043C545.908 509.952 545.216 508.634 544.695 507.088C544.191 505.542 543.841 503.8 543.646 501.863V499.617C543.841 497.664 544.191 495.914 544.695 494.368C545.216 492.822 545.908 491.504 546.771 490.413C547.633 489.306 548.691 488.468 549.944 487.898C551.198 487.312 552.654 487.02 554.314 487.02C555.975 487.02 557.448 487.345 558.733 487.996C560.019 488.631 561.093 489.542 561.956 490.73C562.835 491.919 563.502 493.343 563.958 495.003C564.414 496.647 564.642 498.478 564.642 500.496ZM560.101 501.009V500.496C560.101 499.178 559.979 497.941 559.734 496.785C559.49 495.613 559.1 494.588 558.562 493.709C558.025 492.814 557.317 492.114 556.438 491.609C555.56 491.089 554.477 490.828 553.191 490.828C552.052 490.828 551.059 491.023 550.213 491.414C549.383 491.805 548.675 492.334 548.089 493.001C547.503 493.652 547.023 494.401 546.648 495.247C546.29 496.077 546.022 496.94 545.843 497.835V503.719C546.103 504.858 546.526 505.957 547.112 507.015C547.715 508.056 548.512 508.911 549.505 509.578C550.514 510.245 551.759 510.579 553.24 510.579C554.461 510.579 555.503 510.335 556.365 509.847C557.244 509.342 557.952 508.65 558.489 507.771C559.043 506.893 559.45 505.875 559.71 504.72C559.97 503.564 560.101 502.327 560.101 501.009ZM605.56 510.213V513.924H582.293V510.677L593.938 497.713C595.371 496.118 596.478 494.767 597.259 493.66C598.056 492.537 598.61 491.536 598.919 490.657C599.244 489.762 599.407 488.851 599.407 487.923C599.407 486.751 599.163 485.693 598.675 484.749C598.203 483.789 597.503 483.024 596.575 482.454C595.647 481.884 594.524 481.6 593.206 481.6C591.627 481.6 590.309 481.909 589.251 482.527C588.209 483.13 587.428 483.976 586.907 485.066C586.386 486.157 586.126 487.41 586.126 488.826H581.609C581.609 486.824 582.049 484.993 582.928 483.333C583.807 481.673 585.109 480.354 586.834 479.378C588.559 478.385 590.683 477.889 593.206 477.889C595.452 477.889 597.373 478.287 598.968 479.085C600.563 479.866 601.784 480.973 602.63 482.405C603.493 483.821 603.924 485.481 603.924 487.386C603.924 488.427 603.745 489.485 603.387 490.56C603.045 491.618 602.565 492.675 601.946 493.733C601.344 494.791 600.636 495.833 599.822 496.858C599.025 497.884 598.17 498.893 597.259 499.886L587.737 510.213H605.56ZM616.985 493.929H620.208C621.787 493.929 623.089 493.668 624.114 493.147C625.156 492.61 625.929 491.886 626.434 490.975C626.954 490.047 627.215 489.005 627.215 487.85C627.215 486.482 626.987 485.335 626.531 484.407C626.076 483.479 625.392 482.78 624.48 482.308C623.569 481.836 622.413 481.6 621.014 481.6C619.744 481.6 618.621 481.852 617.645 482.356C616.684 482.845 615.927 483.545 615.374 484.456C614.837 485.368 614.568 486.442 614.568 487.679H610.052C610.052 485.872 610.507 484.228 611.419 482.747C612.33 481.266 613.608 480.086 615.252 479.207C616.912 478.328 618.833 477.889 621.014 477.889C623.162 477.889 625.042 478.271 626.653 479.036C628.265 479.785 629.518 480.908 630.413 482.405C631.308 483.886 631.756 485.734 631.756 487.947C631.756 488.842 631.544 489.803 631.121 490.828C630.714 491.837 630.071 492.781 629.192 493.66C628.33 494.539 627.207 495.263 625.823 495.833C624.44 496.386 622.78 496.663 620.843 496.663H616.985V493.929ZM616.985 497.64V494.93H620.843C623.105 494.93 624.977 495.198 626.458 495.735C627.939 496.272 629.103 496.989 629.949 497.884C630.812 498.779 631.414 499.764 631.756 500.838C632.114 501.896 632.293 502.954 632.293 504.012C632.293 505.672 632.008 507.145 631.438 508.431C630.885 509.716 630.096 510.807 629.07 511.702C628.061 512.597 626.873 513.273 625.506 513.729C624.139 514.184 622.649 514.412 621.038 514.412C619.492 514.412 618.035 514.192 616.668 513.753C615.317 513.313 614.121 512.679 613.079 511.849C612.037 511.002 611.224 509.969 610.638 508.748C610.052 507.511 609.759 506.103 609.759 504.524H614.275C614.275 505.761 614.544 506.844 615.081 507.771C615.634 508.699 616.416 509.424 617.425 509.944C618.45 510.449 619.655 510.701 621.038 510.701C622.422 510.701 623.61 510.465 624.603 509.993C625.612 509.505 626.385 508.772 626.922 507.796C627.475 506.819 627.752 505.59 627.752 504.109C627.752 502.628 627.443 501.416 626.824 500.472C626.206 499.511 625.327 498.803 624.188 498.348C623.064 497.876 621.738 497.64 620.208 497.64H616.985ZM643.108 508.553V512.19C643.108 513.672 642.734 515.234 641.985 516.878C641.237 518.538 640.187 519.922 638.836 521.028L636.272 519.246C636.793 518.53 637.233 517.798 637.591 517.049C637.949 516.316 638.217 515.551 638.396 514.754C638.592 513.973 638.689 513.143 638.689 512.264V508.553H643.108ZM684.075 510.213V513.924H660.809V510.677L672.454 497.713C673.886 496.118 674.993 494.767 675.774 493.66C676.572 492.537 677.125 491.536 677.435 490.657C677.76 489.762 677.923 488.851 677.923 487.923C677.923 486.751 677.679 485.693 677.19 484.749C676.718 483.789 676.019 483.024 675.091 482.454C674.163 481.884 673.04 481.6 671.722 481.6C670.143 481.6 668.825 481.909 667.767 482.527C666.725 483.13 665.944 483.976 665.423 485.066C664.902 486.157 664.642 487.41 664.642 488.826H660.125C660.125 486.824 660.564 484.993 661.443 483.333C662.322 481.673 663.624 480.354 665.35 479.378C667.075 478.385 669.199 477.889 671.722 477.889C673.968 477.889 675.888 478.287 677.483 479.085C679.078 479.866 680.299 480.973 681.146 482.405C682.008 483.821 682.439 485.481 682.439 487.386C682.439 488.427 682.26 489.485 681.902 490.56C681.561 491.618 681.08 492.675 680.462 493.733C679.86 494.791 679.152 495.833 678.338 496.858C677.54 497.884 676.686 498.893 675.774 499.886L666.253 510.213H684.075ZM711.224 493.318V498.738C711.224 501.652 710.963 504.109 710.442 506.111C709.922 508.113 709.173 509.725 708.196 510.945C707.22 512.166 706.04 513.053 704.656 513.606C703.289 514.144 701.743 514.412 700.018 514.412C698.65 514.412 697.389 514.241 696.233 513.899C695.078 513.558 694.036 513.012 693.108 512.264C692.197 511.499 691.416 510.506 690.765 509.285C690.114 508.064 689.617 506.583 689.275 504.842C688.934 503.1 688.763 501.066 688.763 498.738V493.318C688.763 490.405 689.023 487.964 689.544 485.994C690.081 484.025 690.838 482.446 691.814 481.258C692.791 480.053 693.963 479.191 695.33 478.67C696.714 478.149 698.26 477.889 699.969 477.889C701.352 477.889 702.622 478.06 703.777 478.401C704.949 478.727 705.991 479.256 706.902 479.988C707.814 480.704 708.587 481.665 709.222 482.869C709.873 484.057 710.369 485.514 710.711 487.239C711.053 488.965 711.224 490.991 711.224 493.318ZM706.683 499.471V492.562C706.683 490.966 706.585 489.567 706.39 488.362C706.211 487.142 705.942 486.1 705.584 485.237C705.226 484.375 704.77 483.675 704.217 483.138C703.68 482.601 703.053 482.21 702.337 481.966C701.637 481.705 700.848 481.575 699.969 481.575C698.895 481.575 697.942 481.779 697.112 482.186C696.282 482.576 695.582 483.203 695.013 484.065C694.459 484.928 694.036 486.059 693.743 487.459C693.45 488.859 693.304 490.56 693.304 492.562V499.471C693.304 501.066 693.393 502.474 693.572 503.694C693.768 504.915 694.052 505.973 694.427 506.868C694.801 507.747 695.257 508.471 695.794 509.041C696.331 509.611 696.95 510.034 697.649 510.311C698.366 510.571 699.155 510.701 700.018 510.701C701.124 510.701 702.093 510.49 702.923 510.066C703.753 509.643 704.445 508.984 704.998 508.089C705.568 507.177 705.991 506.014 706.268 504.598C706.544 503.165 706.683 501.456 706.683 499.471ZM740.325 510.213V513.924H717.059V510.677L728.704 497.713C730.136 496.118 731.243 494.767 732.024 493.66C732.822 492.537 733.375 491.536 733.685 490.657C734.01 489.762 734.173 488.851 734.173 487.923C734.173 486.751 733.929 485.693 733.44 484.749C732.968 483.789 732.269 483.024 731.341 482.454C730.413 481.884 729.29 481.6 727.972 481.6C726.393 481.6 725.075 481.909 724.017 482.527C722.975 483.13 722.194 483.976 721.673 485.066C721.152 486.157 720.892 487.41 720.892 488.826H716.375C716.375 486.824 716.814 484.993 717.693 483.333C718.572 481.673 719.874 480.354 721.6 479.378C723.325 478.385 725.449 477.889 727.972 477.889C730.218 477.889 732.138 478.287 733.733 479.085C735.328 479.866 736.549 480.973 737.396 482.405C738.258 483.821 738.689 485.481 738.689 487.386C738.689 488.427 738.51 489.485 738.152 490.56C737.811 491.618 737.33 492.675 736.712 493.733C736.11 494.791 735.402 495.833 734.588 496.858C733.79 497.884 732.936 498.893 732.024 499.886L722.503 510.213H740.325ZM768.45 510.213V513.924H745.184V510.677L756.829 497.713C758.261 496.118 759.368 494.767 760.149 493.66C760.947 492.537 761.5 491.536 761.81 490.657C762.135 489.762 762.298 488.851 762.298 487.923C762.298 486.751 762.054 485.693 761.565 484.749C761.093 483.789 760.394 483.024 759.466 482.454C758.538 481.884 757.415 481.6 756.097 481.6C754.518 481.6 753.2 481.909 752.142 482.527C751.1 483.13 750.319 483.976 749.798 485.066C749.277 486.157 749.017 487.41 749.017 488.826H744.5C744.5 486.824 744.939 484.993 745.818 483.333C746.697 481.673 747.999 480.354 749.725 479.378C751.45 478.385 753.574 477.889 756.097 477.889C758.343 477.889 760.263 478.287 761.858 479.085C763.453 479.866 764.674 480.973 765.521 482.405C766.383 483.821 766.814 485.481 766.814 487.386C766.814 488.427 766.635 489.485 766.277 490.56C765.936 491.618 765.455 492.675 764.837 493.733C764.235 494.791 763.527 495.833 762.713 496.858C761.915 497.884 761.061 498.893 760.149 499.886L750.628 510.213H768.45Z" fill="#FD0404"/>
<path d="M215.789 518.807H770.306V521.248H215.789V518.807Z" fill="#FD0404"/>
</g>
<path d="M28 28V26H26V28H28ZM1110 28H1112V26H1110V28ZM1110 638.884V640.884H1112V638.884H1110ZM28 638.884H26V640.884H28V638.884ZM28 30H1110V26H28V30ZM1108 28V638.884H1112V28H1108ZM1110 636.884H28V640.884H1110V636.884ZM30 638.884V28H26V638.884H30Z" fill="black"/>
</g>
<defs>
<filter id="filter0_d_146_3035" x="0" y="0" width="1154" height="682.885" filterUnits="userSpaceOnUse" color-interpolation-filters="sRGB">
<feFlood flood-opacity="0" result="BackgroundImageFix"/>
<feColorMatrix in="SourceAlpha" type="matrix" values="0 0 0 0 0 0 0 0 0 0 0 0 0 0 0 0 0 0 127 0" result="hardAlpha"/>
<feOffset dx="8" dy="8"/>
<feGaussianBlur stdDeviation="17"/>
<feComposite in2="hardAlpha" operator="out"/>
<feColorMatrix type="matrix" values="0 0 0 0 0 0 0 0 0 0 0 0 0 0 0 0 0 0 0.25 0"/>
<feBlend mode="normal" in2="BackgroundImageFix" result="effect1_dropShadow_146_3035"/>
<feBlend mode="normal" in="SourceGraphic" in2="effect1_dropShadow_146_3035" result="shape"/>
</filter>
<clipPath id="clip0_146_3035">
<path d="M28 28H1110V638.884H28V28Z" fill="white"/>
</clipPath>
</defs>
</svg>
