<svg width="1154" height="683" viewBox="0 0 1154 683" fill="none" xmlns="http://www.w3.org/2000/svg">
<g filter="url(#filter0_d_146_3041)">
<g clip-path="url(#clip0_146_3041)">
<path d="M28 28H1110V638.884H28V28Z" fill="#FFF87B"/>
<rect width="1081" height="99" transform="translate(28 27.9414)" fill="#FFF87B"/>
<line x1="914.006" y1="76.4121" x2="953.949" y2="76.4121" stroke="#FD0404" stroke-width="3"/>
<rect x="975.031" y="56.4414" width="42.9428" height="42.9428" stroke="#FD0404" stroke-width="3"/>
<line x1="1038" y1="96.8241" x2="1077.94" y2="56.8813" stroke="#FD0404" stroke-width="3"/>
<line x1="1040.12" y1="56.8807" x2="1080.06" y2="96.8235" stroke="#FD0404" stroke-width="3"/>
<path d="M151.36 162.453H163.128C165.797 162.453 168.051 162.86 169.891 163.674C171.746 164.488 173.154 165.692 174.114 167.287C175.091 168.866 175.579 170.811 175.579 173.122C175.579 174.75 175.245 176.239 174.578 177.59C173.927 178.924 172.983 180.064 171.746 181.008C170.525 181.936 169.061 182.627 167.352 183.083L166.033 183.596H154.974L154.925 179.763H163.274C164.967 179.763 166.375 179.47 167.498 178.884C168.621 178.282 169.467 177.476 170.037 176.467C170.607 175.458 170.892 174.343 170.892 173.122C170.892 171.755 170.623 170.559 170.086 169.533C169.549 168.508 168.702 167.718 167.547 167.165C166.408 166.595 164.935 166.311 163.128 166.311H156.072V198H151.36V162.453ZM172.137 198L163.494 181.887L168.401 181.862L177.166 197.707V198H172.137ZM192.449 198.488C190.61 198.488 188.942 198.179 187.444 197.561C185.963 196.926 184.686 196.039 183.611 194.899C182.553 193.76 181.74 192.409 181.17 190.847C180.6 189.284 180.315 187.575 180.315 185.72V184.694C180.315 182.546 180.633 180.633 181.268 178.957C181.902 177.264 182.765 175.832 183.855 174.66C184.946 173.488 186.183 172.601 187.566 171.999C188.95 171.397 190.382 171.096 191.863 171.096C193.751 171.096 195.379 171.421 196.746 172.072C198.13 172.723 199.261 173.635 200.14 174.807C201.019 175.962 201.67 177.329 202.093 178.908C202.516 180.471 202.728 182.18 202.728 184.035V186.062H183.001V182.375H198.211V182.033C198.146 180.861 197.902 179.722 197.479 178.615C197.072 177.508 196.421 176.597 195.525 175.881C194.63 175.165 193.41 174.807 191.863 174.807C190.838 174.807 189.894 175.026 189.031 175.466C188.169 175.889 187.428 176.524 186.81 177.37C186.191 178.216 185.711 179.25 185.369 180.471C185.027 181.691 184.856 183.099 184.856 184.694V185.72C184.856 186.973 185.027 188.153 185.369 189.26C185.727 190.35 186.24 191.311 186.907 192.141C187.591 192.971 188.413 193.622 189.373 194.094C190.35 194.566 191.456 194.802 192.693 194.802C194.288 194.802 195.639 194.476 196.746 193.825C197.853 193.174 198.821 192.303 199.651 191.213L202.386 193.386C201.816 194.248 201.092 195.07 200.213 195.852C199.334 196.633 198.252 197.268 196.966 197.756C195.696 198.244 194.191 198.488 192.449 198.488ZM212.493 176.833V198H207.952V171.584H212.249L212.493 176.833ZM211.565 183.791L209.466 183.718C209.482 181.911 209.718 180.243 210.174 178.713C210.63 177.167 211.305 175.824 212.2 174.685C213.095 173.545 214.21 172.666 215.545 172.048C216.88 171.413 218.426 171.096 220.184 171.096C221.421 171.096 222.56 171.275 223.602 171.633C224.643 171.975 225.547 172.52 226.312 173.269C227.076 174.017 227.671 174.978 228.094 176.149C228.517 177.321 228.729 178.737 228.729 180.397V198H224.212V180.617C224.212 179.234 223.976 178.127 223.504 177.297C223.048 176.467 222.397 175.865 221.551 175.49C220.704 175.1 219.712 174.904 218.572 174.904C217.238 174.904 216.123 175.14 215.228 175.612C214.332 176.084 213.616 176.735 213.079 177.565C212.542 178.396 212.151 179.348 211.907 180.422C211.679 181.48 211.565 182.603 211.565 183.791ZM228.68 181.301L225.652 182.229C225.669 180.78 225.905 179.388 226.36 178.054C226.832 176.719 227.508 175.531 228.387 174.489C229.282 173.448 230.381 172.626 231.683 172.023C232.985 171.405 234.474 171.096 236.15 171.096C237.566 171.096 238.82 171.283 239.91 171.657C241.017 172.032 241.945 172.609 242.693 173.391C243.458 174.156 244.036 175.14 244.427 176.345C244.817 177.549 245.013 178.981 245.013 180.642V198H240.472V180.593C240.472 179.112 240.236 177.964 239.764 177.15C239.308 176.32 238.657 175.743 237.811 175.417C236.98 175.075 235.988 174.904 234.832 174.904C233.839 174.904 232.96 175.075 232.195 175.417C231.43 175.759 230.787 176.231 230.267 176.833C229.746 177.419 229.347 178.094 229.07 178.859C228.81 179.624 228.68 180.438 228.68 181.301ZM256.756 171.584V198H252.215V171.584H256.756ZM251.873 164.577C251.873 163.845 252.093 163.226 252.532 162.722C252.988 162.217 253.655 161.965 254.534 161.965C255.397 161.965 256.056 162.217 256.512 162.722C256.984 163.226 257.22 163.845 257.22 164.577C257.22 165.277 256.984 165.879 256.512 166.384C256.056 166.872 255.397 167.116 254.534 167.116C253.655 167.116 252.988 166.872 252.532 166.384C252.093 165.879 251.873 165.277 251.873 164.577ZM268.523 177.224V198H264.007V171.584H268.279L268.523 177.224ZM267.449 183.791L265.569 183.718C265.586 181.911 265.854 180.243 266.375 178.713C266.896 177.167 267.628 175.824 268.572 174.685C269.516 173.545 270.639 172.666 271.941 172.048C273.26 171.413 274.716 171.096 276.312 171.096C277.614 171.096 278.785 171.275 279.827 171.633C280.869 171.975 281.756 172.528 282.488 173.293C283.237 174.058 283.807 175.051 284.197 176.271C284.588 177.476 284.783 178.949 284.783 180.69V198H280.242V180.642C280.242 179.258 280.039 178.151 279.632 177.321C279.225 176.475 278.631 175.865 277.85 175.49C277.068 175.1 276.108 174.904 274.969 174.904C273.846 174.904 272.82 175.14 271.893 175.612C270.981 176.084 270.192 176.735 269.524 177.565C268.873 178.396 268.361 179.348 267.986 180.422C267.628 181.48 267.449 182.603 267.449 183.791ZM308.294 192.873V160.5H312.835V198H308.685L308.294 192.873ZM290.521 185.085V184.572C290.521 182.554 290.765 180.723 291.253 179.079C291.757 177.419 292.465 175.995 293.377 174.807C294.305 173.618 295.403 172.707 296.673 172.072C297.959 171.421 299.391 171.096 300.97 171.096C302.63 171.096 304.078 171.389 305.315 171.975C306.569 172.544 307.627 173.382 308.489 174.489C309.368 175.58 310.06 176.898 310.564 178.444C311.069 179.991 311.419 181.74 311.614 183.693V185.939C311.435 187.876 311.085 189.618 310.564 191.164C310.06 192.71 309.368 194.029 308.489 195.119C307.627 196.21 306.569 197.048 305.315 197.634C304.062 198.203 302.597 198.488 300.921 198.488C299.375 198.488 297.959 198.155 296.673 197.487C295.403 196.82 294.305 195.884 293.377 194.68C292.465 193.475 291.757 192.059 291.253 190.432C290.765 188.788 290.521 187.006 290.521 185.085ZM295.062 184.572V185.085C295.062 186.403 295.192 187.64 295.452 188.796C295.729 189.951 296.152 190.969 296.722 191.848C297.291 192.727 298.016 193.418 298.895 193.923C299.773 194.411 300.823 194.655 302.044 194.655C303.541 194.655 304.77 194.338 305.73 193.703C306.707 193.068 307.488 192.23 308.074 191.188C308.66 190.147 309.116 189.016 309.441 187.795V181.911C309.246 181.016 308.961 180.153 308.587 179.323C308.229 178.477 307.757 177.728 307.171 177.077C306.601 176.41 305.893 175.881 305.047 175.49C304.217 175.1 303.232 174.904 302.093 174.904C300.856 174.904 299.79 175.165 298.895 175.686C298.016 176.19 297.291 176.89 296.722 177.785C296.152 178.664 295.729 179.689 295.452 180.861C295.192 182.017 295.062 183.254 295.062 184.572ZM330.828 198.488C328.989 198.488 327.321 198.179 325.823 197.561C324.342 196.926 323.064 196.039 321.99 194.899C320.932 193.76 320.118 192.409 319.549 190.847C318.979 189.284 318.694 187.575 318.694 185.72V184.694C318.694 182.546 319.012 180.633 319.646 178.957C320.281 177.264 321.144 175.832 322.234 174.66C323.325 173.488 324.562 172.601 325.945 171.999C327.329 171.397 328.761 171.096 330.242 171.096C332.13 171.096 333.758 171.421 335.125 172.072C336.508 172.723 337.64 173.635 338.519 174.807C339.397 175.962 340.049 177.329 340.472 178.908C340.895 180.471 341.106 182.18 341.106 184.035V186.062H321.38V182.375H336.59V182.033C336.525 180.861 336.281 179.722 335.857 178.615C335.451 177.508 334.799 176.597 333.904 175.881C333.009 175.165 331.788 174.807 330.242 174.807C329.217 174.807 328.273 175.026 327.41 175.466C326.548 175.889 325.807 176.524 325.188 177.37C324.57 178.216 324.09 179.25 323.748 180.471C323.406 181.691 323.235 183.099 323.235 184.694V185.72C323.235 186.973 323.406 188.153 323.748 189.26C324.106 190.35 324.619 191.311 325.286 192.141C325.97 192.971 326.792 193.622 327.752 194.094C328.729 194.566 329.835 194.802 331.072 194.802C332.667 194.802 334.018 194.476 335.125 193.825C336.232 193.174 337.2 192.303 338.03 191.213L340.765 193.386C340.195 194.248 339.471 195.07 338.592 195.852C337.713 196.633 336.631 197.268 335.345 197.756C334.075 198.244 332.57 198.488 330.828 198.488ZM350.896 175.734V198H346.38V171.584H350.774L350.896 175.734ZM359.148 171.438L359.124 175.637C358.75 175.555 358.392 175.507 358.05 175.49C357.724 175.458 357.35 175.441 356.927 175.441C355.885 175.441 354.965 175.604 354.168 175.93C353.37 176.255 352.695 176.711 352.142 177.297C351.588 177.883 351.149 178.583 350.823 179.396C350.514 180.194 350.311 181.073 350.213 182.033L348.943 182.766C348.943 181.171 349.098 179.673 349.407 178.273C349.733 176.874 350.229 175.637 350.896 174.562C351.564 173.472 352.41 172.626 353.436 172.023C354.477 171.405 355.714 171.096 357.146 171.096C357.472 171.096 357.846 171.136 358.27 171.218C358.693 171.283 358.986 171.356 359.148 171.438Z" fill="#FD0404"/>
<path d="M156.36 283.195H165.042L177.825 319.733L190.608 283.195H199.29L181.312 332.961H174.339L156.36 283.195ZM151.678 283.195H160.325L161.897 318.811V332.961H151.678V283.195ZM195.325 283.195H204.007V332.961H193.753V318.811L195.325 283.195ZM232.342 324.621V308.146C232.342 306.962 232.148 305.948 231.761 305.104C231.373 304.239 230.77 303.566 229.949 303.088C229.152 302.609 228.115 302.37 226.839 302.37C225.745 302.37 224.799 302.564 224.002 302.951C223.204 303.316 222.589 303.851 222.156 304.558C221.723 305.241 221.507 306.05 221.507 306.984H211.663C211.663 305.412 212.028 303.92 212.757 302.507C213.486 301.094 214.546 299.852 215.936 298.781C217.326 297.688 218.978 296.833 220.892 296.218C222.828 295.603 224.993 295.295 227.386 295.295C230.257 295.295 232.809 295.773 235.042 296.73C237.275 297.688 239.03 299.123 240.306 301.037C241.604 302.951 242.254 305.344 242.254 308.215V324.04C242.254 326.068 242.379 327.731 242.63 329.03C242.881 330.306 243.245 331.423 243.724 332.38V332.961H233.777C233.299 331.958 232.934 330.705 232.684 329.201C232.456 327.674 232.342 326.148 232.342 324.621ZM233.641 310.437L233.709 316.008H228.206C226.907 316.008 225.779 316.156 224.822 316.452C223.865 316.748 223.079 317.17 222.464 317.717C221.849 318.241 221.393 318.856 221.097 319.562C220.823 320.269 220.687 321.044 220.687 321.887C220.687 322.73 220.88 323.493 221.268 324.177C221.655 324.838 222.213 325.362 222.942 325.749C223.672 326.114 224.526 326.296 225.506 326.296C226.987 326.296 228.274 326 229.368 325.407C230.462 324.815 231.305 324.086 231.897 323.22C232.513 322.354 232.832 321.534 232.854 320.759L235.452 324.929C235.088 325.863 234.586 326.831 233.948 327.834C233.333 328.837 232.547 329.782 231.59 330.671C230.633 331.537 229.482 332.255 228.138 332.824C226.793 333.371 225.198 333.645 223.353 333.645C221.006 333.645 218.875 333.177 216.961 332.243C215.07 331.286 213.566 329.976 212.449 328.312C211.355 326.626 210.809 324.712 210.809 322.57C210.809 320.633 211.173 318.913 211.902 317.409C212.632 315.905 213.702 314.641 215.115 313.615C216.551 312.567 218.34 311.781 220.481 311.257C222.623 310.71 225.107 310.437 227.933 310.437H233.641ZM259.686 304.045V332.961H249.842V295.979H259.104L259.686 304.045ZM270.828 295.739L270.657 304.865C270.179 304.797 269.598 304.74 268.914 304.694C268.253 304.626 267.649 304.592 267.103 304.592C265.713 304.592 264.505 304.774 263.479 305.139C262.477 305.48 261.634 305.993 260.95 306.677C260.289 307.36 259.788 308.192 259.446 309.172C259.127 310.152 258.945 311.268 258.899 312.521L256.917 311.906C256.917 309.514 257.156 307.315 257.635 305.31C258.113 303.282 258.808 301.516 259.72 300.012C260.654 298.508 261.793 297.346 263.138 296.525C264.482 295.705 266.02 295.295 267.752 295.295C268.299 295.295 268.857 295.34 269.427 295.432C269.996 295.5 270.464 295.603 270.828 295.739ZM290.071 325.954C291.279 325.954 292.35 325.726 293.284 325.271C294.218 324.792 294.948 324.131 295.472 323.288C296.019 322.422 296.303 321.408 296.326 320.246H305.589C305.566 322.844 304.871 325.157 303.504 327.185C302.137 329.19 300.302 330.773 298.001 331.936C295.7 333.075 293.125 333.645 290.276 333.645C287.405 333.645 284.899 333.166 282.757 332.209C280.638 331.252 278.872 329.93 277.459 328.244C276.046 326.535 274.987 324.553 274.28 322.297C273.574 320.018 273.221 317.58 273.221 314.982V313.991C273.221 311.371 273.574 308.933 274.28 306.677C274.987 304.398 276.046 302.416 277.459 300.729C278.872 299.021 280.638 297.688 282.757 296.73C284.876 295.773 287.36 295.295 290.208 295.295C293.239 295.295 295.893 295.876 298.172 297.038C300.473 298.2 302.273 299.864 303.572 302.028C304.894 304.17 305.566 306.711 305.589 309.65H296.326C296.303 308.42 296.041 307.303 295.54 306.301C295.062 305.298 294.355 304.501 293.421 303.908C292.509 303.293 291.382 302.985 290.037 302.985C288.602 302.985 287.428 303.293 286.517 303.908C285.605 304.501 284.899 305.321 284.397 306.369C283.896 307.395 283.543 308.568 283.338 309.89C283.156 311.188 283.064 312.556 283.064 313.991V314.982C283.064 316.418 283.156 317.797 283.338 319.118C283.52 320.44 283.862 321.613 284.363 322.639C284.887 323.664 285.605 324.473 286.517 325.065C287.428 325.658 288.613 325.954 290.071 325.954ZM320.901 280.461V332.961H311.058V280.461H320.901ZM319.5 313.171H316.8C316.823 310.596 317.164 308.226 317.825 306.062C318.486 303.874 319.432 301.983 320.662 300.388C321.893 298.77 323.362 297.517 325.071 296.628C326.803 295.739 328.717 295.295 330.813 295.295C332.636 295.295 334.288 295.557 335.77 296.081C337.273 296.582 338.561 297.403 339.632 298.542C340.726 299.659 341.569 301.128 342.161 302.951C342.754 304.774 343.05 306.984 343.05 309.582V332.961H333.138V309.514C333.138 307.873 332.898 306.586 332.42 305.651C331.964 304.694 331.292 304.022 330.403 303.635C329.537 303.225 328.466 303.02 327.19 303.02C325.778 303.02 324.57 303.282 323.567 303.806C322.588 304.33 321.801 305.059 321.209 305.993C320.617 306.905 320.184 307.976 319.91 309.206C319.637 310.437 319.5 311.758 319.5 313.171ZM378.836 283.195V332.961H368.582V283.195H378.836ZM398.66 304.455V312.453H376.033V304.455H398.66ZM401.053 283.195V291.228H376.033V283.195H401.053ZM422.654 333.645C419.783 333.645 417.208 333.189 414.93 332.277C412.651 331.343 410.714 330.056 409.119 328.415C407.547 326.774 406.339 324.872 405.496 322.707C404.653 320.52 404.231 318.195 404.231 315.734V314.367C404.231 311.564 404.63 309.001 405.428 306.677C406.225 304.353 407.365 302.336 408.846 300.627C410.35 298.918 412.173 297.608 414.314 296.696C416.456 295.762 418.872 295.295 421.561 295.295C424.181 295.295 426.505 295.728 428.533 296.594C430.561 297.46 432.259 298.69 433.626 300.285C435.016 301.88 436.064 303.794 436.771 306.027C437.477 308.238 437.83 310.699 437.83 313.41V317.512H408.436V310.949H428.157V310.197C428.157 308.83 427.907 307.611 427.405 306.54C426.927 305.446 426.198 304.58 425.218 303.942C424.238 303.304 422.985 302.985 421.458 302.985C420.159 302.985 419.043 303.27 418.108 303.84C417.174 304.41 416.411 305.207 415.818 306.232C415.249 307.258 414.816 308.465 414.52 309.855C414.246 311.223 414.109 312.727 414.109 314.367V315.734C414.109 317.215 414.314 318.583 414.725 319.836C415.158 321.089 415.761 322.172 416.536 323.083C417.334 323.994 418.291 324.701 419.407 325.202C420.547 325.703 421.834 325.954 423.27 325.954C425.047 325.954 426.699 325.612 428.226 324.929C429.775 324.222 431.108 323.163 432.225 321.75L437.01 326.945C436.235 328.062 435.175 329.133 433.831 330.158C432.509 331.184 430.914 332.027 429.046 332.688C427.177 333.326 425.047 333.645 422.654 333.645ZM463.431 322.741C463.431 322.035 463.226 321.397 462.815 320.827C462.405 320.257 461.642 319.733 460.525 319.255C459.432 318.754 457.848 318.298 455.774 317.888C453.906 317.478 452.163 316.965 450.545 316.35C448.95 315.712 447.56 314.948 446.375 314.06C445.213 313.171 444.301 312.123 443.641 310.915C442.98 309.685 442.649 308.283 442.649 306.711C442.649 305.161 442.98 303.703 443.641 302.336C444.324 300.969 445.293 299.761 446.546 298.713C447.822 297.642 449.371 296.81 451.194 296.218C453.04 295.603 455.114 295.295 457.415 295.295C460.628 295.295 463.385 295.808 465.687 296.833C468.011 297.858 469.788 299.271 471.019 301.071C472.272 302.849 472.898 304.877 472.898 307.155H463.055C463.055 306.198 462.85 305.344 462.439 304.592C462.052 303.817 461.437 303.213 460.594 302.78C459.773 302.325 458.702 302.097 457.381 302.097C456.287 302.097 455.341 302.29 454.544 302.678C453.746 303.042 453.131 303.544 452.698 304.182C452.288 304.797 452.083 305.48 452.083 306.232C452.083 306.802 452.197 307.315 452.425 307.771C452.675 308.203 453.074 308.602 453.621 308.967C454.168 309.331 454.874 309.673 455.74 309.992C456.629 310.288 457.723 310.562 459.021 310.812C461.688 311.359 464.069 312.077 466.165 312.966C468.261 313.832 469.925 315.017 471.155 316.521C472.386 318.002 473.001 319.95 473.001 322.365C473.001 324.006 472.636 325.51 471.907 326.877C471.178 328.244 470.13 329.44 468.763 330.466C467.396 331.468 465.755 332.255 463.841 332.824C461.95 333.371 459.819 333.645 457.449 333.645C454.008 333.645 451.092 333.029 448.699 331.799C446.329 330.568 444.529 329.007 443.299 327.116C442.091 325.202 441.487 323.243 441.487 321.237H450.818C450.864 322.582 451.206 323.664 451.844 324.484C452.505 325.305 453.336 325.897 454.339 326.262C455.364 326.626 456.469 326.809 457.654 326.809C458.93 326.809 459.99 326.638 460.833 326.296C461.676 325.931 462.314 325.453 462.747 324.86C463.203 324.245 463.431 323.539 463.431 322.741ZM497.508 295.979V302.951H475.975V295.979H497.508ZM481.307 286.853H491.15V321.818C491.15 322.889 491.287 323.71 491.561 324.279C491.857 324.849 492.29 325.248 492.859 325.476C493.429 325.681 494.147 325.783 495.013 325.783C495.628 325.783 496.175 325.76 496.653 325.715C497.155 325.646 497.576 325.578 497.918 325.51L497.952 332.756C497.109 333.029 496.198 333.246 495.218 333.405C494.238 333.565 493.156 333.645 491.971 333.645C489.806 333.645 487.915 333.291 486.297 332.585C484.702 331.856 483.471 330.694 482.605 329.099C481.74 327.504 481.307 325.407 481.307 322.81V286.853ZM513.504 295.979V332.961H503.626V295.979H513.504ZM503.011 286.34C503.011 284.904 503.512 283.719 504.515 282.785C505.517 281.851 506.862 281.384 508.548 281.384C510.211 281.384 511.544 281.851 512.547 282.785C513.572 283.719 514.085 284.904 514.085 286.34C514.085 287.775 513.572 288.96 512.547 289.895C511.544 290.829 510.211 291.296 508.548 291.296C506.862 291.296 505.517 290.829 504.515 289.895C503.512 288.96 503.011 287.775 503.011 286.34ZM534.217 325.783L542.42 295.979H552.708L540.232 332.961H534.012L534.217 325.783ZM528.577 295.979L536.814 325.817L536.985 332.961H530.73L518.255 295.979H528.577ZM576.531 324.621V308.146C576.531 306.962 576.338 305.948 575.95 305.104C575.563 304.239 574.959 303.566 574.139 303.088C573.341 302.609 572.304 302.37 571.028 302.37C569.935 302.37 568.989 302.564 568.191 302.951C567.394 303.316 566.779 303.851 566.346 304.558C565.913 305.241 565.696 306.05 565.696 306.984H555.853C555.853 305.412 556.217 303.92 556.946 302.507C557.675 301.094 558.735 299.852 560.125 298.781C561.515 297.688 563.167 296.833 565.081 296.218C567.018 295.603 569.183 295.295 571.575 295.295C574.446 295.295 576.998 295.773 579.231 296.73C581.465 297.688 583.219 299.123 584.495 301.037C585.794 302.951 586.443 305.344 586.443 308.215V324.04C586.443 326.068 586.569 327.731 586.819 329.03C587.07 330.306 587.435 331.423 587.913 332.38V332.961H577.967C577.488 331.958 577.124 330.705 576.873 329.201C576.645 327.674 576.531 326.148 576.531 324.621ZM577.83 310.437L577.898 316.008H572.396C571.097 316.008 569.969 316.156 569.012 316.452C568.055 316.748 567.269 317.17 566.653 317.717C566.038 318.241 565.582 318.856 565.286 319.562C565.013 320.269 564.876 321.044 564.876 321.887C564.876 322.73 565.07 323.493 565.457 324.177C565.844 324.838 566.403 325.362 567.132 325.749C567.861 326.114 568.715 326.296 569.695 326.296C571.176 326.296 572.464 326 573.558 325.407C574.651 324.815 575.494 324.086 576.087 323.22C576.702 322.354 577.021 321.534 577.044 320.759L579.642 324.929C579.277 325.863 578.776 326.831 578.138 327.834C577.522 328.837 576.736 329.782 575.779 330.671C574.822 331.537 573.672 332.255 572.327 332.824C570.983 333.371 569.388 333.645 567.542 333.645C565.195 333.645 563.064 333.177 561.15 332.243C559.259 331.286 557.755 329.976 556.639 328.312C555.545 326.626 554.998 324.712 554.998 322.57C554.998 320.633 555.363 318.913 556.092 317.409C556.821 315.905 557.892 314.641 559.305 313.615C560.74 312.567 562.529 311.781 564.671 311.257C566.813 310.71 569.297 310.437 572.122 310.437H577.83ZM604.422 280.461V332.961H594.544V280.461H604.422ZM663.997 324.963V332.961H637.508V324.963H663.997ZM640.857 283.195V332.961H630.604V283.195H640.857ZM660.545 303.464V311.257H637.508V303.464H660.545ZM663.963 283.195V291.228H637.508V283.195H663.963ZM681.053 325.783L689.256 295.979H699.544L687.068 332.961H680.848L681.053 325.783ZM675.413 295.979L683.65 325.817L683.821 332.961H677.566L665.091 295.979H675.413ZM720.496 333.645C717.625 333.645 715.05 333.189 712.771 332.277C710.493 331.343 708.556 330.056 706.961 328.415C705.389 326.774 704.181 324.872 703.338 322.707C702.495 320.52 702.073 318.195 702.073 315.734V314.367C702.073 311.564 702.472 309.001 703.27 306.677C704.067 304.353 705.206 302.336 706.688 300.627C708.191 298.918 710.014 297.608 712.156 296.696C714.298 295.762 716.714 295.295 719.402 295.295C722.023 295.295 724.347 295.728 726.375 296.594C728.403 297.46 730.101 298.69 731.468 300.285C732.858 301.88 733.906 303.794 734.612 306.027C735.319 308.238 735.672 310.699 735.672 313.41V317.512H706.277V310.949H725.999V310.197C725.999 308.83 725.748 307.611 725.247 306.54C724.769 305.446 724.039 304.58 723.06 303.942C722.08 303.304 720.826 302.985 719.3 302.985C718.001 302.985 716.884 303.27 715.95 303.84C715.016 304.41 714.253 305.207 713.66 306.232C713.09 307.258 712.658 308.465 712.361 309.855C712.088 311.223 711.951 312.727 711.951 314.367V315.734C711.951 317.215 712.156 318.583 712.566 319.836C712.999 321.089 713.603 322.172 714.378 323.083C715.175 323.994 716.132 324.701 717.249 325.202C718.388 325.703 719.676 325.954 721.111 325.954C722.889 325.954 724.541 325.612 726.067 324.929C727.617 324.222 728.95 323.163 730.066 321.75L734.852 326.945C734.077 328.062 733.017 329.133 731.673 330.158C730.351 331.184 728.756 332.027 726.888 332.688C725.019 333.326 722.889 333.645 720.496 333.645ZM750.916 303.874V332.961H741.072V295.979H750.301L750.916 303.874ZM749.48 313.171H746.814C746.814 310.437 747.168 307.976 747.874 305.788C748.58 303.578 749.572 301.698 750.848 300.148C752.124 298.576 753.639 297.38 755.394 296.56C757.171 295.716 759.153 295.295 761.341 295.295C763.073 295.295 764.656 295.546 766.092 296.047C767.527 296.548 768.758 297.346 769.783 298.439C770.831 299.533 771.629 300.98 772.176 302.78C772.745 304.58 773.03 306.779 773.03 309.377V332.961H763.118V309.343C763.118 307.702 762.89 306.426 762.435 305.515C761.979 304.603 761.307 303.965 760.418 303.601C759.552 303.213 758.481 303.02 757.205 303.02C755.883 303.02 754.733 303.282 753.753 303.806C752.796 304.33 751.998 305.059 751.36 305.993C750.745 306.905 750.278 307.976 749.959 309.206C749.64 310.437 749.48 311.758 749.48 313.171ZM798.631 295.979V302.951H777.098V295.979H798.631ZM782.43 286.853H792.273V321.818C792.273 322.889 792.41 323.71 792.684 324.279C792.98 324.849 793.413 325.248 793.982 325.476C794.552 325.681 795.27 325.783 796.136 325.783C796.751 325.783 797.298 325.76 797.776 325.715C798.278 325.646 798.699 325.578 799.041 325.51L799.075 332.756C798.232 333.029 797.321 333.246 796.341 333.405C795.361 333.565 794.279 333.645 793.094 333.645C790.929 333.645 789.038 333.291 787.42 332.585C785.825 331.856 784.594 330.694 783.729 329.099C782.863 327.504 782.43 325.407 782.43 322.81V286.853ZM183.67 406.963V414.961H158.616V406.963H183.67ZM161.932 365.195V414.961H151.678V365.195H161.932ZM208.895 406.621V390.146C208.895 388.962 208.701 387.948 208.313 387.104C207.926 386.239 207.322 385.566 206.502 385.088C205.704 384.609 204.668 384.37 203.392 384.37C202.298 384.37 201.352 384.564 200.555 384.951C199.757 385.316 199.142 385.851 198.709 386.558C198.276 387.241 198.06 388.05 198.06 388.984H188.216C188.216 387.412 188.58 385.92 189.31 384.507C190.039 383.094 191.098 381.852 192.488 380.781C193.878 379.688 195.53 378.833 197.444 378.218C199.381 377.603 201.546 377.295 203.938 377.295C206.81 377.295 209.362 377.773 211.595 378.73C213.828 379.688 215.582 381.123 216.858 383.037C218.157 384.951 218.807 387.344 218.807 390.215V406.04C218.807 408.068 218.932 409.731 219.183 411.03C219.433 412.306 219.798 413.423 220.276 414.38V414.961H210.33C209.852 413.958 209.487 412.705 209.236 411.201C209.008 409.674 208.895 408.148 208.895 406.621ZM210.193 392.437L210.262 398.008H204.759C203.46 398.008 202.332 398.156 201.375 398.452C200.418 398.748 199.632 399.17 199.017 399.717C198.401 400.241 197.946 400.856 197.649 401.562C197.376 402.269 197.239 403.044 197.239 403.887C197.239 404.73 197.433 405.493 197.82 406.177C198.208 406.838 198.766 407.362 199.495 407.749C200.224 408.114 201.079 408.296 202.059 408.296C203.54 408.296 204.827 408 205.921 407.407C207.015 406.815 207.858 406.086 208.45 405.22C209.065 404.354 209.384 403.534 209.407 402.759L212.005 406.929C211.64 407.863 211.139 408.831 210.501 409.834C209.886 410.837 209.1 411.782 208.143 412.671C207.186 413.537 206.035 414.255 204.69 414.824C203.346 415.371 201.751 415.645 199.905 415.645C197.558 415.645 195.428 415.177 193.514 414.243C191.622 413.286 190.118 411.976 189.002 410.312C187.908 408.626 187.361 406.712 187.361 404.57C187.361 402.633 187.726 400.913 188.455 399.409C189.184 397.905 190.255 396.641 191.668 395.615C193.104 394.567 194.892 393.781 197.034 393.257C199.176 392.71 201.66 392.437 204.485 392.437H210.193ZM236.033 385.874V414.961H226.189V377.979H235.418L236.033 385.874ZM234.598 395.171H231.932C231.932 392.437 232.285 389.976 232.991 387.788C233.698 385.578 234.689 383.698 235.965 382.148C237.241 380.576 238.756 379.38 240.511 378.56C242.288 377.716 244.271 377.295 246.458 377.295C248.19 377.295 249.773 377.546 251.209 378.047C252.645 378.548 253.875 379.346 254.9 380.439C255.949 381.533 256.746 382.98 257.293 384.78C257.863 386.58 258.147 388.779 258.147 391.377V414.961H248.235V391.343C248.235 389.702 248.007 388.426 247.552 387.515C247.096 386.603 246.424 385.965 245.535 385.601C244.669 385.213 243.598 385.02 242.322 385.02C241.001 385.02 239.85 385.282 238.87 385.806C237.913 386.33 237.116 387.059 236.478 387.993C235.862 388.905 235.395 389.976 235.076 391.206C234.757 392.437 234.598 393.758 234.598 395.171ZM287.474 406.895V362.461H297.386V414.961H288.465L287.474 406.895ZM264.095 396.914V396.196C264.095 393.371 264.414 390.807 265.052 388.506C265.69 386.182 266.624 384.188 267.854 382.524C269.085 380.861 270.6 379.574 272.4 378.662C274.201 377.751 276.251 377.295 278.553 377.295C280.717 377.295 282.609 377.751 284.227 378.662C285.867 379.574 287.257 380.872 288.396 382.559C289.559 384.222 290.493 386.193 291.199 388.472C291.906 390.728 292.418 393.2 292.737 395.889V397.461C292.418 400.036 291.906 402.428 291.199 404.639C290.493 406.849 289.559 408.786 288.396 410.449C287.257 412.09 285.867 413.366 284.227 414.277C282.586 415.189 280.672 415.645 278.484 415.645C276.183 415.645 274.132 415.177 272.332 414.243C270.555 413.309 269.051 411.999 267.82 410.312C266.613 408.626 265.69 406.644 265.052 404.365C264.414 402.087 264.095 399.603 264.095 396.914ZM273.938 396.196V396.914C273.938 398.441 274.052 399.865 274.28 401.187C274.531 402.508 274.93 403.682 275.477 404.707C276.046 405.71 276.775 406.496 277.664 407.065C278.576 407.612 279.681 407.886 280.979 407.886C282.666 407.886 284.056 407.51 285.149 406.758C286.243 405.983 287.075 404.924 287.645 403.579C288.237 402.235 288.579 400.685 288.67 398.931V394.453C288.602 393.018 288.396 391.73 288.055 390.591C287.736 389.429 287.257 388.438 286.619 387.617C286.004 386.797 285.229 386.159 284.295 385.703C283.383 385.247 282.301 385.02 281.048 385.02C279.772 385.02 278.678 385.316 277.767 385.908C276.855 386.478 276.115 387.264 275.545 388.267C274.998 389.269 274.588 390.454 274.314 391.821C274.064 393.166 273.938 394.624 273.938 396.196ZM315.467 377.979V414.961H305.589V377.979H315.467ZM304.974 368.34C304.974 366.904 305.475 365.719 306.478 364.785C307.48 363.851 308.825 363.384 310.511 363.384C312.174 363.384 313.507 363.851 314.51 364.785C315.535 365.719 316.048 366.904 316.048 368.34C316.048 369.775 315.535 370.96 314.51 371.895C313.507 372.829 312.174 373.296 310.511 373.296C308.825 373.296 307.48 372.829 306.478 371.895C305.475 370.96 304.974 369.775 304.974 368.34ZM333.24 385.874V414.961H323.396V377.979H332.625L333.24 385.874ZM331.805 395.171H329.139C329.139 392.437 329.492 389.976 330.198 387.788C330.905 385.578 331.896 383.698 333.172 382.148C334.448 380.576 335.963 379.38 337.718 378.56C339.495 377.716 341.478 377.295 343.665 377.295C345.397 377.295 346.98 377.546 348.416 378.047C349.852 378.548 351.082 379.346 352.107 380.439C353.156 381.533 353.953 382.98 354.5 384.78C355.07 386.58 355.354 388.779 355.354 391.377V414.961H345.442V391.343C345.442 389.702 345.215 388.426 344.759 387.515C344.303 386.603 343.631 385.965 342.742 385.601C341.876 385.213 340.805 385.02 339.529 385.02C338.208 385.02 337.057 385.282 336.077 385.806C335.12 386.33 334.323 387.059 333.685 387.993C333.069 388.905 332.602 389.976 332.283 391.206C331.964 392.437 331.805 393.758 331.805 395.171ZM386.253 377.979H395.174V413.73C395.174 417.103 394.422 419.963 392.918 422.31C391.437 424.679 389.363 426.468 386.697 427.676C384.031 428.906 380.932 429.521 377.4 429.521C375.851 429.521 374.21 429.316 372.479 428.906C370.77 428.496 369.129 427.858 367.557 426.992C366.007 426.126 364.708 425.033 363.66 423.711L368.001 417.9C369.14 419.222 370.462 420.247 371.966 420.977C373.47 421.729 375.133 422.104 376.956 422.104C378.733 422.104 380.237 421.774 381.468 421.113C382.698 420.475 383.644 419.53 384.305 418.276C384.965 417.046 385.296 415.553 385.296 413.799V386.523L386.253 377.979ZM361.37 396.914V396.196C361.37 393.371 361.712 390.807 362.396 388.506C363.102 386.182 364.093 384.188 365.369 382.524C366.668 380.861 368.24 379.574 370.086 378.662C371.932 377.751 374.017 377.295 376.341 377.295C378.802 377.295 380.864 377.751 382.527 378.662C384.191 379.574 385.558 380.872 386.629 382.559C387.7 384.222 388.532 386.193 389.124 388.472C389.739 390.728 390.218 393.2 390.56 395.889V397.461C390.218 400.036 389.705 402.428 389.021 404.639C388.338 406.849 387.438 408.786 386.321 410.449C385.205 412.09 383.815 413.366 382.151 414.277C380.511 415.189 378.551 415.645 376.272 415.645C373.994 415.645 371.932 415.177 370.086 414.243C368.263 413.309 366.702 411.999 365.403 410.312C364.104 408.626 363.102 406.644 362.396 404.365C361.712 402.087 361.37 399.603 361.37 396.914ZM371.214 396.196V396.914C371.214 398.441 371.362 399.865 371.658 401.187C371.954 402.508 372.41 403.682 373.025 404.707C373.663 405.71 374.45 406.496 375.384 407.065C376.341 407.612 377.469 407.886 378.768 407.886C380.568 407.886 382.037 407.51 383.177 406.758C384.316 405.983 385.171 404.924 385.74 403.579C386.31 402.235 386.64 400.685 386.731 398.931V394.453C386.686 393.018 386.492 391.73 386.15 390.591C385.809 389.429 385.33 388.438 384.715 387.617C384.1 386.797 383.302 386.159 382.322 385.703C381.342 385.247 380.18 385.02 378.836 385.02C377.537 385.02 376.409 385.316 375.452 385.908C374.518 386.478 373.732 387.264 373.094 388.267C372.479 389.269 372.011 390.454 371.692 391.821C371.373 393.166 371.214 394.624 371.214 396.196ZM440.257 397.222H427.576V389.224H440.257C442.216 389.224 443.812 388.905 445.042 388.267C446.272 387.606 447.173 386.694 447.742 385.532C448.312 384.37 448.597 383.06 448.597 381.602C448.597 380.12 448.312 378.742 447.742 377.466C447.173 376.19 446.272 375.164 445.042 374.39C443.812 373.615 442.216 373.228 440.257 373.228H431.131V414.961H420.877V365.195H440.257C444.153 365.195 447.492 365.902 450.271 367.314C453.074 368.704 455.216 370.63 456.697 373.091C458.178 375.552 458.919 378.366 458.919 381.533C458.919 384.746 458.178 387.526 456.697 389.873C455.216 392.22 453.074 394.032 450.271 395.308C447.492 396.584 444.153 397.222 440.257 397.222ZM484.93 406.621V390.146C484.93 388.962 484.736 387.948 484.349 387.104C483.961 386.239 483.357 385.566 482.537 385.088C481.74 384.609 480.703 384.37 479.427 384.37C478.333 384.37 477.387 384.564 476.59 384.951C475.792 385.316 475.177 385.851 474.744 386.558C474.311 387.241 474.095 388.05 474.095 388.984H464.251C464.251 387.412 464.616 385.92 465.345 384.507C466.074 383.094 467.133 381.852 468.523 380.781C469.913 379.688 471.565 378.833 473.479 378.218C475.416 377.603 477.581 377.295 479.974 377.295C482.845 377.295 485.397 377.773 487.63 378.73C489.863 379.688 491.618 381.123 492.894 383.037C494.192 384.951 494.842 387.344 494.842 390.215V406.04C494.842 408.068 494.967 409.731 495.218 411.03C495.468 412.306 495.833 413.423 496.312 414.38V414.961H486.365C485.887 413.958 485.522 412.705 485.271 411.201C485.044 409.674 484.93 408.148 484.93 406.621ZM486.229 392.437L486.297 398.008H480.794C479.495 398.008 478.367 398.156 477.41 398.452C476.453 398.748 475.667 399.17 475.052 399.717C474.437 400.241 473.981 400.856 473.685 401.562C473.411 402.269 473.274 403.044 473.274 403.887C473.274 404.73 473.468 405.493 473.855 406.177C474.243 406.838 474.801 407.362 475.53 407.749C476.259 408.114 477.114 408.296 478.094 408.296C479.575 408.296 480.862 408 481.956 407.407C483.05 406.815 483.893 406.086 484.485 405.22C485.101 404.354 485.42 403.534 485.442 402.759L488.04 406.929C487.675 407.863 487.174 408.831 486.536 409.834C485.921 410.837 485.135 411.782 484.178 412.671C483.221 413.537 482.07 414.255 480.726 414.824C479.381 415.371 477.786 415.645 475.94 415.645C473.593 415.645 471.463 415.177 469.549 414.243C467.658 413.286 466.154 411.976 465.037 410.312C463.943 408.626 463.396 406.712 463.396 404.57C463.396 402.633 463.761 400.913 464.49 399.409C465.219 397.905 466.29 396.641 467.703 395.615C469.139 394.567 470.927 393.781 473.069 393.257C475.211 392.71 477.695 392.437 480.521 392.437H486.229ZM525.843 377.979H534.764V413.73C534.764 417.103 534.012 419.963 532.508 422.31C531.027 424.679 528.953 426.468 526.287 427.676C523.621 428.906 520.522 429.521 516.99 429.521C515.441 429.521 513.8 429.316 512.068 428.906C510.359 428.496 508.719 427.858 507.146 426.992C505.597 426.126 504.298 425.033 503.25 423.711L507.591 417.9C508.73 419.222 510.052 420.247 511.556 420.977C513.06 421.729 514.723 422.104 516.546 422.104C518.323 422.104 519.827 421.774 521.058 421.113C522.288 420.475 523.234 419.53 523.895 418.276C524.555 417.046 524.886 415.553 524.886 413.799V386.523L525.843 377.979ZM500.96 396.914V396.196C500.96 393.371 501.302 390.807 501.985 388.506C502.692 386.182 503.683 384.188 504.959 382.524C506.258 380.861 507.83 379.574 509.676 378.662C511.521 377.751 513.606 377.295 515.931 377.295C518.392 377.295 520.454 377.751 522.117 378.662C523.781 379.574 525.148 380.872 526.219 382.559C527.29 384.222 528.121 386.193 528.714 388.472C529.329 390.728 529.808 393.2 530.149 395.889V397.461C529.808 400.036 529.295 402.428 528.611 404.639C527.928 406.849 527.028 408.786 525.911 410.449C524.795 412.09 523.405 413.366 521.741 414.277C520.101 415.189 518.141 415.645 515.862 415.645C513.584 415.645 511.521 415.177 509.676 414.243C507.853 413.309 506.292 411.999 504.993 410.312C503.694 408.626 502.692 406.644 501.985 404.365C501.302 402.087 500.96 399.603 500.96 396.914ZM510.804 396.196V396.914C510.804 398.441 510.952 399.865 511.248 401.187C511.544 402.508 512 403.682 512.615 404.707C513.253 405.71 514.039 406.496 514.974 407.065C515.931 407.612 517.059 407.886 518.357 407.886C520.158 407.886 521.627 407.51 522.767 406.758C523.906 405.983 524.76 404.924 525.33 403.579C525.9 402.235 526.23 400.685 526.321 398.931V394.453C526.276 393.018 526.082 391.73 525.74 390.591C525.398 389.429 524.92 388.438 524.305 387.617C523.689 386.797 522.892 386.159 521.912 385.703C520.932 385.247 519.77 385.02 518.426 385.02C517.127 385.02 515.999 385.316 515.042 385.908C514.108 386.478 513.322 387.264 512.684 388.267C512.068 389.269 511.601 390.454 511.282 391.821C510.963 393.166 510.804 394.624 510.804 396.196ZM559.441 415.645C556.57 415.645 553.995 415.189 551.717 414.277C549.438 413.343 547.501 412.056 545.906 410.415C544.334 408.774 543.126 406.872 542.283 404.707C541.44 402.52 541.019 400.195 541.019 397.734V396.367C541.019 393.564 541.417 391.001 542.215 388.677C543.012 386.353 544.152 384.336 545.633 382.627C547.137 380.918 548.96 379.608 551.102 378.696C553.243 377.762 555.659 377.295 558.348 377.295C560.968 377.295 563.292 377.728 565.32 378.594C567.348 379.46 569.046 380.69 570.413 382.285C571.803 383.88 572.851 385.794 573.558 388.027C574.264 390.238 574.617 392.699 574.617 395.41V399.512H545.223V392.949H564.944V392.197C564.944 390.83 564.694 389.611 564.192 388.54C563.714 387.446 562.985 386.58 562.005 385.942C561.025 385.304 559.772 384.985 558.245 384.985C556.946 384.985 555.83 385.27 554.896 385.84C553.961 386.41 553.198 387.207 552.605 388.232C552.036 389.258 551.603 390.465 551.307 391.855C551.033 393.223 550.896 394.727 550.896 396.367V397.734C550.896 399.215 551.102 400.583 551.512 401.836C551.945 403.089 552.549 404.172 553.323 405.083C554.121 405.994 555.078 406.701 556.194 407.202C557.334 407.703 558.621 407.954 560.057 407.954C561.834 407.954 563.486 407.612 565.013 406.929C566.562 406.222 567.895 405.163 569.012 403.75L573.797 408.945C573.022 410.062 571.963 411.133 570.618 412.158C569.297 413.184 567.701 414.027 565.833 414.688C563.965 415.326 561.834 415.645 559.441 415.645Z" fill="#FD0404"/>
<path d="M149.48 501.009V500.447C149.48 498.543 149.757 496.777 150.311 495.149C150.864 493.506 151.661 492.081 152.703 490.877C153.745 489.656 155.006 488.712 156.487 488.045C157.968 487.361 159.629 487.02 161.468 487.02C163.323 487.02 164.992 487.361 166.473 488.045C167.97 488.712 169.24 489.656 170.281 490.877C171.339 492.081 172.145 493.506 172.698 495.149C173.252 496.777 173.528 498.543 173.528 500.447V501.009C173.528 502.913 173.252 504.679 172.698 506.307C172.145 507.934 171.339 509.358 170.281 510.579C169.24 511.784 167.978 512.728 166.497 513.411C165.032 514.078 163.372 514.412 161.517 514.412C159.661 514.412 157.993 514.078 156.512 513.411C155.031 512.728 153.761 511.784 152.703 510.579C151.661 509.358 150.864 507.934 150.311 506.307C149.757 504.679 149.48 502.913 149.48 501.009ZM153.997 500.447V501.009C153.997 502.327 154.152 503.572 154.461 504.744C154.77 505.9 155.234 506.925 155.853 507.82C156.487 508.715 157.277 509.424 158.221 509.944C159.165 510.449 160.263 510.701 161.517 510.701C162.754 510.701 163.836 510.449 164.764 509.944C165.708 509.424 166.489 508.715 167.107 507.82C167.726 506.925 168.19 505.9 168.499 504.744C168.825 503.572 168.987 502.327 168.987 501.009V500.447C168.987 499.145 168.825 497.916 168.499 496.761C168.19 495.589 167.718 494.555 167.083 493.66C166.465 492.749 165.683 492.033 164.739 491.512C163.812 490.991 162.721 490.73 161.468 490.73C160.231 490.73 159.14 490.991 158.196 491.512C157.269 492.033 156.487 492.749 155.853 493.66C155.234 494.555 154.77 495.589 154.461 496.761C154.152 497.916 153.997 499.145 153.997 500.447ZM183.709 493.147V513.924H179.192V487.508H183.465L183.709 493.147ZM182.635 499.715L180.755 499.642C180.771 497.835 181.04 496.167 181.561 494.637C182.081 493.09 182.814 491.748 183.758 490.608C184.702 489.469 185.825 488.59 187.127 487.972C188.445 487.337 189.902 487.02 191.497 487.02C192.799 487.02 193.971 487.199 195.013 487.557C196.054 487.898 196.941 488.452 197.674 489.217C198.423 489.982 198.992 490.975 199.383 492.195C199.773 493.4 199.969 494.873 199.969 496.614V513.924H195.428V496.565C195.428 495.182 195.224 494.075 194.817 493.245C194.41 492.399 193.816 491.788 193.035 491.414C192.254 491.023 191.294 490.828 190.154 490.828C189.031 490.828 188.006 491.064 187.078 491.536C186.167 492.008 185.377 492.659 184.71 493.489C184.059 494.319 183.546 495.271 183.172 496.346C182.814 497.404 182.635 498.527 182.635 499.715ZM224.627 478.377V513.924H219.915V478.377H224.627ZM239.52 494.368V498.226H223.602V494.368H239.52ZM241.937 478.377V482.234H223.602V478.377H241.937ZM250.75 491.658V513.924H246.233V487.508H250.628L250.75 491.658ZM259.002 487.361L258.978 491.561C258.603 491.479 258.245 491.43 257.903 491.414C257.578 491.382 257.203 491.365 256.78 491.365C255.739 491.365 254.819 491.528 254.021 491.854C253.224 492.179 252.549 492.635 251.995 493.221C251.442 493.807 251.002 494.507 250.677 495.32C250.368 496.118 250.164 496.997 250.066 497.957L248.797 498.689C248.797 497.094 248.951 495.597 249.261 494.197C249.586 492.798 250.083 491.561 250.75 490.486C251.417 489.396 252.264 488.549 253.289 487.947C254.331 487.329 255.568 487.02 257 487.02C257.326 487.02 257.7 487.06 258.123 487.142C258.546 487.207 258.839 487.28 259.002 487.361ZM268.084 487.508V513.924H263.543V487.508H268.084ZM263.201 480.501C263.201 479.769 263.421 479.15 263.86 478.646C264.316 478.141 264.983 477.889 265.862 477.889C266.725 477.889 267.384 478.141 267.84 478.646C268.312 479.15 268.548 479.769 268.548 480.501C268.548 481.201 268.312 481.803 267.84 482.308C267.384 482.796 266.725 483.04 265.862 483.04C264.983 483.04 264.316 482.796 263.86 482.308C263.421 481.803 263.201 481.201 263.201 480.501ZM291.985 508.797V476.424H296.526V513.924H292.376L291.985 508.797ZM274.212 501.009V500.496C274.212 498.478 274.456 496.647 274.944 495.003C275.449 493.343 276.157 491.919 277.068 490.73C277.996 489.542 279.095 488.631 280.364 487.996C281.65 487.345 283.082 487.02 284.661 487.02C286.321 487.02 287.77 487.312 289.007 487.898C290.26 488.468 291.318 489.306 292.181 490.413C293.06 491.504 293.751 492.822 294.256 494.368C294.76 495.914 295.11 497.664 295.306 499.617V501.863C295.127 503.8 294.777 505.542 294.256 507.088C293.751 508.634 293.06 509.952 292.181 511.043C291.318 512.133 290.26 512.972 289.007 513.558C287.754 514.127 286.289 514.412 284.612 514.412C283.066 514.412 281.65 514.078 280.364 513.411C279.095 512.744 277.996 511.808 277.068 510.604C276.157 509.399 275.449 507.983 274.944 506.355C274.456 504.712 274.212 502.929 274.212 501.009ZM278.753 500.496V501.009C278.753 502.327 278.883 503.564 279.144 504.72C279.42 505.875 279.843 506.893 280.413 507.771C280.983 508.65 281.707 509.342 282.586 509.847C283.465 510.335 284.515 510.579 285.735 510.579C287.233 510.579 288.462 510.262 289.422 509.627C290.398 508.992 291.18 508.154 291.766 507.112C292.352 506.071 292.807 504.939 293.133 503.719V497.835C292.938 496.94 292.653 496.077 292.278 495.247C291.92 494.401 291.448 493.652 290.862 493.001C290.293 492.334 289.585 491.805 288.738 491.414C287.908 491.023 286.924 490.828 285.784 490.828C284.547 490.828 283.481 491.089 282.586 491.609C281.707 492.114 280.983 492.814 280.413 493.709C279.843 494.588 279.42 495.613 279.144 496.785C278.883 497.941 278.753 499.178 278.753 500.496ZM319.134 509.407V495.809C319.134 494.767 318.922 493.864 318.499 493.099C318.092 492.317 317.474 491.715 316.644 491.292C315.813 490.869 314.788 490.657 313.567 490.657C312.428 490.657 311.427 490.853 310.564 491.243C309.718 491.634 309.051 492.146 308.562 492.781C308.09 493.416 307.854 494.1 307.854 494.832H303.338C303.338 493.888 303.582 492.952 304.07 492.024C304.559 491.097 305.258 490.258 306.17 489.51C307.098 488.745 308.204 488.143 309.49 487.703C310.792 487.247 312.241 487.02 313.836 487.02C315.757 487.02 317.449 487.345 318.914 487.996C320.395 488.647 321.551 489.632 322.381 490.95C323.227 492.252 323.65 493.888 323.65 495.857V508.162C323.65 509.041 323.724 509.977 323.87 510.97C324.033 511.963 324.269 512.817 324.578 513.533V513.924H319.866C319.638 513.403 319.459 512.711 319.329 511.849C319.199 510.97 319.134 510.156 319.134 509.407ZM319.915 497.908L319.964 501.082H315.398C314.113 501.082 312.965 501.188 311.956 501.399C310.947 501.595 310.101 501.896 309.417 502.303C308.733 502.71 308.213 503.222 307.854 503.841C307.496 504.443 307.317 505.151 307.317 505.965C307.317 506.795 307.505 507.552 307.879 508.235C308.253 508.919 308.815 509.464 309.563 509.871C310.328 510.262 311.264 510.457 312.371 510.457C313.755 510.457 314.975 510.164 316.033 509.578C317.091 508.992 317.929 508.276 318.548 507.43C319.183 506.583 319.524 505.761 319.573 504.964L321.502 507.137C321.388 507.82 321.079 508.577 320.574 509.407C320.07 510.237 319.394 511.035 318.548 511.8C317.718 512.549 316.725 513.175 315.569 513.68C314.43 514.168 313.144 514.412 311.712 514.412C309.922 514.412 308.351 514.062 307 513.362C305.665 512.662 304.624 511.727 303.875 510.555C303.143 509.367 302.776 508.04 302.776 506.575C302.776 505.159 303.053 503.914 303.606 502.84C304.16 501.749 304.957 500.846 305.999 500.13C307.041 499.397 308.294 498.844 309.759 498.47C311.224 498.095 312.859 497.908 314.666 497.908H319.915ZM337.786 511.189L345.135 487.508H349.969L339.373 518.001C339.129 518.652 338.803 519.352 338.396 520.101C338.006 520.866 337.501 521.59 336.883 522.273C336.264 522.957 335.516 523.51 334.637 523.934C333.774 524.373 332.741 524.593 331.536 524.593C331.178 524.593 330.722 524.544 330.169 524.446C329.616 524.349 329.225 524.267 328.997 524.202L328.973 520.54C329.103 520.556 329.306 520.573 329.583 520.589C329.876 520.621 330.079 520.638 330.193 520.638C331.219 520.638 332.09 520.499 332.806 520.223C333.522 519.962 334.124 519.515 334.612 518.88C335.117 518.261 335.548 517.407 335.906 516.316L337.786 511.189ZM332.391 487.508L339.251 508.016L340.423 512.776L337.176 514.437L327.459 487.508H332.391ZM371.844 478.377V513.924H367.132V478.377H371.844ZM386.736 494.368V498.226H370.818V494.368H386.736ZM389.153 478.377V482.234H370.818V478.377H389.153ZM404.51 514.412C402.671 514.412 401.002 514.103 399.505 513.484C398.024 512.85 396.746 511.963 395.672 510.823C394.614 509.684 393.8 508.333 393.23 506.771C392.661 505.208 392.376 503.499 392.376 501.644V500.618C392.376 498.47 392.693 496.557 393.328 494.881C393.963 493.188 394.826 491.756 395.916 490.584C397.007 489.412 398.243 488.525 399.627 487.923C401.01 487.321 402.443 487.02 403.924 487.02C405.812 487.02 407.439 487.345 408.807 487.996C410.19 488.647 411.321 489.559 412.2 490.73C413.079 491.886 413.73 493.253 414.153 494.832C414.576 496.395 414.788 498.104 414.788 499.959V501.985H395.062V498.299H410.271V497.957C410.206 496.785 409.962 495.646 409.539 494.539C409.132 493.432 408.481 492.521 407.586 491.805C406.691 491.089 405.47 490.73 403.924 490.73C402.898 490.73 401.954 490.95 401.092 491.39C400.229 491.813 399.489 492.448 398.87 493.294C398.252 494.14 397.771 495.174 397.43 496.395C397.088 497.615 396.917 499.023 396.917 500.618V501.644C396.917 502.897 397.088 504.077 397.43 505.184C397.788 506.274 398.3 507.234 398.968 508.064C399.651 508.895 400.473 509.546 401.434 510.018C402.41 510.49 403.517 510.726 404.754 510.726C406.349 510.726 407.7 510.4 408.807 509.749C409.913 509.098 410.882 508.227 411.712 507.137L414.446 509.31C413.877 510.172 413.152 510.994 412.273 511.775C411.395 512.557 410.312 513.191 409.026 513.68C407.757 514.168 406.251 514.412 404.51 514.412ZM420.037 476.424H424.578V508.797L424.188 513.924H420.037V476.424ZM442.425 500.496V501.009C442.425 502.929 442.197 504.712 441.741 506.355C441.285 507.983 440.618 509.399 439.739 510.604C438.86 511.808 437.786 512.744 436.517 513.411C435.247 514.078 433.79 514.412 432.146 514.412C430.47 514.412 428.997 514.127 427.728 513.558C426.474 512.972 425.416 512.133 424.554 511.043C423.691 509.952 422.999 508.634 422.479 507.088C421.974 505.542 421.624 503.8 421.429 501.863V499.617C421.624 497.664 421.974 495.914 422.479 494.368C422.999 492.822 423.691 491.504 424.554 490.413C425.416 489.306 426.474 488.468 427.728 487.898C428.981 487.312 430.438 487.02 432.098 487.02C433.758 487.02 435.231 487.345 436.517 487.996C437.802 488.631 438.877 489.542 439.739 490.73C440.618 491.919 441.285 493.343 441.741 495.003C442.197 496.647 442.425 498.478 442.425 500.496ZM437.884 501.009V500.496C437.884 499.178 437.762 497.941 437.518 496.785C437.273 495.613 436.883 494.588 436.346 493.709C435.809 492.814 435.101 492.114 434.222 491.609C433.343 491.089 432.26 490.828 430.975 490.828C429.835 490.828 428.842 491.023 427.996 491.414C427.166 491.805 426.458 492.334 425.872 493.001C425.286 493.652 424.806 494.401 424.432 495.247C424.074 496.077 423.805 496.94 423.626 497.835V503.719C423.886 504.858 424.31 505.957 424.896 507.015C425.498 508.056 426.295 508.911 427.288 509.578C428.297 510.245 429.542 510.579 431.023 510.579C432.244 510.579 433.286 510.335 434.148 509.847C435.027 509.342 435.735 508.65 436.272 507.771C436.826 506.893 437.233 505.875 437.493 504.72C437.754 503.564 437.884 502.327 437.884 501.009ZM483.343 510.213V513.924H460.076V510.677L471.722 497.713C473.154 496.118 474.261 494.767 475.042 493.66C475.84 492.537 476.393 491.536 476.702 490.657C477.028 489.762 477.19 488.851 477.19 487.923C477.19 486.751 476.946 485.693 476.458 484.749C475.986 483.789 475.286 483.024 474.358 482.454C473.431 481.884 472.308 481.6 470.989 481.6C469.41 481.6 468.092 481.909 467.034 482.527C465.993 483.13 465.211 483.976 464.69 485.066C464.17 486.157 463.909 487.41 463.909 488.826H459.393C459.393 486.824 459.832 484.993 460.711 483.333C461.59 481.673 462.892 480.354 464.617 479.378C466.342 478.385 468.466 477.889 470.989 477.889C473.235 477.889 475.156 478.287 476.751 479.085C478.346 479.866 479.567 480.973 480.413 482.405C481.276 483.821 481.707 485.481 481.707 487.386C481.707 488.427 481.528 489.485 481.17 490.56C480.828 491.618 480.348 492.675 479.729 493.733C479.127 494.791 478.419 495.833 477.605 496.858C476.808 497.884 475.953 498.893 475.042 499.886L465.521 510.213H483.343ZM493.89 497.005L490.276 496.077L492.059 478.377H510.296V482.552H495.892L494.817 492.22C495.468 491.845 496.29 491.495 497.283 491.17C498.292 490.844 499.448 490.682 500.75 490.682C502.394 490.682 503.867 490.966 505.169 491.536C506.471 492.09 507.578 492.887 508.489 493.929C509.417 494.97 510.125 496.224 510.613 497.688C511.102 499.153 511.346 500.789 511.346 502.596C511.346 504.305 511.11 505.875 510.638 507.308C510.182 508.74 509.49 509.993 508.562 511.067C507.635 512.125 506.463 512.947 505.047 513.533C503.647 514.119 501.995 514.412 500.091 514.412C498.659 514.412 497.299 514.217 496.014 513.826C494.744 513.419 493.605 512.809 492.596 511.995C491.603 511.165 490.789 510.14 490.154 508.919C489.536 507.682 489.145 506.233 488.982 504.573H493.279C493.475 505.908 493.865 507.031 494.451 507.942C495.037 508.854 495.802 509.546 496.746 510.018C497.706 510.473 498.821 510.701 500.091 510.701C501.165 510.701 502.117 510.514 502.947 510.14C503.777 509.765 504.477 509.228 505.047 508.528C505.617 507.828 506.048 506.982 506.341 505.989C506.65 504.996 506.805 503.882 506.805 502.645C506.805 501.521 506.65 500.48 506.341 499.52C506.032 498.559 505.568 497.721 504.949 497.005C504.347 496.289 503.606 495.735 502.728 495.345C501.849 494.938 500.84 494.734 499.7 494.734C498.187 494.734 497.039 494.938 496.258 495.345C495.493 495.752 494.703 496.305 493.89 497.005ZM520.892 508.553V512.19C520.892 513.672 520.517 515.234 519.769 516.878C519.02 518.538 517.97 519.922 516.619 521.028L514.056 519.246C514.576 518.53 515.016 517.798 515.374 517.049C515.732 516.316 516.001 515.551 516.18 514.754C516.375 513.973 516.473 513.143 516.473 512.264V508.553H520.892ZM561.858 510.213V513.924H538.592V510.677L550.237 497.713C551.67 496.118 552.776 494.767 553.558 493.66C554.355 492.537 554.909 491.536 555.218 490.657C555.543 489.762 555.706 488.851 555.706 487.923C555.706 486.751 555.462 485.693 554.974 484.749C554.502 483.789 553.802 483.024 552.874 482.454C551.946 481.884 550.823 481.6 549.505 481.6C547.926 481.6 546.608 481.909 545.55 482.527C544.508 483.13 543.727 483.976 543.206 485.066C542.685 486.157 542.425 487.41 542.425 488.826H537.908C537.908 486.824 538.348 484.993 539.227 483.333C540.105 481.673 541.408 480.354 543.133 479.378C544.858 478.385 546.982 477.889 549.505 477.889C551.751 477.889 553.672 478.287 555.267 479.085C556.862 479.866 558.082 480.973 558.929 482.405C559.791 483.821 560.223 485.481 560.223 487.386C560.223 488.427 560.044 489.485 559.686 490.56C559.344 491.618 558.864 492.675 558.245 493.733C557.643 494.791 556.935 495.833 556.121 496.858C555.324 497.884 554.469 498.893 553.558 499.886L544.036 510.213H561.858ZM589.007 493.318V498.738C589.007 501.652 588.746 504.109 588.226 506.111C587.705 508.113 586.956 509.725 585.979 510.945C585.003 512.166 583.823 513.053 582.439 513.606C581.072 514.144 579.526 514.412 577.801 514.412C576.434 514.412 575.172 514.241 574.017 513.899C572.861 513.558 571.819 513.012 570.892 512.264C569.98 511.499 569.199 510.506 568.548 509.285C567.897 508.064 567.4 506.583 567.059 504.842C566.717 503.1 566.546 501.066 566.546 498.738V493.318C566.546 490.405 566.806 487.964 567.327 485.994C567.864 484.025 568.621 482.446 569.598 481.258C570.574 480.053 571.746 479.191 573.113 478.67C574.497 478.149 576.043 477.889 577.752 477.889C579.135 477.889 580.405 478.06 581.561 478.401C582.732 478.727 583.774 479.256 584.686 479.988C585.597 480.704 586.37 481.665 587.005 482.869C587.656 484.057 588.152 485.514 588.494 487.239C588.836 488.965 589.007 490.991 589.007 493.318ZM584.466 499.471V492.562C584.466 490.966 584.368 489.567 584.173 488.362C583.994 487.142 583.725 486.1 583.367 485.237C583.009 484.375 582.553 483.675 582 483.138C581.463 482.601 580.836 482.21 580.12 481.966C579.42 481.705 578.631 481.575 577.752 481.575C576.678 481.575 575.726 481.779 574.896 482.186C574.065 482.576 573.366 483.203 572.796 484.065C572.243 484.928 571.819 486.059 571.526 487.459C571.233 488.859 571.087 490.56 571.087 492.562V499.471C571.087 501.066 571.176 502.474 571.355 503.694C571.551 504.915 571.836 505.973 572.21 506.868C572.584 507.747 573.04 508.471 573.577 509.041C574.114 509.611 574.733 510.034 575.433 510.311C576.149 510.571 576.938 510.701 577.801 510.701C578.908 510.701 579.876 510.49 580.706 510.066C581.536 509.643 582.228 508.984 582.781 508.089C583.351 507.177 583.774 506.014 584.051 504.598C584.327 503.165 584.466 501.456 584.466 499.471ZM618.108 510.213V513.924H594.842V510.677L606.487 497.713C607.92 496.118 609.026 494.767 609.808 493.66C610.605 492.537 611.159 491.536 611.468 490.657C611.793 489.762 611.956 488.851 611.956 487.923C611.956 486.751 611.712 485.693 611.224 484.749C610.752 483.789 610.052 483.024 609.124 482.454C608.196 481.884 607.073 481.6 605.755 481.6C604.176 481.6 602.858 481.909 601.8 482.527C600.758 483.13 599.977 483.976 599.456 485.066C598.935 486.157 598.675 487.41 598.675 488.826H594.158C594.158 486.824 594.598 484.993 595.477 483.333C596.355 481.673 597.658 480.354 599.383 479.378C601.108 478.385 603.232 477.889 605.755 477.889C608.001 477.889 609.922 478.287 611.517 479.085C613.112 479.866 614.332 480.973 615.179 482.405C616.041 483.821 616.473 485.481 616.473 487.386C616.473 488.427 616.294 489.485 615.936 490.56C615.594 491.618 615.114 492.675 614.495 493.733C613.893 494.791 613.185 495.833 612.371 496.858C611.574 497.884 610.719 498.893 609.808 499.886L600.286 510.213H618.108ZM646.233 510.213V513.924H622.967V510.677L634.612 497.713C636.045 496.118 637.151 494.767 637.933 493.66C638.73 492.537 639.284 491.536 639.593 490.657C639.918 489.762 640.081 488.851 640.081 487.923C640.081 486.751 639.837 485.693 639.349 484.749C638.877 483.789 638.177 483.024 637.249 482.454C636.321 481.884 635.198 481.6 633.88 481.6C632.301 481.6 630.983 481.909 629.925 482.527C628.883 483.13 628.102 483.976 627.581 485.066C627.06 486.157 626.8 487.41 626.8 488.826H622.283C622.283 486.824 622.723 484.993 623.602 483.333C624.48 481.673 625.783 480.354 627.508 479.378C629.233 478.385 631.357 477.889 633.88 477.889C636.126 477.889 638.047 478.287 639.642 479.085C641.237 479.866 642.457 480.973 643.304 482.405C644.166 483.821 644.598 485.481 644.598 487.386C644.598 488.427 644.419 489.485 644.061 490.56C643.719 491.618 643.239 492.675 642.62 493.733C642.018 494.791 641.31 495.833 640.496 496.858C639.699 497.884 638.844 498.893 637.933 499.886L628.411 510.213H646.233Z" fill="#FD0404"/>
<path d="M203.387 518.807H215.789V521.248H203.387V518.807Z" fill="#FD0404"/>
<path d="M215.789 518.807H648.089V521.248H215.789V518.807Z" fill="#FD0404"/>
</g>
<path d="M28 28V26H26V28H28ZM1110 28H1112V26H1110V28ZM1110 638.884V640.884H1112V638.884H1110ZM28 638.884H26V640.884H28V638.884ZM28 30H1110V26H28V30ZM1108 28V638.884H1112V28H1108ZM1110 636.884H28V640.884H1110V636.884ZM30 638.884V28H26V638.884H30Z" fill="black"/>
</g>
<defs>
<filter id="filter0_d_146_3041" x="0" y="0" width="1154" height="682.885" filterUnits="userSpaceOnUse" color-interpolation-filters="sRGB">
<feFlood flood-opacity="0" result="BackgroundImageFix"/>
<feColorMatrix in="SourceAlpha" type="matrix" values="0 0 0 0 0 0 0 0 0 0 0 0 0 0 0 0 0 0 127 0" result="hardAlpha"/>
<feOffset dx="8" dy="8"/>
<feGaussianBlur stdDeviation="17"/>
<feComposite in2="hardAlpha" operator="out"/>
<feColorMatrix type="matrix" values="0 0 0 0 0 0 0 0 0 0 0 0 0 0 0 0 0 0 0.25 0"/>
<feBlend mode="normal" in2="BackgroundImageFix" result="effect1_dropShadow_146_3041"/>
<feBlend mode="normal" in="SourceGraphic" in2="effect1_dropShadow_146_3041" result="shape"/>
</filter>
<clipPath id="clip0_146_3041">
<path d="M28 28H1110V638.884H28V28Z" fill="white"/>
</clipPath>
</defs>
</svg>
