<svg width="1155" height="684" viewBox="0 0 1155 684" fill="none" xmlns="http://www.w3.org/2000/svg">
<g filter="url(#filter0_d_158_8270)">
<g clip-path="url(#clip0_158_8270)">
<path d="M28.3438 28.8125H1110.34V639.697H28.3438V28.8125Z" fill="#FFF87B"/>
<rect width="1081" height="99" transform="translate(28.3438 28.7539)" fill="#FFF87B"/>
<line x1="914.348" y1="77.2246" x2="954.29" y2="77.2246" stroke="#FD0404" stroke-width="3"/>
<rect x="975.375" y="57.2539" width="42.9428" height="42.9428" stroke="#FD0404" stroke-width="3"/>
<line x1="1038.34" y1="97.6366" x2="1078.28" y2="57.6938" stroke="#FD0404" stroke-width="3"/>
<line x1="1040.46" y1="57.6932" x2="1080.4" y2="97.636" stroke="#FD0404" stroke-width="3"/>
<path d="M151.704 163.266H163.472C166.141 163.266 168.395 163.673 170.234 164.486C172.09 165.3 173.498 166.505 174.458 168.1C175.435 169.678 175.923 171.623 175.923 173.935C175.923 175.562 175.589 177.051 174.922 178.402C174.271 179.737 173.327 180.876 172.09 181.82C170.869 182.748 169.404 183.44 167.695 183.896L166.377 184.408H155.317L155.269 180.575H163.618C165.311 180.575 166.719 180.282 167.842 179.696C168.965 179.094 169.811 178.288 170.381 177.279C170.951 176.27 171.235 175.155 171.235 173.935C171.235 172.567 170.967 171.371 170.43 170.346C169.893 169.32 169.046 168.531 167.891 167.978C166.751 167.408 165.278 167.123 163.472 167.123H156.416V198.812H151.704V163.266ZM172.48 198.812L163.838 182.699L168.745 182.675L177.51 198.52V198.812H172.48ZM192.793 199.301C190.954 199.301 189.285 198.992 187.788 198.373C186.307 197.738 185.029 196.851 183.955 195.712C182.897 194.573 182.083 193.222 181.514 191.659C180.944 190.097 180.659 188.388 180.659 186.532V185.507C180.659 183.358 180.977 181.446 181.611 179.77C182.246 178.077 183.109 176.645 184.199 175.473C185.29 174.301 186.527 173.414 187.91 172.812C189.294 172.209 190.726 171.908 192.207 171.908C194.095 171.908 195.723 172.234 197.09 172.885C198.473 173.536 199.604 174.447 200.483 175.619C201.362 176.775 202.013 178.142 202.437 179.721C202.86 181.283 203.071 182.992 203.071 184.848V186.874H183.345V183.188H198.555V182.846C198.49 181.674 198.245 180.535 197.822 179.428C197.415 178.321 196.764 177.41 195.869 176.693C194.974 175.977 193.753 175.619 192.207 175.619C191.182 175.619 190.238 175.839 189.375 176.278C188.512 176.701 187.772 177.336 187.153 178.183C186.535 179.029 186.055 180.062 185.713 181.283C185.371 182.504 185.2 183.912 185.2 185.507V186.532C185.2 187.785 185.371 188.965 185.713 190.072C186.071 191.163 186.584 192.123 187.251 192.953C187.935 193.783 188.757 194.434 189.717 194.906C190.693 195.378 191.8 195.614 193.037 195.614C194.632 195.614 195.983 195.289 197.09 194.638C198.197 193.987 199.165 193.116 199.995 192.025L202.729 194.198C202.16 195.061 201.436 195.883 200.557 196.664C199.678 197.445 198.595 198.08 197.31 198.568C196.04 199.057 194.535 199.301 192.793 199.301ZM212.837 177.646V198.812H208.296V172.396H212.593L212.837 177.646ZM211.909 184.604L209.81 184.53C209.826 182.724 210.062 181.055 210.518 179.525C210.973 177.979 211.649 176.636 212.544 175.497C213.439 174.358 214.554 173.479 215.889 172.86C217.223 172.226 218.77 171.908 220.527 171.908C221.764 171.908 222.904 172.087 223.945 172.445C224.987 172.787 225.89 173.332 226.655 174.081C227.42 174.83 228.014 175.79 228.438 176.962C228.861 178.134 229.072 179.55 229.072 181.21V198.812H224.556V181.43C224.556 180.046 224.32 178.939 223.848 178.109C223.392 177.279 222.741 176.677 221.895 176.303C221.048 175.912 220.055 175.717 218.916 175.717C217.581 175.717 216.466 175.953 215.571 176.425C214.676 176.897 213.96 177.548 213.423 178.378C212.886 179.208 212.495 180.16 212.251 181.234C212.023 182.292 211.909 183.415 211.909 184.604ZM229.023 182.113L225.996 183.041C226.012 181.592 226.248 180.201 226.704 178.866C227.176 177.532 227.852 176.343 228.73 175.302C229.626 174.26 230.724 173.438 232.026 172.836C233.328 172.217 234.818 171.908 236.494 171.908C237.91 171.908 239.163 172.095 240.254 172.47C241.361 172.844 242.288 173.422 243.037 174.203C243.802 174.968 244.38 175.953 244.771 177.157C245.161 178.362 245.356 179.794 245.356 181.454V198.812H240.815V181.405C240.815 179.924 240.579 178.777 240.107 177.963C239.652 177.133 239.001 176.555 238.154 176.229C237.324 175.888 236.331 175.717 235.176 175.717C234.183 175.717 233.304 175.888 232.539 176.229C231.774 176.571 231.131 177.043 230.61 177.646C230.09 178.231 229.691 178.907 229.414 179.672C229.154 180.437 229.023 181.251 229.023 182.113ZM257.1 172.396V198.812H252.559V172.396H257.1ZM252.217 165.39C252.217 164.657 252.437 164.039 252.876 163.534C253.332 163.03 253.999 162.777 254.878 162.777C255.741 162.777 256.4 163.03 256.855 163.534C257.327 164.039 257.563 164.657 257.563 165.39C257.563 166.09 257.327 166.692 256.855 167.196C256.4 167.685 255.741 167.929 254.878 167.929C253.999 167.929 253.332 167.685 252.876 167.196C252.437 166.692 252.217 166.09 252.217 165.39ZM268.867 178.036V198.812H264.351V172.396H268.623L268.867 178.036ZM267.793 184.604L265.913 184.53C265.929 182.724 266.198 181.055 266.719 179.525C267.24 177.979 267.972 176.636 268.916 175.497C269.86 174.358 270.983 173.479 272.285 172.86C273.604 172.226 275.06 171.908 276.655 171.908C277.957 171.908 279.129 172.087 280.171 172.445C281.213 172.787 282.1 173.34 282.832 174.105C283.581 174.87 284.15 175.863 284.541 177.084C284.932 178.288 285.127 179.761 285.127 181.503V198.812H280.586V181.454C280.586 180.071 280.382 178.964 279.976 178.134C279.569 177.287 278.975 176.677 278.193 176.303C277.412 175.912 276.452 175.717 275.312 175.717C274.189 175.717 273.164 175.953 272.236 176.425C271.325 176.897 270.535 177.548 269.868 178.378C269.217 179.208 268.704 180.16 268.33 181.234C267.972 182.292 267.793 183.415 267.793 184.604ZM308.638 193.686V161.312H313.179V198.812H309.028L308.638 193.686ZM290.864 185.897V185.385C290.864 183.367 291.108 181.535 291.597 179.892C292.101 178.231 292.809 176.807 293.721 175.619C294.648 174.431 295.747 173.52 297.017 172.885C298.302 172.234 299.735 171.908 301.313 171.908C302.974 171.908 304.422 172.201 305.659 172.787C306.912 173.357 307.97 174.195 308.833 175.302C309.712 176.392 310.404 177.711 310.908 179.257C311.413 180.803 311.763 182.553 311.958 184.506V186.752C311.779 188.689 311.429 190.43 310.908 191.977C310.404 193.523 309.712 194.841 308.833 195.932C307.97 197.022 306.912 197.86 305.659 198.446C304.406 199.016 302.941 199.301 301.265 199.301C299.718 199.301 298.302 198.967 297.017 198.3C295.747 197.632 294.648 196.697 293.721 195.492C292.809 194.288 292.101 192.872 291.597 191.244C291.108 189.6 290.864 187.818 290.864 185.897ZM295.405 185.385V185.897C295.405 187.216 295.535 188.453 295.796 189.608C296.073 190.764 296.496 191.781 297.065 192.66C297.635 193.539 298.359 194.231 299.238 194.735C300.117 195.224 301.167 195.468 302.388 195.468C303.885 195.468 305.114 195.15 306.074 194.516C307.051 193.881 307.832 193.043 308.418 192.001C309.004 190.959 309.46 189.828 309.785 188.607V182.724C309.59 181.828 309.305 180.966 308.931 180.136C308.573 179.289 308.101 178.541 307.515 177.89C306.945 177.222 306.237 176.693 305.391 176.303C304.561 175.912 303.576 175.717 302.437 175.717C301.2 175.717 300.133 175.977 299.238 176.498C298.359 177.003 297.635 177.702 297.065 178.598C296.496 179.477 296.073 180.502 295.796 181.674C295.535 182.829 295.405 184.066 295.405 185.385ZM331.172 199.301C329.333 199.301 327.664 198.992 326.167 198.373C324.686 197.738 323.408 196.851 322.334 195.712C321.276 194.573 320.462 193.222 319.893 191.659C319.323 190.097 319.038 188.388 319.038 186.532V185.507C319.038 183.358 319.355 181.446 319.99 179.77C320.625 178.077 321.488 176.645 322.578 175.473C323.669 174.301 324.906 173.414 326.289 172.812C327.673 172.209 329.105 171.908 330.586 171.908C332.474 171.908 334.102 172.234 335.469 172.885C336.852 173.536 337.983 174.447 338.862 175.619C339.741 176.775 340.392 178.142 340.815 179.721C341.239 181.283 341.45 182.992 341.45 184.848V186.874H321.724V183.188H336.934V182.846C336.868 181.674 336.624 180.535 336.201 179.428C335.794 178.321 335.143 177.41 334.248 176.693C333.353 175.977 332.132 175.619 330.586 175.619C329.561 175.619 328.617 175.839 327.754 176.278C326.891 176.701 326.151 177.336 325.532 178.183C324.914 179.029 324.434 180.062 324.092 181.283C323.75 182.504 323.579 183.912 323.579 185.507V186.532C323.579 187.785 323.75 188.965 324.092 190.072C324.45 191.163 324.963 192.123 325.63 192.953C326.313 193.783 327.135 194.434 328.096 194.906C329.072 195.378 330.179 195.614 331.416 195.614C333.011 195.614 334.362 195.289 335.469 194.638C336.576 193.987 337.544 193.116 338.374 192.025L341.108 194.198C340.539 195.061 339.814 195.883 338.936 196.664C338.057 197.445 336.974 198.08 335.688 198.568C334.419 199.057 332.913 199.301 331.172 199.301ZM351.24 176.547V198.812H346.724V172.396H351.118L351.24 176.547ZM359.492 172.25L359.468 176.449C359.093 176.368 358.735 176.319 358.394 176.303C358.068 176.27 357.694 176.254 357.271 176.254C356.229 176.254 355.309 176.417 354.512 176.742C353.714 177.068 353.039 177.523 352.485 178.109C351.932 178.695 351.493 179.395 351.167 180.209C350.858 181.007 350.654 181.885 350.557 182.846L349.287 183.578C349.287 181.983 349.442 180.486 349.751 179.086C350.076 177.686 350.573 176.449 351.24 175.375C351.908 174.285 352.754 173.438 353.779 172.836C354.821 172.217 356.058 171.908 357.49 171.908C357.816 171.908 358.19 171.949 358.613 172.03C359.036 172.095 359.329 172.169 359.492 172.25Z" fill="#FD0404"/>
<path d="M156.704 284.008H165.386L178.169 320.546L190.952 284.008H199.634L181.655 333.773H174.683L156.704 284.008ZM152.021 284.008H160.669L162.241 319.623V333.773H152.021V284.008ZM195.669 284.008H204.351V333.773H194.097V319.623L195.669 284.008ZM232.686 325.434V308.959C232.686 307.774 232.492 306.76 232.104 305.917C231.717 305.051 231.113 304.379 230.293 303.9C229.495 303.422 228.459 303.183 227.183 303.183C226.089 303.183 225.143 303.376 224.346 303.764C223.548 304.128 222.933 304.664 222.5 305.37C222.067 306.054 221.851 306.863 221.851 307.797H212.007C212.007 306.225 212.371 304.732 213.101 303.319C213.83 301.907 214.889 300.665 216.279 299.594C217.669 298.5 219.321 297.646 221.235 297.03C223.172 296.415 225.337 296.107 227.729 296.107C230.601 296.107 233.153 296.586 235.386 297.543C237.619 298.5 239.373 299.936 240.649 301.85C241.948 303.764 242.598 306.156 242.598 309.027V324.853C242.598 326.881 242.723 328.544 242.974 329.843C243.224 331.119 243.589 332.235 244.067 333.192V333.773H234.121C233.643 332.771 233.278 331.518 233.027 330.014C232.799 328.487 232.686 326.96 232.686 325.434ZM233.984 311.249L234.053 316.82H228.55C227.251 316.82 226.123 316.968 225.166 317.265C224.209 317.561 223.423 317.982 222.808 318.529C222.192 319.053 221.737 319.669 221.44 320.375C221.167 321.081 221.03 321.856 221.03 322.699C221.03 323.542 221.224 324.306 221.611 324.989C221.999 325.65 222.557 326.174 223.286 326.562C224.015 326.926 224.87 327.108 225.85 327.108C227.331 327.108 228.618 326.812 229.712 326.22C230.806 325.627 231.649 324.898 232.241 324.032C232.856 323.166 233.175 322.346 233.198 321.571L235.796 325.741C235.431 326.675 234.93 327.644 234.292 328.646C233.677 329.649 232.891 330.595 231.934 331.483C230.977 332.349 229.826 333.067 228.481 333.637C227.137 334.184 225.542 334.457 223.696 334.457C221.349 334.457 219.219 333.99 217.305 333.056C215.413 332.099 213.91 330.788 212.793 329.125C211.699 327.439 211.152 325.525 211.152 323.383C211.152 321.446 211.517 319.726 212.246 318.222C212.975 316.718 214.046 315.453 215.459 314.428C216.895 313.38 218.683 312.593 220.825 312.069C222.967 311.522 225.451 311.249 228.276 311.249H233.984ZM260.029 304.857V333.773H250.186V296.791H259.448L260.029 304.857ZM271.172 296.552L271.001 305.678C270.522 305.609 269.941 305.552 269.258 305.507C268.597 305.438 267.993 305.404 267.446 305.404C266.056 305.404 264.849 305.587 263.823 305.951C262.821 306.293 261.978 306.806 261.294 307.489C260.633 308.173 260.132 309.005 259.79 309.984C259.471 310.964 259.289 312.081 259.243 313.334L257.261 312.719C257.261 310.326 257.5 308.127 257.979 306.122C258.457 304.094 259.152 302.328 260.063 300.824C260.998 299.32 262.137 298.158 263.481 297.338C264.826 296.518 266.364 296.107 268.096 296.107C268.643 296.107 269.201 296.153 269.771 296.244C270.34 296.312 270.807 296.415 271.172 296.552ZM290.415 326.767C291.623 326.767 292.694 326.539 293.628 326.083C294.562 325.604 295.291 324.944 295.815 324.101C296.362 323.235 296.647 322.221 296.67 321.059H305.933C305.91 323.656 305.215 325.969 303.848 327.997C302.48 330.002 300.646 331.586 298.345 332.748C296.043 333.887 293.468 334.457 290.62 334.457C287.749 334.457 285.243 333.979 283.101 333.021C280.981 332.064 279.215 330.743 277.803 329.057C276.39 327.348 275.33 325.365 274.624 323.109C273.918 320.831 273.564 318.393 273.564 315.795V314.804C273.564 312.183 273.918 309.745 274.624 307.489C275.33 305.211 276.39 303.228 277.803 301.542C279.215 299.833 280.981 298.5 283.101 297.543C285.22 296.586 287.703 296.107 290.552 296.107C293.582 296.107 296.237 296.688 298.516 297.851C300.817 299.013 302.617 300.676 303.916 302.841C305.238 304.983 305.91 307.523 305.933 310.463H296.67C296.647 309.232 296.385 308.116 295.884 307.113C295.405 306.111 294.699 305.313 293.765 304.721C292.853 304.105 291.725 303.798 290.381 303.798C288.945 303.798 287.772 304.105 286.86 304.721C285.949 305.313 285.243 306.133 284.741 307.182C284.24 308.207 283.887 309.381 283.682 310.702C283.499 312.001 283.408 313.368 283.408 314.804V315.795C283.408 317.23 283.499 318.609 283.682 319.931C283.864 321.252 284.206 322.426 284.707 323.451C285.231 324.477 285.949 325.285 286.86 325.878C287.772 326.47 288.957 326.767 290.415 326.767ZM321.245 281.273V333.773H311.401V281.273H321.245ZM319.844 313.983H317.144C317.166 311.409 317.508 309.039 318.169 306.874C318.83 304.687 319.775 302.795 321.006 301.2C322.236 299.582 323.706 298.329 325.415 297.44C327.147 296.552 329.061 296.107 331.157 296.107C332.98 296.107 334.632 296.369 336.113 296.894C337.617 297.395 338.905 298.215 339.976 299.354C341.069 300.471 341.912 301.941 342.505 303.764C343.097 305.587 343.394 307.797 343.394 310.395V333.773H333.481V310.326C333.481 308.686 333.242 307.398 332.764 306.464C332.308 305.507 331.636 304.835 330.747 304.447C329.881 304.037 328.81 303.832 327.534 303.832C326.121 303.832 324.914 304.094 323.911 304.618C322.931 305.142 322.145 305.871 321.553 306.806C320.96 307.717 320.527 308.788 320.254 310.019C319.98 311.249 319.844 312.571 319.844 313.983ZM379.18 284.008V333.773H368.926V284.008H379.18ZM399.004 305.268V313.266H376.377V305.268H399.004ZM401.396 284.008V292.04H376.377V284.008H401.396ZM422.998 334.457C420.127 334.457 417.552 334.001 415.273 333.09C412.995 332.156 411.058 330.868 409.463 329.228C407.891 327.587 406.683 325.684 405.84 323.52C404.997 321.332 404.575 319.008 404.575 316.547V315.18C404.575 312.377 404.974 309.813 405.771 307.489C406.569 305.165 407.708 303.148 409.189 301.439C410.693 299.73 412.516 298.42 414.658 297.509C416.8 296.575 419.215 296.107 421.904 296.107C424.525 296.107 426.849 296.54 428.877 297.406C430.905 298.272 432.603 299.503 433.97 301.098C435.36 302.693 436.408 304.607 437.114 306.84C437.821 309.05 438.174 311.511 438.174 314.223V318.324H408.779V311.762H428.501V311.01C428.501 309.643 428.25 308.424 427.749 307.353C427.271 306.259 426.541 305.393 425.562 304.755C424.582 304.117 423.328 303.798 421.802 303.798C420.503 303.798 419.386 304.083 418.452 304.652C417.518 305.222 416.755 306.02 416.162 307.045C415.592 308.07 415.16 309.278 414.863 310.668C414.59 312.035 414.453 313.539 414.453 315.18V316.547C414.453 318.028 414.658 319.395 415.068 320.648C415.501 321.902 416.105 322.984 416.88 323.896C417.677 324.807 418.634 325.513 419.751 326.015C420.89 326.516 422.178 326.767 423.613 326.767C425.391 326.767 427.043 326.425 428.569 325.741C430.119 325.035 431.452 323.975 432.568 322.562L437.354 327.758C436.579 328.874 435.519 329.945 434.175 330.971C432.853 331.996 431.258 332.839 429.39 333.5C427.521 334.138 425.391 334.457 422.998 334.457ZM463.774 323.554C463.774 322.847 463.569 322.209 463.159 321.64C462.749 321.07 461.986 320.546 460.869 320.067C459.775 319.566 458.192 319.11 456.118 318.7C454.25 318.29 452.507 317.777 450.889 317.162C449.294 316.524 447.904 315.761 446.719 314.872C445.557 313.983 444.645 312.935 443.984 311.728C443.324 310.497 442.993 309.096 442.993 307.523C442.993 305.974 443.324 304.516 443.984 303.148C444.668 301.781 445.636 300.574 446.89 299.525C448.166 298.454 449.715 297.623 451.538 297.03C453.384 296.415 455.457 296.107 457.759 296.107C460.972 296.107 463.729 296.62 466.03 297.646C468.354 298.671 470.132 300.084 471.362 301.884C472.616 303.661 473.242 305.689 473.242 307.968H463.398C463.398 307.011 463.193 306.156 462.783 305.404C462.396 304.63 461.781 304.026 460.938 303.593C460.117 303.137 459.046 302.909 457.725 302.909C456.631 302.909 455.685 303.103 454.888 303.49C454.09 303.855 453.475 304.356 453.042 304.994C452.632 305.609 452.427 306.293 452.427 307.045C452.427 307.615 452.541 308.127 452.769 308.583C453.019 309.016 453.418 309.415 453.965 309.779C454.512 310.144 455.218 310.486 456.084 310.805C456.973 311.101 458.066 311.374 459.365 311.625C462.031 312.172 464.412 312.89 466.509 313.778C468.605 314.644 470.269 315.829 471.499 317.333C472.729 318.814 473.345 320.762 473.345 323.178C473.345 324.818 472.98 326.322 472.251 327.689C471.522 329.057 470.474 330.253 469.106 331.278C467.739 332.281 466.099 333.067 464.185 333.637C462.293 334.184 460.163 334.457 457.793 334.457C454.352 334.457 451.436 333.842 449.043 332.611C446.673 331.381 444.873 329.82 443.643 327.929C442.435 326.015 441.831 324.055 441.831 322.05H451.162C451.208 323.394 451.549 324.477 452.188 325.297C452.848 326.117 453.68 326.71 454.683 327.074C455.708 327.439 456.813 327.621 457.998 327.621C459.274 327.621 460.334 327.45 461.177 327.108C462.02 326.744 462.658 326.265 463.091 325.673C463.547 325.058 463.774 324.351 463.774 323.554ZM497.852 296.791V303.764H476.318V296.791H497.852ZM481.65 287.665H491.494V322.631C491.494 323.702 491.631 324.522 491.904 325.092C492.201 325.661 492.633 326.06 493.203 326.288C493.773 326.493 494.491 326.596 495.356 326.596C495.972 326.596 496.519 326.573 496.997 326.527C497.498 326.459 497.92 326.391 498.262 326.322L498.296 333.568C497.453 333.842 496.541 334.058 495.562 334.218C494.582 334.377 493.499 334.457 492.314 334.457C490.15 334.457 488.258 334.104 486.641 333.397C485.046 332.668 483.815 331.506 482.949 329.911C482.083 328.316 481.65 326.22 481.65 323.622V287.665ZM513.848 296.791V333.773H503.97V296.791H513.848ZM503.354 287.152C503.354 285.717 503.856 284.532 504.858 283.598C505.861 282.663 507.205 282.196 508.892 282.196C510.555 282.196 511.888 282.663 512.891 283.598C513.916 284.532 514.429 285.717 514.429 287.152C514.429 288.588 513.916 289.773 512.891 290.707C511.888 291.641 510.555 292.108 508.892 292.108C507.205 292.108 505.861 291.641 504.858 290.707C503.856 289.773 503.354 288.588 503.354 287.152ZM534.561 326.596L542.764 296.791H553.052L540.576 333.773H534.355L534.561 326.596ZM528.921 296.791L537.158 326.63L537.329 333.773H531.074L518.599 296.791H528.921ZM576.875 325.434V308.959C576.875 307.774 576.681 306.76 576.294 305.917C575.907 305.051 575.303 304.379 574.482 303.9C573.685 303.422 572.648 303.183 571.372 303.183C570.278 303.183 569.333 303.376 568.535 303.764C567.738 304.128 567.122 304.664 566.689 305.37C566.257 306.054 566.04 306.863 566.04 307.797H556.196C556.196 306.225 556.561 304.732 557.29 303.319C558.019 301.907 559.079 300.665 560.469 299.594C561.859 298.5 563.511 297.646 565.425 297.03C567.362 296.415 569.526 296.107 571.919 296.107C574.79 296.107 577.342 296.586 579.575 297.543C581.808 298.5 583.563 299.936 584.839 301.85C586.138 303.764 586.787 306.156 586.787 309.027V324.853C586.787 326.881 586.912 328.544 587.163 329.843C587.414 331.119 587.778 332.235 588.257 333.192V333.773H578.311C577.832 332.771 577.467 331.518 577.217 330.014C576.989 328.487 576.875 326.96 576.875 325.434ZM578.174 311.249L578.242 316.82H572.739C571.44 316.82 570.312 316.968 569.355 317.265C568.398 317.561 567.612 317.982 566.997 318.529C566.382 319.053 565.926 319.669 565.63 320.375C565.356 321.081 565.22 321.856 565.22 322.699C565.22 323.542 565.413 324.306 565.801 324.989C566.188 325.65 566.746 326.174 567.476 326.562C568.205 326.926 569.059 327.108 570.039 327.108C571.52 327.108 572.808 326.812 573.901 326.22C574.995 325.627 575.838 324.898 576.431 324.032C577.046 323.166 577.365 322.346 577.388 321.571L579.985 325.741C579.621 326.675 579.119 327.644 578.481 328.646C577.866 329.649 577.08 330.595 576.123 331.483C575.166 332.349 574.015 333.067 572.671 333.637C571.326 334.184 569.731 334.457 567.886 334.457C565.539 334.457 563.408 333.99 561.494 333.056C559.603 332.099 558.099 330.788 556.982 329.125C555.889 327.439 555.342 325.525 555.342 323.383C555.342 321.446 555.706 319.726 556.436 318.222C557.165 316.718 558.236 315.453 559.648 314.428C561.084 313.38 562.873 312.593 565.015 312.069C567.157 311.522 569.64 311.249 572.466 311.249H578.174ZM604.766 281.273V333.773H594.888V281.273H604.766ZM664.341 325.775V333.773H637.852V325.775H664.341ZM641.201 284.008V333.773H630.947V284.008H641.201ZM660.889 304.276V312.069H637.852V304.276H660.889ZM664.307 284.008V292.04H637.852V284.008H664.307ZM681.396 326.596L689.6 296.791H699.888L687.412 333.773H681.191L681.396 326.596ZM675.757 296.791L683.994 326.63L684.165 333.773H677.91L665.435 296.791H675.757ZM720.84 334.457C717.969 334.457 715.394 334.001 713.115 333.09C710.837 332.156 708.9 330.868 707.305 329.228C705.732 327.587 704.525 325.684 703.682 323.52C702.839 321.332 702.417 319.008 702.417 316.547V315.18C702.417 312.377 702.816 309.813 703.613 307.489C704.411 305.165 705.55 303.148 707.031 301.439C708.535 299.73 710.358 298.42 712.5 297.509C714.642 296.575 717.057 296.107 719.746 296.107C722.367 296.107 724.691 296.54 726.719 297.406C728.747 298.272 730.444 299.503 731.812 301.098C733.201 302.693 734.25 304.607 734.956 306.84C735.662 309.05 736.016 311.511 736.016 314.223V318.324H706.621V311.762H726.343V311.01C726.343 309.643 726.092 308.424 725.591 307.353C725.112 306.259 724.383 305.393 723.403 304.755C722.424 304.117 721.17 303.798 719.644 303.798C718.345 303.798 717.228 304.083 716.294 304.652C715.36 305.222 714.596 306.02 714.004 307.045C713.434 308.07 713.001 309.278 712.705 310.668C712.432 312.035 712.295 313.539 712.295 315.18V316.547C712.295 318.028 712.5 319.395 712.91 320.648C713.343 321.902 713.947 322.984 714.722 323.896C715.519 324.807 716.476 325.513 717.593 326.015C718.732 326.516 720.02 326.767 721.455 326.767C723.232 326.767 724.884 326.425 726.411 325.741C727.961 325.035 729.294 323.975 730.41 322.562L735.195 327.758C734.421 328.874 733.361 329.945 732.017 330.971C730.695 331.996 729.1 332.839 727.231 333.5C725.363 334.138 723.232 334.457 720.84 334.457ZM751.26 304.687V333.773H741.416V296.791H750.645L751.26 304.687ZM749.824 313.983H747.158C747.158 311.249 747.511 308.788 748.218 306.601C748.924 304.39 749.915 302.51 751.191 300.961C752.467 299.389 753.983 298.192 755.737 297.372C757.515 296.529 759.497 296.107 761.685 296.107C763.416 296.107 765 296.358 766.436 296.859C767.871 297.361 769.102 298.158 770.127 299.252C771.175 300.346 771.973 301.793 772.52 303.593C773.089 305.393 773.374 307.592 773.374 310.189V333.773H763.462V310.155C763.462 308.515 763.234 307.239 762.778 306.327C762.323 305.416 761.65 304.778 760.762 304.413C759.896 304.026 758.825 303.832 757.549 303.832C756.227 303.832 755.076 304.094 754.097 304.618C753.14 305.142 752.342 305.871 751.704 306.806C751.089 307.717 750.622 308.788 750.303 310.019C749.984 311.249 749.824 312.571 749.824 313.983ZM798.975 296.791V303.764H777.441V296.791H798.975ZM782.773 287.665H792.617V322.631C792.617 323.702 792.754 324.522 793.027 325.092C793.324 325.661 793.757 326.06 794.326 326.288C794.896 326.493 795.614 326.596 796.479 326.596C797.095 326.596 797.642 326.573 798.12 326.527C798.621 326.459 799.043 326.391 799.385 326.322L799.419 333.568C798.576 333.842 797.664 334.058 796.685 334.218C795.705 334.377 794.622 334.457 793.438 334.457C791.273 334.457 789.382 334.104 787.764 333.397C786.169 332.668 784.938 331.506 784.072 329.911C783.206 328.316 782.773 326.22 782.773 323.622V287.665ZM184.014 407.775V415.773H158.96V407.775H184.014ZM162.275 366.008V415.773H152.021V366.008H162.275ZM209.238 407.434V390.959C209.238 389.774 209.045 388.76 208.657 387.917C208.27 387.051 207.666 386.379 206.846 385.9C206.048 385.422 205.011 385.183 203.735 385.183C202.642 385.183 201.696 385.376 200.898 385.764C200.101 386.128 199.486 386.664 199.053 387.37C198.62 388.054 198.403 388.863 198.403 389.797H188.56C188.56 388.225 188.924 386.732 189.653 385.319C190.382 383.907 191.442 382.665 192.832 381.594C194.222 380.5 195.874 379.646 197.788 379.03C199.725 378.415 201.89 378.107 204.282 378.107C207.153 378.107 209.705 378.586 211.938 379.543C214.172 380.5 215.926 381.936 217.202 383.85C218.501 385.764 219.15 388.156 219.15 391.027V406.853C219.15 408.881 219.276 410.544 219.526 411.843C219.777 413.119 220.142 414.235 220.62 415.192V415.773H210.674C210.195 414.771 209.831 413.518 209.58 412.014C209.352 410.487 209.238 408.96 209.238 407.434ZM210.537 393.249L210.605 398.82H205.103C203.804 398.82 202.676 398.968 201.719 399.265C200.762 399.561 199.976 399.982 199.36 400.529C198.745 401.053 198.289 401.669 197.993 402.375C197.72 403.081 197.583 403.856 197.583 404.699C197.583 405.542 197.777 406.306 198.164 406.989C198.551 407.65 199.11 408.174 199.839 408.562C200.568 408.926 201.423 409.108 202.402 409.108C203.883 409.108 205.171 408.812 206.265 408.22C207.358 407.627 208.201 406.898 208.794 406.032C209.409 405.166 209.728 404.346 209.751 403.571L212.349 407.741C211.984 408.675 211.483 409.644 210.845 410.646C210.229 411.649 209.443 412.595 208.486 413.483C207.529 414.349 206.379 415.067 205.034 415.637C203.69 416.184 202.095 416.457 200.249 416.457C197.902 416.457 195.771 415.99 193.857 415.056C191.966 414.099 190.462 412.788 189.346 411.125C188.252 409.439 187.705 407.525 187.705 405.383C187.705 403.446 188.07 401.726 188.799 400.222C189.528 398.718 190.599 397.453 192.012 396.428C193.447 395.38 195.236 394.593 197.378 394.069C199.52 393.522 202.004 393.249 204.829 393.249H210.537ZM236.377 386.687V415.773H226.533V378.791H235.762L236.377 386.687ZM234.941 395.983H232.275C232.275 393.249 232.629 390.788 233.335 388.601C234.041 386.39 235.033 384.51 236.309 382.961C237.585 381.389 239.1 380.192 240.854 379.372C242.632 378.529 244.614 378.107 246.802 378.107C248.534 378.107 250.117 378.358 251.553 378.859C252.988 379.361 254.219 380.158 255.244 381.252C256.292 382.346 257.09 383.793 257.637 385.593C258.206 387.393 258.491 389.592 258.491 392.189V415.773H248.579V392.155C248.579 390.515 248.351 389.239 247.896 388.327C247.44 387.416 246.768 386.778 245.879 386.413C245.013 386.026 243.942 385.832 242.666 385.832C241.344 385.832 240.194 386.094 239.214 386.618C238.257 387.142 237.459 387.871 236.821 388.806C236.206 389.717 235.739 390.788 235.42 392.019C235.101 393.249 234.941 394.571 234.941 395.983ZM287.817 407.707V363.273H297.729V415.773H288.809L287.817 407.707ZM264.438 397.727V397.009C264.438 394.183 264.757 391.62 265.396 389.318C266.034 386.994 266.968 385 268.198 383.337C269.429 381.674 270.944 380.386 272.744 379.475C274.544 378.563 276.595 378.107 278.896 378.107C281.061 378.107 282.952 378.563 284.57 379.475C286.211 380.386 287.601 381.685 288.74 383.371C289.902 385.035 290.837 387.006 291.543 389.284C292.249 391.54 292.762 394.012 293.081 396.701V398.273C292.762 400.848 292.249 403.241 291.543 405.451C290.837 407.661 289.902 409.598 288.74 411.262C287.601 412.902 286.211 414.178 284.57 415.09C282.93 416.001 281.016 416.457 278.828 416.457C276.527 416.457 274.476 415.99 272.676 415.056C270.898 414.121 269.395 412.811 268.164 411.125C266.956 409.439 266.034 407.456 265.396 405.178C264.757 402.899 264.438 400.415 264.438 397.727ZM274.282 397.009V397.727C274.282 399.253 274.396 400.677 274.624 401.999C274.875 403.321 275.273 404.494 275.82 405.52C276.39 406.522 277.119 407.308 278.008 407.878C278.919 408.425 280.024 408.698 281.323 408.698C283.009 408.698 284.399 408.322 285.493 407.57C286.587 406.796 287.419 405.736 287.988 404.392C288.581 403.047 288.923 401.498 289.014 399.743V395.266C288.945 393.83 288.74 392.543 288.398 391.403C288.079 390.241 287.601 389.25 286.963 388.43C286.348 387.609 285.573 386.971 284.639 386.516C283.727 386.06 282.645 385.832 281.392 385.832C280.116 385.832 279.022 386.128 278.11 386.721C277.199 387.29 276.458 388.076 275.889 389.079C275.342 390.082 274.932 391.267 274.658 392.634C274.408 393.978 274.282 395.437 274.282 397.009ZM315.811 378.791V415.773H305.933V378.791H315.811ZM305.317 369.152C305.317 367.717 305.819 366.532 306.821 365.598C307.824 364.663 309.168 364.196 310.854 364.196C312.518 364.196 313.851 364.663 314.854 365.598C315.879 366.532 316.392 367.717 316.392 369.152C316.392 370.588 315.879 371.773 314.854 372.707C313.851 373.641 312.518 374.108 310.854 374.108C309.168 374.108 307.824 373.641 306.821 372.707C305.819 371.773 305.317 370.588 305.317 369.152ZM333.584 386.687V415.773H323.74V378.791H332.969L333.584 386.687ZM332.148 395.983H329.482C329.482 393.249 329.836 390.788 330.542 388.601C331.248 386.39 332.24 384.51 333.516 382.961C334.792 381.389 336.307 380.192 338.062 379.372C339.839 378.529 341.821 378.107 344.009 378.107C345.741 378.107 347.324 378.358 348.76 378.859C350.195 379.361 351.426 380.158 352.451 381.252C353.499 382.346 354.297 383.793 354.844 385.593C355.413 387.393 355.698 389.592 355.698 392.189V415.773H345.786V392.155C345.786 390.515 345.558 389.239 345.103 388.327C344.647 387.416 343.975 386.778 343.086 386.413C342.22 386.026 341.149 385.832 339.873 385.832C338.551 385.832 337.401 386.094 336.421 386.618C335.464 387.142 334.666 387.871 334.028 388.806C333.413 389.717 332.946 390.788 332.627 392.019C332.308 393.249 332.148 394.571 332.148 395.983ZM386.597 378.791H395.518V414.543C395.518 417.915 394.766 420.775 393.262 423.122C391.781 425.492 389.707 427.281 387.041 428.488C384.375 429.719 381.276 430.334 377.744 430.334C376.195 430.334 374.554 430.129 372.822 429.719C371.113 429.309 369.473 428.671 367.9 427.805C366.351 426.939 365.052 425.845 364.004 424.523L368.345 418.713C369.484 420.035 370.806 421.06 372.31 421.789C373.813 422.541 375.477 422.917 377.3 422.917C379.077 422.917 380.581 422.587 381.812 421.926C383.042 421.288 383.988 420.342 384.648 419.089C385.309 417.858 385.64 416.366 385.64 414.611V387.336L386.597 378.791ZM361.714 397.727V397.009C361.714 394.183 362.056 391.62 362.739 389.318C363.446 386.994 364.437 385 365.713 383.337C367.012 381.674 368.584 380.386 370.43 379.475C372.275 378.563 374.36 378.107 376.685 378.107C379.146 378.107 381.208 378.563 382.871 379.475C384.535 380.386 385.902 381.685 386.973 383.371C388.044 385.035 388.875 387.006 389.468 389.284C390.083 391.54 390.562 394.012 390.903 396.701V398.273C390.562 400.848 390.049 403.241 389.365 405.451C388.682 407.661 387.782 409.598 386.665 411.262C385.549 412.902 384.159 414.178 382.495 415.09C380.854 416.001 378.895 416.457 376.616 416.457C374.338 416.457 372.275 415.99 370.43 415.056C368.607 414.121 367.046 412.811 365.747 411.125C364.448 409.439 363.446 407.456 362.739 405.178C362.056 402.899 361.714 400.415 361.714 397.727ZM371.558 397.009V397.727C371.558 399.253 371.706 400.677 372.002 401.999C372.298 403.321 372.754 404.494 373.369 405.52C374.007 406.522 374.793 407.308 375.728 407.878C376.685 408.425 377.812 408.698 379.111 408.698C380.911 408.698 382.381 408.322 383.521 407.57C384.66 406.796 385.514 405.736 386.084 404.392C386.654 403.047 386.984 401.498 387.075 399.743V395.266C387.03 393.83 386.836 392.543 386.494 391.403C386.152 390.241 385.674 389.25 385.059 388.43C384.443 387.609 383.646 386.971 382.666 386.516C381.686 386.06 380.524 385.832 379.18 385.832C377.881 385.832 376.753 386.128 375.796 386.721C374.862 387.29 374.076 388.076 373.438 389.079C372.822 390.082 372.355 391.267 372.036 392.634C371.717 393.978 371.558 395.437 371.558 397.009ZM440.601 398.034H427.92V390.036H440.601C442.56 390.036 444.155 389.717 445.386 389.079C446.616 388.418 447.516 387.507 448.086 386.345C448.656 385.183 448.94 383.872 448.94 382.414C448.94 380.933 448.656 379.554 448.086 378.278C447.516 377.002 446.616 375.977 445.386 375.202C444.155 374.427 442.56 374.04 440.601 374.04H431.475V415.773H421.221V366.008H440.601C444.497 366.008 447.835 366.714 450.615 368.127C453.418 369.517 455.56 371.442 457.041 373.903C458.522 376.364 459.263 379.178 459.263 382.346C459.263 385.559 458.522 388.339 457.041 390.686C455.56 393.033 453.418 394.844 450.615 396.12C447.835 397.396 444.497 398.034 440.601 398.034ZM485.273 407.434V390.959C485.273 389.774 485.08 388.76 484.692 387.917C484.305 387.051 483.701 386.379 482.881 385.9C482.083 385.422 481.047 385.183 479.771 385.183C478.677 385.183 477.731 385.376 476.934 385.764C476.136 386.128 475.521 386.664 475.088 387.37C474.655 388.054 474.438 388.863 474.438 389.797H464.595C464.595 388.225 464.959 386.732 465.688 385.319C466.418 383.907 467.477 382.665 468.867 381.594C470.257 380.5 471.909 379.646 473.823 379.03C475.76 378.415 477.925 378.107 480.317 378.107C483.188 378.107 485.741 378.586 487.974 379.543C490.207 380.5 491.961 381.936 493.237 383.85C494.536 385.764 495.186 388.156 495.186 391.027V406.853C495.186 408.881 495.311 410.544 495.562 411.843C495.812 413.119 496.177 414.235 496.655 415.192V415.773H486.709C486.23 414.771 485.866 413.518 485.615 412.014C485.387 410.487 485.273 408.96 485.273 407.434ZM486.572 393.249L486.641 398.82H481.138C479.839 398.82 478.711 398.968 477.754 399.265C476.797 399.561 476.011 399.982 475.396 400.529C474.78 401.053 474.325 401.669 474.028 402.375C473.755 403.081 473.618 403.856 473.618 404.699C473.618 405.542 473.812 406.306 474.199 406.989C474.587 407.65 475.145 408.174 475.874 408.562C476.603 408.926 477.458 409.108 478.438 409.108C479.919 409.108 481.206 408.812 482.3 408.22C483.394 407.627 484.237 406.898 484.829 406.032C485.444 405.166 485.763 404.346 485.786 403.571L488.384 407.741C488.019 408.675 487.518 409.644 486.88 410.646C486.265 411.649 485.479 412.595 484.521 413.483C483.564 414.349 482.414 415.067 481.069 415.637C479.725 416.184 478.13 416.457 476.284 416.457C473.937 416.457 471.807 415.99 469.893 415.056C468.001 414.099 466.497 412.788 465.381 411.125C464.287 409.439 463.74 407.525 463.74 405.383C463.74 403.446 464.105 401.726 464.834 400.222C465.563 398.718 466.634 397.453 468.047 396.428C469.482 395.38 471.271 394.593 473.413 394.069C475.555 393.522 478.039 393.249 480.864 393.249H486.572ZM526.187 378.791H535.107V414.543C535.107 417.915 534.355 420.775 532.852 423.122C531.37 425.492 529.297 427.281 526.631 428.488C523.965 429.719 520.866 430.334 517.334 430.334C515.785 430.334 514.144 430.129 512.412 429.719C510.703 429.309 509.062 428.671 507.49 427.805C505.941 426.939 504.642 425.845 503.594 424.523L507.935 418.713C509.074 420.035 510.396 421.06 511.899 421.789C513.403 422.541 515.067 422.917 516.89 422.917C518.667 422.917 520.171 422.587 521.401 421.926C522.632 421.288 523.577 420.342 524.238 419.089C524.899 417.858 525.229 416.366 525.229 414.611V387.336L526.187 378.791ZM501.304 397.727V397.009C501.304 394.183 501.646 391.62 502.329 389.318C503.035 386.994 504.027 385 505.303 383.337C506.602 381.674 508.174 380.386 510.02 379.475C511.865 378.563 513.95 378.107 516.274 378.107C518.735 378.107 520.798 378.563 522.461 379.475C524.124 380.386 525.492 381.685 526.562 383.371C527.633 385.035 528.465 387.006 529.058 389.284C529.673 391.54 530.151 394.012 530.493 396.701V398.273C530.151 400.848 529.639 403.241 528.955 405.451C528.271 407.661 527.371 409.598 526.255 411.262C525.138 412.902 523.748 414.178 522.085 415.09C520.444 416.001 518.485 416.457 516.206 416.457C513.927 416.457 511.865 415.99 510.02 415.056C508.197 414.121 506.636 412.811 505.337 411.125C504.038 409.439 503.035 407.456 502.329 405.178C501.646 402.899 501.304 400.415 501.304 397.727ZM511.147 397.009V397.727C511.147 399.253 511.296 400.677 511.592 401.999C511.888 403.321 512.344 404.494 512.959 405.52C513.597 406.522 514.383 407.308 515.317 407.878C516.274 408.425 517.402 408.698 518.701 408.698C520.501 408.698 521.971 408.322 523.11 407.57C524.25 406.796 525.104 405.736 525.674 404.392C526.243 403.047 526.574 401.498 526.665 399.743V395.266C526.619 393.83 526.426 392.543 526.084 391.403C525.742 390.241 525.264 389.25 524.648 388.43C524.033 387.609 523.236 386.971 522.256 386.516C521.276 386.06 520.114 385.832 518.77 385.832C517.471 385.832 516.343 386.128 515.386 386.721C514.451 387.29 513.665 388.076 513.027 389.079C512.412 390.082 511.945 391.267 511.626 392.634C511.307 393.978 511.147 395.437 511.147 397.009ZM559.785 416.457C556.914 416.457 554.339 416.001 552.061 415.09C549.782 414.156 547.845 412.868 546.25 411.228C544.678 409.587 543.47 407.684 542.627 405.52C541.784 403.332 541.362 401.008 541.362 398.547V397.18C541.362 394.377 541.761 391.813 542.559 389.489C543.356 387.165 544.495 385.148 545.977 383.439C547.48 381.73 549.303 380.42 551.445 379.509C553.587 378.575 556.003 378.107 558.691 378.107C561.312 378.107 563.636 378.54 565.664 379.406C567.692 380.272 569.39 381.503 570.757 383.098C572.147 384.693 573.195 386.607 573.901 388.84C574.608 391.05 574.961 393.511 574.961 396.223V400.324H545.566V393.762H565.288V393.01C565.288 391.643 565.037 390.424 564.536 389.353C564.058 388.259 563.328 387.393 562.349 386.755C561.369 386.117 560.116 385.798 558.589 385.798C557.29 385.798 556.174 386.083 555.239 386.652C554.305 387.222 553.542 388.02 552.949 389.045C552.38 390.07 551.947 391.278 551.65 392.668C551.377 394.035 551.24 395.539 551.24 397.18V398.547C551.24 400.028 551.445 401.395 551.855 402.648C552.288 403.902 552.892 404.984 553.667 405.896C554.465 406.807 555.422 407.513 556.538 408.015C557.677 408.516 558.965 408.767 560.4 408.767C562.178 408.767 563.83 408.425 565.356 407.741C566.906 407.035 568.239 405.975 569.355 404.562L574.141 409.758C573.366 410.874 572.306 411.945 570.962 412.971C569.64 413.996 568.045 414.839 566.177 415.5C564.308 416.138 562.178 416.457 559.785 416.457Z" fill="#FD0404"/>
<path d="M149.824 501.821V501.26C149.824 499.355 150.101 497.59 150.654 495.962C151.208 494.318 152.005 492.894 153.047 491.689C154.089 490.469 155.35 489.525 156.831 488.857C158.312 488.174 159.972 487.832 161.812 487.832C163.667 487.832 165.335 488.174 166.816 488.857C168.314 489.525 169.583 490.469 170.625 491.689C171.683 492.894 172.489 494.318 173.042 495.962C173.595 497.59 173.872 499.355 173.872 501.26V501.821C173.872 503.726 173.595 505.492 173.042 507.119C172.489 508.747 171.683 510.171 170.625 511.392C169.583 512.596 168.322 513.54 166.841 514.224C165.376 514.891 163.716 515.225 161.86 515.225C160.005 515.225 158.337 514.891 156.855 514.224C155.374 513.54 154.105 512.596 153.047 511.392C152.005 510.171 151.208 508.747 150.654 507.119C150.101 505.492 149.824 503.726 149.824 501.821ZM154.341 501.26V501.821C154.341 503.14 154.495 504.385 154.805 505.557C155.114 506.712 155.578 507.738 156.196 508.633C156.831 509.528 157.62 510.236 158.564 510.757C159.508 511.261 160.607 511.514 161.86 511.514C163.097 511.514 164.18 511.261 165.107 510.757C166.051 510.236 166.833 509.528 167.451 508.633C168.07 507.738 168.534 506.712 168.843 505.557C169.168 504.385 169.331 503.14 169.331 501.821V501.26C169.331 499.958 169.168 498.729 168.843 497.573C168.534 496.401 168.062 495.368 167.427 494.473C166.808 493.561 166.027 492.845 165.083 492.324C164.155 491.803 163.065 491.543 161.812 491.543C160.575 491.543 159.484 491.803 158.54 492.324C157.612 492.845 156.831 493.561 156.196 494.473C155.578 495.368 155.114 496.401 154.805 497.573C154.495 498.729 154.341 499.958 154.341 501.26ZM184.053 493.96V514.736H179.536V488.32H183.809L184.053 493.96ZM182.979 500.527L181.099 500.454C181.115 498.647 181.383 496.979 181.904 495.449C182.425 493.903 183.158 492.56 184.102 491.421C185.046 490.282 186.169 489.403 187.471 488.784C188.789 488.149 190.246 487.832 191.841 487.832C193.143 487.832 194.315 488.011 195.356 488.369C196.398 488.711 197.285 489.264 198.018 490.029C198.766 490.794 199.336 491.787 199.727 493.008C200.117 494.212 200.312 495.685 200.312 497.427V514.736H195.771V497.378C195.771 495.994 195.568 494.888 195.161 494.058C194.754 493.211 194.16 492.601 193.379 492.227C192.598 491.836 191.637 491.641 190.498 491.641C189.375 491.641 188.35 491.877 187.422 492.349C186.51 492.821 185.721 493.472 185.054 494.302C184.403 495.132 183.89 496.084 183.516 497.158C183.158 498.216 182.979 499.339 182.979 500.527ZM221.748 479.189H226.313L237.959 508.169L249.58 479.189H254.17L239.717 514.736H236.152L221.748 479.189ZM220.259 479.189H224.287L224.946 500.869V514.736H220.259V479.189ZM251.606 479.189H255.635V514.736H250.947V500.869L251.606 479.189ZM262.031 501.821V501.26C262.031 499.355 262.308 497.59 262.861 495.962C263.415 494.318 264.212 492.894 265.254 491.689C266.296 490.469 267.557 489.525 269.038 488.857C270.519 488.174 272.179 487.832 274.019 487.832C275.874 487.832 277.542 488.174 279.023 488.857C280.521 489.525 281.79 490.469 282.832 491.689C283.89 492.894 284.696 494.318 285.249 495.962C285.802 497.59 286.079 499.355 286.079 501.26V501.821C286.079 503.726 285.802 505.492 285.249 507.119C284.696 508.747 283.89 510.171 282.832 511.392C281.79 512.596 280.529 513.54 279.048 514.224C277.583 514.891 275.923 515.225 274.067 515.225C272.212 515.225 270.544 514.891 269.062 514.224C267.581 513.54 266.312 512.596 265.254 511.392C264.212 510.171 263.415 508.747 262.861 507.119C262.308 505.492 262.031 503.726 262.031 501.821ZM266.548 501.26V501.821C266.548 503.14 266.702 504.385 267.012 505.557C267.321 506.712 267.785 507.738 268.403 508.633C269.038 509.528 269.827 510.236 270.771 510.757C271.715 511.261 272.814 511.514 274.067 511.514C275.304 511.514 276.387 511.261 277.314 510.757C278.258 510.236 279.04 509.528 279.658 508.633C280.277 507.738 280.741 506.712 281.05 505.557C281.375 504.385 281.538 503.14 281.538 501.821V501.26C281.538 499.958 281.375 498.729 281.05 497.573C280.741 496.401 280.269 495.368 279.634 494.473C279.015 493.561 278.234 492.845 277.29 492.324C276.362 491.803 275.272 491.543 274.019 491.543C272.782 491.543 271.691 491.803 270.747 492.324C269.819 492.845 269.038 493.561 268.403 494.473C267.785 495.368 267.321 496.401 267.012 497.573C266.702 498.729 266.548 499.958 266.548 501.26ZM296.26 493.96V514.736H291.743V488.32H296.016L296.26 493.96ZM295.186 500.527L293.306 500.454C293.322 498.647 293.59 496.979 294.111 495.449C294.632 493.903 295.365 492.56 296.309 491.421C297.253 490.282 298.376 489.403 299.678 488.784C300.996 488.149 302.453 487.832 304.048 487.832C305.35 487.832 306.522 488.011 307.563 488.369C308.605 488.711 309.492 489.264 310.225 490.029C310.973 490.794 311.543 491.787 311.934 493.008C312.324 494.212 312.52 495.685 312.52 497.427V514.736H307.979V497.378C307.979 495.994 307.775 494.888 307.368 494.058C306.961 493.211 306.367 492.601 305.586 492.227C304.805 491.836 303.844 491.641 302.705 491.641C301.582 491.641 300.557 491.877 299.629 492.349C298.717 492.821 297.928 493.472 297.261 494.302C296.61 495.132 296.097 496.084 295.723 497.158C295.365 498.216 295.186 499.339 295.186 500.527ZM336.03 509.609V477.236H340.571V514.736H336.421L336.03 509.609ZM318.257 501.821V501.309C318.257 499.29 318.501 497.459 318.989 495.815C319.494 494.155 320.202 492.731 321.113 491.543C322.041 490.355 323.14 489.443 324.409 488.809C325.695 488.158 327.127 487.832 328.706 487.832C330.366 487.832 331.815 488.125 333.052 488.711C334.305 489.281 335.363 490.119 336.226 491.226C337.104 492.316 337.796 493.634 338.301 495.181C338.805 496.727 339.155 498.477 339.351 500.43V502.676C339.172 504.613 338.822 506.354 338.301 507.9C337.796 509.447 337.104 510.765 336.226 511.855C335.363 512.946 334.305 513.784 333.052 514.37C331.799 514.94 330.334 515.225 328.657 515.225C327.111 515.225 325.695 514.891 324.409 514.224C323.14 513.556 322.041 512.62 321.113 511.416C320.202 510.212 319.494 508.796 318.989 507.168C318.501 505.524 318.257 503.742 318.257 501.821ZM322.798 501.309V501.821C322.798 503.14 322.928 504.377 323.188 505.532C323.465 506.688 323.888 507.705 324.458 508.584C325.028 509.463 325.752 510.155 326.631 510.659C327.51 511.147 328.56 511.392 329.78 511.392C331.278 511.392 332.507 511.074 333.467 510.439C334.443 509.805 335.225 508.966 335.811 507.925C336.396 506.883 336.852 505.752 337.178 504.531V498.647C336.982 497.752 336.698 496.89 336.323 496.06C335.965 495.213 335.493 494.465 334.907 493.813C334.338 493.146 333.63 492.617 332.783 492.227C331.953 491.836 330.968 491.641 329.829 491.641C328.592 491.641 327.526 491.901 326.631 492.422C325.752 492.926 325.028 493.626 324.458 494.521C323.888 495.4 323.465 496.426 323.188 497.598C322.928 498.753 322.798 499.99 322.798 501.309ZM363.179 510.22V496.621C363.179 495.579 362.967 494.676 362.544 493.911C362.137 493.13 361.519 492.528 360.688 492.104C359.858 491.681 358.833 491.47 357.612 491.47C356.473 491.47 355.472 491.665 354.609 492.056C353.763 492.446 353.096 492.959 352.607 493.594C352.135 494.229 351.899 494.912 351.899 495.645H347.383C347.383 494.701 347.627 493.765 348.115 492.837C348.604 491.909 349.303 491.071 350.215 490.322C351.143 489.557 352.249 488.955 353.535 488.516C354.837 488.06 356.286 487.832 357.881 487.832C359.801 487.832 361.494 488.158 362.959 488.809C364.44 489.46 365.596 490.444 366.426 491.763C367.272 493.065 367.695 494.701 367.695 496.67V508.975C367.695 509.854 367.769 510.789 367.915 511.782C368.078 512.775 368.314 513.63 368.623 514.346V514.736H363.911C363.683 514.215 363.504 513.524 363.374 512.661C363.244 511.782 363.179 510.968 363.179 510.22ZM363.96 498.721L364.009 501.895H359.443C358.158 501.895 357.01 502 356.001 502.212C354.992 502.407 354.146 502.708 353.462 503.115C352.778 503.522 352.257 504.035 351.899 504.653C351.541 505.256 351.362 505.964 351.362 506.777C351.362 507.607 351.549 508.364 351.924 509.048C352.298 509.731 352.86 510.277 353.608 510.684C354.373 511.074 355.309 511.27 356.416 511.27C357.799 511.27 359.02 510.977 360.078 510.391C361.136 509.805 361.974 509.089 362.593 508.242C363.228 507.396 363.569 506.574 363.618 505.776L365.547 507.949C365.433 508.633 365.124 509.39 364.619 510.22C364.115 511.05 363.439 511.847 362.593 512.612C361.763 513.361 360.77 513.988 359.614 514.492C358.475 514.98 357.189 515.225 355.757 515.225C353.966 515.225 352.396 514.875 351.045 514.175C349.71 513.475 348.669 512.539 347.92 511.367C347.188 510.179 346.821 508.853 346.821 507.388C346.821 505.972 347.098 504.727 347.651 503.652C348.205 502.562 349.002 501.659 350.044 500.942C351.086 500.21 352.339 499.657 353.804 499.282C355.269 498.908 356.904 498.721 358.711 498.721H363.96ZM381.831 512.002L389.18 488.32H394.014L383.418 518.813C383.174 519.465 382.848 520.164 382.441 520.913C382.051 521.678 381.546 522.402 380.928 523.086C380.309 523.77 379.561 524.323 378.682 524.746C377.819 525.186 376.785 525.405 375.581 525.405C375.223 525.405 374.767 525.356 374.214 525.259C373.66 525.161 373.27 525.08 373.042 525.015L373.018 521.353C373.148 521.369 373.351 521.385 373.628 521.401C373.921 521.434 374.124 521.45 374.238 521.45C375.264 521.45 376.134 521.312 376.851 521.035C377.567 520.775 378.169 520.327 378.657 519.692C379.162 519.074 379.593 518.219 379.951 517.129L381.831 512.002ZM376.436 488.32L383.296 508.828L384.468 513.589L381.221 515.249L371.504 488.32H376.436ZM415.889 479.189V514.736H411.177V479.189H415.889ZM430.781 495.181V499.038H414.863V495.181H430.781ZM433.198 479.189V483.047H414.863V479.189H433.198ZM448.555 515.225C446.715 515.225 445.047 514.915 443.55 514.297C442.069 513.662 440.791 512.775 439.717 511.636C438.659 510.496 437.845 509.146 437.275 507.583C436.706 506.021 436.421 504.312 436.421 502.456V501.431C436.421 499.282 436.738 497.37 437.373 495.693C438.008 494.001 438.87 492.568 439.961 491.396C441.051 490.225 442.288 489.338 443.672 488.735C445.055 488.133 446.488 487.832 447.969 487.832C449.857 487.832 451.484 488.158 452.852 488.809C454.235 489.46 455.366 490.371 456.245 491.543C457.124 492.699 457.775 494.066 458.198 495.645C458.621 497.207 458.833 498.916 458.833 500.771V502.798H439.106V499.111H454.316V498.77C454.251 497.598 454.007 496.458 453.584 495.352C453.177 494.245 452.526 493.333 451.631 492.617C450.736 491.901 449.515 491.543 447.969 491.543C446.943 491.543 445.999 491.763 445.137 492.202C444.274 492.625 443.534 493.26 442.915 494.106C442.297 494.953 441.816 495.986 441.475 497.207C441.133 498.428 440.962 499.836 440.962 501.431V502.456C440.962 503.709 441.133 504.889 441.475 505.996C441.833 507.087 442.345 508.047 443.013 508.877C443.696 509.707 444.518 510.358 445.479 510.83C446.455 511.302 447.562 511.538 448.799 511.538C450.394 511.538 451.745 511.213 452.852 510.562C453.958 509.91 454.927 509.04 455.757 507.949L458.491 510.122C457.922 510.985 457.197 511.807 456.318 512.588C455.439 513.369 454.357 514.004 453.071 514.492C451.802 514.98 450.296 515.225 448.555 515.225ZM464.082 477.236H468.623V509.609L468.232 514.736H464.082V477.236ZM486.47 501.309V501.821C486.47 503.742 486.242 505.524 485.786 507.168C485.33 508.796 484.663 510.212 483.784 511.416C482.905 512.62 481.831 513.556 480.562 514.224C479.292 514.891 477.835 515.225 476.191 515.225C474.515 515.225 473.042 514.94 471.772 514.37C470.519 513.784 469.461 512.946 468.599 511.855C467.736 510.765 467.044 509.447 466.523 507.9C466.019 506.354 465.669 504.613 465.474 502.676V500.43C465.669 498.477 466.019 496.727 466.523 495.181C467.044 493.634 467.736 492.316 468.599 491.226C469.461 490.119 470.519 489.281 471.772 488.711C473.026 488.125 474.482 487.832 476.143 487.832C477.803 487.832 479.276 488.158 480.562 488.809C481.847 489.443 482.922 490.355 483.784 491.543C484.663 492.731 485.33 494.155 485.786 495.815C486.242 497.459 486.47 499.29 486.47 501.309ZM481.929 501.821V501.309C481.929 499.99 481.807 498.753 481.562 497.598C481.318 496.426 480.928 495.4 480.391 494.521C479.854 493.626 479.146 492.926 478.267 492.422C477.388 491.901 476.305 491.641 475.02 491.641C473.88 491.641 472.887 491.836 472.041 492.227C471.211 492.617 470.503 493.146 469.917 493.813C469.331 494.465 468.851 495.213 468.477 496.06C468.118 496.89 467.85 497.752 467.671 498.647V504.531C467.931 505.671 468.354 506.769 468.94 507.827C469.543 508.869 470.34 509.723 471.333 510.391C472.342 511.058 473.587 511.392 475.068 511.392C476.289 511.392 477.331 511.147 478.193 510.659C479.072 510.155 479.78 509.463 480.317 508.584C480.871 507.705 481.278 506.688 481.538 505.532C481.799 504.377 481.929 503.14 481.929 501.821ZM527.388 511.025V514.736H504.121V511.489L515.767 498.525C517.199 496.93 518.306 495.579 519.087 494.473C519.884 493.35 520.438 492.349 520.747 491.47C521.073 490.575 521.235 489.663 521.235 488.735C521.235 487.563 520.991 486.506 520.503 485.562C520.031 484.601 519.331 483.836 518.403 483.267C517.476 482.697 516.353 482.412 515.034 482.412C513.455 482.412 512.137 482.721 511.079 483.34C510.037 483.942 509.256 484.788 508.735 485.879C508.215 486.969 507.954 488.223 507.954 489.639H503.438C503.438 487.637 503.877 485.806 504.756 484.146C505.635 482.485 506.937 481.167 508.662 480.19C510.387 479.198 512.511 478.701 515.034 478.701C517.28 478.701 519.201 479.1 520.796 479.897C522.391 480.679 523.612 481.785 524.458 483.218C525.321 484.634 525.752 486.294 525.752 488.198C525.752 489.24 525.573 490.298 525.215 491.372C524.873 492.43 524.393 493.488 523.774 494.546C523.172 495.604 522.464 496.646 521.65 497.671C520.853 498.696 519.998 499.705 519.087 500.698L509.565 511.025H527.388ZM554.634 505.117C554.634 507.282 554.129 509.121 553.12 510.635C552.127 512.132 550.776 513.271 549.067 514.053C547.375 514.834 545.462 515.225 543.33 515.225C541.198 515.225 539.277 514.834 537.568 514.053C535.859 513.271 534.508 512.132 533.516 510.635C532.523 509.121 532.026 507.282 532.026 505.117C532.026 503.701 532.295 502.407 532.832 501.235C533.385 500.047 534.159 499.014 535.151 498.135C536.16 497.256 537.349 496.58 538.716 496.108C540.099 495.62 541.621 495.376 543.281 495.376C545.462 495.376 547.407 495.799 549.116 496.646C550.825 497.476 552.168 498.623 553.145 500.088C554.137 501.553 554.634 503.229 554.634 505.117ZM550.093 505.02C550.093 503.701 549.808 502.537 549.238 501.528C548.669 500.503 547.871 499.705 546.846 499.136C545.82 498.566 544.632 498.281 543.281 498.281C541.898 498.281 540.701 498.566 539.692 499.136C538.7 499.705 537.926 500.503 537.373 501.528C536.82 502.537 536.543 503.701 536.543 505.02C536.543 506.387 536.812 507.559 537.349 508.535C537.902 509.495 538.683 510.236 539.692 510.757C540.718 511.261 541.93 511.514 543.33 511.514C544.73 511.514 545.934 511.261 546.943 510.757C547.952 510.236 548.726 509.495 549.263 508.535C549.816 507.559 550.093 506.387 550.093 505.02ZM553.804 488.442C553.804 490.168 553.348 491.722 552.437 493.105C551.525 494.489 550.28 495.579 548.701 496.377C547.122 497.174 545.332 497.573 543.33 497.573C541.296 497.573 539.481 497.174 537.886 496.377C536.307 495.579 535.07 494.489 534.175 493.105C533.28 491.722 532.832 490.168 532.832 488.442C532.832 486.375 533.28 484.618 534.175 483.169C535.086 481.72 536.331 480.614 537.91 479.849C539.489 479.084 541.287 478.701 543.306 478.701C545.34 478.701 547.147 479.084 548.726 479.849C550.304 480.614 551.541 481.72 552.437 483.169C553.348 484.618 553.804 486.375 553.804 488.442ZM549.287 488.516C549.287 487.327 549.035 486.278 548.53 485.366C548.026 484.455 547.326 483.739 546.431 483.218C545.535 482.681 544.494 482.412 543.306 482.412C542.118 482.412 541.076 482.664 540.181 483.169C539.302 483.657 538.61 484.357 538.105 485.269C537.617 486.18 537.373 487.262 537.373 488.516C537.373 489.736 537.617 490.802 538.105 491.714C538.61 492.625 539.31 493.333 540.205 493.838C541.1 494.342 542.142 494.595 543.33 494.595C544.518 494.595 545.552 494.342 546.431 493.838C547.326 493.333 548.026 492.625 548.53 491.714C549.035 490.802 549.287 489.736 549.287 488.516ZM564.937 509.365V513.003C564.937 514.484 564.562 516.047 563.813 517.69C563.065 519.351 562.015 520.734 560.664 521.841L558.101 520.059C558.621 519.342 559.061 518.61 559.419 517.861C559.777 517.129 560.046 516.364 560.225 515.566C560.42 514.785 560.518 513.955 560.518 513.076V509.365H564.937ZM605.903 511.025V514.736H582.637V511.489L594.282 498.525C595.715 496.93 596.821 495.579 597.603 494.473C598.4 493.35 598.953 492.349 599.263 491.47C599.588 490.575 599.751 489.663 599.751 488.735C599.751 487.563 599.507 486.506 599.019 485.562C598.547 484.601 597.847 483.836 596.919 483.267C595.991 482.697 594.868 482.412 593.55 482.412C591.971 482.412 590.653 482.721 589.595 483.34C588.553 483.942 587.772 484.788 587.251 485.879C586.73 486.969 586.47 488.223 586.47 489.639H581.953C581.953 487.637 582.393 485.806 583.271 484.146C584.15 482.485 585.452 481.167 587.178 480.19C588.903 479.198 591.027 478.701 593.55 478.701C595.796 478.701 597.716 479.1 599.312 479.897C600.907 480.679 602.127 481.785 602.974 483.218C603.836 484.634 604.268 486.294 604.268 488.198C604.268 489.24 604.089 490.298 603.73 491.372C603.389 492.43 602.909 493.488 602.29 494.546C601.688 495.604 600.98 496.646 600.166 497.671C599.368 498.696 598.514 499.705 597.603 500.698L588.081 511.025H605.903ZM633.052 494.131V499.551C633.052 502.464 632.791 504.922 632.271 506.924C631.75 508.926 631.001 510.537 630.024 511.758C629.048 512.979 627.868 513.866 626.484 514.419C625.117 514.956 623.571 515.225 621.846 515.225C620.479 515.225 619.217 515.054 618.062 514.712C616.906 514.37 615.864 513.825 614.937 513.076C614.025 512.311 613.244 511.318 612.593 510.098C611.942 508.877 611.445 507.396 611.104 505.654C610.762 503.913 610.591 501.878 610.591 499.551V494.131C610.591 491.217 610.851 488.776 611.372 486.807C611.909 484.837 612.666 483.258 613.643 482.07C614.619 480.866 615.791 480.003 617.158 479.482C618.542 478.962 620.088 478.701 621.797 478.701C623.18 478.701 624.45 478.872 625.605 479.214C626.777 479.539 627.819 480.068 628.73 480.801C629.642 481.517 630.415 482.477 631.05 483.682C631.701 484.87 632.197 486.326 632.539 488.052C632.881 489.777 633.052 491.803 633.052 494.131ZM628.511 500.283V493.374C628.511 491.779 628.413 490.379 628.218 489.175C628.039 487.954 627.77 486.912 627.412 486.05C627.054 485.187 626.598 484.487 626.045 483.95C625.508 483.413 624.881 483.022 624.165 482.778C623.465 482.518 622.676 482.388 621.797 482.388C620.723 482.388 619.771 482.591 618.94 482.998C618.11 483.389 617.41 484.015 616.841 484.878C616.287 485.741 615.864 486.872 615.571 488.271C615.278 489.671 615.132 491.372 615.132 493.374V500.283C615.132 501.878 615.221 503.286 615.4 504.507C615.596 505.728 615.881 506.785 616.255 507.681C616.629 508.56 617.085 509.284 617.622 509.854C618.159 510.423 618.778 510.846 619.478 511.123C620.194 511.383 620.983 511.514 621.846 511.514C622.952 511.514 623.921 511.302 624.751 510.879C625.581 510.456 626.273 509.797 626.826 508.901C627.396 507.99 627.819 506.826 628.096 505.41C628.372 503.978 628.511 502.269 628.511 500.283ZM662.153 511.025V514.736H638.887V511.489L650.532 498.525C651.965 496.93 653.071 495.579 653.853 494.473C654.65 493.35 655.203 492.349 655.513 491.47C655.838 490.575 656.001 489.663 656.001 488.735C656.001 487.563 655.757 486.506 655.269 485.562C654.797 484.601 654.097 483.836 653.169 483.267C652.241 482.697 651.118 482.412 649.8 482.412C648.221 482.412 646.903 482.721 645.845 483.34C644.803 483.942 644.022 484.788 643.501 485.879C642.98 486.969 642.72 488.223 642.72 489.639H638.203C638.203 487.637 638.643 485.806 639.521 484.146C640.4 482.485 641.702 481.167 643.428 480.19C645.153 479.198 647.277 478.701 649.8 478.701C652.046 478.701 653.966 479.1 655.562 479.897C657.157 480.679 658.377 481.785 659.224 483.218C660.086 484.634 660.518 486.294 660.518 488.198C660.518 489.24 660.339 490.298 659.98 491.372C659.639 492.43 659.159 493.488 658.54 494.546C657.938 495.604 657.23 496.646 656.416 497.671C655.618 498.696 654.764 499.705 653.853 500.698L644.331 511.025H662.153ZM690.278 511.025V514.736H667.012V511.489L678.657 498.525C680.09 496.93 681.196 495.579 681.978 494.473C682.775 493.35 683.328 492.349 683.638 491.47C683.963 490.575 684.126 489.663 684.126 488.735C684.126 487.563 683.882 486.506 683.394 485.562C682.922 484.601 682.222 483.836 681.294 483.267C680.366 482.697 679.243 482.412 677.925 482.412C676.346 482.412 675.028 482.721 673.97 483.34C672.928 483.942 672.147 484.788 671.626 485.879C671.105 486.969 670.845 488.223 670.845 489.639H666.328C666.328 487.637 666.768 485.806 667.646 484.146C668.525 482.485 669.827 481.167 671.553 480.19C673.278 479.198 675.402 478.701 677.925 478.701C680.171 478.701 682.091 479.1 683.687 479.897C685.282 480.679 686.502 481.785 687.349 483.218C688.211 484.634 688.643 486.294 688.643 488.198C688.643 489.24 688.464 490.298 688.105 491.372C687.764 492.43 687.284 493.488 686.665 494.546C686.063 495.604 685.355 496.646 684.541 497.671C683.743 498.696 682.889 499.705 681.978 500.698L672.456 511.025H690.278Z" fill="#FD0404"/>
<path d="M203.73 519.619H315.913V522.061H203.73V519.619Z" fill="#FD0404"/>
<path d="M315.938 519.619H692.134V522.061H315.938V519.619Z" fill="#FD0404"/>
</g>
<path d="M28.3438 28.8125V26.8125H26.3438V28.8125H28.3438ZM1110.34 28.8125H1112.34V26.8125H1110.34V28.8125ZM1110.34 639.697V641.697H1112.34V639.697H1110.34ZM28.3438 639.697H26.3438V641.697H28.3438V639.697ZM28.3438 30.8125H1110.34V26.8125H28.3438V30.8125ZM1108.34 28.8125V639.697H1112.34V28.8125H1108.34ZM1110.34 637.697H28.3438V641.697H1110.34V637.697ZM30.3438 639.697V28.8125H26.3438V639.697H30.3438Z" fill="black"/>
</g>
<defs>
<filter id="filter0_d_158_8270" x="0.34375" y="0.8125" width="1154" height="682.885" filterUnits="userSpaceOnUse" color-interpolation-filters="sRGB">
<feFlood flood-opacity="0" result="BackgroundImageFix"/>
<feColorMatrix in="SourceAlpha" type="matrix" values="0 0 0 0 0 0 0 0 0 0 0 0 0 0 0 0 0 0 127 0" result="hardAlpha"/>
<feOffset dx="8" dy="8"/>
<feGaussianBlur stdDeviation="17"/>
<feComposite in2="hardAlpha" operator="out"/>
<feColorMatrix type="matrix" values="0 0 0 0 0 0 0 0 0 0 0 0 0 0 0 0 0 0 0.25 0"/>
<feBlend mode="normal" in2="BackgroundImageFix" result="effect1_dropShadow_158_8270"/>
<feBlend mode="normal" in="SourceGraphic" in2="effect1_dropShadow_158_8270" result="shape"/>
</filter>
<clipPath id="clip0_158_8270">
<path d="M28.3438 28.8125H1110.34V639.697H28.3438V28.8125Z" fill="white"/>
</clipPath>
</defs>
</svg>
