<svg width="1154" height="683" viewBox="0 0 1154 683" fill="none" xmlns="http://www.w3.org/2000/svg">
<g filter="url(#filter0_d_146_3038)">
<g clip-path="url(#clip0_146_3038)">
<path d="M28 28H1110V638.884H28V28Z" fill="#FFF87B"/>
<rect width="1081" height="99" transform="translate(28 27.9414)" fill="#FFF87B"/>
<line x1="914.006" y1="76.4121" x2="953.949" y2="76.4121" stroke="#FD0404" stroke-width="3"/>
<rect x="975.031" y="56.4414" width="42.9428" height="42.9428" stroke="#FD0404" stroke-width="3"/>
<line x1="1038" y1="96.8241" x2="1077.94" y2="56.8813" stroke="#FD0404" stroke-width="3"/>
<line x1="1040.12" y1="56.8807" x2="1080.06" y2="96.8235" stroke="#FD0404" stroke-width="3"/>
<path d="M151.36 162.453H163.128C165.797 162.453 168.051 162.86 169.891 163.674C171.746 164.488 173.154 165.692 174.114 167.287C175.091 168.866 175.579 170.811 175.579 173.122C175.579 174.75 175.245 176.239 174.578 177.59C173.927 178.924 172.983 180.064 171.746 181.008C170.525 181.936 169.061 182.627 167.352 183.083L166.033 183.596H154.974L154.925 179.763H163.274C164.967 179.763 166.375 179.47 167.498 178.884C168.621 178.282 169.467 177.476 170.037 176.467C170.607 175.458 170.892 174.343 170.892 173.122C170.892 171.755 170.623 170.559 170.086 169.533C169.549 168.508 168.702 167.718 167.547 167.165C166.408 166.595 164.935 166.311 163.128 166.311H156.072V198H151.36V162.453ZM172.137 198L163.494 181.887L168.401 181.862L177.166 197.707V198H172.137ZM192.449 198.488C190.61 198.488 188.942 198.179 187.444 197.561C185.963 196.926 184.686 196.039 183.611 194.899C182.553 193.76 181.74 192.409 181.17 190.847C180.6 189.284 180.315 187.575 180.315 185.72V184.694C180.315 182.546 180.633 180.633 181.268 178.957C181.902 177.264 182.765 175.832 183.855 174.66C184.946 173.488 186.183 172.601 187.566 171.999C188.95 171.397 190.382 171.096 191.863 171.096C193.751 171.096 195.379 171.421 196.746 172.072C198.13 172.723 199.261 173.635 200.14 174.807C201.019 175.962 201.67 177.329 202.093 178.908C202.516 180.471 202.728 182.18 202.728 184.035V186.062H183.001V182.375H198.211V182.033C198.146 180.861 197.902 179.722 197.479 178.615C197.072 177.508 196.421 176.597 195.525 175.881C194.63 175.165 193.41 174.807 191.863 174.807C190.838 174.807 189.894 175.026 189.031 175.466C188.169 175.889 187.428 176.524 186.81 177.37C186.191 178.216 185.711 179.25 185.369 180.471C185.027 181.691 184.856 183.099 184.856 184.694V185.72C184.856 186.973 185.027 188.153 185.369 189.26C185.727 190.35 186.24 191.311 186.907 192.141C187.591 192.971 188.413 193.622 189.373 194.094C190.35 194.566 191.456 194.802 192.693 194.802C194.288 194.802 195.639 194.476 196.746 193.825C197.853 193.174 198.821 192.303 199.651 191.213L202.386 193.386C201.816 194.248 201.092 195.07 200.213 195.852C199.334 196.633 198.252 197.268 196.966 197.756C195.696 198.244 194.191 198.488 192.449 198.488ZM212.493 176.833V198H207.952V171.584H212.249L212.493 176.833ZM211.565 183.791L209.466 183.718C209.482 181.911 209.718 180.243 210.174 178.713C210.63 177.167 211.305 175.824 212.2 174.685C213.095 173.545 214.21 172.666 215.545 172.048C216.88 171.413 218.426 171.096 220.184 171.096C221.421 171.096 222.56 171.275 223.602 171.633C224.643 171.975 225.547 172.52 226.312 173.269C227.076 174.017 227.671 174.978 228.094 176.149C228.517 177.321 228.729 178.737 228.729 180.397V198H224.212V180.617C224.212 179.234 223.976 178.127 223.504 177.297C223.048 176.467 222.397 175.865 221.551 175.49C220.704 175.1 219.712 174.904 218.572 174.904C217.238 174.904 216.123 175.14 215.228 175.612C214.332 176.084 213.616 176.735 213.079 177.565C212.542 178.396 212.151 179.348 211.907 180.422C211.679 181.48 211.565 182.603 211.565 183.791ZM228.68 181.301L225.652 182.229C225.669 180.78 225.905 179.388 226.36 178.054C226.832 176.719 227.508 175.531 228.387 174.489C229.282 173.448 230.381 172.626 231.683 172.023C232.985 171.405 234.474 171.096 236.15 171.096C237.566 171.096 238.82 171.283 239.91 171.657C241.017 172.032 241.945 172.609 242.693 173.391C243.458 174.156 244.036 175.14 244.427 176.345C244.817 177.549 245.013 178.981 245.013 180.642V198H240.472V180.593C240.472 179.112 240.236 177.964 239.764 177.15C239.308 176.32 238.657 175.743 237.811 175.417C236.98 175.075 235.988 174.904 234.832 174.904C233.839 174.904 232.96 175.075 232.195 175.417C231.43 175.759 230.787 176.231 230.267 176.833C229.746 177.419 229.347 178.094 229.07 178.859C228.81 179.624 228.68 180.438 228.68 181.301ZM256.756 171.584V198H252.215V171.584H256.756ZM251.873 164.577C251.873 163.845 252.093 163.226 252.532 162.722C252.988 162.217 253.655 161.965 254.534 161.965C255.397 161.965 256.056 162.217 256.512 162.722C256.984 163.226 257.22 163.845 257.22 164.577C257.22 165.277 256.984 165.879 256.512 166.384C256.056 166.872 255.397 167.116 254.534 167.116C253.655 167.116 252.988 166.872 252.532 166.384C252.093 165.879 251.873 165.277 251.873 164.577ZM268.523 177.224V198H264.007V171.584H268.279L268.523 177.224ZM267.449 183.791L265.569 183.718C265.586 181.911 265.854 180.243 266.375 178.713C266.896 177.167 267.628 175.824 268.572 174.685C269.516 173.545 270.639 172.666 271.941 172.048C273.26 171.413 274.716 171.096 276.312 171.096C277.614 171.096 278.785 171.275 279.827 171.633C280.869 171.975 281.756 172.528 282.488 173.293C283.237 174.058 283.807 175.051 284.197 176.271C284.588 177.476 284.783 178.949 284.783 180.69V198H280.242V180.642C280.242 179.258 280.039 178.151 279.632 177.321C279.225 176.475 278.631 175.865 277.85 175.49C277.068 175.1 276.108 174.904 274.969 174.904C273.846 174.904 272.82 175.14 271.893 175.612C270.981 176.084 270.192 176.735 269.524 177.565C268.873 178.396 268.361 179.348 267.986 180.422C267.628 181.48 267.449 182.603 267.449 183.791ZM308.294 192.873V160.5H312.835V198H308.685L308.294 192.873ZM290.521 185.085V184.572C290.521 182.554 290.765 180.723 291.253 179.079C291.757 177.419 292.465 175.995 293.377 174.807C294.305 173.618 295.403 172.707 296.673 172.072C297.959 171.421 299.391 171.096 300.97 171.096C302.63 171.096 304.078 171.389 305.315 171.975C306.569 172.544 307.627 173.382 308.489 174.489C309.368 175.58 310.06 176.898 310.564 178.444C311.069 179.991 311.419 181.74 311.614 183.693V185.939C311.435 187.876 311.085 189.618 310.564 191.164C310.06 192.71 309.368 194.029 308.489 195.119C307.627 196.21 306.569 197.048 305.315 197.634C304.062 198.203 302.597 198.488 300.921 198.488C299.375 198.488 297.959 198.155 296.673 197.487C295.403 196.82 294.305 195.884 293.377 194.68C292.465 193.475 291.757 192.059 291.253 190.432C290.765 188.788 290.521 187.006 290.521 185.085ZM295.062 184.572V185.085C295.062 186.403 295.192 187.64 295.452 188.796C295.729 189.951 296.152 190.969 296.722 191.848C297.291 192.727 298.016 193.418 298.895 193.923C299.773 194.411 300.823 194.655 302.044 194.655C303.541 194.655 304.77 194.338 305.73 193.703C306.707 193.068 307.488 192.23 308.074 191.188C308.66 190.147 309.116 189.016 309.441 187.795V181.911C309.246 181.016 308.961 180.153 308.587 179.323C308.229 178.477 307.757 177.728 307.171 177.077C306.601 176.41 305.893 175.881 305.047 175.49C304.217 175.1 303.232 174.904 302.093 174.904C300.856 174.904 299.79 175.165 298.895 175.686C298.016 176.19 297.291 176.89 296.722 177.785C296.152 178.664 295.729 179.689 295.452 180.861C295.192 182.017 295.062 183.254 295.062 184.572ZM330.828 198.488C328.989 198.488 327.321 198.179 325.823 197.561C324.342 196.926 323.064 196.039 321.99 194.899C320.932 193.76 320.118 192.409 319.549 190.847C318.979 189.284 318.694 187.575 318.694 185.72V184.694C318.694 182.546 319.012 180.633 319.646 178.957C320.281 177.264 321.144 175.832 322.234 174.66C323.325 173.488 324.562 172.601 325.945 171.999C327.329 171.397 328.761 171.096 330.242 171.096C332.13 171.096 333.758 171.421 335.125 172.072C336.508 172.723 337.64 173.635 338.519 174.807C339.397 175.962 340.049 177.329 340.472 178.908C340.895 180.471 341.106 182.18 341.106 184.035V186.062H321.38V182.375H336.59V182.033C336.525 180.861 336.281 179.722 335.857 178.615C335.451 177.508 334.799 176.597 333.904 175.881C333.009 175.165 331.788 174.807 330.242 174.807C329.217 174.807 328.273 175.026 327.41 175.466C326.548 175.889 325.807 176.524 325.188 177.37C324.57 178.216 324.09 179.25 323.748 180.471C323.406 181.691 323.235 183.099 323.235 184.694V185.72C323.235 186.973 323.406 188.153 323.748 189.26C324.106 190.35 324.619 191.311 325.286 192.141C325.97 192.971 326.792 193.622 327.752 194.094C328.729 194.566 329.835 194.802 331.072 194.802C332.667 194.802 334.018 194.476 335.125 193.825C336.232 193.174 337.2 192.303 338.03 191.213L340.765 193.386C340.195 194.248 339.471 195.07 338.592 195.852C337.713 196.633 336.631 197.268 335.345 197.756C334.075 198.244 332.57 198.488 330.828 198.488ZM350.896 175.734V198H346.38V171.584H350.774L350.896 175.734ZM359.148 171.438L359.124 175.637C358.75 175.555 358.392 175.507 358.05 175.49C357.724 175.458 357.35 175.441 356.927 175.441C355.885 175.441 354.965 175.604 354.168 175.93C353.37 176.255 352.695 176.711 352.142 177.297C351.588 177.883 351.149 178.583 350.823 179.396C350.514 180.194 350.311 181.073 350.213 182.033L348.943 182.766C348.943 181.171 349.098 179.673 349.407 178.273C349.733 176.874 350.229 175.637 350.896 174.562C351.564 173.472 352.41 172.626 353.436 172.023C354.477 171.405 355.714 171.096 357.146 171.096C357.472 171.096 357.846 171.136 358.27 171.218C358.693 171.283 358.986 171.356 359.148 171.438Z" fill="#FD0404"/>
<path d="M159.915 310.3L152.054 308.42L154.891 283.195H182.85V291.159H162.991L161.761 302.199C162.422 301.812 163.424 301.402 164.769 300.969C166.113 300.513 167.617 300.285 169.28 300.285C171.696 300.285 173.838 300.661 175.706 301.413C177.575 302.165 179.158 303.259 180.457 304.694C181.779 306.13 182.781 307.884 183.465 309.958C184.148 312.032 184.49 314.379 184.49 316.999C184.49 319.209 184.148 321.317 183.465 323.322C182.781 325.305 181.744 327.082 180.354 328.654C178.965 330.204 177.221 331.423 175.125 332.312C173.029 333.2 170.545 333.645 167.674 333.645C165.532 333.645 163.458 333.326 161.453 332.688C159.471 332.049 157.682 331.104 156.087 329.851C154.515 328.597 153.25 327.082 152.293 325.305C151.359 323.505 150.869 321.454 150.823 319.152H160.599C160.735 320.565 161.1 321.784 161.692 322.81C162.308 323.812 163.117 324.587 164.119 325.134C165.122 325.681 166.295 325.954 167.64 325.954C168.893 325.954 169.964 325.715 170.853 325.236C171.741 324.758 172.459 324.097 173.006 323.254C173.553 322.388 173.951 321.385 174.202 320.246C174.476 319.084 174.612 317.831 174.612 316.486C174.612 315.142 174.453 313.923 174.134 312.829C173.815 311.735 173.325 310.79 172.664 309.992C172.003 309.195 171.16 308.579 170.135 308.146C169.132 307.714 167.959 307.497 166.614 307.497C164.791 307.497 163.379 307.782 162.376 308.352C161.396 308.921 160.576 309.571 159.915 310.3ZM224.344 303.703V312.316C224.344 316.053 223.945 319.278 223.147 321.989C222.35 324.678 221.199 326.888 219.695 328.62C218.214 330.329 216.448 331.594 214.397 332.414C212.347 333.234 210.068 333.645 207.562 333.645C205.556 333.645 203.688 333.394 201.956 332.893C200.224 332.368 198.663 331.56 197.273 330.466C195.906 329.372 194.721 327.993 193.719 326.33C192.739 324.644 191.987 322.639 191.463 320.314C190.939 317.99 190.677 315.324 190.677 312.316V303.703C190.677 299.966 191.076 296.765 191.873 294.099C192.693 291.41 193.844 289.211 195.325 287.502C196.829 285.793 198.606 284.54 200.657 283.742C202.708 282.922 204.987 282.512 207.493 282.512C209.498 282.512 211.355 282.774 213.064 283.298C214.796 283.799 216.357 284.585 217.747 285.656C219.137 286.727 220.322 288.106 221.302 289.792C222.282 291.455 223.034 293.449 223.558 295.773C224.082 298.075 224.344 300.718 224.344 303.703ZM214.466 313.615V302.37C214.466 300.57 214.363 298.998 214.158 297.653C213.976 296.309 213.691 295.17 213.304 294.235C212.916 293.278 212.438 292.504 211.868 291.911C211.299 291.319 210.649 290.886 209.92 290.612C209.191 290.339 208.382 290.202 207.493 290.202C206.377 290.202 205.385 290.419 204.52 290.852C203.676 291.285 202.959 291.979 202.366 292.937C201.774 293.871 201.318 295.124 200.999 296.696C200.703 298.246 200.555 300.137 200.555 302.37V313.615C200.555 315.415 200.646 316.999 200.828 318.366C201.033 319.733 201.329 320.907 201.717 321.887C202.127 322.844 202.605 323.63 203.152 324.245C203.722 324.838 204.371 325.271 205.101 325.544C205.853 325.817 206.673 325.954 207.562 325.954C208.655 325.954 209.624 325.738 210.467 325.305C211.333 324.849 212.062 324.143 212.654 323.186C213.27 322.206 213.725 320.93 214.021 319.357C214.318 317.785 214.466 315.871 214.466 313.615ZM249.568 295.979V302.951H228.035V295.979H249.568ZM233.367 286.853H243.211V321.818C243.211 322.889 243.348 323.71 243.621 324.279C243.917 324.849 244.35 325.248 244.92 325.476C245.49 325.681 246.207 325.783 247.073 325.783C247.688 325.783 248.235 325.76 248.714 325.715C249.215 325.646 249.637 325.578 249.979 325.51L250.013 332.756C249.17 333.029 248.258 333.246 247.278 333.405C246.299 333.565 245.216 333.645 244.031 333.645C241.867 333.645 239.975 333.291 238.357 332.585C236.762 331.856 235.532 330.694 234.666 329.099C233.8 327.504 233.367 325.407 233.367 322.81V286.853ZM264.778 280.461V332.961H254.935V280.461H264.778ZM263.377 313.171H260.677C260.7 310.596 261.041 308.226 261.702 306.062C262.363 303.874 263.309 301.983 264.539 300.388C265.77 298.77 267.239 297.517 268.948 296.628C270.68 295.739 272.594 295.295 274.69 295.295C276.513 295.295 278.165 295.557 279.646 296.081C281.15 296.582 282.438 297.403 283.509 298.542C284.603 299.659 285.446 301.128 286.038 302.951C286.631 304.774 286.927 306.984 286.927 309.582V332.961H277.015V309.514C277.015 307.873 276.775 306.586 276.297 305.651C275.841 304.694 275.169 304.022 274.28 303.635C273.414 303.225 272.343 303.02 271.067 303.02C269.655 303.02 268.447 303.282 267.444 303.806C266.465 304.33 265.678 305.059 265.086 305.993C264.493 306.905 264.061 307.976 263.787 309.206C263.514 310.437 263.377 311.758 263.377 313.171ZM345.853 324.963V332.961H319.363V324.963H345.853ZM322.713 283.195V332.961H312.459V283.195H322.713ZM342.4 303.464V311.257H319.363V303.464H342.4ZM345.818 283.195V291.228H319.363V283.195H345.818ZM362.908 325.783L371.111 295.979H381.399L368.924 332.961H362.703L362.908 325.783ZM357.269 295.979L365.506 325.817L365.677 332.961H359.422L346.946 295.979H357.269ZM402.352 333.645C399.48 333.645 396.906 333.189 394.627 332.277C392.348 331.343 390.411 330.056 388.816 328.415C387.244 326.774 386.036 324.872 385.193 322.707C384.35 320.52 383.929 318.195 383.929 315.734V314.367C383.929 311.564 384.327 309.001 385.125 306.677C385.923 304.353 387.062 302.336 388.543 300.627C390.047 298.918 391.87 297.608 394.012 296.696C396.154 295.762 398.569 295.295 401.258 295.295C403.878 295.295 406.202 295.728 408.23 296.594C410.258 297.46 411.956 298.69 413.323 300.285C414.713 301.88 415.761 303.794 416.468 306.027C417.174 308.238 417.527 310.699 417.527 313.41V317.512H388.133V310.949H407.854V310.197C407.854 308.83 407.604 307.611 407.103 306.54C406.624 305.446 405.895 304.58 404.915 303.942C403.935 303.304 402.682 302.985 401.155 302.985C399.856 302.985 398.74 303.27 397.806 303.84C396.871 304.41 396.108 305.207 395.516 306.232C394.946 307.258 394.513 308.465 394.217 309.855C393.943 311.223 393.807 312.727 393.807 314.367V315.734C393.807 317.215 394.012 318.583 394.422 319.836C394.855 321.089 395.459 322.172 396.233 323.083C397.031 323.994 397.988 324.701 399.104 325.202C400.244 325.703 401.531 325.954 402.967 325.954C404.744 325.954 406.396 325.612 407.923 324.929C409.472 324.222 410.805 323.163 411.922 321.75L416.707 326.945C415.932 328.062 414.873 329.133 413.528 330.158C412.207 331.184 410.612 332.027 408.743 332.688C406.875 333.326 404.744 333.645 402.352 333.645ZM432.771 303.874V332.961H422.928V295.979H432.156L432.771 303.874ZM431.336 313.171H428.67C428.67 310.437 429.023 307.976 429.729 305.788C430.436 303.578 431.427 301.698 432.703 300.148C433.979 298.576 435.494 297.38 437.249 296.56C439.026 295.716 441.009 295.295 443.196 295.295C444.928 295.295 446.512 295.546 447.947 296.047C449.383 296.548 450.613 297.346 451.639 298.439C452.687 299.533 453.484 300.98 454.031 302.78C454.601 304.58 454.886 306.779 454.886 309.377V332.961H444.974V309.343C444.974 307.702 444.746 306.426 444.29 305.515C443.834 304.603 443.162 303.965 442.273 303.601C441.408 303.213 440.337 303.02 439.061 303.02C437.739 303.02 436.588 303.282 435.608 303.806C434.651 304.33 433.854 305.059 433.216 305.993C432.601 306.905 432.133 307.976 431.814 309.206C431.495 310.437 431.336 311.758 431.336 313.171ZM480.486 295.979V302.951H458.953V295.979H480.486ZM464.285 286.853H474.129V321.818C474.129 322.889 474.266 323.71 474.539 324.279C474.835 324.849 475.268 325.248 475.838 325.476C476.408 325.681 477.125 325.783 477.991 325.783C478.606 325.783 479.153 325.76 479.632 325.715C480.133 325.646 480.555 325.578 480.896 325.51L480.931 332.756C480.088 333.029 479.176 333.246 478.196 333.405C477.216 333.565 476.134 333.645 474.949 333.645C472.785 333.645 470.893 333.291 469.275 332.585C467.68 331.856 466.45 330.694 465.584 329.099C464.718 327.504 464.285 325.407 464.285 322.81V286.853ZM530.047 319.938C530.047 319.05 529.91 318.252 529.637 317.546C529.386 316.817 528.908 316.156 528.201 315.563C527.495 314.948 526.504 314.344 525.228 313.752C523.951 313.16 522.299 312.544 520.271 311.906C518.016 311.177 515.874 310.357 513.846 309.445C511.84 308.534 510.063 307.474 508.514 306.267C506.987 305.036 505.779 303.612 504.891 301.994C504.025 300.376 503.592 298.496 503.592 296.354C503.592 294.281 504.048 292.401 504.959 290.715C505.87 289.006 507.146 287.548 508.787 286.34C510.428 285.109 512.365 284.164 514.598 283.503C516.854 282.842 519.326 282.512 522.015 282.512C525.683 282.512 528.885 283.173 531.619 284.494C534.354 285.816 536.473 287.627 537.977 289.929C539.503 292.23 540.267 294.862 540.267 297.824H530.081C530.081 296.366 529.773 295.09 529.158 293.996C528.566 292.88 527.654 292.002 526.424 291.364C525.216 290.726 523.689 290.407 521.844 290.407C520.066 290.407 518.585 290.681 517.4 291.228C516.215 291.752 515.327 292.469 514.734 293.381C514.142 294.27 513.846 295.272 513.846 296.389C513.846 297.232 514.051 297.995 514.461 298.679C514.894 299.362 515.532 300 516.375 300.593C517.218 301.185 518.255 301.743 519.485 302.268C520.716 302.792 522.14 303.304 523.758 303.806C526.469 304.626 528.851 305.549 530.901 306.574C532.975 307.6 534.707 308.75 536.097 310.026C537.487 311.302 538.535 312.749 539.241 314.367C539.948 315.985 540.301 317.819 540.301 319.87C540.301 322.035 539.879 323.972 539.036 325.681C538.193 327.39 536.974 328.837 535.379 330.021C533.784 331.206 531.881 332.106 529.671 332.722C527.461 333.337 524.988 333.645 522.254 333.645C519.793 333.645 517.366 333.326 514.974 332.688C512.581 332.027 510.405 331.035 508.445 329.714C506.508 328.392 504.959 326.706 503.797 324.655C502.635 322.604 502.054 320.178 502.054 317.375H512.342C512.342 318.924 512.581 320.235 513.06 321.306C513.538 322.377 514.21 323.243 515.076 323.903C515.965 324.564 517.013 325.043 518.221 325.339C519.451 325.635 520.796 325.783 522.254 325.783C524.031 325.783 525.49 325.533 526.629 325.031C527.791 324.53 528.646 323.835 529.192 322.946C529.762 322.058 530.047 321.055 530.047 319.938ZM545.086 314.846V314.128C545.086 311.416 545.473 308.921 546.248 306.643C547.023 304.341 548.151 302.347 549.632 300.661C551.113 298.975 552.936 297.665 555.101 296.73C557.265 295.773 559.749 295.295 562.552 295.295C565.354 295.295 567.85 295.773 570.037 296.73C572.225 297.665 574.059 298.975 575.54 300.661C577.044 302.347 578.183 304.341 578.958 306.643C579.733 308.921 580.12 311.416 580.12 314.128V314.846C580.12 317.535 579.733 320.03 578.958 322.331C578.183 324.61 577.044 326.604 575.54 328.312C574.059 329.999 572.236 331.309 570.071 332.243C567.907 333.177 565.423 333.645 562.62 333.645C559.817 333.645 557.322 333.177 555.135 332.243C552.97 331.309 551.136 329.999 549.632 328.312C548.151 326.604 547.023 324.61 546.248 322.331C545.473 320.03 545.086 317.535 545.086 314.846ZM554.93 314.128V314.846C554.93 316.395 555.066 317.842 555.34 319.187C555.613 320.531 556.046 321.716 556.639 322.741C557.254 323.744 558.051 324.53 559.031 325.1C560.011 325.669 561.207 325.954 562.62 325.954C563.987 325.954 565.161 325.669 566.141 325.1C567.12 324.53 567.907 323.744 568.499 322.741C569.091 321.716 569.524 320.531 569.798 319.187C570.094 317.842 570.242 316.395 570.242 314.846V314.128C570.242 312.624 570.094 311.211 569.798 309.89C569.524 308.545 569.08 307.36 568.465 306.335C567.872 305.287 567.086 304.466 566.106 303.874C565.127 303.282 563.942 302.985 562.552 302.985C561.162 302.985 559.977 303.282 558.997 303.874C558.04 304.466 557.254 305.287 556.639 306.335C556.046 307.36 555.613 308.545 555.34 309.89C555.066 311.211 554.93 312.624 554.93 314.128ZM601.448 325.954C602.656 325.954 603.727 325.726 604.661 325.271C605.595 324.792 606.325 324.131 606.849 323.288C607.396 322.422 607.68 321.408 607.703 320.246H616.966C616.943 322.844 616.248 325.157 614.881 327.185C613.514 329.19 611.679 330.773 609.378 331.936C607.076 333.075 604.502 333.645 601.653 333.645C598.782 333.645 596.276 333.166 594.134 332.209C592.015 331.252 590.249 329.93 588.836 328.244C587.423 326.535 586.364 324.553 585.657 322.297C584.951 320.018 584.598 317.58 584.598 314.982V313.991C584.598 311.371 584.951 308.933 585.657 306.677C586.364 304.398 587.423 302.416 588.836 300.729C590.249 299.021 592.015 297.688 594.134 296.73C596.253 295.773 598.737 295.295 601.585 295.295C604.616 295.295 607.27 295.876 609.549 297.038C611.85 298.2 613.65 299.864 614.949 302.028C616.271 304.17 616.943 306.711 616.966 309.65H607.703C607.68 308.42 607.418 307.303 606.917 306.301C606.438 305.298 605.732 304.501 604.798 303.908C603.886 303.293 602.758 302.985 601.414 302.985C599.979 302.985 598.805 303.293 597.894 303.908C596.982 304.501 596.276 305.321 595.774 306.369C595.273 307.395 594.92 308.568 594.715 309.89C594.533 311.188 594.441 312.556 594.441 313.991V314.982C594.441 316.418 594.533 317.797 594.715 319.118C594.897 320.44 595.239 321.613 595.74 322.639C596.264 323.664 596.982 324.473 597.894 325.065C598.805 325.658 599.99 325.954 601.448 325.954ZM633.064 295.979V332.961H623.187V295.979H633.064ZM622.571 286.34C622.571 284.904 623.073 283.719 624.075 282.785C625.078 281.851 626.422 281.384 628.108 281.384C629.772 281.384 631.105 281.851 632.107 282.785C633.133 283.719 633.646 284.904 633.646 286.34C633.646 287.775 633.133 288.96 632.107 289.895C631.105 290.829 629.772 291.296 628.108 291.296C626.422 291.296 625.078 290.829 624.075 289.895C623.073 288.96 622.571 287.775 622.571 286.34ZM661.16 324.621V308.146C661.16 306.962 660.966 305.948 660.579 305.104C660.192 304.239 659.588 303.566 658.768 303.088C657.97 302.609 656.933 302.37 655.657 302.37C654.563 302.37 653.618 302.564 652.82 302.951C652.023 303.316 651.408 303.851 650.975 304.558C650.542 305.241 650.325 306.05 650.325 306.984H640.481C640.481 305.412 640.846 303.92 641.575 302.507C642.304 301.094 643.364 299.852 644.754 298.781C646.144 297.688 647.796 296.833 649.71 296.218C651.647 295.603 653.812 295.295 656.204 295.295C659.075 295.295 661.627 295.773 663.86 296.73C666.093 297.688 667.848 299.123 669.124 301.037C670.423 302.951 671.072 305.344 671.072 308.215V324.04C671.072 326.068 671.198 327.731 671.448 329.03C671.699 330.306 672.063 331.423 672.542 332.38V332.961H662.596C662.117 331.958 661.753 330.705 661.502 329.201C661.274 327.674 661.16 326.148 661.16 324.621ZM662.459 310.437L662.527 316.008H657.024C655.726 316.008 654.598 316.156 653.641 316.452C652.684 316.748 651.897 317.17 651.282 317.717C650.667 318.241 650.211 318.856 649.915 319.562C649.642 320.269 649.505 321.044 649.505 321.887C649.505 322.73 649.699 323.493 650.086 324.177C650.473 324.838 651.032 325.362 651.761 325.749C652.49 326.114 653.344 326.296 654.324 326.296C655.805 326.296 657.093 326 658.187 325.407C659.28 324.815 660.123 324.086 660.716 323.22C661.331 322.354 661.65 321.534 661.673 320.759L664.271 324.929C663.906 325.863 663.405 326.831 662.767 327.834C662.151 328.837 661.365 329.782 660.408 330.671C659.451 331.537 658.3 332.255 656.956 332.824C655.612 333.371 654.017 333.645 652.171 333.645C649.824 333.645 647.693 333.177 645.779 332.243C643.888 331.286 642.384 329.976 641.268 328.312C640.174 326.626 639.627 324.712 639.627 322.57C639.627 320.633 639.992 318.913 640.721 317.409C641.45 315.905 642.521 314.641 643.934 313.615C645.369 312.567 647.158 311.781 649.3 311.257C651.442 310.71 653.925 310.437 656.751 310.437H662.459ZM689.051 280.461V332.961H679.173V280.461H689.051ZM719.915 283.195H728.597L741.38 319.733L754.163 283.195H762.845L744.866 332.961H737.894L719.915 283.195ZM715.232 283.195H723.88L725.452 318.811V332.961H715.232V283.195ZM758.88 283.195H767.562V332.961H757.308V318.811L758.88 283.195ZM792.957 333.645C790.086 333.645 787.511 333.189 785.232 332.277C782.954 331.343 781.017 330.056 779.422 328.415C777.85 326.774 776.642 324.872 775.799 322.707C774.956 320.52 774.534 318.195 774.534 315.734V314.367C774.534 311.564 774.933 309.001 775.73 306.677C776.528 304.353 777.667 302.336 779.148 300.627C780.652 298.918 782.475 297.608 784.617 296.696C786.759 295.762 789.174 295.295 791.863 295.295C794.484 295.295 796.808 295.728 798.836 296.594C800.864 297.46 802.562 298.69 803.929 300.285C805.319 301.88 806.367 303.794 807.073 306.027C807.78 308.238 808.133 310.699 808.133 313.41V317.512H778.738V310.949H798.46V310.197C798.46 308.83 798.209 307.611 797.708 306.54C797.229 305.446 796.5 304.58 795.521 303.942C794.541 303.304 793.287 302.985 791.761 302.985C790.462 302.985 789.345 303.27 788.411 303.84C787.477 304.41 786.714 305.207 786.121 306.232C785.551 307.258 785.118 308.465 784.822 309.855C784.549 311.223 784.412 312.727 784.412 314.367V315.734C784.412 317.215 784.617 318.583 785.027 319.836C785.46 321.089 786.064 322.172 786.839 323.083C787.636 323.994 788.593 324.701 789.71 325.202C790.849 325.703 792.137 325.954 793.572 325.954C795.35 325.954 797.002 325.612 798.528 324.929C800.078 324.222 801.411 323.163 802.527 321.75L807.312 326.945C806.538 328.062 805.478 329.133 804.134 330.158C802.812 331.184 801.217 332.027 799.349 332.688C797.48 333.326 795.35 333.645 792.957 333.645ZM835.579 324.895V280.461H845.491V332.961H836.57L835.579 324.895ZM812.2 314.914V314.196C812.2 311.371 812.519 308.807 813.157 306.506C813.795 304.182 814.729 302.188 815.96 300.524C817.19 298.861 818.706 297.574 820.506 296.662C822.306 295.751 824.357 295.295 826.658 295.295C828.823 295.295 830.714 295.751 832.332 296.662C833.973 297.574 835.363 298.872 836.502 300.559C837.664 302.222 838.598 304.193 839.305 306.472C840.011 308.728 840.524 311.2 840.843 313.889V315.461C840.524 318.036 840.011 320.428 839.305 322.639C838.598 324.849 837.664 326.786 836.502 328.449C835.363 330.09 833.973 331.366 832.332 332.277C830.691 333.189 828.777 333.645 826.59 333.645C824.288 333.645 822.238 333.177 820.438 332.243C818.66 331.309 817.156 329.999 815.926 328.312C814.718 326.626 813.795 324.644 813.157 322.365C812.519 320.087 812.2 317.603 812.2 314.914ZM822.044 314.196V314.914C822.044 316.441 822.158 317.865 822.386 319.187C822.636 320.508 823.035 321.682 823.582 322.707C824.152 323.71 824.881 324.496 825.77 325.065C826.681 325.612 827.786 325.886 829.085 325.886C830.771 325.886 832.161 325.51 833.255 324.758C834.349 323.983 835.18 322.924 835.75 321.579C836.342 320.235 836.684 318.685 836.775 316.931V312.453C836.707 311.018 836.502 309.73 836.16 308.591C835.841 307.429 835.363 306.438 834.725 305.617C834.109 304.797 833.335 304.159 832.4 303.703C831.489 303.247 830.407 303.02 829.153 303.02C827.877 303.02 826.784 303.316 825.872 303.908C824.961 304.478 824.22 305.264 823.65 306.267C823.104 307.269 822.693 308.454 822.42 309.821C822.169 311.166 822.044 312.624 822.044 314.196ZM863.572 295.979V332.961H853.694V295.979H863.572ZM853.079 286.34C853.079 284.904 853.58 283.719 854.583 282.785C855.586 281.851 856.93 281.384 858.616 281.384C860.28 281.384 861.613 281.851 862.615 282.785C863.641 283.719 864.153 284.904 864.153 286.34C864.153 287.775 863.641 288.96 862.615 289.895C861.613 290.829 860.28 291.296 858.616 291.296C856.93 291.296 855.586 290.829 854.583 289.895C853.58 288.96 853.079 287.775 853.079 286.34ZM891.668 324.621V308.146C891.668 306.962 891.474 305.948 891.087 305.104C890.7 304.239 890.096 303.566 889.275 303.088C888.478 302.609 887.441 302.37 886.165 302.37C885.071 302.37 884.126 302.564 883.328 302.951C882.531 303.316 881.915 303.851 881.482 304.558C881.049 305.241 880.833 306.05 880.833 306.984H870.989C870.989 305.412 871.354 303.92 872.083 302.507C872.812 301.094 873.872 299.852 875.262 298.781C876.652 297.688 878.304 296.833 880.218 296.218C882.155 295.603 884.319 295.295 886.712 295.295C889.583 295.295 892.135 295.773 894.368 296.73C896.601 297.688 898.356 299.123 899.632 301.037C900.931 302.951 901.58 305.344 901.58 308.215V324.04C901.58 326.068 901.705 327.731 901.956 329.03C902.207 330.306 902.571 331.423 903.05 332.38V332.961H893.104C892.625 331.958 892.26 330.705 892.01 329.201C891.782 327.674 891.668 326.148 891.668 324.621ZM892.967 310.437L893.035 316.008H887.532C886.233 316.008 885.105 316.156 884.148 316.452C883.191 316.748 882.405 317.17 881.79 317.717C881.175 318.241 880.719 318.856 880.423 319.562C880.149 320.269 880.013 321.044 880.013 321.887C880.013 322.73 880.206 323.493 880.594 324.177C880.981 324.838 881.539 325.362 882.269 325.749C882.998 326.114 883.852 326.296 884.832 326.296C886.313 326.296 887.601 326 888.694 325.407C889.788 324.815 890.631 324.086 891.224 323.22C891.839 322.354 892.158 321.534 892.181 320.759L894.778 324.929C894.414 325.863 893.912 326.831 893.274 327.834C892.659 328.837 891.873 329.782 890.916 330.671C889.959 331.537 888.808 332.255 887.464 332.824C886.119 333.371 884.524 333.645 882.679 333.645C880.332 333.645 878.201 333.177 876.287 332.243C874.396 331.286 872.892 329.976 871.775 328.312C870.682 326.626 870.135 324.712 870.135 322.57C870.135 320.633 870.499 318.913 871.229 317.409C871.958 315.905 873.029 314.641 874.441 313.615C875.877 312.567 877.666 311.781 879.808 311.257C881.95 310.71 884.433 310.437 887.259 310.437H892.967ZM191.121 388.95V408.672C190.346 409.606 189.15 410.62 187.532 411.714C185.914 412.785 183.829 413.708 181.277 414.482C178.725 415.257 175.638 415.645 172.015 415.645C168.802 415.645 165.874 415.12 163.23 414.072C160.587 413.001 158.309 411.44 156.395 409.39C154.503 407.339 153.045 404.832 152.02 401.87C150.994 398.885 150.481 395.479 150.481 391.65V388.54C150.481 384.712 150.971 381.305 151.951 378.32C152.954 375.335 154.378 372.817 156.224 370.767C158.069 368.716 160.268 367.155 162.82 366.084C165.372 365.013 168.209 364.478 171.331 364.478C175.66 364.478 179.215 365.184 181.995 366.597C184.775 367.987 186.894 369.924 188.353 372.407C189.834 374.868 190.745 377.694 191.087 380.884H181.141C180.89 379.198 180.411 377.728 179.705 376.475C178.999 375.221 177.985 374.242 176.663 373.535C175.364 372.829 173.678 372.476 171.604 372.476C169.896 372.476 168.369 372.829 167.024 373.535C165.703 374.219 164.586 375.233 163.675 376.577C162.763 377.922 162.068 379.585 161.59 381.567C161.111 383.55 160.872 385.851 160.872 388.472V391.65C160.872 394.248 161.123 396.549 161.624 398.555C162.125 400.537 162.866 402.212 163.846 403.579C164.848 404.924 166.079 405.938 167.537 406.621C168.995 407.305 170.693 407.646 172.63 407.646C174.248 407.646 175.592 407.51 176.663 407.236C177.757 406.963 178.634 406.632 179.295 406.245C179.979 405.835 180.503 405.448 180.867 405.083V396.265H171.502V388.95H191.121ZM208.621 386.045V414.961H198.777V377.979H208.04L208.621 386.045ZM219.764 377.739L219.593 386.865C219.114 386.797 218.533 386.74 217.85 386.694C217.189 386.626 216.585 386.592 216.038 386.592C214.648 386.592 213.44 386.774 212.415 387.139C211.412 387.48 210.569 387.993 209.886 388.677C209.225 389.36 208.724 390.192 208.382 391.172C208.063 392.152 207.881 393.268 207.835 394.521L205.853 393.906C205.853 391.514 206.092 389.315 206.57 387.31C207.049 385.282 207.744 383.516 208.655 382.012C209.59 380.508 210.729 379.346 212.073 378.525C213.418 377.705 214.956 377.295 216.688 377.295C217.234 377.295 217.793 377.34 218.362 377.432C218.932 377.5 219.399 377.603 219.764 377.739ZM243.211 406.621V390.146C243.211 388.962 243.017 387.948 242.63 387.104C242.243 386.239 241.639 385.566 240.818 385.088C240.021 384.609 238.984 384.37 237.708 384.37C236.614 384.37 235.669 384.564 234.871 384.951C234.074 385.316 233.458 385.851 233.025 386.558C232.592 387.241 232.376 388.05 232.376 388.984H222.532C222.532 387.412 222.897 385.92 223.626 384.507C224.355 383.094 225.415 381.852 226.805 380.781C228.195 379.688 229.847 378.833 231.761 378.218C233.698 377.603 235.862 377.295 238.255 377.295C241.126 377.295 243.678 377.773 245.911 378.73C248.144 379.688 249.899 381.123 251.175 383.037C252.474 384.951 253.123 387.344 253.123 390.215V406.04C253.123 408.068 253.248 409.731 253.499 411.03C253.75 412.306 254.114 413.423 254.593 414.38V414.961H244.646C244.168 413.958 243.803 412.705 243.553 411.201C243.325 409.674 243.211 408.148 243.211 406.621ZM244.51 392.437L244.578 398.008H239.075C237.776 398.008 236.648 398.156 235.691 398.452C234.734 398.748 233.948 399.17 233.333 399.717C232.718 400.241 232.262 400.856 231.966 401.562C231.692 402.269 231.556 403.044 231.556 403.887C231.556 404.73 231.749 405.493 232.137 406.177C232.524 406.838 233.082 407.362 233.812 407.749C234.541 408.114 235.395 408.296 236.375 408.296C237.856 408.296 239.144 408 240.237 407.407C241.331 406.815 242.174 406.086 242.767 405.22C243.382 404.354 243.701 403.534 243.724 402.759L246.321 406.929C245.957 407.863 245.455 408.831 244.817 409.834C244.202 410.837 243.416 411.782 242.459 412.671C241.502 413.537 240.351 414.255 239.007 414.824C237.662 415.371 236.067 415.645 234.222 415.645C231.875 415.645 229.744 415.177 227.83 414.243C225.939 413.286 224.435 411.976 223.318 410.312C222.225 408.626 221.678 406.712 221.678 404.57C221.678 402.633 222.042 400.913 222.771 399.409C223.501 397.905 224.572 396.641 225.984 395.615C227.42 394.567 229.209 393.781 231.351 393.257C233.493 392.71 235.976 392.437 238.802 392.437H244.51ZM270.555 385.088V429.18H260.711V377.979H269.837L270.555 385.088ZM293.968 396.06V396.777C293.968 399.466 293.649 401.961 293.011 404.263C292.396 406.564 291.484 408.569 290.276 410.278C289.069 411.965 287.565 413.286 285.765 414.243C283.987 415.177 281.937 415.645 279.612 415.645C277.356 415.645 275.397 415.189 273.733 414.277C272.07 413.366 270.669 412.09 269.529 410.449C268.413 408.786 267.513 406.86 266.829 404.673C266.146 402.485 265.621 400.138 265.257 397.632V395.752C265.621 393.063 266.146 390.602 266.829 388.369C267.513 386.113 268.413 384.165 269.529 382.524C270.669 380.861 272.059 379.574 273.699 378.662C275.363 377.751 277.311 377.295 279.544 377.295C281.891 377.295 283.953 377.739 285.73 378.628C287.531 379.517 289.035 380.793 290.242 382.456C291.473 384.119 292.396 386.102 293.011 388.403C293.649 390.705 293.968 393.257 293.968 396.06ZM284.09 396.777V396.06C284.09 394.487 283.953 393.04 283.68 391.719C283.429 390.374 283.019 389.201 282.449 388.198C281.902 387.196 281.173 386.421 280.262 385.874C279.373 385.304 278.291 385.02 277.015 385.02C275.67 385.02 274.52 385.236 273.562 385.669C272.628 386.102 271.865 386.729 271.272 387.549C270.68 388.369 270.236 389.349 269.939 390.488C269.643 391.628 269.461 392.915 269.393 394.351V399.102C269.507 400.788 269.826 402.303 270.35 403.647C270.874 404.969 271.683 406.017 272.776 406.792C273.87 407.567 275.306 407.954 277.083 407.954C278.382 407.954 279.476 407.669 280.364 407.1C281.253 406.507 281.971 405.698 282.518 404.673C283.087 403.647 283.486 402.463 283.714 401.118C283.965 399.774 284.09 398.327 284.09 396.777ZM309.69 362.461V414.961H299.847V362.461H309.69ZM308.289 395.171H305.589C305.612 392.596 305.953 390.226 306.614 388.062C307.275 385.874 308.221 383.983 309.451 382.388C310.682 380.77 312.151 379.517 313.86 378.628C315.592 377.739 317.506 377.295 319.603 377.295C321.425 377.295 323.077 377.557 324.559 378.081C326.062 378.582 327.35 379.403 328.421 380.542C329.515 381.659 330.358 383.128 330.95 384.951C331.543 386.774 331.839 388.984 331.839 391.582V414.961H321.927V391.514C321.927 389.873 321.688 388.586 321.209 387.651C320.753 386.694 320.081 386.022 319.192 385.635C318.326 385.225 317.256 385.02 315.979 385.02C314.567 385.02 313.359 385.282 312.356 385.806C311.377 386.33 310.59 387.059 309.998 387.993C309.406 388.905 308.973 389.976 308.699 391.206C308.426 392.437 308.289 393.758 308.289 395.171ZM349.715 377.979V414.961H339.837V377.979H349.715ZM339.222 368.34C339.222 366.904 339.723 365.719 340.726 364.785C341.728 363.851 343.073 363.384 344.759 363.384C346.422 363.384 347.755 363.851 348.758 364.785C349.783 365.719 350.296 366.904 350.296 368.34C350.296 369.775 349.783 370.96 348.758 371.895C347.755 372.829 346.422 373.296 344.759 373.296C343.073 373.296 341.728 372.829 340.726 371.895C339.723 370.96 339.222 369.775 339.222 368.34ZM373.128 407.954C374.336 407.954 375.407 407.726 376.341 407.271C377.275 406.792 378.004 406.131 378.528 405.288C379.075 404.422 379.36 403.408 379.383 402.246H388.646C388.623 404.844 387.928 407.157 386.561 409.185C385.193 411.19 383.359 412.773 381.058 413.936C378.756 415.075 376.181 415.645 373.333 415.645C370.462 415.645 367.955 415.166 365.813 414.209C363.694 413.252 361.928 411.93 360.516 410.244C359.103 408.535 358.043 406.553 357.337 404.297C356.631 402.018 356.277 399.58 356.277 396.982V395.991C356.277 393.371 356.631 390.933 357.337 388.677C358.043 386.398 359.103 384.416 360.516 382.729C361.928 381.021 363.694 379.688 365.813 378.73C367.933 377.773 370.416 377.295 373.265 377.295C376.295 377.295 378.95 377.876 381.229 379.038C383.53 380.2 385.33 381.864 386.629 384.028C387.951 386.17 388.623 388.711 388.646 391.65H379.383C379.36 390.42 379.098 389.303 378.597 388.301C378.118 387.298 377.412 386.501 376.478 385.908C375.566 385.293 374.438 384.985 373.094 384.985C371.658 384.985 370.485 385.293 369.573 385.908C368.662 386.501 367.955 387.321 367.454 388.369C366.953 389.395 366.6 390.568 366.395 391.89C366.212 393.188 366.121 394.556 366.121 395.991V396.982C366.121 398.418 366.212 399.797 366.395 401.118C366.577 402.44 366.919 403.613 367.42 404.639C367.944 405.664 368.662 406.473 369.573 407.065C370.485 407.658 371.67 407.954 373.128 407.954ZM414.349 404.741C414.349 404.035 414.144 403.397 413.733 402.827C413.323 402.257 412.56 401.733 411.443 401.255C410.35 400.754 408.766 400.298 406.692 399.888C404.824 399.478 403.081 398.965 401.463 398.35C399.868 397.712 398.478 396.948 397.293 396.06C396.131 395.171 395.219 394.123 394.559 392.915C393.898 391.685 393.567 390.283 393.567 388.711C393.567 387.161 393.898 385.703 394.559 384.336C395.242 382.969 396.211 381.761 397.464 380.713C398.74 379.642 400.289 378.81 402.112 378.218C403.958 377.603 406.032 377.295 408.333 377.295C411.546 377.295 414.303 377.808 416.604 378.833C418.929 379.858 420.706 381.271 421.937 383.071C423.19 384.849 423.816 386.877 423.816 389.155H413.973C413.973 388.198 413.768 387.344 413.357 386.592C412.97 385.817 412.355 385.213 411.512 384.78C410.691 384.325 409.62 384.097 408.299 384.097C407.205 384.097 406.259 384.29 405.462 384.678C404.664 385.042 404.049 385.544 403.616 386.182C403.206 386.797 403.001 387.48 403.001 388.232C403.001 388.802 403.115 389.315 403.343 389.771C403.593 390.203 403.992 390.602 404.539 390.967C405.086 391.331 405.792 391.673 406.658 391.992C407.547 392.288 408.641 392.562 409.939 392.812C412.605 393.359 414.987 394.077 417.083 394.966C419.179 395.832 420.843 397.017 422.073 398.521C423.304 400.002 423.919 401.95 423.919 404.365C423.919 406.006 423.554 407.51 422.825 408.877C422.096 410.244 421.048 411.44 419.681 412.466C418.313 413.468 416.673 414.255 414.759 414.824C412.868 415.371 410.737 415.645 408.367 415.645C404.926 415.645 402.01 415.029 399.617 413.799C397.247 412.568 395.447 411.007 394.217 409.116C393.009 407.202 392.405 405.243 392.405 403.237H401.736C401.782 404.582 402.124 405.664 402.762 406.484C403.423 407.305 404.254 407.897 405.257 408.262C406.282 408.626 407.387 408.809 408.572 408.809C409.848 408.809 410.908 408.638 411.751 408.296C412.594 407.931 413.232 407.453 413.665 406.86C414.121 406.245 414.349 405.539 414.349 404.741Z" fill="#FD0404"/>
<path d="M149.48 501.009V500.447C149.48 498.543 149.757 496.777 150.311 495.149C150.864 493.506 151.661 492.081 152.703 490.877C153.745 489.656 155.006 488.712 156.487 488.045C157.968 487.361 159.629 487.02 161.468 487.02C163.323 487.02 164.992 487.361 166.473 488.045C167.97 488.712 169.24 489.656 170.281 490.877C171.339 492.081 172.145 493.506 172.698 495.149C173.252 496.777 173.528 498.543 173.528 500.447V501.009C173.528 502.913 173.252 504.679 172.698 506.307C172.145 507.934 171.339 509.358 170.281 510.579C169.24 511.784 167.978 512.728 166.497 513.411C165.032 514.078 163.372 514.412 161.517 514.412C159.661 514.412 157.993 514.078 156.512 513.411C155.031 512.728 153.761 511.784 152.703 510.579C151.661 509.358 150.864 507.934 150.311 506.307C149.757 504.679 149.48 502.913 149.48 501.009ZM153.997 500.447V501.009C153.997 502.327 154.152 503.572 154.461 504.744C154.77 505.9 155.234 506.925 155.853 507.82C156.487 508.715 157.277 509.424 158.221 509.944C159.165 510.449 160.263 510.701 161.517 510.701C162.754 510.701 163.836 510.449 164.764 509.944C165.708 509.424 166.489 508.715 167.107 507.82C167.726 506.925 168.19 505.9 168.499 504.744C168.825 503.572 168.987 502.327 168.987 501.009V500.447C168.987 499.145 168.825 497.916 168.499 496.761C168.19 495.589 167.718 494.555 167.083 493.66C166.465 492.749 165.683 492.033 164.739 491.512C163.812 490.991 162.721 490.73 161.468 490.73C160.231 490.73 159.14 490.991 158.196 491.512C157.269 492.033 156.487 492.749 155.853 493.66C155.234 494.555 154.77 495.589 154.461 496.761C154.152 497.916 153.997 499.145 153.997 500.447ZM183.709 493.147V513.924H179.192V487.508H183.465L183.709 493.147ZM182.635 499.715L180.755 499.642C180.771 497.835 181.04 496.167 181.561 494.637C182.081 493.09 182.814 491.748 183.758 490.608C184.702 489.469 185.825 488.59 187.127 487.972C188.445 487.337 189.902 487.02 191.497 487.02C192.799 487.02 193.971 487.199 195.013 487.557C196.054 487.898 196.941 488.452 197.674 489.217C198.423 489.982 198.992 490.975 199.383 492.195C199.773 493.4 199.969 494.873 199.969 496.614V513.924H195.428V496.565C195.428 495.182 195.224 494.075 194.817 493.245C194.41 492.399 193.816 491.788 193.035 491.414C192.254 491.023 191.294 490.828 190.154 490.828C189.031 490.828 188.006 491.064 187.078 491.536C186.167 492.008 185.377 492.659 184.71 493.489C184.059 494.319 183.546 495.271 183.172 496.346C182.814 497.404 182.635 498.527 182.635 499.715ZM229.266 503.182L236.321 478.377H239.739L237.762 488.021L230.169 513.924H226.775L229.266 503.182ZM221.966 478.377L227.581 502.693L229.266 513.924H225.896L217.278 478.377H221.966ZM248.87 502.669L254.363 478.377H259.075L250.481 513.924H247.112L248.87 502.669ZM240.252 478.377L247.112 503.182L249.603 513.924H246.209L238.885 488.021L236.883 478.377H240.252ZM273.797 514.412C271.958 514.412 270.289 514.103 268.792 513.484C267.311 512.85 266.033 511.963 264.959 510.823C263.901 509.684 263.087 508.333 262.518 506.771C261.948 505.208 261.663 503.499 261.663 501.644V500.618C261.663 498.47 261.98 496.557 262.615 494.881C263.25 493.188 264.113 491.756 265.203 490.584C266.294 489.412 267.531 488.525 268.914 487.923C270.298 487.321 271.73 487.02 273.211 487.02C275.099 487.02 276.727 487.345 278.094 487.996C279.477 488.647 280.608 489.559 281.487 490.73C282.366 491.886 283.017 493.253 283.44 494.832C283.864 496.395 284.075 498.104 284.075 499.959V501.985H264.349V498.299H279.559V497.957C279.493 496.785 279.249 495.646 278.826 494.539C278.419 493.432 277.768 492.521 276.873 491.805C275.978 491.089 274.757 490.73 273.211 490.73C272.186 490.73 271.242 490.95 270.379 491.39C269.516 491.813 268.776 492.448 268.157 493.294C267.539 494.14 267.059 495.174 266.717 496.395C266.375 497.615 266.204 499.023 266.204 500.618V501.644C266.204 502.897 266.375 504.077 266.717 505.184C267.075 506.274 267.588 507.234 268.255 508.064C268.938 508.895 269.76 509.546 270.721 510.018C271.697 510.49 272.804 510.726 274.041 510.726C275.636 510.726 276.987 510.4 278.094 509.749C279.201 509.098 280.169 508.227 280.999 507.137L283.733 509.31C283.164 510.172 282.439 510.994 281.561 511.775C280.682 512.557 279.599 513.191 278.313 513.68C277.044 514.168 275.538 514.412 273.797 514.412ZM305.999 508.797V476.424H310.54V513.924H306.39L305.999 508.797ZM288.226 501.009V500.496C288.226 498.478 288.47 496.647 288.958 495.003C289.463 493.343 290.171 491.919 291.082 490.73C292.01 489.542 293.108 488.631 294.378 487.996C295.664 487.345 297.096 487.02 298.675 487.02C300.335 487.02 301.784 487.312 303.021 487.898C304.274 488.468 305.332 489.306 306.194 490.413C307.073 491.504 307.765 492.822 308.27 494.368C308.774 495.914 309.124 497.664 309.319 499.617V501.863C309.14 503.8 308.79 505.542 308.27 507.088C307.765 508.634 307.073 509.952 306.194 511.043C305.332 512.133 304.274 512.972 303.021 513.558C301.767 514.127 300.302 514.412 298.626 514.412C297.08 514.412 295.664 514.078 294.378 513.411C293.108 512.744 292.01 511.808 291.082 510.604C290.171 509.399 289.463 507.983 288.958 506.355C288.47 504.712 288.226 502.929 288.226 501.009ZM292.767 500.496V501.009C292.767 502.327 292.897 503.564 293.157 504.72C293.434 505.875 293.857 506.893 294.427 507.771C294.996 508.65 295.721 509.342 296.6 509.847C297.479 510.335 298.528 510.579 299.749 510.579C301.246 510.579 302.475 510.262 303.436 509.627C304.412 508.992 305.193 508.154 305.779 507.112C306.365 506.071 306.821 504.939 307.146 503.719V497.835C306.951 496.94 306.666 496.077 306.292 495.247C305.934 494.401 305.462 493.652 304.876 493.001C304.306 492.334 303.598 491.805 302.752 491.414C301.922 491.023 300.937 490.828 299.798 490.828C298.561 490.828 297.495 491.089 296.6 491.609C295.721 492.114 294.996 492.814 294.427 493.709C293.857 494.588 293.434 495.613 293.157 496.785C292.897 497.941 292.767 499.178 292.767 500.496ZM322.088 493.147V513.924H317.571V487.508H321.844L322.088 493.147ZM321.014 499.715L319.134 499.642C319.15 497.835 319.419 496.167 319.939 494.637C320.46 493.09 321.193 491.748 322.137 490.608C323.081 489.469 324.204 488.59 325.506 487.972C326.824 487.337 328.281 487.02 329.876 487.02C331.178 487.02 332.35 487.199 333.392 487.557C334.433 487.898 335.32 488.452 336.053 489.217C336.801 489.982 337.371 490.975 337.762 492.195C338.152 493.4 338.348 494.873 338.348 496.614V513.924H333.807V496.565C333.807 495.182 333.603 494.075 333.196 493.245C332.789 492.399 332.195 491.788 331.414 491.414C330.633 491.023 329.673 490.828 328.533 490.828C327.41 490.828 326.385 491.064 325.457 491.536C324.546 492.008 323.756 492.659 323.089 493.489C322.438 494.319 321.925 495.271 321.551 496.346C321.193 497.404 321.014 498.527 321.014 499.715ZM356.17 514.412C354.331 514.412 352.662 514.103 351.165 513.484C349.684 512.85 348.406 511.963 347.332 510.823C346.274 509.684 345.46 508.333 344.891 506.771C344.321 505.208 344.036 503.499 344.036 501.644V500.618C344.036 498.47 344.354 496.557 344.988 494.881C345.623 493.188 346.486 491.756 347.576 490.584C348.667 489.412 349.904 488.525 351.287 487.923C352.671 487.321 354.103 487.02 355.584 487.02C357.472 487.02 359.1 487.345 360.467 487.996C361.85 488.647 362.981 489.559 363.86 490.73C364.739 491.886 365.39 493.253 365.813 494.832C366.237 496.395 366.448 498.104 366.448 499.959V501.985H346.722V498.299H361.932V497.957C361.867 496.785 361.622 495.646 361.199 494.539C360.792 493.432 360.141 492.521 359.246 491.805C358.351 491.089 357.13 490.73 355.584 490.73C354.559 490.73 353.615 490.95 352.752 491.39C351.889 491.813 351.149 492.448 350.53 493.294C349.912 494.14 349.432 495.174 349.09 496.395C348.748 497.615 348.577 499.023 348.577 500.618V501.644C348.577 502.897 348.748 504.077 349.09 505.184C349.448 506.274 349.961 507.234 350.628 508.064C351.312 508.895 352.133 509.546 353.094 510.018C354.07 510.49 355.177 510.726 356.414 510.726C358.009 510.726 359.36 510.4 360.467 509.749C361.574 509.098 362.542 508.227 363.372 507.137L366.106 509.31C365.537 510.172 364.812 510.994 363.934 511.775C363.055 512.557 361.972 513.191 360.687 513.68C359.417 514.168 357.911 514.412 356.17 514.412ZM387.103 506.917C387.103 506.266 386.956 505.664 386.663 505.11C386.386 504.541 385.809 504.028 384.93 503.572C384.067 503.1 382.765 502.693 381.023 502.352C379.559 502.042 378.232 501.676 377.044 501.253C375.872 500.83 374.871 500.317 374.041 499.715C373.227 499.113 372.601 498.405 372.161 497.591C371.722 496.777 371.502 495.825 371.502 494.734C371.502 493.693 371.73 492.708 372.186 491.78C372.658 490.853 373.317 490.031 374.163 489.314C375.026 488.598 376.059 488.037 377.264 487.63C378.468 487.223 379.811 487.02 381.292 487.02C383.408 487.02 385.215 487.394 386.712 488.143C388.209 488.891 389.357 489.892 390.154 491.146C390.952 492.382 391.351 493.758 391.351 495.271H386.834C386.834 494.539 386.614 493.831 386.175 493.147C385.752 492.448 385.125 491.87 384.295 491.414C383.481 490.958 382.48 490.73 381.292 490.73C380.039 490.73 379.021 490.926 378.24 491.316C377.475 491.691 376.914 492.171 376.556 492.757C376.214 493.343 376.043 493.961 376.043 494.612C376.043 495.101 376.124 495.54 376.287 495.931C376.466 496.305 376.775 496.655 377.215 496.98C377.654 497.29 378.273 497.583 379.07 497.859C379.868 498.136 380.885 498.413 382.122 498.689C384.287 499.178 386.069 499.764 387.469 500.447C388.868 501.131 389.91 501.969 390.594 502.962C391.277 503.955 391.619 505.159 391.619 506.575C391.619 507.731 391.375 508.789 390.887 509.749C390.415 510.709 389.723 511.539 388.812 512.239C387.916 512.923 386.842 513.46 385.589 513.851C384.352 514.225 382.96 514.412 381.414 514.412C379.087 514.412 377.117 513.997 375.506 513.167C373.895 512.337 372.674 511.263 371.844 509.944C371.014 508.626 370.599 507.234 370.599 505.77H375.14C375.205 507.007 375.563 507.991 376.214 508.724C376.865 509.44 377.662 509.952 378.606 510.262C379.55 510.555 380.486 510.701 381.414 510.701C382.651 510.701 383.685 510.538 384.515 510.213C385.361 509.887 386.004 509.44 386.443 508.87C386.883 508.3 387.103 507.649 387.103 506.917ZM414.202 508.797V476.424H418.743V513.924H414.593L414.202 508.797ZM396.429 501.009V500.496C396.429 498.478 396.673 496.647 397.161 495.003C397.666 493.343 398.374 491.919 399.285 490.73C400.213 489.542 401.312 488.631 402.581 487.996C403.867 487.345 405.299 487.02 406.878 487.02C408.538 487.02 409.987 487.312 411.224 487.898C412.477 488.468 413.535 489.306 414.397 490.413C415.276 491.504 415.968 492.822 416.473 494.368C416.977 495.914 417.327 497.664 417.522 499.617V501.863C417.343 503.8 416.993 505.542 416.473 507.088C415.968 508.634 415.276 509.952 414.397 511.043C413.535 512.133 412.477 512.972 411.224 513.558C409.97 514.127 408.506 514.412 406.829 514.412C405.283 514.412 403.867 514.078 402.581 513.411C401.312 512.744 400.213 511.808 399.285 510.604C398.374 509.399 397.666 507.983 397.161 506.355C396.673 504.712 396.429 502.929 396.429 501.009ZM400.97 500.496V501.009C400.97 502.327 401.1 503.564 401.36 504.72C401.637 505.875 402.06 506.893 402.63 507.771C403.2 508.65 403.924 509.342 404.803 509.847C405.682 510.335 406.731 510.579 407.952 510.579C409.45 510.579 410.678 510.262 411.639 509.627C412.615 508.992 413.396 508.154 413.982 507.112C414.568 506.071 415.024 504.939 415.35 503.719V497.835C415.154 496.94 414.869 496.077 414.495 495.247C414.137 494.401 413.665 493.652 413.079 493.001C412.509 492.334 411.801 491.805 410.955 491.414C410.125 491.023 409.14 490.828 408.001 490.828C406.764 490.828 405.698 491.089 404.803 491.609C403.924 492.114 403.2 492.814 402.63 493.709C402.06 494.588 401.637 495.613 401.36 496.785C401.1 497.941 400.97 499.178 400.97 500.496ZM441.351 509.407V495.809C441.351 494.767 441.139 493.864 440.716 493.099C440.309 492.317 439.69 491.715 438.86 491.292C438.03 490.869 437.005 490.657 435.784 490.657C434.645 490.657 433.644 490.853 432.781 491.243C431.935 491.634 431.268 492.146 430.779 492.781C430.307 493.416 430.071 494.1 430.071 494.832H425.555C425.555 493.888 425.799 492.952 426.287 492.024C426.775 491.097 427.475 490.258 428.387 489.51C429.314 488.745 430.421 488.143 431.707 487.703C433.009 487.247 434.458 487.02 436.053 487.02C437.973 487.02 439.666 487.345 441.131 487.996C442.612 488.647 443.768 489.632 444.598 490.95C445.444 492.252 445.867 493.888 445.867 495.857V508.162C445.867 509.041 445.94 509.977 446.087 510.97C446.25 511.963 446.486 512.817 446.795 513.533V513.924H442.083C441.855 513.403 441.676 512.711 441.546 511.849C441.416 510.97 441.351 510.156 441.351 509.407ZM442.132 497.908L442.181 501.082H437.615C436.329 501.082 435.182 501.188 434.173 501.399C433.164 501.595 432.317 501.896 431.634 502.303C430.95 502.71 430.429 503.222 430.071 503.841C429.713 504.443 429.534 505.151 429.534 505.965C429.534 506.795 429.721 507.552 430.096 508.235C430.47 508.919 431.032 509.464 431.78 509.871C432.545 510.262 433.481 510.457 434.588 510.457C435.971 510.457 437.192 510.164 438.25 509.578C439.308 508.992 440.146 508.276 440.765 507.43C441.399 506.583 441.741 505.761 441.79 504.964L443.719 507.137C443.605 507.82 443.296 508.577 442.791 509.407C442.286 510.237 441.611 511.035 440.765 511.8C439.935 512.549 438.942 513.175 437.786 513.68C436.647 514.168 435.361 514.412 433.929 514.412C432.138 514.412 430.568 514.062 429.217 513.362C427.882 512.662 426.84 511.727 426.092 510.555C425.359 509.367 424.993 508.04 424.993 506.575C424.993 505.159 425.27 503.914 425.823 502.84C426.377 501.749 427.174 500.846 428.216 500.13C429.257 499.397 430.511 498.844 431.976 498.47C433.44 498.095 435.076 497.908 436.883 497.908H442.132ZM460.003 511.189L467.352 487.508H472.186L461.59 518.001C461.346 518.652 461.02 519.352 460.613 520.101C460.223 520.866 459.718 521.59 459.1 522.273C458.481 522.957 457.732 523.51 456.854 523.934C455.991 524.373 454.957 524.593 453.753 524.593C453.395 524.593 452.939 524.544 452.386 524.446C451.832 524.349 451.442 524.267 451.214 524.202L451.189 520.54C451.32 520.556 451.523 520.573 451.8 520.589C452.093 520.621 452.296 520.638 452.41 520.638C453.436 520.638 454.306 520.499 455.022 520.223C455.739 519.962 456.341 519.515 456.829 518.88C457.334 518.261 457.765 517.407 458.123 516.316L460.003 511.189ZM454.607 487.508L461.468 508.016L462.64 512.776L459.393 514.437L449.676 487.508H454.607ZM494.061 478.377V513.924H489.349V478.377H494.061ZM508.953 494.368V498.226H493.035V494.368H508.953ZM511.37 478.377V482.234H493.035V478.377H511.37ZM526.727 514.412C524.887 514.412 523.219 514.103 521.722 513.484C520.241 512.85 518.963 511.963 517.889 510.823C516.831 509.684 516.017 508.333 515.447 506.771C514.878 505.208 514.593 503.499 514.593 501.644V500.618C514.593 498.47 514.91 496.557 515.545 494.881C516.18 493.188 517.042 491.756 518.133 490.584C519.223 489.412 520.46 488.525 521.844 487.923C523.227 487.321 524.66 487.02 526.141 487.02C528.029 487.02 529.656 487.345 531.023 487.996C532.407 488.647 533.538 489.559 534.417 490.73C535.296 491.886 535.947 493.253 536.37 494.832C536.793 496.395 537.005 498.104 537.005 499.959V501.985H517.278V498.299H532.488V497.957C532.423 496.785 532.179 495.646 531.756 494.539C531.349 493.432 530.698 492.521 529.803 491.805C528.908 491.089 527.687 490.73 526.141 490.73C525.115 490.73 524.171 490.95 523.309 491.39C522.446 491.813 521.705 492.448 521.087 493.294C520.468 494.14 519.988 495.174 519.646 496.395C519.305 497.615 519.134 499.023 519.134 500.618V501.644C519.134 502.897 519.305 504.077 519.646 505.184C520.005 506.274 520.517 507.234 521.185 508.064C521.868 508.895 522.69 509.546 523.65 510.018C524.627 510.49 525.734 510.726 526.971 510.726C528.566 510.726 529.917 510.4 531.023 509.749C532.13 509.098 533.099 508.227 533.929 507.137L536.663 509.31C536.093 510.172 535.369 510.994 534.49 511.775C533.611 512.557 532.529 513.191 531.243 513.68C529.974 514.168 528.468 514.412 526.727 514.412ZM542.254 476.424H546.795V508.797L546.404 513.924H542.254V476.424ZM564.642 500.496V501.009C564.642 502.929 564.414 504.712 563.958 506.355C563.502 507.983 562.835 509.399 561.956 510.604C561.077 511.808 560.003 512.744 558.733 513.411C557.464 514.078 556.007 514.412 554.363 514.412C552.687 514.412 551.214 514.127 549.944 513.558C548.691 512.972 547.633 512.133 546.771 511.043C545.908 509.952 545.216 508.634 544.695 507.088C544.191 505.542 543.841 503.8 543.646 501.863V499.617C543.841 497.664 544.191 495.914 544.695 494.368C545.216 492.822 545.908 491.504 546.771 490.413C547.633 489.306 548.691 488.468 549.944 487.898C551.198 487.312 552.654 487.02 554.314 487.02C555.975 487.02 557.448 487.345 558.733 487.996C560.019 488.631 561.093 489.542 561.956 490.73C562.835 491.919 563.502 493.343 563.958 495.003C564.414 496.647 564.642 498.478 564.642 500.496ZM560.101 501.009V500.496C560.101 499.178 559.979 497.941 559.734 496.785C559.49 495.613 559.1 494.588 558.562 493.709C558.025 492.814 557.317 492.114 556.438 491.609C555.56 491.089 554.477 490.828 553.191 490.828C552.052 490.828 551.059 491.023 550.213 491.414C549.383 491.805 548.675 492.334 548.089 493.001C547.503 493.652 547.023 494.401 546.648 495.247C546.29 496.077 546.022 496.94 545.843 497.835V503.719C546.103 504.858 546.526 505.957 547.112 507.015C547.715 508.056 548.512 508.911 549.505 509.578C550.514 510.245 551.759 510.579 553.24 510.579C554.461 510.579 555.503 510.335 556.365 509.847C557.244 509.342 557.952 508.65 558.489 507.771C559.043 506.893 559.45 505.875 559.71 504.72C559.97 503.564 560.101 502.327 560.101 501.009ZM605.56 510.213V513.924H582.293V510.677L593.938 497.713C595.371 496.118 596.478 494.767 597.259 493.66C598.056 492.537 598.61 491.536 598.919 490.657C599.244 489.762 599.407 488.851 599.407 487.923C599.407 486.751 599.163 485.693 598.675 484.749C598.203 483.789 597.503 483.024 596.575 482.454C595.647 481.884 594.524 481.6 593.206 481.6C591.627 481.6 590.309 481.909 589.251 482.527C588.209 483.13 587.428 483.976 586.907 485.066C586.386 486.157 586.126 487.41 586.126 488.826H581.609C581.609 486.824 582.049 484.993 582.928 483.333C583.807 481.673 585.109 480.354 586.834 479.378C588.559 478.385 590.683 477.889 593.206 477.889C595.452 477.889 597.373 478.287 598.968 479.085C600.563 479.866 601.784 480.973 602.63 482.405C603.493 483.821 603.924 485.481 603.924 487.386C603.924 488.427 603.745 489.485 603.387 490.56C603.045 491.618 602.565 492.675 601.946 493.733C601.344 494.791 600.636 495.833 599.822 496.858C599.025 497.884 598.17 498.893 597.259 499.886L587.737 510.213H605.56ZM616.985 493.929H620.208C621.787 493.929 623.089 493.668 624.114 493.147C625.156 492.61 625.929 491.886 626.434 490.975C626.954 490.047 627.215 489.005 627.215 487.85C627.215 486.482 626.987 485.335 626.531 484.407C626.076 483.479 625.392 482.78 624.48 482.308C623.569 481.836 622.413 481.6 621.014 481.6C619.744 481.6 618.621 481.852 617.645 482.356C616.684 482.845 615.927 483.545 615.374 484.456C614.837 485.368 614.568 486.442 614.568 487.679H610.052C610.052 485.872 610.507 484.228 611.419 482.747C612.33 481.266 613.608 480.086 615.252 479.207C616.912 478.328 618.833 477.889 621.014 477.889C623.162 477.889 625.042 478.271 626.653 479.036C628.265 479.785 629.518 480.908 630.413 482.405C631.308 483.886 631.756 485.734 631.756 487.947C631.756 488.842 631.544 489.803 631.121 490.828C630.714 491.837 630.071 492.781 629.192 493.66C628.33 494.539 627.207 495.263 625.823 495.833C624.44 496.386 622.78 496.663 620.843 496.663H616.985V493.929ZM616.985 497.64V494.93H620.843C623.105 494.93 624.977 495.198 626.458 495.735C627.939 496.272 629.103 496.989 629.949 497.884C630.812 498.779 631.414 499.764 631.756 500.838C632.114 501.896 632.293 502.954 632.293 504.012C632.293 505.672 632.008 507.145 631.438 508.431C630.885 509.716 630.096 510.807 629.07 511.702C628.061 512.597 626.873 513.273 625.506 513.729C624.139 514.184 622.649 514.412 621.038 514.412C619.492 514.412 618.035 514.192 616.668 513.753C615.317 513.313 614.121 512.679 613.079 511.849C612.037 511.002 611.224 509.969 610.638 508.748C610.052 507.511 609.759 506.103 609.759 504.524H614.275C614.275 505.761 614.544 506.844 615.081 507.771C615.634 508.699 616.416 509.424 617.425 509.944C618.45 510.449 619.655 510.701 621.038 510.701C622.422 510.701 623.61 510.465 624.603 509.993C625.612 509.505 626.385 508.772 626.922 507.796C627.475 506.819 627.752 505.59 627.752 504.109C627.752 502.628 627.443 501.416 626.824 500.472C626.206 499.511 625.327 498.803 624.188 498.348C623.064 497.876 621.738 497.64 620.208 497.64H616.985ZM643.108 508.553V512.19C643.108 513.672 642.734 515.234 641.985 516.878C641.237 518.538 640.187 519.922 638.836 521.028L636.272 519.246C636.793 518.53 637.233 517.798 637.591 517.049C637.949 516.316 638.217 515.551 638.396 514.754C638.592 513.973 638.689 513.143 638.689 512.264V508.553H643.108ZM684.075 510.213V513.924H660.809V510.677L672.454 497.713C673.886 496.118 674.993 494.767 675.774 493.66C676.572 492.537 677.125 491.536 677.435 490.657C677.76 489.762 677.923 488.851 677.923 487.923C677.923 486.751 677.679 485.693 677.19 484.749C676.718 483.789 676.019 483.024 675.091 482.454C674.163 481.884 673.04 481.6 671.722 481.6C670.143 481.6 668.825 481.909 667.767 482.527C666.725 483.13 665.944 483.976 665.423 485.066C664.902 486.157 664.642 487.41 664.642 488.826H660.125C660.125 486.824 660.564 484.993 661.443 483.333C662.322 481.673 663.624 480.354 665.35 479.378C667.075 478.385 669.199 477.889 671.722 477.889C673.968 477.889 675.888 478.287 677.483 479.085C679.078 479.866 680.299 480.973 681.146 482.405C682.008 483.821 682.439 485.481 682.439 487.386C682.439 488.427 682.26 489.485 681.902 490.56C681.561 491.618 681.08 492.675 680.462 493.733C679.86 494.791 679.152 495.833 678.338 496.858C677.54 497.884 676.686 498.893 675.774 499.886L666.253 510.213H684.075ZM711.224 493.318V498.738C711.224 501.652 710.963 504.109 710.442 506.111C709.922 508.113 709.173 509.725 708.196 510.945C707.22 512.166 706.04 513.053 704.656 513.606C703.289 514.144 701.743 514.412 700.018 514.412C698.65 514.412 697.389 514.241 696.233 513.899C695.078 513.558 694.036 513.012 693.108 512.264C692.197 511.499 691.416 510.506 690.765 509.285C690.114 508.064 689.617 506.583 689.275 504.842C688.934 503.1 688.763 501.066 688.763 498.738V493.318C688.763 490.405 689.023 487.964 689.544 485.994C690.081 484.025 690.838 482.446 691.814 481.258C692.791 480.053 693.963 479.191 695.33 478.67C696.714 478.149 698.26 477.889 699.969 477.889C701.352 477.889 702.622 478.06 703.777 478.401C704.949 478.727 705.991 479.256 706.902 479.988C707.814 480.704 708.587 481.665 709.222 482.869C709.873 484.057 710.369 485.514 710.711 487.239C711.053 488.965 711.224 490.991 711.224 493.318ZM706.683 499.471V492.562C706.683 490.966 706.585 489.567 706.39 488.362C706.211 487.142 705.942 486.1 705.584 485.237C705.226 484.375 704.77 483.675 704.217 483.138C703.68 482.601 703.053 482.21 702.337 481.966C701.637 481.705 700.848 481.575 699.969 481.575C698.895 481.575 697.942 481.779 697.112 482.186C696.282 482.576 695.582 483.203 695.013 484.065C694.459 484.928 694.036 486.059 693.743 487.459C693.45 488.859 693.304 490.56 693.304 492.562V499.471C693.304 501.066 693.393 502.474 693.572 503.694C693.768 504.915 694.052 505.973 694.427 506.868C694.801 507.747 695.257 508.471 695.794 509.041C696.331 509.611 696.95 510.034 697.649 510.311C698.366 510.571 699.155 510.701 700.018 510.701C701.124 510.701 702.093 510.49 702.923 510.066C703.753 509.643 704.445 508.984 704.998 508.089C705.568 507.177 705.991 506.014 706.268 504.598C706.544 503.165 706.683 501.456 706.683 499.471ZM740.325 510.213V513.924H717.059V510.677L728.704 497.713C730.136 496.118 731.243 494.767 732.024 493.66C732.822 492.537 733.375 491.536 733.685 490.657C734.01 489.762 734.173 488.851 734.173 487.923C734.173 486.751 733.929 485.693 733.44 484.749C732.968 483.789 732.269 483.024 731.341 482.454C730.413 481.884 729.29 481.6 727.972 481.6C726.393 481.6 725.075 481.909 724.017 482.527C722.975 483.13 722.194 483.976 721.673 485.066C721.152 486.157 720.892 487.41 720.892 488.826H716.375C716.375 486.824 716.814 484.993 717.693 483.333C718.572 481.673 719.874 480.354 721.6 479.378C723.325 478.385 725.449 477.889 727.972 477.889C730.218 477.889 732.138 478.287 733.733 479.085C735.328 479.866 736.549 480.973 737.396 482.405C738.258 483.821 738.689 485.481 738.689 487.386C738.689 488.427 738.51 489.485 738.152 490.56C737.811 491.618 737.33 492.675 736.712 493.733C736.11 494.791 735.402 495.833 734.588 496.858C733.79 497.884 732.936 498.893 732.024 499.886L722.503 510.213H740.325ZM768.45 510.213V513.924H745.184V510.677L756.829 497.713C758.261 496.118 759.368 494.767 760.149 493.66C760.947 492.537 761.5 491.536 761.81 490.657C762.135 489.762 762.298 488.851 762.298 487.923C762.298 486.751 762.054 485.693 761.565 484.749C761.093 483.789 760.394 483.024 759.466 482.454C758.538 481.884 757.415 481.6 756.097 481.6C754.518 481.6 753.2 481.909 752.142 482.527C751.1 483.13 750.319 483.976 749.798 485.066C749.277 486.157 749.017 487.41 749.017 488.826H744.5C744.5 486.824 744.939 484.993 745.818 483.333C746.697 481.673 747.999 480.354 749.725 479.378C751.45 478.385 753.574 477.889 756.097 477.889C758.343 477.889 760.263 478.287 761.858 479.085C763.453 479.866 764.674 480.973 765.521 482.405C766.383 483.821 766.814 485.481 766.814 487.386C766.814 488.427 766.635 489.485 766.277 490.56C765.936 491.618 765.455 492.675 764.837 493.733C764.235 494.791 763.527 495.833 762.713 496.858C761.915 497.884 761.061 498.893 760.149 499.886L750.628 510.213H768.45Z" fill="#FD0404"/>
<path d="M215.789 518.807H770.306V521.248H215.789V518.807Z" fill="#FD0404"/>
</g>
<path d="M28 28V26H26V28H28ZM1110 28H1112V26H1110V28ZM1110 638.884V640.884H1112V638.884H1110ZM28 638.884H26V640.884H28V638.884ZM28 30H1110V26H28V30ZM1108 28V638.884H1112V28H1108ZM1110 636.884H28V640.884H1110V636.884ZM30 638.884V28H26V638.884H30Z" fill="black"/>
</g>
<defs>
<filter id="filter0_d_146_3038" x="0" y="0" width="1154" height="682.885" filterUnits="userSpaceOnUse" color-interpolation-filters="sRGB">
<feFlood flood-opacity="0" result="BackgroundImageFix"/>
<feColorMatrix in="SourceAlpha" type="matrix" values="0 0 0 0 0 0 0 0 0 0 0 0 0 0 0 0 0 0 127 0" result="hardAlpha"/>
<feOffset dx="8" dy="8"/>
<feGaussianBlur stdDeviation="17"/>
<feComposite in2="hardAlpha" operator="out"/>
<feColorMatrix type="matrix" values="0 0 0 0 0 0 0 0 0 0 0 0 0 0 0 0 0 0 0.25 0"/>
<feBlend mode="normal" in2="BackgroundImageFix" result="effect1_dropShadow_146_3038"/>
<feBlend mode="normal" in="SourceGraphic" in2="effect1_dropShadow_146_3038" result="shape"/>
</filter>
<clipPath id="clip0_146_3038">
<path d="M28 28H1110V638.884H28V28Z" fill="white"/>
</clipPath>
</defs>
</svg>
