<svg width="1154" height="683" viewBox="0 0 1154 683" fill="none" xmlns="http://www.w3.org/2000/svg">
<g filter="url(#filter0_d_146_3030)">
<g clip-path="url(#clip0_146_3030)">
<path d="M28 28H1110V638.884H28V28Z" fill="#FFF87B"/>
<rect width="1081" height="99" transform="translate(28 27.9414)" fill="#FFF87B"/>
<line x1="914.006" y1="76.4121" x2="953.949" y2="76.4121" stroke="#FD0404" stroke-width="3"/>
<rect x="975.031" y="56.4414" width="42.9428" height="42.9428" stroke="#FD0404" stroke-width="3"/>
<line x1="1038" y1="96.8241" x2="1077.94" y2="56.8813" stroke="#FD0404" stroke-width="3"/>
<line x1="1040.12" y1="56.8807" x2="1080.06" y2="96.8235" stroke="#FD0404" stroke-width="3"/>
<path d="M151.36 162.453H163.128C165.797 162.453 168.051 162.86 169.891 163.674C171.746 164.488 173.154 165.692 174.114 167.287C175.091 168.866 175.579 170.811 175.579 173.122C175.579 174.75 175.245 176.239 174.578 177.59C173.927 178.924 172.983 180.064 171.746 181.008C170.525 181.936 169.061 182.627 167.352 183.083L166.033 183.596H154.974L154.925 179.763H163.274C164.967 179.763 166.375 179.47 167.498 178.884C168.621 178.282 169.467 177.476 170.037 176.467C170.607 175.458 170.892 174.343 170.892 173.122C170.892 171.755 170.623 170.559 170.086 169.533C169.549 168.508 168.702 167.718 167.547 167.165C166.408 166.595 164.935 166.311 163.128 166.311H156.072V198H151.36V162.453ZM172.137 198L163.494 181.887L168.401 181.862L177.166 197.707V198H172.137ZM192.449 198.488C190.61 198.488 188.942 198.179 187.444 197.561C185.963 196.926 184.686 196.039 183.611 194.899C182.553 193.76 181.74 192.409 181.17 190.847C180.6 189.284 180.315 187.575 180.315 185.72V184.694C180.315 182.546 180.633 180.633 181.268 178.957C181.902 177.264 182.765 175.832 183.855 174.66C184.946 173.488 186.183 172.601 187.566 171.999C188.95 171.397 190.382 171.096 191.863 171.096C193.751 171.096 195.379 171.421 196.746 172.072C198.13 172.723 199.261 173.635 200.14 174.807C201.019 175.962 201.67 177.329 202.093 178.908C202.516 180.471 202.728 182.18 202.728 184.035V186.062H183.001V182.375H198.211V182.033C198.146 180.861 197.902 179.722 197.479 178.615C197.072 177.508 196.421 176.597 195.525 175.881C194.63 175.165 193.41 174.807 191.863 174.807C190.838 174.807 189.894 175.026 189.031 175.466C188.169 175.889 187.428 176.524 186.81 177.37C186.191 178.216 185.711 179.25 185.369 180.471C185.027 181.691 184.856 183.099 184.856 184.694V185.72C184.856 186.973 185.027 188.153 185.369 189.26C185.727 190.35 186.24 191.311 186.907 192.141C187.591 192.971 188.413 193.622 189.373 194.094C190.35 194.566 191.456 194.802 192.693 194.802C194.288 194.802 195.639 194.476 196.746 193.825C197.853 193.174 198.821 192.303 199.651 191.213L202.386 193.386C201.816 194.248 201.092 195.07 200.213 195.852C199.334 196.633 198.252 197.268 196.966 197.756C195.696 198.244 194.191 198.488 192.449 198.488ZM212.493 176.833V198H207.952V171.584H212.249L212.493 176.833ZM211.565 183.791L209.466 183.718C209.482 181.911 209.718 180.243 210.174 178.713C210.63 177.167 211.305 175.824 212.2 174.685C213.095 173.545 214.21 172.666 215.545 172.048C216.88 171.413 218.426 171.096 220.184 171.096C221.421 171.096 222.56 171.275 223.602 171.633C224.643 171.975 225.547 172.52 226.312 173.269C227.076 174.017 227.671 174.978 228.094 176.149C228.517 177.321 228.729 178.737 228.729 180.397V198H224.212V180.617C224.212 179.234 223.976 178.127 223.504 177.297C223.048 176.467 222.397 175.865 221.551 175.49C220.704 175.1 219.712 174.904 218.572 174.904C217.238 174.904 216.123 175.14 215.228 175.612C214.332 176.084 213.616 176.735 213.079 177.565C212.542 178.396 212.151 179.348 211.907 180.422C211.679 181.48 211.565 182.603 211.565 183.791ZM228.68 181.301L225.652 182.229C225.669 180.78 225.905 179.388 226.36 178.054C226.832 176.719 227.508 175.531 228.387 174.489C229.282 173.448 230.381 172.626 231.683 172.023C232.985 171.405 234.474 171.096 236.15 171.096C237.566 171.096 238.82 171.283 239.91 171.657C241.017 172.032 241.945 172.609 242.693 173.391C243.458 174.156 244.036 175.14 244.427 176.345C244.817 177.549 245.013 178.981 245.013 180.642V198H240.472V180.593C240.472 179.112 240.236 177.964 239.764 177.15C239.308 176.32 238.657 175.743 237.811 175.417C236.98 175.075 235.988 174.904 234.832 174.904C233.839 174.904 232.96 175.075 232.195 175.417C231.43 175.759 230.787 176.231 230.267 176.833C229.746 177.419 229.347 178.094 229.07 178.859C228.81 179.624 228.68 180.438 228.68 181.301ZM256.756 171.584V198H252.215V171.584H256.756ZM251.873 164.577C251.873 163.845 252.093 163.226 252.532 162.722C252.988 162.217 253.655 161.965 254.534 161.965C255.397 161.965 256.056 162.217 256.512 162.722C256.984 163.226 257.22 163.845 257.22 164.577C257.22 165.277 256.984 165.879 256.512 166.384C256.056 166.872 255.397 167.116 254.534 167.116C253.655 167.116 252.988 166.872 252.532 166.384C252.093 165.879 251.873 165.277 251.873 164.577ZM268.523 177.224V198H264.007V171.584H268.279L268.523 177.224ZM267.449 183.791L265.569 183.718C265.586 181.911 265.854 180.243 266.375 178.713C266.896 177.167 267.628 175.824 268.572 174.685C269.516 173.545 270.639 172.666 271.941 172.048C273.26 171.413 274.716 171.096 276.312 171.096C277.614 171.096 278.785 171.275 279.827 171.633C280.869 171.975 281.756 172.528 282.488 173.293C283.237 174.058 283.807 175.051 284.197 176.271C284.588 177.476 284.783 178.949 284.783 180.69V198H280.242V180.642C280.242 179.258 280.039 178.151 279.632 177.321C279.225 176.475 278.631 175.865 277.85 175.49C277.068 175.1 276.108 174.904 274.969 174.904C273.846 174.904 272.82 175.14 271.893 175.612C270.981 176.084 270.192 176.735 269.524 177.565C268.873 178.396 268.361 179.348 267.986 180.422C267.628 181.48 267.449 182.603 267.449 183.791ZM308.294 192.873V160.5H312.835V198H308.685L308.294 192.873ZM290.521 185.085V184.572C290.521 182.554 290.765 180.723 291.253 179.079C291.757 177.419 292.465 175.995 293.377 174.807C294.305 173.618 295.403 172.707 296.673 172.072C297.959 171.421 299.391 171.096 300.97 171.096C302.63 171.096 304.078 171.389 305.315 171.975C306.569 172.544 307.627 173.382 308.489 174.489C309.368 175.58 310.06 176.898 310.564 178.444C311.069 179.991 311.419 181.74 311.614 183.693V185.939C311.435 187.876 311.085 189.618 310.564 191.164C310.06 192.71 309.368 194.029 308.489 195.119C307.627 196.21 306.569 197.048 305.315 197.634C304.062 198.203 302.597 198.488 300.921 198.488C299.375 198.488 297.959 198.155 296.673 197.487C295.403 196.82 294.305 195.884 293.377 194.68C292.465 193.475 291.757 192.059 291.253 190.432C290.765 188.788 290.521 187.006 290.521 185.085ZM295.062 184.572V185.085C295.062 186.403 295.192 187.64 295.452 188.796C295.729 189.951 296.152 190.969 296.722 191.848C297.291 192.727 298.016 193.418 298.895 193.923C299.773 194.411 300.823 194.655 302.044 194.655C303.541 194.655 304.77 194.338 305.73 193.703C306.707 193.068 307.488 192.23 308.074 191.188C308.66 190.147 309.116 189.016 309.441 187.795V181.911C309.246 181.016 308.961 180.153 308.587 179.323C308.229 178.477 307.757 177.728 307.171 177.077C306.601 176.41 305.893 175.881 305.047 175.49C304.217 175.1 303.232 174.904 302.093 174.904C300.856 174.904 299.79 175.165 298.895 175.686C298.016 176.19 297.291 176.89 296.722 177.785C296.152 178.664 295.729 179.689 295.452 180.861C295.192 182.017 295.062 183.254 295.062 184.572ZM330.828 198.488C328.989 198.488 327.321 198.179 325.823 197.561C324.342 196.926 323.064 196.039 321.99 194.899C320.932 193.76 320.118 192.409 319.549 190.847C318.979 189.284 318.694 187.575 318.694 185.72V184.694C318.694 182.546 319.012 180.633 319.646 178.957C320.281 177.264 321.144 175.832 322.234 174.66C323.325 173.488 324.562 172.601 325.945 171.999C327.329 171.397 328.761 171.096 330.242 171.096C332.13 171.096 333.758 171.421 335.125 172.072C336.508 172.723 337.64 173.635 338.519 174.807C339.397 175.962 340.049 177.329 340.472 178.908C340.895 180.471 341.106 182.18 341.106 184.035V186.062H321.38V182.375H336.59V182.033C336.525 180.861 336.281 179.722 335.857 178.615C335.451 177.508 334.799 176.597 333.904 175.881C333.009 175.165 331.788 174.807 330.242 174.807C329.217 174.807 328.273 175.026 327.41 175.466C326.548 175.889 325.807 176.524 325.188 177.37C324.57 178.216 324.09 179.25 323.748 180.471C323.406 181.691 323.235 183.099 323.235 184.694V185.72C323.235 186.973 323.406 188.153 323.748 189.26C324.106 190.35 324.619 191.311 325.286 192.141C325.97 192.971 326.792 193.622 327.752 194.094C328.729 194.566 329.835 194.802 331.072 194.802C332.667 194.802 334.018 194.476 335.125 193.825C336.232 193.174 337.2 192.303 338.03 191.213L340.765 193.386C340.195 194.248 339.471 195.07 338.592 195.852C337.713 196.633 336.631 197.268 335.345 197.756C334.075 198.244 332.57 198.488 330.828 198.488ZM350.896 175.734V198H346.38V171.584H350.774L350.896 175.734ZM359.148 171.438L359.124 175.637C358.75 175.555 358.392 175.507 358.05 175.49C357.724 175.458 357.35 175.441 356.927 175.441C355.885 175.441 354.965 175.604 354.168 175.93C353.37 176.255 352.695 176.711 352.142 177.297C351.588 177.883 351.149 178.583 350.823 179.396C350.514 180.194 350.311 181.073 350.213 182.033L348.943 182.766C348.943 181.171 349.098 179.673 349.407 178.273C349.733 176.874 350.229 175.637 350.896 174.562C351.564 173.472 352.41 172.626 353.436 172.023C354.477 171.405 355.714 171.096 357.146 171.096C357.472 171.096 357.846 171.136 358.27 171.218C358.693 171.283 358.986 171.356 359.148 171.438Z" fill="#FD0404"/>
<path d="M159.915 310.3L152.054 308.42L154.891 283.195H182.85V291.159H162.991L161.761 302.199C162.422 301.812 163.424 301.402 164.769 300.969C166.113 300.513 167.617 300.285 169.28 300.285C171.696 300.285 173.838 300.661 175.706 301.413C177.575 302.165 179.158 303.259 180.457 304.694C181.779 306.13 182.781 307.884 183.465 309.958C184.148 312.032 184.49 314.379 184.49 316.999C184.49 319.209 184.148 321.317 183.465 323.322C182.781 325.305 181.744 327.082 180.354 328.654C178.965 330.204 177.221 331.423 175.125 332.312C173.029 333.2 170.545 333.645 167.674 333.645C165.532 333.645 163.458 333.326 161.453 332.688C159.471 332.049 157.682 331.104 156.087 329.851C154.515 328.597 153.25 327.082 152.293 325.305C151.359 323.505 150.869 321.454 150.823 319.152H160.599C160.735 320.565 161.1 321.784 161.692 322.81C162.308 323.812 163.117 324.587 164.119 325.134C165.122 325.681 166.295 325.954 167.64 325.954C168.893 325.954 169.964 325.715 170.853 325.236C171.741 324.758 172.459 324.097 173.006 323.254C173.553 322.388 173.951 321.385 174.202 320.246C174.476 319.084 174.612 317.831 174.612 316.486C174.612 315.142 174.453 313.923 174.134 312.829C173.815 311.735 173.325 310.79 172.664 309.992C172.003 309.195 171.16 308.579 170.135 308.146C169.132 307.714 167.959 307.497 166.614 307.497C164.791 307.497 163.379 307.782 162.376 308.352C161.396 308.921 160.576 309.571 159.915 310.3ZM214.842 283.093V332.961H204.998V294.44L193.172 298.2V290.441L213.782 283.093H214.842ZM251.448 322.741C251.448 322.035 251.243 321.397 250.833 320.827C250.423 320.257 249.66 319.733 248.543 319.255C247.449 318.754 245.866 318.298 243.792 317.888C241.924 317.478 240.18 316.965 238.562 316.35C236.967 315.712 235.577 314.948 234.393 314.06C233.23 313.171 232.319 312.123 231.658 310.915C230.997 309.685 230.667 308.283 230.667 306.711C230.667 305.161 230.997 303.703 231.658 302.336C232.342 300.969 233.31 299.761 234.563 298.713C235.84 297.642 237.389 296.81 239.212 296.218C241.058 295.603 243.131 295.295 245.433 295.295C248.646 295.295 251.403 295.808 253.704 296.833C256.028 297.858 257.806 299.271 259.036 301.071C260.289 302.849 260.916 304.877 260.916 307.155H251.072C251.072 306.198 250.867 305.344 250.457 304.592C250.07 303.817 249.454 303.213 248.611 302.78C247.791 302.325 246.72 302.097 245.398 302.097C244.305 302.097 243.359 302.29 242.562 302.678C241.764 303.042 241.149 303.544 240.716 304.182C240.306 304.797 240.101 305.48 240.101 306.232C240.101 306.802 240.215 307.315 240.442 307.771C240.693 308.203 241.092 308.602 241.639 308.967C242.186 309.331 242.892 309.673 243.758 309.992C244.646 310.288 245.74 310.562 247.039 310.812C249.705 311.359 252.086 312.077 254.183 312.966C256.279 313.832 257.942 315.017 259.173 316.521C260.403 318.002 261.019 319.95 261.019 322.365C261.019 324.006 260.654 325.51 259.925 326.877C259.196 328.244 258.147 329.44 256.78 330.466C255.413 331.468 253.772 332.255 251.858 332.824C249.967 333.371 247.837 333.645 245.467 333.645C242.026 333.645 239.109 333.029 236.717 331.799C234.347 330.568 232.547 329.007 231.316 327.116C230.109 325.202 229.505 323.243 229.505 321.237H238.836C238.882 322.582 239.223 323.664 239.861 324.484C240.522 325.305 241.354 325.897 242.356 326.262C243.382 326.626 244.487 326.809 245.672 326.809C246.948 326.809 248.007 326.638 248.851 326.296C249.694 325.931 250.332 325.453 250.765 324.86C251.22 324.245 251.448 323.539 251.448 322.741ZM285.525 295.979V302.951H263.992V295.979H285.525ZM269.324 286.853H279.168V321.818C279.168 322.889 279.305 323.71 279.578 324.279C279.874 324.849 280.307 325.248 280.877 325.476C281.447 325.681 282.164 325.783 283.03 325.783C283.646 325.783 284.192 325.76 284.671 325.715C285.172 325.646 285.594 325.578 285.936 325.51L285.97 332.756C285.127 333.029 284.215 333.246 283.235 333.405C282.256 333.565 281.173 333.645 279.988 333.645C277.824 333.645 275.932 333.291 274.314 332.585C272.719 331.856 271.489 330.694 270.623 329.099C269.757 327.504 269.324 325.407 269.324 322.81V286.853ZM342.571 324.963V332.961H316.082V324.963H342.571ZM319.432 283.195V332.961H309.178V283.195H319.432ZM339.119 303.464V311.257H316.082V303.464H339.119ZM342.537 283.195V291.228H316.082V283.195H342.537ZM359.627 325.783L367.83 295.979H378.118L365.643 332.961H359.422L359.627 325.783ZM353.987 295.979L362.225 325.817L362.396 332.961H356.141L343.665 295.979H353.987ZM399.07 333.645C396.199 333.645 393.624 333.189 391.346 332.277C389.067 331.343 387.13 330.056 385.535 328.415C383.963 326.774 382.755 324.872 381.912 322.707C381.069 320.52 380.647 318.195 380.647 315.734V314.367C380.647 311.564 381.046 309.001 381.844 306.677C382.641 304.353 383.781 302.336 385.262 300.627C386.766 298.918 388.589 297.608 390.73 296.696C392.872 295.762 395.288 295.295 397.977 295.295C400.597 295.295 402.921 295.728 404.949 296.594C406.977 297.46 408.675 298.69 410.042 300.285C411.432 301.88 412.48 303.794 413.187 306.027C413.893 308.238 414.246 310.699 414.246 313.41V317.512H384.852V310.949H404.573V310.197C404.573 308.83 404.323 307.611 403.821 306.54C403.343 305.446 402.614 304.58 401.634 303.942C400.654 303.304 399.401 302.985 397.874 302.985C396.575 302.985 395.459 303.27 394.524 303.84C393.59 304.41 392.827 305.207 392.234 306.232C391.665 307.258 391.232 308.465 390.936 309.855C390.662 311.223 390.525 312.727 390.525 314.367V315.734C390.525 317.215 390.73 318.583 391.141 319.836C391.574 321.089 392.177 322.172 392.952 323.083C393.75 323.994 394.707 324.701 395.823 325.202C396.963 325.703 398.25 325.954 399.686 325.954C401.463 325.954 403.115 325.612 404.642 324.929C406.191 324.222 407.524 323.163 408.641 321.75L413.426 326.945C412.651 328.062 411.591 329.133 410.247 330.158C408.925 331.184 407.33 332.027 405.462 332.688C403.593 333.326 401.463 333.645 399.07 333.645ZM429.49 303.874V332.961H419.646V295.979H428.875L429.49 303.874ZM428.055 313.171H425.389C425.389 310.437 425.742 307.976 426.448 305.788C427.155 303.578 428.146 301.698 429.422 300.148C430.698 298.576 432.213 297.38 433.968 296.56C435.745 295.716 437.728 295.295 439.915 295.295C441.647 295.295 443.23 295.546 444.666 296.047C446.102 296.548 447.332 297.346 448.357 298.439C449.406 299.533 450.203 300.98 450.75 302.78C451.32 304.58 451.604 306.779 451.604 309.377V332.961H441.692V309.343C441.692 307.702 441.465 306.426 441.009 305.515C440.553 304.603 439.881 303.965 438.992 303.601C438.126 303.213 437.055 303.02 435.779 303.02C434.458 303.02 433.307 303.282 432.327 303.806C431.37 304.33 430.573 305.059 429.935 305.993C429.319 306.905 428.852 307.976 428.533 309.206C428.214 310.437 428.055 311.758 428.055 313.171ZM477.205 295.979V302.951H455.672V295.979H477.205ZM461.004 286.853H470.848V321.818C470.848 322.889 470.984 323.71 471.258 324.279C471.554 324.849 471.987 325.248 472.557 325.476C473.126 325.681 473.844 325.783 474.71 325.783C475.325 325.783 475.872 325.76 476.351 325.715C476.852 325.646 477.273 325.578 477.615 325.51L477.649 332.756C476.806 333.029 475.895 333.246 474.915 333.405C473.935 333.565 472.853 333.645 471.668 333.645C469.503 333.645 467.612 333.291 465.994 332.585C464.399 331.856 463.169 330.694 462.303 329.099C461.437 327.504 461.004 325.407 461.004 322.81V286.853ZM505.54 283.195H514.222L527.005 319.733L539.788 283.195H548.47L530.491 332.961H523.519L505.54 283.195ZM500.857 283.195H509.505L511.077 318.811V332.961H500.857V283.195ZM544.505 283.195H553.187V332.961H542.933V318.811L544.505 283.195ZM581.521 324.621V308.146C581.521 306.962 581.328 305.948 580.94 305.104C580.553 304.239 579.949 303.566 579.129 303.088C578.331 302.609 577.295 302.37 576.019 302.37C574.925 302.37 573.979 302.564 573.182 302.951C572.384 303.316 571.769 303.851 571.336 304.558C570.903 305.241 570.687 306.05 570.687 306.984H560.843C560.843 305.412 561.207 303.92 561.937 302.507C562.666 301.094 563.725 299.852 565.115 298.781C566.505 297.688 568.157 296.833 570.071 296.218C572.008 295.603 574.173 295.295 576.565 295.295C579.437 295.295 581.989 295.773 584.222 296.73C586.455 297.688 588.209 299.123 589.485 301.037C590.784 302.951 591.434 305.344 591.434 308.215V324.04C591.434 326.068 591.559 327.731 591.81 329.03C592.06 330.306 592.425 331.423 592.903 332.38V332.961H582.957C582.479 331.958 582.114 330.705 581.863 329.201C581.635 327.674 581.521 326.148 581.521 324.621ZM582.82 310.437L582.889 316.008H577.386C576.087 316.008 574.959 316.156 574.002 316.452C573.045 316.748 572.259 317.17 571.644 317.717C571.028 318.241 570.573 318.856 570.276 319.562C570.003 320.269 569.866 321.044 569.866 321.887C569.866 322.73 570.06 323.493 570.447 324.177C570.835 324.838 571.393 325.362 572.122 325.749C572.851 326.114 573.706 326.296 574.686 326.296C576.167 326.296 577.454 326 578.548 325.407C579.642 324.815 580.485 324.086 581.077 323.22C581.692 322.354 582.011 321.534 582.034 320.759L584.632 324.929C584.267 325.863 583.766 326.831 583.128 327.834C582.513 328.837 581.727 329.782 580.77 330.671C579.812 331.537 578.662 332.255 577.317 332.824C575.973 333.371 574.378 333.645 572.532 333.645C570.185 333.645 568.055 333.177 566.141 332.243C564.249 331.286 562.745 329.976 561.629 328.312C560.535 326.626 559.988 324.712 559.988 322.57C559.988 320.633 560.353 318.913 561.082 317.409C561.811 315.905 562.882 314.641 564.295 313.615C565.73 312.567 567.519 311.781 569.661 311.257C571.803 310.71 574.287 310.437 577.112 310.437H582.82ZM608.865 304.045V332.961H599.021V295.979H608.284L608.865 304.045ZM620.008 295.739L619.837 304.865C619.358 304.797 618.777 304.74 618.094 304.694C617.433 304.626 616.829 304.592 616.282 304.592C614.892 304.592 613.685 304.774 612.659 305.139C611.657 305.48 610.813 305.993 610.13 306.677C609.469 307.36 608.968 308.192 608.626 309.172C608.307 310.152 608.125 311.268 608.079 312.521L606.097 311.906C606.097 309.514 606.336 307.315 606.814 305.31C607.293 303.282 607.988 301.516 608.899 300.012C609.834 298.508 610.973 297.346 612.317 296.525C613.662 295.705 615.2 295.295 616.932 295.295C617.479 295.295 618.037 295.34 618.606 295.432C619.176 295.5 619.643 295.603 620.008 295.739ZM634.5 280.427V332.961H624.656V280.427H634.5ZM657.811 295.979L641.746 314.299L633.133 323.015L629.544 315.905L636.38 307.224L645.984 295.979H657.811ZM647.591 332.961L636.653 315.871L643.455 309.924L658.938 332.961H647.591ZM678.387 333.645C675.516 333.645 672.941 333.189 670.662 332.277C668.383 331.343 666.447 330.056 664.852 328.415C663.279 326.774 662.072 324.872 661.229 322.707C660.385 320.52 659.964 318.195 659.964 315.734V314.367C659.964 311.564 660.363 309.001 661.16 306.677C661.958 304.353 663.097 302.336 664.578 300.627C666.082 298.918 667.905 297.608 670.047 296.696C672.189 295.762 674.604 295.295 677.293 295.295C679.913 295.295 682.238 295.728 684.266 296.594C686.294 297.46 687.991 298.69 689.358 300.285C690.748 301.88 691.797 303.794 692.503 306.027C693.209 308.238 693.562 310.699 693.562 313.41V317.512H664.168V310.949H683.89V310.197C683.89 308.83 683.639 307.611 683.138 306.54C682.659 305.446 681.93 304.58 680.95 303.942C679.97 303.304 678.717 302.985 677.19 302.985C675.892 302.985 674.775 303.27 673.841 303.84C672.907 304.41 672.143 305.207 671.551 306.232C670.981 307.258 670.548 308.465 670.252 309.855C669.979 311.223 669.842 312.727 669.842 314.367V315.734C669.842 317.215 670.047 318.583 670.457 319.836C670.89 321.089 671.494 322.172 672.269 323.083C673.066 323.994 674.023 324.701 675.14 325.202C676.279 325.703 677.566 325.954 679.002 325.954C680.779 325.954 682.431 325.612 683.958 324.929C685.507 324.222 686.84 323.163 687.957 321.75L692.742 326.945C691.967 328.062 690.908 329.133 689.563 330.158C688.242 331.184 686.647 332.027 684.778 332.688C682.91 333.326 680.779 333.645 678.387 333.645ZM717.283 295.979V302.951H695.75V295.979H717.283ZM701.082 286.853H710.926V321.818C710.926 322.889 711.062 323.71 711.336 324.279C711.632 324.849 712.065 325.248 712.635 325.476C713.204 325.681 713.922 325.783 714.788 325.783C715.403 325.783 715.95 325.76 716.429 325.715C716.93 325.646 717.352 325.578 717.693 325.51L717.728 332.756C716.884 333.029 715.973 333.246 714.993 333.405C714.013 333.565 712.931 333.645 711.746 333.645C709.581 333.645 707.69 333.291 706.072 332.585C704.477 331.856 703.247 330.694 702.381 329.099C701.515 327.504 701.082 325.407 701.082 322.81V286.853ZM733.279 295.979V332.961H723.401V295.979H733.279ZM722.786 286.34C722.786 284.904 723.287 283.719 724.29 282.785C725.293 281.851 726.637 281.384 728.323 281.384C729.987 281.384 731.32 281.851 732.322 282.785C733.348 283.719 733.86 284.904 733.86 286.34C733.86 287.775 733.348 288.96 732.322 289.895C731.32 290.829 729.987 291.296 728.323 291.296C726.637 291.296 725.293 290.829 724.29 289.895C723.287 288.96 722.786 287.775 722.786 286.34ZM751.053 303.874V332.961H741.209V295.979H750.438L751.053 303.874ZM749.617 313.171H746.951C746.951 310.437 747.304 307.976 748.011 305.788C748.717 303.578 749.708 301.698 750.984 300.148C752.26 298.576 753.776 297.38 755.53 296.56C757.308 295.716 759.29 295.295 761.478 295.295C763.209 295.295 764.793 295.546 766.229 296.047C767.664 296.548 768.895 297.346 769.92 298.439C770.968 299.533 771.766 300.98 772.312 302.78C772.882 304.58 773.167 306.779 773.167 309.377V332.961H763.255V309.343C763.255 307.702 763.027 306.426 762.571 305.515C762.116 304.603 761.443 303.965 760.555 303.601C759.689 303.213 758.618 303.02 757.342 303.02C756.02 303.02 754.869 303.282 753.89 303.806C752.933 304.33 752.135 305.059 751.497 305.993C750.882 306.905 750.415 307.976 750.096 309.206C749.777 310.437 749.617 311.758 749.617 313.171ZM804.065 295.979H812.986V331.73C812.986 335.103 812.234 337.963 810.73 340.31C809.249 342.679 807.176 344.468 804.51 345.676C801.844 346.906 798.745 347.521 795.213 347.521C793.663 347.521 792.023 347.316 790.291 346.906C788.582 346.496 786.941 345.858 785.369 344.992C783.82 344.126 782.521 343.033 781.473 341.711L785.813 335.9C786.953 337.222 788.274 338.247 789.778 338.977C791.282 339.729 792.946 340.104 794.769 340.104C796.546 340.104 798.05 339.774 799.28 339.113C800.511 338.475 801.456 337.53 802.117 336.276C802.778 335.046 803.108 333.553 803.108 331.799V304.523L804.065 295.979ZM779.183 314.914V314.196C779.183 311.371 779.524 308.807 780.208 306.506C780.914 304.182 781.906 302.188 783.182 300.524C784.48 298.861 786.053 297.574 787.898 296.662C789.744 295.751 791.829 295.295 794.153 295.295C796.614 295.295 798.676 295.751 800.34 296.662C802.003 297.574 803.37 298.872 804.441 300.559C805.512 302.222 806.344 304.193 806.937 306.472C807.552 308.728 808.03 311.2 808.372 313.889V315.461C808.03 318.036 807.518 320.428 806.834 322.639C806.15 324.849 805.25 326.786 804.134 328.449C803.017 330.09 801.627 331.366 799.964 332.277C798.323 333.189 796.364 333.645 794.085 333.645C791.806 333.645 789.744 333.177 787.898 332.243C786.076 331.309 784.515 329.999 783.216 328.312C781.917 326.626 780.914 324.644 780.208 322.365C779.524 320.087 779.183 317.603 779.183 314.914ZM789.026 314.196V314.914C789.026 316.441 789.174 317.865 789.471 319.187C789.767 320.508 790.223 321.682 790.838 322.707C791.476 323.71 792.262 324.496 793.196 325.065C794.153 325.612 795.281 325.886 796.58 325.886C798.38 325.886 799.85 325.51 800.989 324.758C802.129 323.983 802.983 322.924 803.553 321.579C804.122 320.235 804.453 318.685 804.544 316.931V312.453C804.498 311.018 804.305 309.73 803.963 308.591C803.621 307.429 803.143 306.438 802.527 305.617C801.912 304.797 801.115 304.159 800.135 303.703C799.155 303.247 797.993 303.02 796.648 303.02C795.35 303.02 794.222 303.316 793.265 303.908C792.33 304.478 791.544 305.264 790.906 306.267C790.291 307.269 789.824 308.454 789.505 309.821C789.186 311.166 789.026 312.624 789.026 314.196ZM171.058 397.222H158.377V389.224H171.058C173.017 389.224 174.612 388.905 175.843 388.267C177.073 387.606 177.973 386.694 178.543 385.532C179.113 384.37 179.397 383.06 179.397 381.602C179.397 380.12 179.113 378.742 178.543 377.466C177.973 376.19 177.073 375.164 175.843 374.39C174.612 373.615 173.017 373.228 171.058 373.228H161.932V414.961H151.678V365.195H171.058C174.954 365.195 178.292 365.902 181.072 367.314C183.875 368.704 186.017 370.63 187.498 373.091C188.979 375.552 189.72 378.366 189.72 381.533C189.72 384.746 188.979 387.526 187.498 389.873C186.017 392.22 183.875 394.032 181.072 395.308C178.292 396.584 174.954 397.222 171.058 397.222ZM206.57 362.461V414.961H196.692V362.461H206.57ZM234.666 406.621V390.146C234.666 388.962 234.472 387.948 234.085 387.104C233.698 386.239 233.094 385.566 232.273 385.088C231.476 384.609 230.439 384.37 229.163 384.37C228.069 384.37 227.124 384.564 226.326 384.951C225.529 385.316 224.913 385.851 224.48 386.558C224.048 387.241 223.831 388.05 223.831 388.984H213.987C213.987 387.412 214.352 385.92 215.081 384.507C215.81 383.094 216.87 381.852 218.26 380.781C219.65 379.688 221.302 378.833 223.216 378.218C225.153 377.603 227.317 377.295 229.71 377.295C232.581 377.295 235.133 377.773 237.366 378.73C239.599 379.688 241.354 381.123 242.63 383.037C243.929 384.951 244.578 387.344 244.578 390.215V406.04C244.578 408.068 244.703 409.731 244.954 411.03C245.205 412.306 245.569 413.423 246.048 414.38V414.961H236.102C235.623 413.958 235.258 412.705 235.008 411.201C234.78 409.674 234.666 408.148 234.666 406.621ZM235.965 392.437L236.033 398.008H230.53C229.231 398.008 228.104 398.156 227.146 398.452C226.189 398.748 225.403 399.17 224.788 399.717C224.173 400.241 223.717 400.856 223.421 401.562C223.147 402.269 223.011 403.044 223.011 403.887C223.011 404.73 223.204 405.493 223.592 406.177C223.979 406.838 224.537 407.362 225.267 407.749C225.996 408.114 226.85 408.296 227.83 408.296C229.311 408.296 230.599 408 231.692 407.407C232.786 406.815 233.629 406.086 234.222 405.22C234.837 404.354 235.156 403.534 235.179 402.759L237.776 406.929C237.412 407.863 236.91 408.831 236.272 409.834C235.657 410.837 234.871 411.782 233.914 412.671C232.957 413.537 231.806 414.255 230.462 414.824C229.118 415.371 227.522 415.645 225.677 415.645C223.33 415.645 221.199 415.177 219.285 414.243C217.394 413.286 215.89 411.976 214.773 410.312C213.68 408.626 213.133 406.712 213.133 404.57C213.133 402.633 213.497 400.913 214.227 399.409C214.956 397.905 216.027 396.641 217.439 395.615C218.875 394.567 220.664 393.781 222.806 393.257C224.948 392.71 227.431 392.437 230.257 392.437H235.965ZM261.805 385.874V414.961H251.961V377.979H261.189L261.805 385.874ZM260.369 395.171H257.703C257.703 392.437 258.056 389.976 258.763 387.788C259.469 385.578 260.46 383.698 261.736 382.148C263.012 380.576 264.528 379.38 266.282 378.56C268.06 377.716 270.042 377.295 272.229 377.295C273.961 377.295 275.545 377.546 276.98 378.047C278.416 378.548 279.646 379.346 280.672 380.439C281.72 381.533 282.518 382.98 283.064 384.78C283.634 386.58 283.919 388.779 283.919 391.377V414.961H274.007V391.343C274.007 389.702 273.779 388.426 273.323 387.515C272.868 386.603 272.195 385.965 271.307 385.601C270.441 385.213 269.37 385.02 268.094 385.02C266.772 385.02 265.621 385.282 264.642 385.806C263.685 386.33 262.887 387.059 262.249 387.993C261.634 388.905 261.167 389.976 260.848 391.206C260.529 392.437 260.369 393.758 260.369 395.171ZM301.043 385.874V414.961H291.199V377.979H300.428L301.043 385.874ZM299.607 395.171H296.941C296.941 392.437 297.295 389.976 298.001 387.788C298.707 385.578 299.699 383.698 300.975 382.148C302.251 380.576 303.766 379.38 305.521 378.56C307.298 377.716 309.28 377.295 311.468 377.295C313.2 377.295 314.783 377.546 316.219 378.047C317.654 378.548 318.885 379.346 319.91 380.439C320.958 381.533 321.756 382.98 322.303 384.78C322.872 386.58 323.157 388.779 323.157 391.377V414.961H313.245V391.343C313.245 389.702 313.017 388.426 312.562 387.515C312.106 386.603 311.434 385.965 310.545 385.601C309.679 385.213 308.608 385.02 307.332 385.02C306.01 385.02 304.86 385.282 303.88 385.806C302.923 386.33 302.125 387.059 301.487 387.993C300.872 388.905 300.405 389.976 300.086 391.206C299.767 392.437 299.607 393.758 299.607 395.171ZM341.033 377.979V414.961H331.155V377.979H341.033ZM330.54 368.34C330.54 366.904 331.041 365.719 332.044 364.785C333.047 363.851 334.391 363.384 336.077 363.384C337.741 363.384 339.074 363.851 340.076 364.785C341.102 365.719 341.614 366.904 341.614 368.34C341.614 369.775 341.102 370.96 340.076 371.895C339.074 372.829 337.741 373.296 336.077 373.296C334.391 373.296 333.047 372.829 332.044 371.895C331.041 370.96 330.54 369.775 330.54 368.34ZM358.807 385.874V414.961H348.963V377.979H358.191L358.807 385.874ZM357.371 395.171H354.705C354.705 392.437 355.058 389.976 355.765 387.788C356.471 385.578 357.462 383.698 358.738 382.148C360.014 380.576 361.53 379.38 363.284 378.56C365.062 377.716 367.044 377.295 369.231 377.295C370.963 377.295 372.547 377.546 373.982 378.047C375.418 378.548 376.648 379.346 377.674 380.439C378.722 381.533 379.52 382.98 380.066 384.78C380.636 386.58 380.921 388.779 380.921 391.377V414.961H371.009V391.343C371.009 389.702 370.781 388.426 370.325 387.515C369.869 386.603 369.197 385.965 368.309 385.601C367.443 385.213 366.372 385.02 365.096 385.02C363.774 385.02 362.623 385.282 361.644 385.806C360.687 386.33 359.889 387.059 359.251 387.993C358.636 388.905 358.169 389.976 357.85 391.206C357.531 392.437 357.371 393.758 357.371 395.171ZM411.819 377.979H420.74V413.73C420.74 417.103 419.988 419.963 418.484 422.31C417.003 424.679 414.93 426.468 412.264 427.676C409.598 428.906 406.499 429.521 402.967 429.521C401.417 429.521 399.777 429.316 398.045 428.906C396.336 428.496 394.695 427.858 393.123 426.992C391.574 426.126 390.275 425.033 389.227 423.711L393.567 417.9C394.707 419.222 396.028 420.247 397.532 420.977C399.036 421.729 400.7 422.104 402.522 422.104C404.3 422.104 405.804 421.774 407.034 421.113C408.265 420.475 409.21 419.53 409.871 418.276C410.532 417.046 410.862 415.553 410.862 413.799V386.523L411.819 377.979ZM386.937 396.914V396.196C386.937 393.371 387.278 390.807 387.962 388.506C388.668 386.182 389.66 384.188 390.936 382.524C392.234 380.861 393.807 379.574 395.652 378.662C397.498 377.751 399.583 377.295 401.907 377.295C404.368 377.295 406.43 377.751 408.094 378.662C409.757 379.574 411.124 380.872 412.195 382.559C413.266 384.222 414.098 386.193 414.69 388.472C415.306 390.728 415.784 393.2 416.126 395.889V397.461C415.784 400.036 415.271 402.428 414.588 404.639C413.904 406.849 413.004 408.786 411.888 410.449C410.771 412.09 409.381 413.366 407.718 414.277C406.077 415.189 404.118 415.645 401.839 415.645C399.56 415.645 397.498 415.177 395.652 414.243C393.829 413.309 392.269 411.999 390.97 410.312C389.671 408.626 388.668 406.644 387.962 404.365C387.278 402.087 386.937 399.603 386.937 396.914ZM396.78 396.196V396.914C396.78 398.441 396.928 399.865 397.225 401.187C397.521 402.508 397.977 403.682 398.592 404.707C399.23 405.71 400.016 406.496 400.95 407.065C401.907 407.612 403.035 407.886 404.334 407.886C406.134 407.886 407.604 407.51 408.743 406.758C409.882 405.983 410.737 404.924 411.307 403.579C411.876 402.235 412.207 400.685 412.298 398.931V394.453C412.252 393.018 412.059 391.73 411.717 390.591C411.375 389.429 410.896 388.438 410.281 387.617C409.666 386.797 408.868 386.159 407.889 385.703C406.909 385.247 405.747 385.02 404.402 385.02C403.104 385.02 401.976 385.316 401.019 385.908C400.084 386.478 399.298 387.264 398.66 388.267C398.045 389.269 397.578 390.454 397.259 391.821C396.94 393.166 396.78 394.624 396.78 396.196Z" fill="#FD0404"/>
<path d="M149.48 501.009V500.447C149.48 498.543 149.757 496.777 150.311 495.149C150.864 493.506 151.661 492.081 152.703 490.877C153.745 489.656 155.006 488.712 156.487 488.045C157.968 487.361 159.629 487.02 161.468 487.02C163.323 487.02 164.992 487.361 166.473 488.045C167.97 488.712 169.24 489.656 170.281 490.877C171.339 492.081 172.145 493.506 172.698 495.149C173.252 496.777 173.528 498.543 173.528 500.447V501.009C173.528 502.913 173.252 504.679 172.698 506.307C172.145 507.934 171.339 509.358 170.281 510.579C169.24 511.784 167.978 512.728 166.497 513.411C165.032 514.078 163.372 514.412 161.517 514.412C159.661 514.412 157.993 514.078 156.512 513.411C155.031 512.728 153.761 511.784 152.703 510.579C151.661 509.358 150.864 507.934 150.311 506.307C149.757 504.679 149.48 502.913 149.48 501.009ZM153.997 500.447V501.009C153.997 502.327 154.152 503.572 154.461 504.744C154.77 505.9 155.234 506.925 155.853 507.82C156.487 508.715 157.277 509.424 158.221 509.944C159.165 510.449 160.263 510.701 161.517 510.701C162.754 510.701 163.836 510.449 164.764 509.944C165.708 509.424 166.489 508.715 167.107 507.82C167.726 506.925 168.19 505.9 168.499 504.744C168.825 503.572 168.987 502.327 168.987 501.009V500.447C168.987 499.145 168.825 497.916 168.499 496.761C168.19 495.589 167.718 494.555 167.083 493.66C166.465 492.749 165.683 492.033 164.739 491.512C163.812 490.991 162.721 490.73 161.468 490.73C160.231 490.73 159.14 490.991 158.196 491.512C157.269 492.033 156.487 492.749 155.853 493.66C155.234 494.555 154.77 495.589 154.461 496.761C154.152 497.916 153.997 499.145 153.997 500.447ZM183.709 493.147V513.924H179.192V487.508H183.465L183.709 493.147ZM182.635 499.715L180.755 499.642C180.771 497.835 181.04 496.167 181.561 494.637C182.081 493.09 182.814 491.748 183.758 490.608C184.702 489.469 185.825 488.59 187.127 487.972C188.445 487.337 189.902 487.02 191.497 487.02C192.799 487.02 193.971 487.199 195.013 487.557C196.054 487.898 196.941 488.452 197.674 489.217C198.423 489.982 198.992 490.975 199.383 492.195C199.773 493.4 199.969 494.873 199.969 496.614V513.924H195.428V496.565C195.428 495.182 195.224 494.075 194.817 493.245C194.41 492.399 193.816 491.788 193.035 491.414C192.254 491.023 191.294 490.828 190.154 490.828C189.031 490.828 188.006 491.064 187.078 491.536C186.167 492.008 185.377 492.659 184.71 493.489C184.059 494.319 183.546 495.271 183.172 496.346C182.814 497.404 182.635 498.527 182.635 499.715ZM224.627 478.377V513.924H219.915V478.377H224.627ZM239.52 494.368V498.226H223.602V494.368H239.52ZM241.937 478.377V482.234H223.602V478.377H241.937ZM250.75 491.658V513.924H246.233V487.508H250.628L250.75 491.658ZM259.002 487.361L258.978 491.561C258.603 491.479 258.245 491.43 257.903 491.414C257.578 491.382 257.203 491.365 256.78 491.365C255.739 491.365 254.819 491.528 254.021 491.854C253.224 492.179 252.549 492.635 251.995 493.221C251.442 493.807 251.002 494.507 250.677 495.32C250.368 496.118 250.164 496.997 250.066 497.957L248.797 498.689C248.797 497.094 248.951 495.597 249.261 494.197C249.586 492.798 250.083 491.561 250.75 490.486C251.417 489.396 252.264 488.549 253.289 487.947C254.331 487.329 255.568 487.02 257 487.02C257.326 487.02 257.7 487.06 258.123 487.142C258.546 487.207 258.839 487.28 259.002 487.361ZM268.084 487.508V513.924H263.543V487.508H268.084ZM263.201 480.501C263.201 479.769 263.421 479.15 263.86 478.646C264.316 478.141 264.983 477.889 265.862 477.889C266.725 477.889 267.384 478.141 267.84 478.646C268.312 479.15 268.548 479.769 268.548 480.501C268.548 481.201 268.312 481.803 267.84 482.308C267.384 482.796 266.725 483.04 265.862 483.04C264.983 483.04 264.316 482.796 263.86 482.308C263.421 481.803 263.201 481.201 263.201 480.501ZM291.985 508.797V476.424H296.526V513.924H292.376L291.985 508.797ZM274.212 501.009V500.496C274.212 498.478 274.456 496.647 274.944 495.003C275.449 493.343 276.157 491.919 277.068 490.73C277.996 489.542 279.095 488.631 280.364 487.996C281.65 487.345 283.082 487.02 284.661 487.02C286.321 487.02 287.77 487.312 289.007 487.898C290.26 488.468 291.318 489.306 292.181 490.413C293.06 491.504 293.751 492.822 294.256 494.368C294.76 495.914 295.11 497.664 295.306 499.617V501.863C295.127 503.8 294.777 505.542 294.256 507.088C293.751 508.634 293.06 509.952 292.181 511.043C291.318 512.133 290.26 512.972 289.007 513.558C287.754 514.127 286.289 514.412 284.612 514.412C283.066 514.412 281.65 514.078 280.364 513.411C279.095 512.744 277.996 511.808 277.068 510.604C276.157 509.399 275.449 507.983 274.944 506.355C274.456 504.712 274.212 502.929 274.212 501.009ZM278.753 500.496V501.009C278.753 502.327 278.883 503.564 279.144 504.72C279.42 505.875 279.843 506.893 280.413 507.771C280.983 508.65 281.707 509.342 282.586 509.847C283.465 510.335 284.515 510.579 285.735 510.579C287.233 510.579 288.462 510.262 289.422 509.627C290.398 508.992 291.18 508.154 291.766 507.112C292.352 506.071 292.807 504.939 293.133 503.719V497.835C292.938 496.94 292.653 496.077 292.278 495.247C291.92 494.401 291.448 493.652 290.862 493.001C290.293 492.334 289.585 491.805 288.738 491.414C287.908 491.023 286.924 490.828 285.784 490.828C284.547 490.828 283.481 491.089 282.586 491.609C281.707 492.114 280.983 492.814 280.413 493.709C279.843 494.588 279.42 495.613 279.144 496.785C278.883 497.941 278.753 499.178 278.753 500.496ZM319.134 509.407V495.809C319.134 494.767 318.922 493.864 318.499 493.099C318.092 492.317 317.474 491.715 316.644 491.292C315.813 490.869 314.788 490.657 313.567 490.657C312.428 490.657 311.427 490.853 310.564 491.243C309.718 491.634 309.051 492.146 308.562 492.781C308.09 493.416 307.854 494.1 307.854 494.832H303.338C303.338 493.888 303.582 492.952 304.07 492.024C304.559 491.097 305.258 490.258 306.17 489.51C307.098 488.745 308.204 488.143 309.49 487.703C310.792 487.247 312.241 487.02 313.836 487.02C315.757 487.02 317.449 487.345 318.914 487.996C320.395 488.647 321.551 489.632 322.381 490.95C323.227 492.252 323.65 493.888 323.65 495.857V508.162C323.65 509.041 323.724 509.977 323.87 510.97C324.033 511.963 324.269 512.817 324.578 513.533V513.924H319.866C319.638 513.403 319.459 512.711 319.329 511.849C319.199 510.97 319.134 510.156 319.134 509.407ZM319.915 497.908L319.964 501.082H315.398C314.113 501.082 312.965 501.188 311.956 501.399C310.947 501.595 310.101 501.896 309.417 502.303C308.733 502.71 308.213 503.222 307.854 503.841C307.496 504.443 307.317 505.151 307.317 505.965C307.317 506.795 307.505 507.552 307.879 508.235C308.253 508.919 308.815 509.464 309.563 509.871C310.328 510.262 311.264 510.457 312.371 510.457C313.755 510.457 314.975 510.164 316.033 509.578C317.091 508.992 317.929 508.276 318.548 507.43C319.183 506.583 319.524 505.761 319.573 504.964L321.502 507.137C321.388 507.82 321.079 508.577 320.574 509.407C320.07 510.237 319.394 511.035 318.548 511.8C317.718 512.549 316.725 513.175 315.569 513.68C314.43 514.168 313.144 514.412 311.712 514.412C309.922 514.412 308.351 514.062 307 513.362C305.665 512.662 304.624 511.727 303.875 510.555C303.143 509.367 302.776 508.04 302.776 506.575C302.776 505.159 303.053 503.914 303.606 502.84C304.16 501.749 304.957 500.846 305.999 500.13C307.041 499.397 308.294 498.844 309.759 498.47C311.224 498.095 312.859 497.908 314.666 497.908H319.915ZM337.786 511.189L345.135 487.508H349.969L339.373 518.001C339.129 518.652 338.803 519.352 338.396 520.101C338.006 520.866 337.501 521.59 336.883 522.273C336.264 522.957 335.516 523.51 334.637 523.934C333.774 524.373 332.741 524.593 331.536 524.593C331.178 524.593 330.722 524.544 330.169 524.446C329.616 524.349 329.225 524.267 328.997 524.202L328.973 520.54C329.103 520.556 329.306 520.573 329.583 520.589C329.876 520.621 330.079 520.638 330.193 520.638C331.219 520.638 332.09 520.499 332.806 520.223C333.522 519.962 334.124 519.515 334.612 518.88C335.117 518.261 335.548 517.407 335.906 516.316L337.786 511.189ZM332.391 487.508L339.251 508.016L340.423 512.776L337.176 514.437L327.459 487.508H332.391ZM371.844 478.377V513.924H367.132V478.377H371.844ZM386.736 494.368V498.226H370.818V494.368H386.736ZM389.153 478.377V482.234H370.818V478.377H389.153ZM404.51 514.412C402.671 514.412 401.002 514.103 399.505 513.484C398.024 512.85 396.746 511.963 395.672 510.823C394.614 509.684 393.8 508.333 393.23 506.771C392.661 505.208 392.376 503.499 392.376 501.644V500.618C392.376 498.47 392.693 496.557 393.328 494.881C393.963 493.188 394.826 491.756 395.916 490.584C397.007 489.412 398.243 488.525 399.627 487.923C401.01 487.321 402.443 487.02 403.924 487.02C405.812 487.02 407.439 487.345 408.807 487.996C410.19 488.647 411.321 489.559 412.2 490.73C413.079 491.886 413.73 493.253 414.153 494.832C414.576 496.395 414.788 498.104 414.788 499.959V501.985H395.062V498.299H410.271V497.957C410.206 496.785 409.962 495.646 409.539 494.539C409.132 493.432 408.481 492.521 407.586 491.805C406.691 491.089 405.47 490.73 403.924 490.73C402.898 490.73 401.954 490.95 401.092 491.39C400.229 491.813 399.489 492.448 398.87 493.294C398.252 494.14 397.771 495.174 397.43 496.395C397.088 497.615 396.917 499.023 396.917 500.618V501.644C396.917 502.897 397.088 504.077 397.43 505.184C397.788 506.274 398.3 507.234 398.968 508.064C399.651 508.895 400.473 509.546 401.434 510.018C402.41 510.49 403.517 510.726 404.754 510.726C406.349 510.726 407.7 510.4 408.807 509.749C409.913 509.098 410.882 508.227 411.712 507.137L414.446 509.31C413.877 510.172 413.152 510.994 412.273 511.775C411.395 512.557 410.312 513.191 409.026 513.68C407.757 514.168 406.251 514.412 404.51 514.412ZM420.037 476.424H424.578V508.797L424.188 513.924H420.037V476.424ZM442.425 500.496V501.009C442.425 502.929 442.197 504.712 441.741 506.355C441.285 507.983 440.618 509.399 439.739 510.604C438.86 511.808 437.786 512.744 436.517 513.411C435.247 514.078 433.79 514.412 432.146 514.412C430.47 514.412 428.997 514.127 427.728 513.558C426.474 512.972 425.416 512.133 424.554 511.043C423.691 509.952 422.999 508.634 422.479 507.088C421.974 505.542 421.624 503.8 421.429 501.863V499.617C421.624 497.664 421.974 495.914 422.479 494.368C422.999 492.822 423.691 491.504 424.554 490.413C425.416 489.306 426.474 488.468 427.728 487.898C428.981 487.312 430.438 487.02 432.098 487.02C433.758 487.02 435.231 487.345 436.517 487.996C437.802 488.631 438.877 489.542 439.739 490.73C440.618 491.919 441.285 493.343 441.741 495.003C442.197 496.647 442.425 498.478 442.425 500.496ZM437.884 501.009V500.496C437.884 499.178 437.762 497.941 437.518 496.785C437.273 495.613 436.883 494.588 436.346 493.709C435.809 492.814 435.101 492.114 434.222 491.609C433.343 491.089 432.26 490.828 430.975 490.828C429.835 490.828 428.842 491.023 427.996 491.414C427.166 491.805 426.458 492.334 425.872 493.001C425.286 493.652 424.806 494.401 424.432 495.247C424.074 496.077 423.805 496.94 423.626 497.835V503.719C423.886 504.858 424.31 505.957 424.896 507.015C425.498 508.056 426.295 508.911 427.288 509.578C428.297 510.245 429.542 510.579 431.023 510.579C432.244 510.579 433.286 510.335 434.148 509.847C435.027 509.342 435.735 508.65 436.272 507.771C436.826 506.893 437.233 505.875 437.493 504.72C437.754 503.564 437.884 502.327 437.884 501.009ZM483.343 510.213V513.924H460.076V510.677L471.722 497.713C473.154 496.118 474.261 494.767 475.042 493.66C475.84 492.537 476.393 491.536 476.702 490.657C477.028 489.762 477.19 488.851 477.19 487.923C477.19 486.751 476.946 485.693 476.458 484.749C475.986 483.789 475.286 483.024 474.358 482.454C473.431 481.884 472.308 481.6 470.989 481.6C469.41 481.6 468.092 481.909 467.034 482.527C465.993 483.13 465.211 483.976 464.69 485.066C464.17 486.157 463.909 487.41 463.909 488.826H459.393C459.393 486.824 459.832 484.993 460.711 483.333C461.59 481.673 462.892 480.354 464.617 479.378C466.342 478.385 468.466 477.889 470.989 477.889C473.235 477.889 475.156 478.287 476.751 479.085C478.346 479.866 479.567 480.973 480.413 482.405C481.276 483.821 481.707 485.481 481.707 487.386C481.707 488.427 481.528 489.485 481.17 490.56C480.828 491.618 480.348 492.675 479.729 493.733C479.127 494.791 478.419 495.833 477.605 496.858C476.808 497.884 475.953 498.893 475.042 499.886L465.521 510.213H483.343ZM493.89 497.005L490.276 496.077L492.059 478.377H510.296V482.552H495.892L494.817 492.22C495.468 491.845 496.29 491.495 497.283 491.17C498.292 490.844 499.448 490.682 500.75 490.682C502.394 490.682 503.867 490.966 505.169 491.536C506.471 492.09 507.578 492.887 508.489 493.929C509.417 494.97 510.125 496.224 510.613 497.688C511.102 499.153 511.346 500.789 511.346 502.596C511.346 504.305 511.11 505.875 510.638 507.308C510.182 508.74 509.49 509.993 508.562 511.067C507.635 512.125 506.463 512.947 505.047 513.533C503.647 514.119 501.995 514.412 500.091 514.412C498.659 514.412 497.299 514.217 496.014 513.826C494.744 513.419 493.605 512.809 492.596 511.995C491.603 511.165 490.789 510.14 490.154 508.919C489.536 507.682 489.145 506.233 488.982 504.573H493.279C493.475 505.908 493.865 507.031 494.451 507.942C495.037 508.854 495.802 509.546 496.746 510.018C497.706 510.473 498.821 510.701 500.091 510.701C501.165 510.701 502.117 510.514 502.947 510.14C503.777 509.765 504.477 509.228 505.047 508.528C505.617 507.828 506.048 506.982 506.341 505.989C506.65 504.996 506.805 503.882 506.805 502.645C506.805 501.521 506.65 500.48 506.341 499.52C506.032 498.559 505.568 497.721 504.949 497.005C504.347 496.289 503.606 495.735 502.728 495.345C501.849 494.938 500.84 494.734 499.7 494.734C498.187 494.734 497.039 494.938 496.258 495.345C495.493 495.752 494.703 496.305 493.89 497.005ZM520.892 508.553V512.19C520.892 513.672 520.517 515.234 519.769 516.878C519.02 518.538 517.97 519.922 516.619 521.028L514.056 519.246C514.576 518.53 515.016 517.798 515.374 517.049C515.732 516.316 516.001 515.551 516.18 514.754C516.375 513.973 516.473 513.143 516.473 512.264V508.553H520.892ZM561.858 510.213V513.924H538.592V510.677L550.237 497.713C551.67 496.118 552.776 494.767 553.558 493.66C554.355 492.537 554.909 491.536 555.218 490.657C555.543 489.762 555.706 488.851 555.706 487.923C555.706 486.751 555.462 485.693 554.974 484.749C554.502 483.789 553.802 483.024 552.874 482.454C551.946 481.884 550.823 481.6 549.505 481.6C547.926 481.6 546.608 481.909 545.55 482.527C544.508 483.13 543.727 483.976 543.206 485.066C542.685 486.157 542.425 487.41 542.425 488.826H537.908C537.908 486.824 538.348 484.993 539.227 483.333C540.105 481.673 541.408 480.354 543.133 479.378C544.858 478.385 546.982 477.889 549.505 477.889C551.751 477.889 553.672 478.287 555.267 479.085C556.862 479.866 558.082 480.973 558.929 482.405C559.791 483.821 560.223 485.481 560.223 487.386C560.223 488.427 560.044 489.485 559.686 490.56C559.344 491.618 558.864 492.675 558.245 493.733C557.643 494.791 556.935 495.833 556.121 496.858C555.324 497.884 554.469 498.893 553.558 499.886L544.036 510.213H561.858ZM589.007 493.318V498.738C589.007 501.652 588.746 504.109 588.226 506.111C587.705 508.113 586.956 509.725 585.979 510.945C585.003 512.166 583.823 513.053 582.439 513.606C581.072 514.144 579.526 514.412 577.801 514.412C576.434 514.412 575.172 514.241 574.017 513.899C572.861 513.558 571.819 513.012 570.892 512.264C569.98 511.499 569.199 510.506 568.548 509.285C567.897 508.064 567.4 506.583 567.059 504.842C566.717 503.1 566.546 501.066 566.546 498.738V493.318C566.546 490.405 566.806 487.964 567.327 485.994C567.864 484.025 568.621 482.446 569.598 481.258C570.574 480.053 571.746 479.191 573.113 478.67C574.497 478.149 576.043 477.889 577.752 477.889C579.135 477.889 580.405 478.06 581.561 478.401C582.732 478.727 583.774 479.256 584.686 479.988C585.597 480.704 586.37 481.665 587.005 482.869C587.656 484.057 588.152 485.514 588.494 487.239C588.836 488.965 589.007 490.991 589.007 493.318ZM584.466 499.471V492.562C584.466 490.966 584.368 489.567 584.173 488.362C583.994 487.142 583.725 486.1 583.367 485.237C583.009 484.375 582.553 483.675 582 483.138C581.463 482.601 580.836 482.21 580.12 481.966C579.42 481.705 578.631 481.575 577.752 481.575C576.678 481.575 575.726 481.779 574.896 482.186C574.065 482.576 573.366 483.203 572.796 484.065C572.243 484.928 571.819 486.059 571.526 487.459C571.233 488.859 571.087 490.56 571.087 492.562V499.471C571.087 501.066 571.176 502.474 571.355 503.694C571.551 504.915 571.836 505.973 572.21 506.868C572.584 507.747 573.04 508.471 573.577 509.041C574.114 509.611 574.733 510.034 575.433 510.311C576.149 510.571 576.938 510.701 577.801 510.701C578.908 510.701 579.876 510.49 580.706 510.066C581.536 509.643 582.228 508.984 582.781 508.089C583.351 507.177 583.774 506.014 584.051 504.598C584.327 503.165 584.466 501.456 584.466 499.471ZM618.108 510.213V513.924H594.842V510.677L606.487 497.713C607.92 496.118 609.026 494.767 609.808 493.66C610.605 492.537 611.159 491.536 611.468 490.657C611.793 489.762 611.956 488.851 611.956 487.923C611.956 486.751 611.712 485.693 611.224 484.749C610.752 483.789 610.052 483.024 609.124 482.454C608.196 481.884 607.073 481.6 605.755 481.6C604.176 481.6 602.858 481.909 601.8 482.527C600.758 483.13 599.977 483.976 599.456 485.066C598.935 486.157 598.675 487.41 598.675 488.826H594.158C594.158 486.824 594.598 484.993 595.477 483.333C596.355 481.673 597.658 480.354 599.383 479.378C601.108 478.385 603.232 477.889 605.755 477.889C608.001 477.889 609.922 478.287 611.517 479.085C613.112 479.866 614.332 480.973 615.179 482.405C616.041 483.821 616.473 485.481 616.473 487.386C616.473 488.427 616.294 489.485 615.936 490.56C615.594 491.618 615.114 492.675 614.495 493.733C613.893 494.791 613.185 495.833 612.371 496.858C611.574 497.884 610.719 498.893 609.808 499.886L600.286 510.213H618.108ZM646.233 510.213V513.924H622.967V510.677L634.612 497.713C636.045 496.118 637.151 494.767 637.933 493.66C638.73 492.537 639.284 491.536 639.593 490.657C639.918 489.762 640.081 488.851 640.081 487.923C640.081 486.751 639.837 485.693 639.349 484.749C638.877 483.789 638.177 483.024 637.249 482.454C636.321 481.884 635.198 481.6 633.88 481.6C632.301 481.6 630.983 481.909 629.925 482.527C628.883 483.13 628.102 483.976 627.581 485.066C627.06 486.157 626.8 487.41 626.8 488.826H622.283C622.283 486.824 622.723 484.993 623.602 483.333C624.48 481.673 625.783 480.354 627.508 479.378C629.233 478.385 631.357 477.889 633.88 477.889C636.126 477.889 638.047 478.287 639.642 479.085C641.237 479.866 642.457 480.973 643.304 482.405C644.166 483.821 644.598 485.481 644.598 487.386C644.598 488.427 644.419 489.485 644.061 490.56C643.719 491.618 643.239 492.675 642.62 493.733C642.018 494.791 641.31 495.833 640.496 496.858C639.699 497.884 638.844 498.893 637.933 499.886L628.411 510.213H646.233Z" fill="#FD0404"/>
<path d="M215.789 518.807H648.089V521.248H215.789V518.807Z" fill="#FD0404"/>
</g>
<path d="M28 28V26H26V28H28ZM1110 28H1112V26H1110V28ZM1110 638.884V640.884H1112V638.884H1110ZM28 638.884H26V640.884H28V638.884ZM28 30H1110V26H28V30ZM1108 28V638.884H1112V28H1108ZM1110 636.884H28V640.884H1110V636.884ZM30 638.884V28H26V638.884H30Z" fill="black"/>
</g>
<defs>
<filter id="filter0_d_146_3030" x="0" y="0" width="1154" height="682.885" filterUnits="userSpaceOnUse" color-interpolation-filters="sRGB">
<feFlood flood-opacity="0" result="BackgroundImageFix"/>
<feColorMatrix in="SourceAlpha" type="matrix" values="0 0 0 0 0 0 0 0 0 0 0 0 0 0 0 0 0 0 127 0" result="hardAlpha"/>
<feOffset dx="8" dy="8"/>
<feGaussianBlur stdDeviation="17"/>
<feComposite in2="hardAlpha" operator="out"/>
<feColorMatrix type="matrix" values="0 0 0 0 0 0 0 0 0 0 0 0 0 0 0 0 0 0 0.25 0"/>
<feBlend mode="normal" in2="BackgroundImageFix" result="effect1_dropShadow_146_3030"/>
<feBlend mode="normal" in="SourceGraphic" in2="effect1_dropShadow_146_3030" result="shape"/>
</filter>
<clipPath id="clip0_146_3030">
<path d="M28 28H1110V638.884H28V28Z" fill="white"/>
</clipPath>
</defs>
</svg>
