<svg width="1154" height="683" viewBox="0 0 1154 683" fill="none" xmlns="http://www.w3.org/2000/svg">
<g filter="url(#filter0_d_146_3037)">
<g clip-path="url(#clip0_146_3037)">
<path d="M28 28H1110V638.884H28V28Z" fill="#FFF87B"/>
<rect width="1081" height="99" transform="translate(28 27.9414)" fill="#FFF87B"/>
<line x1="914.006" y1="76.4121" x2="953.949" y2="76.4121" stroke="#FD0404" stroke-width="3"/>
<rect x="975.031" y="56.4414" width="42.9428" height="42.9428" stroke="#FD0404" stroke-width="3"/>
<line x1="1038" y1="96.8241" x2="1077.94" y2="56.8813" stroke="#FD0404" stroke-width="3"/>
<line x1="1040.12" y1="56.8807" x2="1080.06" y2="96.8235" stroke="#FD0404" stroke-width="3"/>
<path d="M151.36 162.453H163.128C165.797 162.453 168.051 162.86 169.891 163.674C171.746 164.488 173.154 165.692 174.114 167.287C175.091 168.866 175.579 170.811 175.579 173.122C175.579 174.75 175.245 176.239 174.578 177.59C173.927 178.924 172.983 180.064 171.746 181.008C170.525 181.936 169.061 182.627 167.352 183.083L166.033 183.596H154.974L154.925 179.763H163.274C164.967 179.763 166.375 179.47 167.498 178.884C168.621 178.282 169.467 177.476 170.037 176.467C170.607 175.458 170.892 174.343 170.892 173.122C170.892 171.755 170.623 170.559 170.086 169.533C169.549 168.508 168.702 167.718 167.547 167.165C166.408 166.595 164.935 166.311 163.128 166.311H156.072V198H151.36V162.453ZM172.137 198L163.494 181.887L168.401 181.862L177.166 197.707V198H172.137ZM192.449 198.488C190.61 198.488 188.942 198.179 187.444 197.561C185.963 196.926 184.686 196.039 183.611 194.899C182.553 193.76 181.74 192.409 181.17 190.847C180.6 189.284 180.315 187.575 180.315 185.72V184.694C180.315 182.546 180.633 180.633 181.268 178.957C181.902 177.264 182.765 175.832 183.855 174.66C184.946 173.488 186.183 172.601 187.566 171.999C188.95 171.397 190.382 171.096 191.863 171.096C193.751 171.096 195.379 171.421 196.746 172.072C198.13 172.723 199.261 173.635 200.14 174.807C201.019 175.962 201.67 177.329 202.093 178.908C202.516 180.471 202.728 182.18 202.728 184.035V186.062H183.001V182.375H198.211V182.033C198.146 180.861 197.902 179.722 197.479 178.615C197.072 177.508 196.421 176.597 195.525 175.881C194.63 175.165 193.41 174.807 191.863 174.807C190.838 174.807 189.894 175.026 189.031 175.466C188.169 175.889 187.428 176.524 186.81 177.37C186.191 178.216 185.711 179.25 185.369 180.471C185.027 181.691 184.856 183.099 184.856 184.694V185.72C184.856 186.973 185.027 188.153 185.369 189.26C185.727 190.35 186.24 191.311 186.907 192.141C187.591 192.971 188.413 193.622 189.373 194.094C190.35 194.566 191.456 194.802 192.693 194.802C194.288 194.802 195.639 194.476 196.746 193.825C197.853 193.174 198.821 192.303 199.651 191.213L202.386 193.386C201.816 194.248 201.092 195.07 200.213 195.852C199.334 196.633 198.252 197.268 196.966 197.756C195.696 198.244 194.191 198.488 192.449 198.488ZM212.493 176.833V198H207.952V171.584H212.249L212.493 176.833ZM211.565 183.791L209.466 183.718C209.482 181.911 209.718 180.243 210.174 178.713C210.63 177.167 211.305 175.824 212.2 174.685C213.095 173.545 214.21 172.666 215.545 172.048C216.88 171.413 218.426 171.096 220.184 171.096C221.421 171.096 222.56 171.275 223.602 171.633C224.643 171.975 225.547 172.52 226.312 173.269C227.076 174.017 227.671 174.978 228.094 176.149C228.517 177.321 228.729 178.737 228.729 180.397V198H224.212V180.617C224.212 179.234 223.976 178.127 223.504 177.297C223.048 176.467 222.397 175.865 221.551 175.49C220.704 175.1 219.712 174.904 218.572 174.904C217.238 174.904 216.123 175.14 215.228 175.612C214.332 176.084 213.616 176.735 213.079 177.565C212.542 178.396 212.151 179.348 211.907 180.422C211.679 181.48 211.565 182.603 211.565 183.791ZM228.68 181.301L225.652 182.229C225.669 180.78 225.905 179.388 226.36 178.054C226.832 176.719 227.508 175.531 228.387 174.489C229.282 173.448 230.381 172.626 231.683 172.023C232.985 171.405 234.474 171.096 236.15 171.096C237.566 171.096 238.82 171.283 239.91 171.657C241.017 172.032 241.945 172.609 242.693 173.391C243.458 174.156 244.036 175.14 244.427 176.345C244.817 177.549 245.013 178.981 245.013 180.642V198H240.472V180.593C240.472 179.112 240.236 177.964 239.764 177.15C239.308 176.32 238.657 175.743 237.811 175.417C236.98 175.075 235.988 174.904 234.832 174.904C233.839 174.904 232.96 175.075 232.195 175.417C231.43 175.759 230.787 176.231 230.267 176.833C229.746 177.419 229.347 178.094 229.07 178.859C228.81 179.624 228.68 180.438 228.68 181.301ZM256.756 171.584V198H252.215V171.584H256.756ZM251.873 164.577C251.873 163.845 252.093 163.226 252.532 162.722C252.988 162.217 253.655 161.965 254.534 161.965C255.397 161.965 256.056 162.217 256.512 162.722C256.984 163.226 257.22 163.845 257.22 164.577C257.22 165.277 256.984 165.879 256.512 166.384C256.056 166.872 255.397 167.116 254.534 167.116C253.655 167.116 252.988 166.872 252.532 166.384C252.093 165.879 251.873 165.277 251.873 164.577ZM268.523 177.224V198H264.007V171.584H268.279L268.523 177.224ZM267.449 183.791L265.569 183.718C265.586 181.911 265.854 180.243 266.375 178.713C266.896 177.167 267.628 175.824 268.572 174.685C269.516 173.545 270.639 172.666 271.941 172.048C273.26 171.413 274.716 171.096 276.312 171.096C277.614 171.096 278.785 171.275 279.827 171.633C280.869 171.975 281.756 172.528 282.488 173.293C283.237 174.058 283.807 175.051 284.197 176.271C284.588 177.476 284.783 178.949 284.783 180.69V198H280.242V180.642C280.242 179.258 280.039 178.151 279.632 177.321C279.225 176.475 278.631 175.865 277.85 175.49C277.068 175.1 276.108 174.904 274.969 174.904C273.846 174.904 272.82 175.14 271.893 175.612C270.981 176.084 270.192 176.735 269.524 177.565C268.873 178.396 268.361 179.348 267.986 180.422C267.628 181.48 267.449 182.603 267.449 183.791ZM308.294 192.873V160.5H312.835V198H308.685L308.294 192.873ZM290.521 185.085V184.572C290.521 182.554 290.765 180.723 291.253 179.079C291.757 177.419 292.465 175.995 293.377 174.807C294.305 173.618 295.403 172.707 296.673 172.072C297.959 171.421 299.391 171.096 300.97 171.096C302.63 171.096 304.078 171.389 305.315 171.975C306.569 172.544 307.627 173.382 308.489 174.489C309.368 175.58 310.06 176.898 310.564 178.444C311.069 179.991 311.419 181.74 311.614 183.693V185.939C311.435 187.876 311.085 189.618 310.564 191.164C310.06 192.71 309.368 194.029 308.489 195.119C307.627 196.21 306.569 197.048 305.315 197.634C304.062 198.203 302.597 198.488 300.921 198.488C299.375 198.488 297.959 198.155 296.673 197.487C295.403 196.82 294.305 195.884 293.377 194.68C292.465 193.475 291.757 192.059 291.253 190.432C290.765 188.788 290.521 187.006 290.521 185.085ZM295.062 184.572V185.085C295.062 186.403 295.192 187.64 295.452 188.796C295.729 189.951 296.152 190.969 296.722 191.848C297.291 192.727 298.016 193.418 298.895 193.923C299.773 194.411 300.823 194.655 302.044 194.655C303.541 194.655 304.77 194.338 305.73 193.703C306.707 193.068 307.488 192.23 308.074 191.188C308.66 190.147 309.116 189.016 309.441 187.795V181.911C309.246 181.016 308.961 180.153 308.587 179.323C308.229 178.477 307.757 177.728 307.171 177.077C306.601 176.41 305.893 175.881 305.047 175.49C304.217 175.1 303.232 174.904 302.093 174.904C300.856 174.904 299.79 175.165 298.895 175.686C298.016 176.19 297.291 176.89 296.722 177.785C296.152 178.664 295.729 179.689 295.452 180.861C295.192 182.017 295.062 183.254 295.062 184.572ZM330.828 198.488C328.989 198.488 327.321 198.179 325.823 197.561C324.342 196.926 323.064 196.039 321.99 194.899C320.932 193.76 320.118 192.409 319.549 190.847C318.979 189.284 318.694 187.575 318.694 185.72V184.694C318.694 182.546 319.012 180.633 319.646 178.957C320.281 177.264 321.144 175.832 322.234 174.66C323.325 173.488 324.562 172.601 325.945 171.999C327.329 171.397 328.761 171.096 330.242 171.096C332.13 171.096 333.758 171.421 335.125 172.072C336.508 172.723 337.64 173.635 338.519 174.807C339.397 175.962 340.049 177.329 340.472 178.908C340.895 180.471 341.106 182.18 341.106 184.035V186.062H321.38V182.375H336.59V182.033C336.525 180.861 336.281 179.722 335.857 178.615C335.451 177.508 334.799 176.597 333.904 175.881C333.009 175.165 331.788 174.807 330.242 174.807C329.217 174.807 328.273 175.026 327.41 175.466C326.548 175.889 325.807 176.524 325.188 177.37C324.57 178.216 324.09 179.25 323.748 180.471C323.406 181.691 323.235 183.099 323.235 184.694V185.72C323.235 186.973 323.406 188.153 323.748 189.26C324.106 190.35 324.619 191.311 325.286 192.141C325.97 192.971 326.792 193.622 327.752 194.094C328.729 194.566 329.835 194.802 331.072 194.802C332.667 194.802 334.018 194.476 335.125 193.825C336.232 193.174 337.2 192.303 338.03 191.213L340.765 193.386C340.195 194.248 339.471 195.07 338.592 195.852C337.713 196.633 336.631 197.268 335.345 197.756C334.075 198.244 332.57 198.488 330.828 198.488ZM350.896 175.734V198H346.38V171.584H350.774L350.896 175.734ZM359.148 171.438L359.124 175.637C358.75 175.555 358.392 175.507 358.05 175.49C357.724 175.458 357.35 175.441 356.927 175.441C355.885 175.441 354.965 175.604 354.168 175.93C353.37 176.255 352.695 176.711 352.142 177.297C351.588 177.883 351.149 178.583 350.823 179.396C350.514 180.194 350.311 181.073 350.213 182.033L348.943 182.766C348.943 181.171 349.098 179.673 349.407 178.273C349.733 176.874 350.229 175.637 350.896 174.562C351.564 173.472 352.41 172.626 353.436 172.023C354.477 171.405 355.714 171.096 357.146 171.096C357.472 171.096 357.846 171.136 358.27 171.218C358.693 171.283 358.986 171.356 359.148 171.438Z" fill="#FD0404"/>
<path d="M162.581 283.195V332.961H152.361V283.195H162.581ZM211.629 306.95V326.672C210.854 327.606 209.658 328.62 208.04 329.714C206.422 330.785 204.337 331.708 201.785 332.482C199.233 333.257 196.146 333.645 192.522 333.645C189.31 333.645 186.382 333.12 183.738 332.072C181.095 331.001 178.816 329.44 176.902 327.39C175.011 325.339 173.553 322.832 172.527 319.87C171.502 316.885 170.989 313.479 170.989 309.65V306.54C170.989 302.712 171.479 299.305 172.459 296.32C173.462 293.335 174.886 290.817 176.731 288.767C178.577 286.716 180.776 285.155 183.328 284.084C185.88 283.013 188.717 282.478 191.839 282.478C196.168 282.478 199.723 283.184 202.503 284.597C205.283 285.987 207.402 287.924 208.86 290.407C210.341 292.868 211.253 295.694 211.595 298.884H201.648C201.398 297.198 200.919 295.728 200.213 294.475C199.507 293.221 198.493 292.242 197.171 291.535C195.872 290.829 194.186 290.476 192.112 290.476C190.403 290.476 188.877 290.829 187.532 291.535C186.211 292.219 185.094 293.233 184.183 294.577C183.271 295.922 182.576 297.585 182.098 299.567C181.619 301.55 181.38 303.851 181.38 306.472V309.65C181.38 312.248 181.631 314.549 182.132 316.555C182.633 318.537 183.374 320.212 184.354 321.579C185.356 322.924 186.587 323.938 188.045 324.621C189.503 325.305 191.201 325.646 193.138 325.646C194.756 325.646 196.1 325.51 197.171 325.236C198.265 324.963 199.142 324.632 199.803 324.245C200.486 323.835 201.01 323.448 201.375 323.083V314.265H192.01V306.95H211.629ZM247.586 283.195V332.961H237.332V283.195H247.586ZM267.41 304.455V312.453H244.783V304.455H267.41ZM269.803 283.195V291.228H244.783V283.195H269.803ZM284.09 304.045V332.961H274.246V295.979H283.509L284.09 304.045ZM295.232 295.739L295.062 304.865C294.583 304.797 294.002 304.74 293.318 304.694C292.658 304.626 292.054 304.592 291.507 304.592C290.117 304.592 288.909 304.774 287.884 305.139C286.881 305.48 286.038 305.993 285.354 306.677C284.694 307.36 284.192 308.192 283.851 309.172C283.532 310.152 283.349 311.268 283.304 312.521L281.321 311.906C281.321 309.514 281.561 307.315 282.039 305.31C282.518 303.282 283.213 301.516 284.124 300.012C285.058 298.508 286.198 297.346 287.542 296.525C288.886 295.705 290.424 295.295 292.156 295.295C292.703 295.295 293.261 295.34 293.831 295.432C294.401 295.5 294.868 295.603 295.232 295.739ZM310.271 295.979V332.961H300.394V295.979H310.271ZM299.778 286.34C299.778 284.904 300.28 283.719 301.282 282.785C302.285 281.851 303.629 281.384 305.315 281.384C306.979 281.384 308.312 281.851 309.314 282.785C310.34 283.719 310.853 284.904 310.853 286.34C310.853 287.775 310.34 288.96 309.314 289.895C308.312 290.829 306.979 291.296 305.315 291.296C303.629 291.296 302.285 290.829 301.282 289.895C300.28 288.96 299.778 287.775 299.778 286.34ZM340.247 324.895V280.461H350.159V332.961H341.238L340.247 324.895ZM316.868 314.914V314.196C316.868 311.371 317.187 308.807 317.825 306.506C318.463 304.182 319.397 302.188 320.628 300.524C321.858 298.861 323.374 297.574 325.174 296.662C326.974 295.751 329.025 295.295 331.326 295.295C333.491 295.295 335.382 295.751 337 296.662C338.641 297.574 340.031 298.872 341.17 300.559C342.332 302.222 343.266 304.193 343.973 306.472C344.679 308.728 345.192 311.2 345.511 313.889V315.461C345.192 318.036 344.679 320.428 343.973 322.639C343.266 324.849 342.332 326.786 341.17 328.449C340.031 330.09 338.641 331.366 337 332.277C335.359 333.189 333.445 333.645 331.258 333.645C328.956 333.645 326.906 333.177 325.105 332.243C323.328 331.309 321.824 329.999 320.594 328.312C319.386 326.626 318.463 324.644 317.825 322.365C317.187 320.087 316.868 317.603 316.868 314.914ZM326.712 314.196V314.914C326.712 316.441 326.826 317.865 327.054 319.187C327.304 320.508 327.703 321.682 328.25 322.707C328.82 323.71 329.549 324.496 330.438 325.065C331.349 325.612 332.454 325.886 333.753 325.886C335.439 325.886 336.829 325.51 337.923 324.758C339.017 323.983 339.848 322.924 340.418 321.579C341.01 320.235 341.352 318.685 341.443 316.931V312.453C341.375 311.018 341.17 309.73 340.828 308.591C340.509 307.429 340.031 306.438 339.393 305.617C338.777 304.797 338.003 304.159 337.068 303.703C336.157 303.247 335.075 303.02 333.821 303.02C332.545 303.02 331.451 303.316 330.54 303.908C329.629 304.478 328.888 305.264 328.318 306.267C327.771 307.269 327.361 308.454 327.088 309.821C326.837 311.166 326.712 312.624 326.712 314.196ZM377.811 324.621V308.146C377.811 306.962 377.617 305.948 377.229 305.104C376.842 304.239 376.238 303.566 375.418 303.088C374.62 302.609 373.584 302.37 372.308 302.37C371.214 302.37 370.268 302.564 369.471 302.951C368.673 303.316 368.058 303.851 367.625 304.558C367.192 305.241 366.976 306.05 366.976 306.984H357.132C357.132 305.412 357.496 303.92 358.226 302.507C358.955 301.094 360.014 299.852 361.404 298.781C362.794 297.688 364.446 296.833 366.36 296.218C368.297 295.603 370.462 295.295 372.854 295.295C375.726 295.295 378.278 295.773 380.511 296.73C382.744 297.688 384.498 299.123 385.774 301.037C387.073 302.951 387.723 305.344 387.723 308.215V324.04C387.723 326.068 387.848 327.731 388.099 329.03C388.349 330.306 388.714 331.423 389.192 332.38V332.961H379.246C378.768 331.958 378.403 330.705 378.152 329.201C377.924 327.674 377.811 326.148 377.811 324.621ZM379.109 310.437L379.178 316.008H373.675C372.376 316.008 371.248 316.156 370.291 316.452C369.334 316.748 368.548 317.17 367.933 317.717C367.317 318.241 366.862 318.856 366.565 319.562C366.292 320.269 366.155 321.044 366.155 321.887C366.155 322.73 366.349 323.493 366.736 324.177C367.124 324.838 367.682 325.362 368.411 325.749C369.14 326.114 369.995 326.296 370.975 326.296C372.456 326.296 373.743 326 374.837 325.407C375.931 324.815 376.774 324.086 377.366 323.22C377.981 322.354 378.3 321.534 378.323 320.759L380.921 324.929C380.556 325.863 380.055 326.831 379.417 327.834C378.802 328.837 378.016 329.782 377.059 330.671C376.102 331.537 374.951 332.255 373.606 332.824C372.262 333.371 370.667 333.645 368.821 333.645C366.474 333.645 364.344 333.177 362.43 332.243C360.538 331.286 359.035 329.976 357.918 328.312C356.824 326.626 356.277 324.712 356.277 322.57C356.277 320.633 356.642 318.913 357.371 317.409C358.1 315.905 359.171 314.641 360.584 313.615C362.02 312.567 363.808 311.781 365.95 311.257C368.092 310.71 370.576 310.437 373.401 310.437H379.109ZM405.735 328.791L415.545 295.979H426.106L411.238 338.532C410.919 339.466 410.486 340.469 409.939 341.54C409.415 342.611 408.698 343.625 407.786 344.582C406.897 345.562 405.77 346.359 404.402 346.975C403.058 347.59 401.406 347.897 399.446 347.897C398.512 347.897 397.749 347.84 397.156 347.727C396.564 347.613 395.857 347.453 395.037 347.248V340.036C395.288 340.036 395.55 340.036 395.823 340.036C396.097 340.059 396.359 340.07 396.609 340.07C397.908 340.07 398.968 339.922 399.788 339.626C400.608 339.33 401.269 338.874 401.771 338.259C402.272 337.666 402.671 336.892 402.967 335.935L405.735 328.791ZM401.634 295.979L409.666 322.775L411.067 333.2L404.368 333.918L391.072 295.979H401.634ZM467.464 315.222H454.783V307.224H467.464C469.424 307.224 471.019 306.905 472.249 306.267C473.479 305.606 474.38 304.694 474.949 303.532C475.519 302.37 475.804 301.06 475.804 299.602C475.804 298.12 475.519 296.742 474.949 295.466C474.38 294.19 473.479 293.164 472.249 292.39C471.019 291.615 469.424 291.228 467.464 291.228H458.338V332.961H448.084V283.195H467.464C471.36 283.195 474.699 283.902 477.479 285.314C480.281 286.704 482.423 288.63 483.904 291.091C485.385 293.552 486.126 296.366 486.126 299.533C486.126 302.746 485.385 305.526 483.904 307.873C482.423 310.22 480.281 312.032 477.479 313.308C474.699 314.584 471.36 315.222 467.464 315.222ZM490.535 314.846V314.128C490.535 311.416 490.923 308.921 491.697 306.643C492.472 304.341 493.6 302.347 495.081 300.661C496.562 298.975 498.385 297.665 500.55 296.73C502.715 295.773 505.198 295.295 508.001 295.295C510.804 295.295 513.299 295.773 515.486 296.73C517.674 297.665 519.508 298.975 520.989 300.661C522.493 302.347 523.632 304.341 524.407 306.643C525.182 308.921 525.569 311.416 525.569 314.128V314.846C525.569 317.535 525.182 320.03 524.407 322.331C523.632 324.61 522.493 326.604 520.989 328.312C519.508 329.999 517.685 331.309 515.521 332.243C513.356 333.177 510.872 333.645 508.069 333.645C505.267 333.645 502.771 333.177 500.584 332.243C498.419 331.309 496.585 329.999 495.081 328.312C493.6 326.604 492.472 324.61 491.697 322.331C490.923 320.03 490.535 317.535 490.535 314.846ZM500.379 314.128V314.846C500.379 316.395 500.516 317.842 500.789 319.187C501.062 320.531 501.495 321.716 502.088 322.741C502.703 323.744 503.501 324.53 504.48 325.1C505.46 325.669 506.657 325.954 508.069 325.954C509.437 325.954 510.61 325.669 511.59 325.1C512.57 324.53 513.356 323.744 513.948 322.741C514.541 321.716 514.974 320.531 515.247 319.187C515.543 317.842 515.691 316.395 515.691 314.846V314.128C515.691 312.624 515.543 311.211 515.247 309.89C514.974 308.545 514.529 307.36 513.914 306.335C513.322 305.287 512.535 304.466 511.556 303.874C510.576 303.282 509.391 302.985 508.001 302.985C506.611 302.985 505.426 303.282 504.446 303.874C503.489 304.466 502.703 305.287 502.088 306.335C501.495 307.36 501.062 308.545 500.789 309.89C500.516 311.211 500.379 312.624 500.379 314.128ZM551.614 322.741C551.614 322.035 551.409 321.397 550.999 320.827C550.589 320.257 549.826 319.733 548.709 319.255C547.615 318.754 546.032 318.298 543.958 317.888C542.09 317.478 540.346 316.965 538.729 316.35C537.133 315.712 535.743 314.948 534.559 314.06C533.396 313.171 532.485 312.123 531.824 310.915C531.163 309.685 530.833 308.283 530.833 306.711C530.833 305.161 531.163 303.703 531.824 302.336C532.508 300.969 533.476 299.761 534.729 298.713C536.006 297.642 537.555 296.81 539.378 296.218C541.224 295.603 543.297 295.295 545.599 295.295C548.812 295.295 551.569 295.808 553.87 296.833C556.194 297.858 557.972 299.271 559.202 301.071C560.455 302.849 561.082 304.877 561.082 307.155H551.238C551.238 306.198 551.033 305.344 550.623 304.592C550.236 303.817 549.62 303.213 548.777 302.78C547.957 302.325 546.886 302.097 545.564 302.097C544.471 302.097 543.525 302.29 542.728 302.678C541.93 303.042 541.315 303.544 540.882 304.182C540.472 304.797 540.267 305.48 540.267 306.232C540.267 306.802 540.381 307.315 540.608 307.771C540.859 308.203 541.258 308.602 541.805 308.967C542.352 309.331 543.058 309.673 543.924 309.992C544.812 310.288 545.906 310.562 547.205 310.812C549.871 311.359 552.252 312.077 554.349 312.966C556.445 313.832 558.108 315.017 559.339 316.521C560.569 318.002 561.185 319.95 561.185 322.365C561.185 324.006 560.82 325.51 560.091 326.877C559.362 328.244 558.313 329.44 556.946 330.466C555.579 331.468 553.938 332.255 552.024 332.824C550.133 333.371 548.003 333.645 545.633 333.645C542.192 333.645 539.275 333.029 536.883 331.799C534.513 330.568 532.713 329.007 531.482 327.116C530.275 325.202 529.671 323.243 529.671 321.237H539.002C539.048 322.582 539.389 323.664 540.027 324.484C540.688 325.305 541.52 325.897 542.522 326.262C543.548 326.626 544.653 326.809 545.838 326.809C547.114 326.809 548.174 326.638 549.017 326.296C549.86 325.931 550.498 325.453 550.931 324.86C551.386 324.245 551.614 323.539 551.614 322.741ZM585.691 295.979V302.951H564.158V295.979H585.691ZM569.49 286.853H579.334V321.818C579.334 322.889 579.471 323.71 579.744 324.279C580.04 324.849 580.473 325.248 581.043 325.476C581.613 325.681 582.33 325.783 583.196 325.783C583.812 325.783 584.358 325.76 584.837 325.715C585.338 325.646 585.76 325.578 586.102 325.51L586.136 332.756C585.293 333.029 584.381 333.246 583.401 333.405C582.422 333.565 581.339 333.645 580.154 333.645C577.99 333.645 576.098 333.291 574.48 332.585C572.885 331.856 571.655 330.694 570.789 329.099C569.923 327.504 569.49 325.407 569.49 322.81V286.853ZM624.622 332.961H613.787L613.855 324.963H624.622C627.311 324.963 629.578 324.359 631.424 323.151C633.27 321.921 634.66 320.132 635.594 317.785C636.551 315.438 637.029 312.601 637.029 309.274V306.848C637.029 304.296 636.756 302.051 636.209 300.114C635.685 298.177 634.899 296.548 633.851 295.227C632.802 293.905 631.515 292.914 629.988 292.253C628.462 291.569 626.707 291.228 624.725 291.228H613.582V283.195H624.725C628.051 283.195 631.093 283.765 633.851 284.904C636.631 286.021 639.035 287.627 641.062 289.724C643.09 291.82 644.651 294.326 645.745 297.243C646.862 300.137 647.42 303.361 647.42 306.916V309.274C647.42 312.806 646.862 316.031 645.745 318.947C644.651 321.864 643.09 324.37 641.062 326.467C639.057 328.54 636.653 330.147 633.851 331.286C631.071 332.403 627.994 332.961 624.622 332.961ZM619.598 283.195V332.961H609.344V283.195H619.598ZM671.277 333.645C668.406 333.645 665.831 333.189 663.553 332.277C661.274 331.343 659.337 330.056 657.742 328.415C656.17 326.774 654.962 324.872 654.119 322.707C653.276 320.52 652.854 318.195 652.854 315.734V314.367C652.854 311.564 653.253 309.001 654.051 306.677C654.848 304.353 655.988 302.336 657.469 300.627C658.973 298.918 660.796 297.608 662.938 296.696C665.079 295.762 667.495 295.295 670.184 295.295C672.804 295.295 675.128 295.728 677.156 296.594C679.184 297.46 680.882 298.69 682.249 300.285C683.639 301.88 684.687 303.794 685.394 306.027C686.1 308.238 686.453 310.699 686.453 313.41V317.512H657.059V310.949H676.78V310.197C676.78 308.83 676.53 307.611 676.028 306.54C675.55 305.446 674.821 304.58 673.841 303.942C672.861 303.304 671.608 302.985 670.081 302.985C668.782 302.985 667.666 303.27 666.731 303.84C665.797 304.41 665.034 305.207 664.441 306.232C663.872 307.258 663.439 308.465 663.143 309.855C662.869 311.223 662.732 312.727 662.732 314.367V315.734C662.732 317.215 662.938 318.583 663.348 319.836C663.781 321.089 664.384 322.172 665.159 323.083C665.957 323.994 666.914 324.701 668.03 325.202C669.17 325.703 670.457 325.954 671.893 325.954C673.67 325.954 675.322 325.612 676.849 324.929C678.398 324.222 679.731 323.163 680.848 321.75L685.633 326.945C684.858 328.062 683.799 329.133 682.454 330.158C681.132 331.184 679.537 332.027 677.669 332.688C675.8 333.326 673.67 333.645 671.277 333.645ZM712.054 322.741C712.054 322.035 711.849 321.397 711.438 320.827C711.028 320.257 710.265 319.733 709.148 319.255C708.055 318.754 706.471 318.298 704.397 317.888C702.529 317.478 700.786 316.965 699.168 316.35C697.573 315.712 696.183 314.948 694.998 314.06C693.836 313.171 692.924 312.123 692.264 310.915C691.603 309.685 691.272 308.283 691.272 306.711C691.272 305.161 691.603 303.703 692.264 302.336C692.947 300.969 693.916 299.761 695.169 298.713C696.445 297.642 697.994 296.81 699.817 296.218C701.663 295.603 703.737 295.295 706.038 295.295C709.251 295.295 712.008 295.808 714.31 296.833C716.634 297.858 718.411 299.271 719.642 301.071C720.895 302.849 721.521 304.877 721.521 307.155H711.678C711.678 306.198 711.473 305.344 711.062 304.592C710.675 303.817 710.06 303.213 709.217 302.78C708.396 302.325 707.326 302.097 706.004 302.097C704.91 302.097 703.965 302.29 703.167 302.678C702.369 303.042 701.754 303.544 701.321 304.182C700.911 304.797 700.706 305.48 700.706 306.232C700.706 306.802 700.82 307.315 701.048 307.771C701.299 308.203 701.697 308.602 702.244 308.967C702.791 309.331 703.497 309.673 704.363 309.992C705.252 310.288 706.346 310.562 707.645 310.812C710.311 311.359 712.692 312.077 714.788 312.966C716.884 313.832 718.548 315.017 719.778 316.521C721.009 318.002 721.624 319.95 721.624 322.365C721.624 324.006 721.259 325.51 720.53 326.877C719.801 328.244 718.753 329.44 717.386 330.466C716.019 331.468 714.378 332.255 712.464 332.824C710.573 333.371 708.442 333.645 706.072 333.645C702.632 333.645 699.715 333.029 697.322 331.799C694.952 330.568 693.152 329.007 691.922 327.116C690.714 325.202 690.11 323.243 690.11 321.237H699.441C699.487 322.582 699.829 323.664 700.467 324.484C701.128 325.305 701.959 325.897 702.962 326.262C703.987 326.626 705.092 326.809 706.277 326.809C707.553 326.809 708.613 326.638 709.456 326.296C710.299 325.931 710.937 325.453 711.37 324.86C711.826 324.245 712.054 323.539 712.054 322.741ZM738.406 295.979V332.961H728.528V295.979H738.406ZM727.913 286.34C727.913 284.904 728.414 283.719 729.417 282.785C730.42 281.851 731.764 281.384 733.45 281.384C735.114 281.384 736.447 281.851 737.449 282.785C738.475 283.719 738.987 284.904 738.987 286.34C738.987 287.775 738.475 288.96 737.449 289.895C736.447 290.829 735.114 291.296 733.45 291.296C731.764 291.296 730.42 290.829 729.417 289.895C728.414 288.96 727.913 287.775 727.913 286.34ZM769.954 295.979H778.875V331.73C778.875 335.103 778.123 337.963 776.619 340.31C775.138 342.679 773.064 344.468 770.398 345.676C767.732 346.906 764.633 347.521 761.102 347.521C759.552 347.521 757.911 347.316 756.18 346.906C754.471 346.496 752.83 345.858 751.258 344.992C749.708 344.126 748.41 343.033 747.361 341.711L751.702 335.9C752.841 337.222 754.163 338.247 755.667 338.977C757.171 339.729 758.834 340.104 760.657 340.104C762.435 340.104 763.938 339.774 765.169 339.113C766.399 338.475 767.345 337.53 768.006 336.276C768.667 335.046 768.997 333.553 768.997 331.799V304.523L769.954 295.979ZM745.071 314.914V314.196C745.071 311.371 745.413 308.807 746.097 306.506C746.803 304.182 747.794 302.188 749.07 300.524C750.369 298.861 751.941 297.574 753.787 296.662C755.633 295.751 757.718 295.295 760.042 295.295C762.503 295.295 764.565 295.751 766.229 296.662C767.892 297.574 769.259 298.872 770.33 300.559C771.401 302.222 772.233 304.193 772.825 306.472C773.44 308.728 773.919 311.2 774.261 313.889V315.461C773.919 318.036 773.406 320.428 772.723 322.639C772.039 324.849 771.139 326.786 770.022 328.449C768.906 330.09 767.516 331.366 765.853 332.277C764.212 333.189 762.252 333.645 759.974 333.645C757.695 333.645 755.633 333.177 753.787 332.243C751.964 331.309 750.403 329.999 749.104 328.312C747.806 326.626 746.803 324.644 746.097 322.365C745.413 320.087 745.071 317.603 745.071 314.914ZM754.915 314.196V314.914C754.915 316.441 755.063 317.865 755.359 319.187C755.656 320.508 756.111 321.682 756.727 322.707C757.365 323.71 758.151 324.496 759.085 325.065C760.042 325.612 761.17 325.886 762.469 325.886C764.269 325.886 765.739 325.51 766.878 324.758C768.017 323.983 768.872 322.924 769.441 321.579C770.011 320.235 770.341 318.685 770.433 316.931V312.453C770.387 311.018 770.193 309.73 769.852 308.591C769.51 307.429 769.031 306.438 768.416 305.617C767.801 304.797 767.003 304.159 766.023 303.703C765.044 303.247 763.882 303.02 762.537 303.02C761.238 303.02 760.11 303.316 759.153 303.908C758.219 304.478 757.433 305.264 756.795 306.267C756.18 307.269 755.713 308.454 755.394 309.821C755.075 311.166 754.915 312.624 754.915 314.196ZM796.17 303.874V332.961H786.326V295.979H795.555L796.17 303.874ZM794.734 313.171H792.068C792.068 310.437 792.422 307.976 793.128 305.788C793.834 303.578 794.826 301.698 796.102 300.148C797.378 298.576 798.893 297.38 800.647 296.56C802.425 295.716 804.407 295.295 806.595 295.295C808.326 295.295 809.91 295.546 811.346 296.047C812.781 296.548 814.012 297.346 815.037 298.439C816.085 299.533 816.883 300.98 817.43 302.78C817.999 304.58 818.284 306.779 818.284 309.377V332.961H808.372V309.343C808.372 307.702 808.144 306.426 807.688 305.515C807.233 304.603 806.561 303.965 805.672 303.601C804.806 303.213 803.735 303.02 802.459 303.02C801.137 303.02 799.987 303.282 799.007 303.806C798.05 304.33 797.252 305.059 796.614 305.993C795.999 306.905 795.532 307.976 795.213 309.206C794.894 310.437 794.734 311.758 794.734 313.171Z" fill="#FD0404"/>
<path d="M149.48 501.009V500.447C149.48 498.543 149.757 496.777 150.311 495.149C150.864 493.506 151.661 492.081 152.703 490.877C153.745 489.656 155.006 488.712 156.487 488.045C157.968 487.361 159.629 487.02 161.468 487.02C163.323 487.02 164.992 487.361 166.473 488.045C167.97 488.712 169.24 489.656 170.281 490.877C171.339 492.081 172.145 493.506 172.698 495.149C173.252 496.777 173.528 498.543 173.528 500.447V501.009C173.528 502.913 173.252 504.679 172.698 506.307C172.145 507.934 171.339 509.358 170.281 510.579C169.24 511.784 167.978 512.728 166.497 513.411C165.032 514.078 163.372 514.412 161.517 514.412C159.661 514.412 157.993 514.078 156.512 513.411C155.031 512.728 153.761 511.784 152.703 510.579C151.661 509.358 150.864 507.934 150.311 506.307C149.757 504.679 149.48 502.913 149.48 501.009ZM153.997 500.447V501.009C153.997 502.327 154.152 503.572 154.461 504.744C154.77 505.9 155.234 506.925 155.853 507.82C156.487 508.715 157.277 509.424 158.221 509.944C159.165 510.449 160.263 510.701 161.517 510.701C162.754 510.701 163.836 510.449 164.764 509.944C165.708 509.424 166.489 508.715 167.107 507.82C167.726 506.925 168.19 505.9 168.499 504.744C168.825 503.572 168.987 502.327 168.987 501.009V500.447C168.987 499.145 168.825 497.916 168.499 496.761C168.19 495.589 167.718 494.555 167.083 493.66C166.465 492.749 165.683 492.033 164.739 491.512C163.812 490.991 162.721 490.73 161.468 490.73C160.231 490.73 159.14 490.991 158.196 491.512C157.269 492.033 156.487 492.749 155.853 493.66C155.234 494.555 154.77 495.589 154.461 496.761C154.152 497.916 153.997 499.145 153.997 500.447ZM183.709 493.147V513.924H179.192V487.508H183.465L183.709 493.147ZM182.635 499.715L180.755 499.642C180.771 497.835 181.04 496.167 181.561 494.637C182.081 493.09 182.814 491.748 183.758 490.608C184.702 489.469 185.825 488.59 187.127 487.972C188.445 487.337 189.902 487.02 191.497 487.02C192.799 487.02 193.971 487.199 195.013 487.557C196.054 487.898 196.941 488.452 197.674 489.217C198.423 489.982 198.992 490.975 199.383 492.195C199.773 493.4 199.969 494.873 199.969 496.614V513.924H195.428V496.565C195.428 495.182 195.224 494.075 194.817 493.245C194.41 492.399 193.816 491.788 193.035 491.414C192.254 491.023 191.294 490.828 190.154 490.828C189.031 490.828 188.006 491.064 187.078 491.536C186.167 492.008 185.377 492.659 184.71 493.489C184.059 494.319 183.546 495.271 183.172 496.346C182.814 497.404 182.635 498.527 182.635 499.715ZM224.627 478.377V513.924H219.915V478.377H224.627ZM239.52 494.368V498.226H223.602V494.368H239.52ZM241.937 478.377V482.234H223.602V478.377H241.937ZM250.75 491.658V513.924H246.233V487.508H250.628L250.75 491.658ZM259.002 487.361L258.978 491.561C258.603 491.479 258.245 491.43 257.903 491.414C257.578 491.382 257.203 491.365 256.78 491.365C255.739 491.365 254.819 491.528 254.021 491.854C253.224 492.179 252.549 492.635 251.995 493.221C251.442 493.807 251.002 494.507 250.677 495.32C250.368 496.118 250.164 496.997 250.066 497.957L248.797 498.689C248.797 497.094 248.951 495.597 249.261 494.197C249.586 492.798 250.083 491.561 250.75 490.486C251.417 489.396 252.264 488.549 253.289 487.947C254.331 487.329 255.568 487.02 257 487.02C257.326 487.02 257.7 487.06 258.123 487.142C258.546 487.207 258.839 487.28 259.002 487.361ZM268.084 487.508V513.924H263.543V487.508H268.084ZM263.201 480.501C263.201 479.769 263.421 479.15 263.86 478.646C264.316 478.141 264.983 477.889 265.862 477.889C266.725 477.889 267.384 478.141 267.84 478.646C268.312 479.15 268.548 479.769 268.548 480.501C268.548 481.201 268.312 481.803 267.84 482.308C267.384 482.796 266.725 483.04 265.862 483.04C264.983 483.04 264.316 482.796 263.86 482.308C263.421 481.803 263.201 481.201 263.201 480.501ZM291.985 508.797V476.424H296.526V513.924H292.376L291.985 508.797ZM274.212 501.009V500.496C274.212 498.478 274.456 496.647 274.944 495.003C275.449 493.343 276.157 491.919 277.068 490.73C277.996 489.542 279.095 488.631 280.364 487.996C281.65 487.345 283.082 487.02 284.661 487.02C286.321 487.02 287.77 487.312 289.007 487.898C290.26 488.468 291.318 489.306 292.181 490.413C293.06 491.504 293.751 492.822 294.256 494.368C294.76 495.914 295.11 497.664 295.306 499.617V501.863C295.127 503.8 294.777 505.542 294.256 507.088C293.751 508.634 293.06 509.952 292.181 511.043C291.318 512.133 290.26 512.972 289.007 513.558C287.754 514.127 286.289 514.412 284.612 514.412C283.066 514.412 281.65 514.078 280.364 513.411C279.095 512.744 277.996 511.808 277.068 510.604C276.157 509.399 275.449 507.983 274.944 506.355C274.456 504.712 274.212 502.929 274.212 501.009ZM278.753 500.496V501.009C278.753 502.327 278.883 503.564 279.144 504.72C279.42 505.875 279.843 506.893 280.413 507.771C280.983 508.65 281.707 509.342 282.586 509.847C283.465 510.335 284.515 510.579 285.735 510.579C287.233 510.579 288.462 510.262 289.422 509.627C290.398 508.992 291.18 508.154 291.766 507.112C292.352 506.071 292.807 504.939 293.133 503.719V497.835C292.938 496.94 292.653 496.077 292.278 495.247C291.92 494.401 291.448 493.652 290.862 493.001C290.293 492.334 289.585 491.805 288.738 491.414C287.908 491.023 286.924 490.828 285.784 490.828C284.547 490.828 283.481 491.089 282.586 491.609C281.707 492.114 280.983 492.814 280.413 493.709C279.843 494.588 279.42 495.613 279.144 496.785C278.883 497.941 278.753 499.178 278.753 500.496ZM319.134 509.407V495.809C319.134 494.767 318.922 493.864 318.499 493.099C318.092 492.317 317.474 491.715 316.644 491.292C315.813 490.869 314.788 490.657 313.567 490.657C312.428 490.657 311.427 490.853 310.564 491.243C309.718 491.634 309.051 492.146 308.562 492.781C308.09 493.416 307.854 494.1 307.854 494.832H303.338C303.338 493.888 303.582 492.952 304.07 492.024C304.559 491.097 305.258 490.258 306.17 489.51C307.098 488.745 308.204 488.143 309.49 487.703C310.792 487.247 312.241 487.02 313.836 487.02C315.757 487.02 317.449 487.345 318.914 487.996C320.395 488.647 321.551 489.632 322.381 490.95C323.227 492.252 323.65 493.888 323.65 495.857V508.162C323.65 509.041 323.724 509.977 323.87 510.97C324.033 511.963 324.269 512.817 324.578 513.533V513.924H319.866C319.638 513.403 319.459 512.711 319.329 511.849C319.199 510.97 319.134 510.156 319.134 509.407ZM319.915 497.908L319.964 501.082H315.398C314.113 501.082 312.965 501.188 311.956 501.399C310.947 501.595 310.101 501.896 309.417 502.303C308.733 502.71 308.213 503.222 307.854 503.841C307.496 504.443 307.317 505.151 307.317 505.965C307.317 506.795 307.505 507.552 307.879 508.235C308.253 508.919 308.815 509.464 309.563 509.871C310.328 510.262 311.264 510.457 312.371 510.457C313.755 510.457 314.975 510.164 316.033 509.578C317.091 508.992 317.929 508.276 318.548 507.43C319.183 506.583 319.524 505.761 319.573 504.964L321.502 507.137C321.388 507.82 321.079 508.577 320.574 509.407C320.07 510.237 319.394 511.035 318.548 511.8C317.718 512.549 316.725 513.175 315.569 513.68C314.43 514.168 313.144 514.412 311.712 514.412C309.922 514.412 308.351 514.062 307 513.362C305.665 512.662 304.624 511.727 303.875 510.555C303.143 509.367 302.776 508.04 302.776 506.575C302.776 505.159 303.053 503.914 303.606 502.84C304.16 501.749 304.957 500.846 305.999 500.13C307.041 499.397 308.294 498.844 309.759 498.47C311.224 498.095 312.859 497.908 314.666 497.908H319.915ZM337.786 511.189L345.135 487.508H349.969L339.373 518.001C339.129 518.652 338.803 519.352 338.396 520.101C338.006 520.866 337.501 521.59 336.883 522.273C336.264 522.957 335.516 523.51 334.637 523.934C333.774 524.373 332.741 524.593 331.536 524.593C331.178 524.593 330.722 524.544 330.169 524.446C329.616 524.349 329.225 524.267 328.997 524.202L328.973 520.54C329.103 520.556 329.306 520.573 329.583 520.589C329.876 520.621 330.079 520.638 330.193 520.638C331.219 520.638 332.09 520.499 332.806 520.223C333.522 519.962 334.124 519.515 334.612 518.88C335.117 518.261 335.548 517.407 335.906 516.316L337.786 511.189ZM332.391 487.508L339.251 508.016L340.423 512.776L337.176 514.437L327.459 487.508H332.391ZM371.844 478.377V513.924H367.132V478.377H371.844ZM386.736 494.368V498.226H370.818V494.368H386.736ZM389.153 478.377V482.234H370.818V478.377H389.153ZM404.51 514.412C402.671 514.412 401.002 514.103 399.505 513.484C398.024 512.85 396.746 511.963 395.672 510.823C394.614 509.684 393.8 508.333 393.23 506.771C392.661 505.208 392.376 503.499 392.376 501.644V500.618C392.376 498.47 392.693 496.557 393.328 494.881C393.963 493.188 394.826 491.756 395.916 490.584C397.007 489.412 398.243 488.525 399.627 487.923C401.01 487.321 402.443 487.02 403.924 487.02C405.812 487.02 407.439 487.345 408.807 487.996C410.19 488.647 411.321 489.559 412.2 490.73C413.079 491.886 413.73 493.253 414.153 494.832C414.576 496.395 414.788 498.104 414.788 499.959V501.985H395.062V498.299H410.271V497.957C410.206 496.785 409.962 495.646 409.539 494.539C409.132 493.432 408.481 492.521 407.586 491.805C406.691 491.089 405.47 490.73 403.924 490.73C402.898 490.73 401.954 490.95 401.092 491.39C400.229 491.813 399.489 492.448 398.87 493.294C398.252 494.14 397.771 495.174 397.43 496.395C397.088 497.615 396.917 499.023 396.917 500.618V501.644C396.917 502.897 397.088 504.077 397.43 505.184C397.788 506.274 398.3 507.234 398.968 508.064C399.651 508.895 400.473 509.546 401.434 510.018C402.41 510.49 403.517 510.726 404.754 510.726C406.349 510.726 407.7 510.4 408.807 509.749C409.913 509.098 410.882 508.227 411.712 507.137L414.446 509.31C413.877 510.172 413.152 510.994 412.273 511.775C411.395 512.557 410.312 513.191 409.026 513.68C407.757 514.168 406.251 514.412 404.51 514.412ZM420.037 476.424H424.578V508.797L424.188 513.924H420.037V476.424ZM442.425 500.496V501.009C442.425 502.929 442.197 504.712 441.741 506.355C441.285 507.983 440.618 509.399 439.739 510.604C438.86 511.808 437.786 512.744 436.517 513.411C435.247 514.078 433.79 514.412 432.146 514.412C430.47 514.412 428.997 514.127 427.728 513.558C426.474 512.972 425.416 512.133 424.554 511.043C423.691 509.952 422.999 508.634 422.479 507.088C421.974 505.542 421.624 503.8 421.429 501.863V499.617C421.624 497.664 421.974 495.914 422.479 494.368C422.999 492.822 423.691 491.504 424.554 490.413C425.416 489.306 426.474 488.468 427.728 487.898C428.981 487.312 430.438 487.02 432.098 487.02C433.758 487.02 435.231 487.345 436.517 487.996C437.802 488.631 438.877 489.542 439.739 490.73C440.618 491.919 441.285 493.343 441.741 495.003C442.197 496.647 442.425 498.478 442.425 500.496ZM437.884 501.009V500.496C437.884 499.178 437.762 497.941 437.518 496.785C437.273 495.613 436.883 494.588 436.346 493.709C435.809 492.814 435.101 492.114 434.222 491.609C433.343 491.089 432.26 490.828 430.975 490.828C429.835 490.828 428.842 491.023 427.996 491.414C427.166 491.805 426.458 492.334 425.872 493.001C425.286 493.652 424.806 494.401 424.432 495.247C424.074 496.077 423.805 496.94 423.626 497.835V503.719C423.886 504.858 424.31 505.957 424.896 507.015C425.498 508.056 426.295 508.911 427.288 509.578C428.297 510.245 429.542 510.579 431.023 510.579C432.244 510.579 433.286 510.335 434.148 509.847C435.027 509.342 435.735 508.65 436.272 507.771C436.826 506.893 437.233 505.875 437.493 504.72C437.754 503.564 437.884 502.327 437.884 501.009ZM483.343 510.213V513.924H460.076V510.677L471.722 497.713C473.154 496.118 474.261 494.767 475.042 493.66C475.84 492.537 476.393 491.536 476.702 490.657C477.028 489.762 477.19 488.851 477.19 487.923C477.19 486.751 476.946 485.693 476.458 484.749C475.986 483.789 475.286 483.024 474.358 482.454C473.431 481.884 472.308 481.6 470.989 481.6C469.41 481.6 468.092 481.909 467.034 482.527C465.993 483.13 465.211 483.976 464.69 485.066C464.17 486.157 463.909 487.41 463.909 488.826H459.393C459.393 486.824 459.832 484.993 460.711 483.333C461.59 481.673 462.892 480.354 464.617 479.378C466.342 478.385 468.466 477.889 470.989 477.889C473.235 477.889 475.156 478.287 476.751 479.085C478.346 479.866 479.567 480.973 480.413 482.405C481.276 483.821 481.707 485.481 481.707 487.386C481.707 488.427 481.528 489.485 481.17 490.56C480.828 491.618 480.348 492.675 479.729 493.733C479.127 494.791 478.419 495.833 477.605 496.858C476.808 497.884 475.953 498.893 475.042 499.886L465.521 510.213H483.343ZM493.89 497.005L490.276 496.077L492.059 478.377H510.296V482.552H495.892L494.817 492.22C495.468 491.845 496.29 491.495 497.283 491.17C498.292 490.844 499.448 490.682 500.75 490.682C502.394 490.682 503.867 490.966 505.169 491.536C506.471 492.09 507.578 492.887 508.489 493.929C509.417 494.97 510.125 496.224 510.613 497.688C511.102 499.153 511.346 500.789 511.346 502.596C511.346 504.305 511.11 505.875 510.638 507.308C510.182 508.74 509.49 509.993 508.562 511.067C507.635 512.125 506.463 512.947 505.047 513.533C503.647 514.119 501.995 514.412 500.091 514.412C498.659 514.412 497.299 514.217 496.014 513.826C494.744 513.419 493.605 512.809 492.596 511.995C491.603 511.165 490.789 510.14 490.154 508.919C489.536 507.682 489.145 506.233 488.982 504.573H493.279C493.475 505.908 493.865 507.031 494.451 507.942C495.037 508.854 495.802 509.546 496.746 510.018C497.706 510.473 498.821 510.701 500.091 510.701C501.165 510.701 502.117 510.514 502.947 510.14C503.777 509.765 504.477 509.228 505.047 508.528C505.617 507.828 506.048 506.982 506.341 505.989C506.65 504.996 506.805 503.882 506.805 502.645C506.805 501.521 506.65 500.48 506.341 499.52C506.032 498.559 505.568 497.721 504.949 497.005C504.347 496.289 503.606 495.735 502.728 495.345C501.849 494.938 500.84 494.734 499.7 494.734C498.187 494.734 497.039 494.938 496.258 495.345C495.493 495.752 494.703 496.305 493.89 497.005ZM520.892 508.553V512.19C520.892 513.672 520.517 515.234 519.769 516.878C519.02 518.538 517.97 519.922 516.619 521.028L514.056 519.246C514.576 518.53 515.016 517.798 515.374 517.049C515.732 516.316 516.001 515.551 516.18 514.754C516.375 513.973 516.473 513.143 516.473 512.264V508.553H520.892ZM561.858 510.213V513.924H538.592V510.677L550.237 497.713C551.67 496.118 552.776 494.767 553.558 493.66C554.355 492.537 554.909 491.536 555.218 490.657C555.543 489.762 555.706 488.851 555.706 487.923C555.706 486.751 555.462 485.693 554.974 484.749C554.502 483.789 553.802 483.024 552.874 482.454C551.946 481.884 550.823 481.6 549.505 481.6C547.926 481.6 546.608 481.909 545.55 482.527C544.508 483.13 543.727 483.976 543.206 485.066C542.685 486.157 542.425 487.41 542.425 488.826H537.908C537.908 486.824 538.348 484.993 539.227 483.333C540.105 481.673 541.408 480.354 543.133 479.378C544.858 478.385 546.982 477.889 549.505 477.889C551.751 477.889 553.672 478.287 555.267 479.085C556.862 479.866 558.082 480.973 558.929 482.405C559.791 483.821 560.223 485.481 560.223 487.386C560.223 488.427 560.044 489.485 559.686 490.56C559.344 491.618 558.864 492.675 558.245 493.733C557.643 494.791 556.935 495.833 556.121 496.858C555.324 497.884 554.469 498.893 553.558 499.886L544.036 510.213H561.858ZM589.007 493.318V498.738C589.007 501.652 588.746 504.109 588.226 506.111C587.705 508.113 586.956 509.725 585.979 510.945C585.003 512.166 583.823 513.053 582.439 513.606C581.072 514.144 579.526 514.412 577.801 514.412C576.434 514.412 575.172 514.241 574.017 513.899C572.861 513.558 571.819 513.012 570.892 512.264C569.98 511.499 569.199 510.506 568.548 509.285C567.897 508.064 567.4 506.583 567.059 504.842C566.717 503.1 566.546 501.066 566.546 498.738V493.318C566.546 490.405 566.806 487.964 567.327 485.994C567.864 484.025 568.621 482.446 569.598 481.258C570.574 480.053 571.746 479.191 573.113 478.67C574.497 478.149 576.043 477.889 577.752 477.889C579.135 477.889 580.405 478.06 581.561 478.401C582.732 478.727 583.774 479.256 584.686 479.988C585.597 480.704 586.37 481.665 587.005 482.869C587.656 484.057 588.152 485.514 588.494 487.239C588.836 488.965 589.007 490.991 589.007 493.318ZM584.466 499.471V492.562C584.466 490.966 584.368 489.567 584.173 488.362C583.994 487.142 583.725 486.1 583.367 485.237C583.009 484.375 582.553 483.675 582 483.138C581.463 482.601 580.836 482.21 580.12 481.966C579.42 481.705 578.631 481.575 577.752 481.575C576.678 481.575 575.726 481.779 574.896 482.186C574.065 482.576 573.366 483.203 572.796 484.065C572.243 484.928 571.819 486.059 571.526 487.459C571.233 488.859 571.087 490.56 571.087 492.562V499.471C571.087 501.066 571.176 502.474 571.355 503.694C571.551 504.915 571.836 505.973 572.21 506.868C572.584 507.747 573.04 508.471 573.577 509.041C574.114 509.611 574.733 510.034 575.433 510.311C576.149 510.571 576.938 510.701 577.801 510.701C578.908 510.701 579.876 510.49 580.706 510.066C581.536 509.643 582.228 508.984 582.781 508.089C583.351 507.177 583.774 506.014 584.051 504.598C584.327 503.165 584.466 501.456 584.466 499.471ZM618.108 510.213V513.924H594.842V510.677L606.487 497.713C607.92 496.118 609.026 494.767 609.808 493.66C610.605 492.537 611.159 491.536 611.468 490.657C611.793 489.762 611.956 488.851 611.956 487.923C611.956 486.751 611.712 485.693 611.224 484.749C610.752 483.789 610.052 483.024 609.124 482.454C608.196 481.884 607.073 481.6 605.755 481.6C604.176 481.6 602.858 481.909 601.8 482.527C600.758 483.13 599.977 483.976 599.456 485.066C598.935 486.157 598.675 487.41 598.675 488.826H594.158C594.158 486.824 594.598 484.993 595.477 483.333C596.355 481.673 597.658 480.354 599.383 479.378C601.108 478.385 603.232 477.889 605.755 477.889C608.001 477.889 609.922 478.287 611.517 479.085C613.112 479.866 614.332 480.973 615.179 482.405C616.041 483.821 616.473 485.481 616.473 487.386C616.473 488.427 616.294 489.485 615.936 490.56C615.594 491.618 615.114 492.675 614.495 493.733C613.893 494.791 613.185 495.833 612.371 496.858C611.574 497.884 610.719 498.893 609.808 499.886L600.286 510.213H618.108ZM646.233 510.213V513.924H622.967V510.677L634.612 497.713C636.045 496.118 637.151 494.767 637.933 493.66C638.73 492.537 639.284 491.536 639.593 490.657C639.918 489.762 640.081 488.851 640.081 487.923C640.081 486.751 639.837 485.693 639.349 484.749C638.877 483.789 638.177 483.024 637.249 482.454C636.321 481.884 635.198 481.6 633.88 481.6C632.301 481.6 630.983 481.909 629.925 482.527C628.883 483.13 628.102 483.976 627.581 485.066C627.06 486.157 626.8 487.41 626.8 488.826H622.283C622.283 486.824 622.723 484.993 623.602 483.333C624.48 481.673 625.783 480.354 627.508 479.378C629.233 478.385 631.357 477.889 633.88 477.889C636.126 477.889 638.047 478.287 639.642 479.085C641.237 479.866 642.457 480.973 643.304 482.405C644.166 483.821 644.598 485.481 644.598 487.386C644.598 488.427 644.419 489.485 644.061 490.56C643.719 491.618 643.239 492.675 642.62 493.733C642.018 494.791 641.31 495.833 640.496 496.858C639.699 497.884 638.844 498.893 637.933 499.886L628.411 510.213H646.233Z" fill="#FD0404"/>
<path d="M215.789 518.807H648.089V521.248H215.789V518.807Z" fill="#FD0404"/>
</g>
<path d="M28 28V26H26V28H28ZM1110 28H1112V26H1110V28ZM1110 638.884V640.884H1112V638.884H1110ZM28 638.884H26V640.884H28V638.884ZM28 30H1110V26H28V30ZM1108 28V638.884H1112V28H1108ZM1110 636.884H28V640.884H1110V636.884ZM30 638.884V28H26V638.884H30Z" fill="black"/>
</g>
<defs>
<filter id="filter0_d_146_3037" x="0" y="0" width="1154" height="682.885" filterUnits="userSpaceOnUse" color-interpolation-filters="sRGB">
<feFlood flood-opacity="0" result="BackgroundImageFix"/>
<feColorMatrix in="SourceAlpha" type="matrix" values="0 0 0 0 0 0 0 0 0 0 0 0 0 0 0 0 0 0 127 0" result="hardAlpha"/>
<feOffset dx="8" dy="8"/>
<feGaussianBlur stdDeviation="17"/>
<feComposite in2="hardAlpha" operator="out"/>
<feColorMatrix type="matrix" values="0 0 0 0 0 0 0 0 0 0 0 0 0 0 0 0 0 0 0.25 0"/>
<feBlend mode="normal" in2="BackgroundImageFix" result="effect1_dropShadow_146_3037"/>
<feBlend mode="normal" in="SourceGraphic" in2="effect1_dropShadow_146_3037" result="shape"/>
</filter>
<clipPath id="clip0_146_3037">
<path d="M28 28H1110V638.884H28V28Z" fill="white"/>
</clipPath>
</defs>
</svg>
