<svg width="1154" height="683" viewBox="0 0 1154 683" fill="none" xmlns="http://www.w3.org/2000/svg">
<g filter="url(#filter0_d_146_3036)">
<g clip-path="url(#clip0_146_3036)">
<path d="M28 28H1110V638.884H28V28Z" fill="#FFF87B"/>
<rect width="1081" height="99" transform="translate(28 27.9414)" fill="#FFF87B"/>
<line x1="914.006" y1="76.4121" x2="953.949" y2="76.4121" stroke="#FD0404" stroke-width="3"/>
<rect x="975.031" y="56.4414" width="42.9428" height="42.9428" stroke="#FD0404" stroke-width="3"/>
<line x1="1038" y1="96.8241" x2="1077.94" y2="56.8813" stroke="#FD0404" stroke-width="3"/>
<line x1="1040.12" y1="56.8807" x2="1080.06" y2="96.8235" stroke="#FD0404" stroke-width="3"/>
<path d="M151.36 162.453H163.128C165.797 162.453 168.051 162.86 169.891 163.674C171.746 164.488 173.154 165.692 174.114 167.287C175.091 168.866 175.579 170.811 175.579 173.122C175.579 174.75 175.245 176.239 174.578 177.59C173.927 178.924 172.983 180.064 171.746 181.008C170.525 181.936 169.061 182.627 167.352 183.083L166.033 183.596H154.974L154.925 179.763H163.274C164.967 179.763 166.375 179.47 167.498 178.884C168.621 178.282 169.467 177.476 170.037 176.467C170.607 175.458 170.892 174.343 170.892 173.122C170.892 171.755 170.623 170.559 170.086 169.533C169.549 168.508 168.702 167.718 167.547 167.165C166.408 166.595 164.935 166.311 163.128 166.311H156.072V198H151.36V162.453ZM172.137 198L163.494 181.887L168.401 181.862L177.166 197.707V198H172.137ZM192.449 198.488C190.61 198.488 188.942 198.179 187.444 197.561C185.963 196.926 184.686 196.039 183.611 194.899C182.553 193.76 181.74 192.409 181.17 190.847C180.6 189.284 180.315 187.575 180.315 185.72V184.694C180.315 182.546 180.633 180.633 181.268 178.957C181.902 177.264 182.765 175.832 183.855 174.66C184.946 173.488 186.183 172.601 187.566 171.999C188.95 171.397 190.382 171.096 191.863 171.096C193.751 171.096 195.379 171.421 196.746 172.072C198.13 172.723 199.261 173.635 200.14 174.807C201.019 175.962 201.67 177.329 202.093 178.908C202.516 180.471 202.728 182.18 202.728 184.035V186.062H183.001V182.375H198.211V182.033C198.146 180.861 197.902 179.722 197.479 178.615C197.072 177.508 196.421 176.597 195.525 175.881C194.63 175.165 193.41 174.807 191.863 174.807C190.838 174.807 189.894 175.026 189.031 175.466C188.169 175.889 187.428 176.524 186.81 177.37C186.191 178.216 185.711 179.25 185.369 180.471C185.027 181.691 184.856 183.099 184.856 184.694V185.72C184.856 186.973 185.027 188.153 185.369 189.26C185.727 190.35 186.24 191.311 186.907 192.141C187.591 192.971 188.413 193.622 189.373 194.094C190.35 194.566 191.456 194.802 192.693 194.802C194.288 194.802 195.639 194.476 196.746 193.825C197.853 193.174 198.821 192.303 199.651 191.213L202.386 193.386C201.816 194.248 201.092 195.07 200.213 195.852C199.334 196.633 198.252 197.268 196.966 197.756C195.696 198.244 194.191 198.488 192.449 198.488ZM212.493 176.833V198H207.952V171.584H212.249L212.493 176.833ZM211.565 183.791L209.466 183.718C209.482 181.911 209.718 180.243 210.174 178.713C210.63 177.167 211.305 175.824 212.2 174.685C213.095 173.545 214.21 172.666 215.545 172.048C216.88 171.413 218.426 171.096 220.184 171.096C221.421 171.096 222.56 171.275 223.602 171.633C224.643 171.975 225.547 172.52 226.312 173.269C227.076 174.017 227.671 174.978 228.094 176.149C228.517 177.321 228.729 178.737 228.729 180.397V198H224.212V180.617C224.212 179.234 223.976 178.127 223.504 177.297C223.048 176.467 222.397 175.865 221.551 175.49C220.704 175.1 219.712 174.904 218.572 174.904C217.238 174.904 216.123 175.14 215.228 175.612C214.332 176.084 213.616 176.735 213.079 177.565C212.542 178.396 212.151 179.348 211.907 180.422C211.679 181.48 211.565 182.603 211.565 183.791ZM228.68 181.301L225.652 182.229C225.669 180.78 225.905 179.388 226.36 178.054C226.832 176.719 227.508 175.531 228.387 174.489C229.282 173.448 230.381 172.626 231.683 172.023C232.985 171.405 234.474 171.096 236.15 171.096C237.566 171.096 238.82 171.283 239.91 171.657C241.017 172.032 241.945 172.609 242.693 173.391C243.458 174.156 244.036 175.14 244.427 176.345C244.817 177.549 245.013 178.981 245.013 180.642V198H240.472V180.593C240.472 179.112 240.236 177.964 239.764 177.15C239.308 176.32 238.657 175.743 237.811 175.417C236.98 175.075 235.988 174.904 234.832 174.904C233.839 174.904 232.96 175.075 232.195 175.417C231.43 175.759 230.787 176.231 230.267 176.833C229.746 177.419 229.347 178.094 229.07 178.859C228.81 179.624 228.68 180.438 228.68 181.301ZM256.756 171.584V198H252.215V171.584H256.756ZM251.873 164.577C251.873 163.845 252.093 163.226 252.532 162.722C252.988 162.217 253.655 161.965 254.534 161.965C255.397 161.965 256.056 162.217 256.512 162.722C256.984 163.226 257.22 163.845 257.22 164.577C257.22 165.277 256.984 165.879 256.512 166.384C256.056 166.872 255.397 167.116 254.534 167.116C253.655 167.116 252.988 166.872 252.532 166.384C252.093 165.879 251.873 165.277 251.873 164.577ZM268.523 177.224V198H264.007V171.584H268.279L268.523 177.224ZM267.449 183.791L265.569 183.718C265.586 181.911 265.854 180.243 266.375 178.713C266.896 177.167 267.628 175.824 268.572 174.685C269.516 173.545 270.639 172.666 271.941 172.048C273.26 171.413 274.716 171.096 276.312 171.096C277.614 171.096 278.785 171.275 279.827 171.633C280.869 171.975 281.756 172.528 282.488 173.293C283.237 174.058 283.807 175.051 284.197 176.271C284.588 177.476 284.783 178.949 284.783 180.69V198H280.242V180.642C280.242 179.258 280.039 178.151 279.632 177.321C279.225 176.475 278.631 175.865 277.85 175.49C277.068 175.1 276.108 174.904 274.969 174.904C273.846 174.904 272.82 175.14 271.893 175.612C270.981 176.084 270.192 176.735 269.524 177.565C268.873 178.396 268.361 179.348 267.986 180.422C267.628 181.48 267.449 182.603 267.449 183.791ZM308.294 192.873V160.5H312.835V198H308.685L308.294 192.873ZM290.521 185.085V184.572C290.521 182.554 290.765 180.723 291.253 179.079C291.757 177.419 292.465 175.995 293.377 174.807C294.305 173.618 295.403 172.707 296.673 172.072C297.959 171.421 299.391 171.096 300.97 171.096C302.63 171.096 304.078 171.389 305.315 171.975C306.569 172.544 307.627 173.382 308.489 174.489C309.368 175.58 310.06 176.898 310.564 178.444C311.069 179.991 311.419 181.74 311.614 183.693V185.939C311.435 187.876 311.085 189.618 310.564 191.164C310.06 192.71 309.368 194.029 308.489 195.119C307.627 196.21 306.569 197.048 305.315 197.634C304.062 198.203 302.597 198.488 300.921 198.488C299.375 198.488 297.959 198.155 296.673 197.487C295.403 196.82 294.305 195.884 293.377 194.68C292.465 193.475 291.757 192.059 291.253 190.432C290.765 188.788 290.521 187.006 290.521 185.085ZM295.062 184.572V185.085C295.062 186.403 295.192 187.64 295.452 188.796C295.729 189.951 296.152 190.969 296.722 191.848C297.291 192.727 298.016 193.418 298.895 193.923C299.773 194.411 300.823 194.655 302.044 194.655C303.541 194.655 304.77 194.338 305.73 193.703C306.707 193.068 307.488 192.23 308.074 191.188C308.66 190.147 309.116 189.016 309.441 187.795V181.911C309.246 181.016 308.961 180.153 308.587 179.323C308.229 178.477 307.757 177.728 307.171 177.077C306.601 176.41 305.893 175.881 305.047 175.49C304.217 175.1 303.232 174.904 302.093 174.904C300.856 174.904 299.79 175.165 298.895 175.686C298.016 176.19 297.291 176.89 296.722 177.785C296.152 178.664 295.729 179.689 295.452 180.861C295.192 182.017 295.062 183.254 295.062 184.572ZM330.828 198.488C328.989 198.488 327.321 198.179 325.823 197.561C324.342 196.926 323.064 196.039 321.99 194.899C320.932 193.76 320.118 192.409 319.549 190.847C318.979 189.284 318.694 187.575 318.694 185.72V184.694C318.694 182.546 319.012 180.633 319.646 178.957C320.281 177.264 321.144 175.832 322.234 174.66C323.325 173.488 324.562 172.601 325.945 171.999C327.329 171.397 328.761 171.096 330.242 171.096C332.13 171.096 333.758 171.421 335.125 172.072C336.508 172.723 337.64 173.635 338.519 174.807C339.397 175.962 340.049 177.329 340.472 178.908C340.895 180.471 341.106 182.18 341.106 184.035V186.062H321.38V182.375H336.59V182.033C336.525 180.861 336.281 179.722 335.857 178.615C335.451 177.508 334.799 176.597 333.904 175.881C333.009 175.165 331.788 174.807 330.242 174.807C329.217 174.807 328.273 175.026 327.41 175.466C326.548 175.889 325.807 176.524 325.188 177.37C324.57 178.216 324.09 179.25 323.748 180.471C323.406 181.691 323.235 183.099 323.235 184.694V185.72C323.235 186.973 323.406 188.153 323.748 189.26C324.106 190.35 324.619 191.311 325.286 192.141C325.97 192.971 326.792 193.622 327.752 194.094C328.729 194.566 329.835 194.802 331.072 194.802C332.667 194.802 334.018 194.476 335.125 193.825C336.232 193.174 337.2 192.303 338.03 191.213L340.765 193.386C340.195 194.248 339.471 195.07 338.592 195.852C337.713 196.633 336.631 197.268 335.345 197.756C334.075 198.244 332.57 198.488 330.828 198.488ZM350.896 175.734V198H346.38V171.584H350.774L350.896 175.734ZM359.148 171.438L359.124 175.637C358.75 175.555 358.392 175.507 358.05 175.49C357.724 175.458 357.35 175.441 356.927 175.441C355.885 175.441 354.965 175.604 354.168 175.93C353.37 176.255 352.695 176.711 352.142 177.297C351.588 177.883 351.149 178.583 350.823 179.396C350.514 180.194 350.311 181.073 350.213 182.033L348.943 182.766C348.943 181.171 349.098 179.673 349.407 178.273C349.733 176.874 350.229 175.637 350.896 174.562C351.564 173.472 352.41 172.626 353.436 172.023C354.477 171.405 355.714 171.096 357.146 171.096C357.472 171.096 357.846 171.136 358.27 171.218C358.693 171.283 358.986 171.356 359.148 171.438Z" fill="#FD0404"/>
<path d="M162.581 283.195V332.961H152.361V283.195H162.581ZM211.629 306.95V326.672C210.854 327.606 209.658 328.62 208.04 329.714C206.422 330.785 204.337 331.708 201.785 332.482C199.233 333.257 196.146 333.645 192.522 333.645C189.31 333.645 186.382 333.12 183.738 332.072C181.095 331.001 178.816 329.44 176.902 327.39C175.011 325.339 173.553 322.832 172.527 319.87C171.502 316.885 170.989 313.479 170.989 309.65V306.54C170.989 302.712 171.479 299.305 172.459 296.32C173.462 293.335 174.886 290.817 176.731 288.767C178.577 286.716 180.776 285.155 183.328 284.084C185.88 283.013 188.717 282.478 191.839 282.478C196.168 282.478 199.723 283.184 202.503 284.597C205.283 285.987 207.402 287.924 208.86 290.407C210.341 292.868 211.253 295.694 211.595 298.884H201.648C201.398 297.198 200.919 295.728 200.213 294.475C199.507 293.221 198.493 292.242 197.171 291.535C195.872 290.829 194.186 290.476 192.112 290.476C190.403 290.476 188.877 290.829 187.532 291.535C186.211 292.219 185.094 293.233 184.183 294.577C183.271 295.922 182.576 297.585 182.098 299.567C181.619 301.55 181.38 303.851 181.38 306.472V309.65C181.38 312.248 181.631 314.549 182.132 316.555C182.633 318.537 183.374 320.212 184.354 321.579C185.356 322.924 186.587 323.938 188.045 324.621C189.503 325.305 191.201 325.646 193.138 325.646C194.756 325.646 196.1 325.51 197.171 325.236C198.265 324.963 199.142 324.632 199.803 324.245C200.486 323.835 201.01 323.448 201.375 323.083V314.265H192.01V306.95H211.629ZM257.737 283.195V332.961H247.518V283.195H257.737ZM273.05 283.195V291.228H232.444V283.195H273.05ZM287.884 280.461V332.961H278.04V280.461H287.884ZM286.482 313.171H283.782C283.805 310.596 284.147 308.226 284.808 306.062C285.468 303.874 286.414 301.983 287.645 300.388C288.875 298.77 290.345 297.517 292.054 296.628C293.785 295.739 295.7 295.295 297.796 295.295C299.619 295.295 301.271 295.557 302.752 296.081C304.256 296.582 305.543 297.403 306.614 298.542C307.708 299.659 308.551 301.128 309.144 302.951C309.736 304.774 310.032 306.984 310.032 309.582V332.961H300.12V309.514C300.12 307.873 299.881 306.586 299.402 305.651C298.947 304.694 298.274 304.022 297.386 303.635C296.52 303.225 295.449 303.02 294.173 303.02C292.76 303.02 291.552 303.282 290.55 303.806C289.57 304.33 288.784 305.059 288.191 305.993C287.599 306.905 287.166 307.976 286.893 309.206C286.619 310.437 286.482 311.758 286.482 313.171ZM339.393 324.108V295.979H349.236V332.961H339.974L339.393 324.108ZM340.486 316.521L343.392 316.452C343.392 318.913 343.107 321.203 342.537 323.322C341.967 325.419 341.113 327.242 339.974 328.791C338.834 330.318 337.399 331.514 335.667 332.38C333.935 333.223 331.896 333.645 329.549 333.645C327.749 333.645 326.085 333.394 324.559 332.893C323.055 332.368 321.756 331.56 320.662 330.466C319.591 329.349 318.748 327.925 318.133 326.193C317.54 324.439 317.244 322.331 317.244 319.87V295.979H327.088V319.938C327.088 321.032 327.213 321.955 327.464 322.707C327.737 323.459 328.113 324.074 328.592 324.553C329.07 325.031 329.629 325.373 330.267 325.578C330.927 325.783 331.657 325.886 332.454 325.886C334.482 325.886 336.077 325.476 337.239 324.655C338.424 323.835 339.256 322.718 339.734 321.306C340.236 319.87 340.486 318.275 340.486 316.521ZM366.6 304.045V332.961H356.756V295.979H366.019L366.6 304.045ZM377.742 295.739L377.571 304.865C377.093 304.797 376.512 304.74 375.828 304.694C375.167 304.626 374.563 304.592 374.017 304.592C372.627 304.592 371.419 304.774 370.394 305.139C369.391 305.48 368.548 305.993 367.864 306.677C367.203 307.36 366.702 308.192 366.36 309.172C366.041 310.152 365.859 311.268 365.813 312.521L363.831 311.906C363.831 309.514 364.07 307.315 364.549 305.31C365.027 303.282 365.722 301.516 366.634 300.012C367.568 298.508 368.707 297.346 370.052 296.525C371.396 295.705 372.934 295.295 374.666 295.295C375.213 295.295 375.771 295.34 376.341 295.432C376.91 295.5 377.378 295.603 377.742 295.739ZM402.386 322.741C402.386 322.035 402.181 321.397 401.771 320.827C401.36 320.257 400.597 319.733 399.48 319.255C398.387 318.754 396.803 318.298 394.729 317.888C392.861 317.478 391.118 316.965 389.5 316.35C387.905 315.712 386.515 314.948 385.33 314.06C384.168 313.171 383.257 312.123 382.596 310.915C381.935 309.685 381.604 308.283 381.604 306.711C381.604 305.161 381.935 303.703 382.596 302.336C383.279 300.969 384.248 299.761 385.501 298.713C386.777 297.642 388.326 296.81 390.149 296.218C391.995 295.603 394.069 295.295 396.37 295.295C399.583 295.295 402.34 295.808 404.642 296.833C406.966 297.858 408.743 299.271 409.974 301.071C411.227 302.849 411.854 304.877 411.854 307.155H402.01C402.01 306.198 401.805 305.344 401.395 304.592C401.007 303.817 400.392 303.213 399.549 302.78C398.729 302.325 397.658 302.097 396.336 302.097C395.242 302.097 394.297 302.29 393.499 302.678C392.701 303.042 392.086 303.544 391.653 304.182C391.243 304.797 391.038 305.48 391.038 306.232C391.038 306.802 391.152 307.315 391.38 307.771C391.631 308.203 392.029 308.602 392.576 308.967C393.123 309.331 393.829 309.673 394.695 309.992C395.584 310.288 396.678 310.562 397.977 310.812C400.643 311.359 403.024 312.077 405.12 312.966C407.216 313.832 408.88 315.017 410.11 316.521C411.341 318.002 411.956 319.95 411.956 322.365C411.956 324.006 411.591 325.51 410.862 326.877C410.133 328.244 409.085 329.44 407.718 330.466C406.351 331.468 404.71 332.255 402.796 332.824C400.905 333.371 398.774 333.645 396.404 333.645C392.964 333.645 390.047 333.029 387.654 331.799C385.285 330.568 383.484 329.007 382.254 327.116C381.046 325.202 380.442 323.243 380.442 321.237H389.773C389.819 322.582 390.161 323.664 390.799 324.484C391.46 325.305 392.291 325.897 393.294 326.262C394.319 326.626 395.424 326.809 396.609 326.809C397.885 326.809 398.945 326.638 399.788 326.296C400.631 325.931 401.269 325.453 401.702 324.86C402.158 324.245 402.386 323.539 402.386 322.741ZM440.188 324.895V280.461H450.101V332.961H441.18L440.188 324.895ZM416.81 314.914V314.196C416.81 311.371 417.129 308.807 417.767 306.506C418.405 304.182 419.339 302.188 420.569 300.524C421.8 298.861 423.315 297.574 425.115 296.662C426.915 295.751 428.966 295.295 431.268 295.295C433.432 295.295 435.324 295.751 436.941 296.662C438.582 297.574 439.972 298.872 441.111 300.559C442.273 302.222 443.208 304.193 443.914 306.472C444.62 308.728 445.133 311.2 445.452 313.889V315.461C445.133 318.036 444.62 320.428 443.914 322.639C443.208 324.849 442.273 326.786 441.111 328.449C439.972 330.09 438.582 331.366 436.941 332.277C435.301 333.189 433.387 333.645 431.199 333.645C428.898 333.645 426.847 333.177 425.047 332.243C423.27 331.309 421.766 329.999 420.535 328.312C419.327 326.626 418.405 324.644 417.767 322.365C417.129 320.087 416.81 317.603 416.81 314.914ZM426.653 314.196V314.914C426.653 316.441 426.767 317.865 426.995 319.187C427.246 320.508 427.645 321.682 428.191 322.707C428.761 323.71 429.49 324.496 430.379 325.065C431.29 325.612 432.396 325.886 433.694 325.886C435.381 325.886 436.771 325.51 437.864 324.758C438.958 323.983 439.79 322.924 440.359 321.579C440.952 320.235 441.294 318.685 441.385 316.931V312.453C441.316 311.018 441.111 309.73 440.77 308.591C440.451 307.429 439.972 306.438 439.334 305.617C438.719 304.797 437.944 304.159 437.01 303.703C436.098 303.247 435.016 303.02 433.763 303.02C432.487 303.02 431.393 303.316 430.481 303.908C429.57 304.478 428.829 305.264 428.26 306.267C427.713 307.269 427.303 308.454 427.029 309.821C426.779 311.166 426.653 312.624 426.653 314.196ZM477.752 324.621V308.146C477.752 306.962 477.558 305.948 477.171 305.104C476.784 304.239 476.18 303.566 475.359 303.088C474.562 302.609 473.525 302.37 472.249 302.37C471.155 302.37 470.21 302.564 469.412 302.951C468.615 303.316 467.999 303.851 467.566 304.558C467.133 305.241 466.917 306.05 466.917 306.984H457.073C457.073 305.412 457.438 303.92 458.167 302.507C458.896 301.094 459.956 299.852 461.346 298.781C462.736 297.688 464.388 296.833 466.302 296.218C468.239 295.603 470.403 295.295 472.796 295.295C475.667 295.295 478.219 295.773 480.452 296.73C482.685 297.688 484.44 299.123 485.716 301.037C487.015 302.951 487.664 305.344 487.664 308.215V324.04C487.664 326.068 487.789 327.731 488.04 329.03C488.291 330.306 488.655 331.423 489.134 332.38V332.961H479.188C478.709 331.958 478.344 330.705 478.094 329.201C477.866 327.674 477.752 326.148 477.752 324.621ZM479.051 310.437L479.119 316.008H473.616C472.317 316.008 471.189 316.156 470.232 316.452C469.275 316.748 468.489 317.17 467.874 317.717C467.259 318.241 466.803 318.856 466.507 319.562C466.233 320.269 466.097 321.044 466.097 321.887C466.097 322.73 466.29 323.493 466.678 324.177C467.065 324.838 467.623 325.362 468.353 325.749C469.082 326.114 469.936 326.296 470.916 326.296C472.397 326.296 473.685 326 474.778 325.407C475.872 324.815 476.715 324.086 477.308 323.22C477.923 322.354 478.242 321.534 478.265 320.759L480.862 324.929C480.498 325.863 479.996 326.831 479.358 327.834C478.743 328.837 477.957 329.782 477 330.671C476.043 331.537 474.892 332.255 473.548 332.824C472.203 333.371 470.608 333.645 468.763 333.645C466.416 333.645 464.285 333.177 462.371 332.243C460.48 331.286 458.976 329.976 457.859 328.312C456.766 326.626 456.219 324.712 456.219 322.57C456.219 320.633 456.583 318.913 457.312 317.409C458.042 315.905 459.113 314.641 460.525 313.615C461.961 312.567 463.75 311.781 465.892 311.257C468.034 310.71 470.517 310.437 473.343 310.437H479.051ZM505.677 328.791L515.486 295.979H526.048L511.18 338.532C510.861 339.466 510.428 340.469 509.881 341.54C509.357 342.611 508.639 343.625 507.728 344.582C506.839 345.562 505.711 346.359 504.344 346.975C502.999 347.59 501.347 347.897 499.388 347.897C498.453 347.897 497.69 347.84 497.098 347.727C496.505 347.613 495.799 347.453 494.979 347.248V340.036C495.229 340.036 495.491 340.036 495.765 340.036C496.038 340.059 496.3 340.07 496.551 340.07C497.85 340.07 498.909 339.922 499.729 339.626C500.55 339.33 501.211 338.874 501.712 338.259C502.213 337.666 502.612 336.892 502.908 335.935L505.677 328.791ZM501.575 295.979L509.607 322.775L511.009 333.2L504.31 333.918L491.014 295.979H501.575ZM567.405 315.222H554.725V307.224H567.405C569.365 307.224 570.96 306.905 572.19 306.267C573.421 305.606 574.321 304.694 574.891 303.532C575.46 302.37 575.745 301.06 575.745 299.602C575.745 298.12 575.46 296.742 574.891 295.466C574.321 294.19 573.421 293.164 572.19 292.39C570.96 291.615 569.365 291.228 567.405 291.228H558.279V332.961H548.025V283.195H567.405C571.302 283.195 574.64 283.902 577.42 285.314C580.223 286.704 582.365 288.63 583.846 291.091C585.327 293.552 586.067 296.366 586.067 299.533C586.067 302.746 585.327 305.526 583.846 307.873C582.365 310.22 580.223 312.032 577.42 313.308C574.64 314.584 571.302 315.222 567.405 315.222ZM590.477 314.846V314.128C590.477 311.416 590.864 308.921 591.639 306.643C592.413 304.341 593.541 302.347 595.022 300.661C596.504 298.975 598.326 297.665 600.491 296.73C602.656 295.773 605.14 295.295 607.942 295.295C610.745 295.295 613.24 295.773 615.428 296.73C617.615 297.665 619.45 298.975 620.931 300.661C622.435 302.347 623.574 304.341 624.349 306.643C625.123 308.921 625.511 311.416 625.511 314.128V314.846C625.511 317.535 625.123 320.03 624.349 322.331C623.574 324.61 622.435 326.604 620.931 328.312C619.45 329.999 617.627 331.309 615.462 332.243C613.297 333.177 610.813 333.645 608.011 333.645C605.208 333.645 602.713 333.177 600.525 332.243C598.361 331.309 596.526 329.999 595.022 328.312C593.541 326.604 592.413 324.61 591.639 322.331C590.864 320.03 590.477 317.535 590.477 314.846ZM600.32 314.128V314.846C600.32 316.395 600.457 317.842 600.73 319.187C601.004 320.531 601.437 321.716 602.029 322.741C602.645 323.744 603.442 324.53 604.422 325.1C605.402 325.669 606.598 325.954 608.011 325.954C609.378 325.954 610.551 325.669 611.531 325.1C612.511 324.53 613.297 323.744 613.89 322.741C614.482 321.716 614.915 320.531 615.188 319.187C615.485 317.842 615.633 316.395 615.633 314.846V314.128C615.633 312.624 615.485 311.211 615.188 309.89C614.915 308.545 614.471 307.36 613.855 306.335C613.263 305.287 612.477 304.466 611.497 303.874C610.517 303.282 609.332 302.985 607.942 302.985C606.552 302.985 605.368 303.282 604.388 303.874C603.431 304.466 602.645 305.287 602.029 306.335C601.437 307.36 601.004 308.545 600.73 309.89C600.457 311.211 600.32 312.624 600.32 314.128ZM651.556 322.741C651.556 322.035 651.351 321.397 650.94 320.827C650.53 320.257 649.767 319.733 648.65 319.255C647.557 318.754 645.973 318.298 643.899 317.888C642.031 317.478 640.288 316.965 638.67 316.35C637.075 315.712 635.685 314.948 634.5 314.06C633.338 313.171 632.426 312.123 631.766 310.915C631.105 309.685 630.774 308.283 630.774 306.711C630.774 305.161 631.105 303.703 631.766 302.336C632.449 300.969 633.418 299.761 634.671 298.713C635.947 297.642 637.496 296.81 639.319 296.218C641.165 295.603 643.239 295.295 645.54 295.295C648.753 295.295 651.51 295.808 653.812 296.833C656.136 297.858 657.913 299.271 659.144 301.071C660.397 302.849 661.023 304.877 661.023 307.155H651.18C651.18 306.198 650.975 305.344 650.564 304.592C650.177 303.817 649.562 303.213 648.719 302.78C647.898 302.325 646.827 302.097 645.506 302.097C644.412 302.097 643.466 302.29 642.669 302.678C641.871 303.042 641.256 303.544 640.823 304.182C640.413 304.797 640.208 305.48 640.208 306.232C640.208 306.802 640.322 307.315 640.55 307.771C640.8 308.203 641.199 308.602 641.746 308.967C642.293 309.331 642.999 309.673 643.865 309.992C644.754 310.288 645.848 310.562 647.146 310.812C649.812 311.359 652.194 312.077 654.29 312.966C656.386 313.832 658.05 315.017 659.28 316.521C660.511 318.002 661.126 319.95 661.126 322.365C661.126 324.006 660.761 325.51 660.032 326.877C659.303 328.244 658.255 329.44 656.888 330.466C655.521 331.468 653.88 332.255 651.966 332.824C650.075 333.371 647.944 333.645 645.574 333.645C642.133 333.645 639.217 333.029 636.824 331.799C634.454 330.568 632.654 329.007 631.424 327.116C630.216 325.202 629.612 323.243 629.612 321.237H638.943C638.989 322.582 639.331 323.664 639.969 324.484C640.63 325.305 641.461 325.897 642.464 326.262C643.489 326.626 644.594 326.809 645.779 326.809C647.055 326.809 648.115 326.638 648.958 326.296C649.801 325.931 650.439 325.453 650.872 324.86C651.328 324.245 651.556 323.539 651.556 322.741ZM685.633 295.979V302.951H664.1V295.979H685.633ZM669.432 286.853H679.275V321.818C679.275 322.889 679.412 323.71 679.686 324.279C679.982 324.849 680.415 325.248 680.984 325.476C681.554 325.681 682.272 325.783 683.138 325.783C683.753 325.783 684.3 325.76 684.778 325.715C685.28 325.646 685.701 325.578 686.043 325.51L686.077 332.756C685.234 333.029 684.323 333.246 683.343 333.405C682.363 333.565 681.281 333.645 680.096 333.645C677.931 333.645 676.04 333.291 674.422 332.585C672.827 331.856 671.596 330.694 670.73 329.099C669.865 327.504 669.432 325.407 669.432 322.81V286.853ZM724.563 332.961H713.729L713.797 324.963H724.563C727.252 324.963 729.52 324.359 731.365 323.151C733.211 321.921 734.601 320.132 735.535 317.785C736.492 315.438 736.971 312.601 736.971 309.274V306.848C736.971 304.296 736.697 302.051 736.15 300.114C735.626 298.177 734.84 296.548 733.792 295.227C732.744 293.905 731.456 292.914 729.93 292.253C728.403 291.569 726.648 291.228 724.666 291.228H713.523V283.195H724.666C727.993 283.195 731.035 283.765 733.792 284.904C736.572 286.021 738.976 287.627 741.004 289.724C743.032 291.82 744.593 294.326 745.687 297.243C746.803 300.137 747.361 303.361 747.361 306.916V309.274C747.361 312.806 746.803 316.031 745.687 318.947C744.593 321.864 743.032 324.37 741.004 326.467C738.999 328.54 736.595 330.147 733.792 331.286C731.012 332.403 727.936 332.961 724.563 332.961ZM719.539 283.195V332.961H709.285V283.195H719.539ZM771.219 333.645C768.348 333.645 765.773 333.189 763.494 332.277C761.215 331.343 759.279 330.056 757.684 328.415C756.111 326.774 754.904 324.872 754.061 322.707C753.217 320.52 752.796 318.195 752.796 315.734V314.367C752.796 311.564 753.195 309.001 753.992 306.677C754.79 304.353 755.929 302.336 757.41 300.627C758.914 298.918 760.737 297.608 762.879 296.696C765.021 295.762 767.436 295.295 770.125 295.295C772.745 295.295 775.07 295.728 777.098 296.594C779.126 297.46 780.823 298.69 782.19 300.285C783.58 301.88 784.629 303.794 785.335 306.027C786.041 308.238 786.395 310.699 786.395 313.41V317.512H757V310.949H776.722V310.197C776.722 308.83 776.471 307.611 775.97 306.54C775.491 305.446 774.762 304.58 773.782 303.942C772.802 303.304 771.549 302.985 770.022 302.985C768.724 302.985 767.607 303.27 766.673 303.84C765.739 304.41 764.975 305.207 764.383 306.232C763.813 307.258 763.38 308.465 763.084 309.855C762.811 311.223 762.674 312.727 762.674 314.367V315.734C762.674 317.215 762.879 318.583 763.289 319.836C763.722 321.089 764.326 322.172 765.101 323.083C765.898 323.994 766.855 324.701 767.972 325.202C769.111 325.703 770.398 325.954 771.834 325.954C773.611 325.954 775.263 325.612 776.79 324.929C778.34 324.222 779.673 323.163 780.789 321.75L785.574 326.945C784.799 328.062 783.74 329.133 782.396 330.158C781.074 331.184 779.479 332.027 777.61 332.688C775.742 333.326 773.611 333.645 771.219 333.645ZM811.995 322.741C811.995 322.035 811.79 321.397 811.38 320.827C810.97 320.257 810.206 319.733 809.09 319.255C807.996 318.754 806.412 318.298 804.339 317.888C802.47 317.478 800.727 316.965 799.109 316.35C797.514 315.712 796.124 314.948 794.939 314.06C793.777 313.171 792.866 312.123 792.205 310.915C791.544 309.685 791.214 308.283 791.214 306.711C791.214 305.161 791.544 303.703 792.205 302.336C792.889 300.969 793.857 299.761 795.11 298.713C796.386 297.642 797.936 296.81 799.759 296.218C801.604 295.603 803.678 295.295 805.979 295.295C809.192 295.295 811.95 295.808 814.251 296.833C816.575 297.858 818.353 299.271 819.583 301.071C820.836 302.849 821.463 304.877 821.463 307.155H811.619C811.619 306.198 811.414 305.344 811.004 304.592C810.617 303.817 810.001 303.213 809.158 302.78C808.338 302.325 807.267 302.097 805.945 302.097C804.852 302.097 803.906 302.29 803.108 302.678C802.311 303.042 801.696 303.544 801.263 304.182C800.853 304.797 800.647 305.48 800.647 306.232C800.647 306.802 800.761 307.315 800.989 307.771C801.24 308.203 801.639 308.602 802.186 308.967C802.732 309.331 803.439 309.673 804.305 309.992C805.193 310.288 806.287 310.562 807.586 310.812C810.252 311.359 812.633 312.077 814.729 312.966C816.826 313.832 818.489 315.017 819.72 316.521C820.95 318.002 821.565 319.95 821.565 322.365C821.565 324.006 821.201 325.51 820.472 326.877C819.743 328.244 818.694 329.44 817.327 330.466C815.96 331.468 814.319 332.255 812.405 332.824C810.514 333.371 808.383 333.645 806.014 333.645C802.573 333.645 799.656 333.029 797.264 331.799C794.894 330.568 793.094 329.007 791.863 327.116C790.656 325.202 790.052 323.243 790.052 321.237H799.383C799.428 322.582 799.77 323.664 800.408 324.484C801.069 325.305 801.901 325.897 802.903 326.262C803.929 326.626 805.034 326.809 806.219 326.809C807.495 326.809 808.554 326.638 809.397 326.296C810.241 325.931 810.879 325.453 811.312 324.86C811.767 324.245 811.995 323.539 811.995 322.741ZM838.348 295.979V332.961H828.47V295.979H838.348ZM827.854 286.34C827.854 284.904 828.356 283.719 829.358 282.785C830.361 281.851 831.705 281.384 833.392 281.384C835.055 281.384 836.388 281.851 837.391 282.785C838.416 283.719 838.929 284.904 838.929 286.34C838.929 287.775 838.416 288.96 837.391 289.895C836.388 290.829 835.055 291.296 833.392 291.296C831.705 291.296 830.361 290.829 829.358 289.895C828.356 288.96 827.854 287.775 827.854 286.34ZM869.896 295.979H878.816V331.73C878.816 335.103 878.064 337.963 876.561 340.31C875.079 342.679 873.006 344.468 870.34 345.676C867.674 346.906 864.575 347.521 861.043 347.521C859.493 347.521 857.853 347.316 856.121 346.906C854.412 346.496 852.771 345.858 851.199 344.992C849.65 344.126 848.351 343.033 847.303 341.711L851.644 335.9C852.783 337.222 854.104 338.247 855.608 338.977C857.112 339.729 858.776 340.104 860.599 340.104C862.376 340.104 863.88 339.774 865.11 339.113C866.341 338.475 867.286 337.53 867.947 336.276C868.608 335.046 868.938 333.553 868.938 331.799V304.523L869.896 295.979ZM845.013 314.914V314.196C845.013 311.371 845.354 308.807 846.038 306.506C846.744 304.182 847.736 302.188 849.012 300.524C850.311 298.861 851.883 297.574 853.729 296.662C855.574 295.751 857.659 295.295 859.983 295.295C862.444 295.295 864.507 295.751 866.17 296.662C867.833 297.574 869.201 298.872 870.271 300.559C871.342 302.222 872.174 304.193 872.767 306.472C873.382 308.728 873.86 311.2 874.202 313.889V315.461C873.86 318.036 873.348 320.428 872.664 322.639C871.98 324.849 871.08 326.786 869.964 328.449C868.847 330.09 867.457 331.366 865.794 332.277C864.153 333.189 862.194 333.645 859.915 333.645C857.636 333.645 855.574 333.177 853.729 332.243C851.906 331.309 850.345 329.999 849.046 328.312C847.747 326.626 846.744 324.644 846.038 322.365C845.354 320.087 845.013 317.603 845.013 314.914ZM854.856 314.196V314.914C854.856 316.441 855.005 317.865 855.301 319.187C855.597 320.508 856.053 321.682 856.668 322.707C857.306 323.71 858.092 324.496 859.026 325.065C859.983 325.612 861.111 325.886 862.41 325.886C864.21 325.886 865.68 325.51 866.819 324.758C867.959 323.983 868.813 322.924 869.383 321.579C869.952 320.235 870.283 318.685 870.374 316.931V312.453C870.328 311.018 870.135 309.73 869.793 308.591C869.451 307.429 868.973 306.438 868.357 305.617C867.742 304.797 866.945 304.159 865.965 303.703C864.985 303.247 863.823 303.02 862.479 303.02C861.18 303.02 860.052 303.316 859.095 303.908C858.16 304.478 857.374 305.264 856.736 306.267C856.121 307.269 855.654 308.454 855.335 309.821C855.016 311.166 854.856 312.624 854.856 314.196ZM896.111 303.874V332.961H886.268V295.979H895.496L896.111 303.874ZM894.676 313.171H892.01C892.01 310.437 892.363 307.976 893.069 305.788C893.776 303.578 894.767 301.698 896.043 300.148C897.319 298.576 898.834 297.38 900.589 296.56C902.366 295.716 904.349 295.295 906.536 295.295C908.268 295.295 909.852 295.546 911.287 296.047C912.723 296.548 913.953 297.346 914.979 298.439C916.027 299.533 916.824 300.98 917.371 302.78C917.941 304.58 918.226 306.779 918.226 309.377V332.961H908.313V309.343C908.313 307.702 908.086 306.426 907.63 305.515C907.174 304.603 906.502 303.965 905.613 303.601C904.747 303.213 903.676 303.02 902.4 303.02C901.079 303.02 899.928 303.282 898.948 303.806C897.991 304.33 897.194 305.059 896.556 305.993C895.94 306.905 895.473 307.976 895.154 309.206C894.835 310.437 894.676 311.758 894.676 313.171Z" fill="#FD0404"/>
<path d="M149.48 501.009V500.447C149.48 498.543 149.757 496.777 150.311 495.149C150.864 493.506 151.661 492.081 152.703 490.877C153.745 489.656 155.006 488.712 156.487 488.045C157.968 487.361 159.629 487.02 161.468 487.02C163.323 487.02 164.992 487.361 166.473 488.045C167.97 488.712 169.24 489.656 170.281 490.877C171.339 492.081 172.145 493.506 172.698 495.149C173.252 496.777 173.528 498.543 173.528 500.447V501.009C173.528 502.913 173.252 504.679 172.698 506.307C172.145 507.934 171.339 509.358 170.281 510.579C169.24 511.784 167.978 512.728 166.497 513.411C165.032 514.078 163.372 514.412 161.517 514.412C159.661 514.412 157.993 514.078 156.512 513.411C155.031 512.728 153.761 511.784 152.703 510.579C151.661 509.358 150.864 507.934 150.311 506.307C149.757 504.679 149.48 502.913 149.48 501.009ZM153.997 500.447V501.009C153.997 502.327 154.152 503.572 154.461 504.744C154.77 505.9 155.234 506.925 155.853 507.82C156.487 508.715 157.277 509.424 158.221 509.944C159.165 510.449 160.263 510.701 161.517 510.701C162.754 510.701 163.836 510.449 164.764 509.944C165.708 509.424 166.489 508.715 167.107 507.82C167.726 506.925 168.19 505.9 168.499 504.744C168.825 503.572 168.987 502.327 168.987 501.009V500.447C168.987 499.145 168.825 497.916 168.499 496.761C168.19 495.589 167.718 494.555 167.083 493.66C166.465 492.749 165.683 492.033 164.739 491.512C163.812 490.991 162.721 490.73 161.468 490.73C160.231 490.73 159.14 490.991 158.196 491.512C157.269 492.033 156.487 492.749 155.853 493.66C155.234 494.555 154.77 495.589 154.461 496.761C154.152 497.916 153.997 499.145 153.997 500.447ZM183.709 493.147V513.924H179.192V487.508H183.465L183.709 493.147ZM182.635 499.715L180.755 499.642C180.771 497.835 181.04 496.167 181.561 494.637C182.081 493.09 182.814 491.748 183.758 490.608C184.702 489.469 185.825 488.59 187.127 487.972C188.445 487.337 189.902 487.02 191.497 487.02C192.799 487.02 193.971 487.199 195.013 487.557C196.054 487.898 196.941 488.452 197.674 489.217C198.423 489.982 198.992 490.975 199.383 492.195C199.773 493.4 199.969 494.873 199.969 496.614V513.924H195.428V496.565C195.428 495.182 195.224 494.075 194.817 493.245C194.41 492.399 193.816 491.788 193.035 491.414C192.254 491.023 191.294 490.828 190.154 490.828C189.031 490.828 188.006 491.064 187.078 491.536C186.167 492.008 185.377 492.659 184.71 493.489C184.059 494.319 183.546 495.271 183.172 496.346C182.814 497.404 182.635 498.527 182.635 499.715ZM233.05 478.377V513.924H228.411V478.377H233.05ZM244.476 478.377V482.234H217.01V478.377H244.476ZM253.582 476.424V513.924H249.065V476.424H253.582ZM252.508 499.715L250.628 499.642C250.644 497.835 250.913 496.167 251.434 494.637C251.954 493.09 252.687 491.748 253.631 490.608C254.575 489.469 255.698 488.59 257 487.972C258.318 487.337 259.775 487.02 261.37 487.02C262.672 487.02 263.844 487.199 264.886 487.557C265.927 487.898 266.814 488.452 267.547 489.217C268.296 489.982 268.865 490.975 269.256 492.195C269.646 493.4 269.842 494.873 269.842 496.614V513.924H265.301V496.565C265.301 495.182 265.097 494.075 264.69 493.245C264.284 492.399 263.689 491.788 262.908 491.414C262.127 491.023 261.167 490.828 260.027 490.828C258.904 490.828 257.879 491.064 256.951 491.536C256.04 492.008 255.25 492.659 254.583 493.489C253.932 494.319 253.419 495.271 253.045 496.346C252.687 497.404 252.508 498.527 252.508 499.715ZM292.767 507.82V487.508H297.308V513.924H292.986L292.767 507.82ZM293.621 502.254L295.501 502.205C295.501 503.963 295.314 505.59 294.939 507.088C294.581 508.569 293.995 509.855 293.182 510.945C292.368 512.036 291.302 512.89 289.983 513.509C288.665 514.111 287.062 514.412 285.174 514.412C283.888 514.412 282.708 514.225 281.634 513.851C280.576 513.476 279.664 512.898 278.899 512.117C278.134 511.336 277.54 510.319 277.117 509.065C276.71 507.812 276.507 506.307 276.507 504.549V487.508H281.023V504.598C281.023 505.786 281.154 506.771 281.414 507.552C281.691 508.317 282.057 508.927 282.513 509.383C282.985 509.822 283.506 510.132 284.075 510.311C284.661 510.49 285.263 510.579 285.882 510.579C287.802 510.579 289.324 510.213 290.447 509.48C291.57 508.732 292.376 507.731 292.864 506.478C293.369 505.208 293.621 503.8 293.621 502.254ZM308.709 491.658V513.924H304.192V487.508H308.587L308.709 491.658ZM316.961 487.361L316.937 491.561C316.562 491.479 316.204 491.43 315.862 491.414C315.537 491.382 315.162 491.365 314.739 491.365C313.698 491.365 312.778 491.528 311.98 491.854C311.183 492.179 310.507 492.635 309.954 493.221C309.401 493.807 308.961 494.507 308.636 495.32C308.326 496.118 308.123 496.997 308.025 497.957L306.756 498.689C306.756 497.094 306.91 495.597 307.22 494.197C307.545 492.798 308.042 491.561 308.709 490.486C309.376 489.396 310.223 488.549 311.248 487.947C312.29 487.329 313.527 487.02 314.959 487.02C315.285 487.02 315.659 487.06 316.082 487.142C316.505 487.207 316.798 487.28 316.961 487.361ZM336.517 506.917C336.517 506.266 336.37 505.664 336.077 505.11C335.8 504.541 335.223 504.028 334.344 503.572C333.481 503.1 332.179 502.693 330.438 502.352C328.973 502.042 327.646 501.676 326.458 501.253C325.286 500.83 324.285 500.317 323.455 499.715C322.641 499.113 322.015 498.405 321.575 497.591C321.136 496.777 320.916 495.825 320.916 494.734C320.916 493.693 321.144 492.708 321.6 491.78C322.072 490.853 322.731 490.031 323.577 489.314C324.44 488.598 325.473 488.037 326.678 487.63C327.882 487.223 329.225 487.02 330.706 487.02C332.822 487.02 334.629 487.394 336.126 488.143C337.623 488.891 338.771 489.892 339.568 491.146C340.366 492.382 340.765 493.758 340.765 495.271H336.248C336.248 494.539 336.028 493.831 335.589 493.147C335.166 492.448 334.539 491.87 333.709 491.414C332.895 490.958 331.894 490.73 330.706 490.73C329.453 490.73 328.436 490.926 327.654 491.316C326.889 491.691 326.328 492.171 325.97 492.757C325.628 493.343 325.457 493.961 325.457 494.612C325.457 495.101 325.538 495.54 325.701 495.931C325.88 496.305 326.189 496.655 326.629 496.98C327.068 497.29 327.687 497.583 328.484 497.859C329.282 498.136 330.299 498.413 331.536 498.689C333.701 499.178 335.483 499.764 336.883 500.447C338.283 501.131 339.324 501.969 340.008 502.962C340.691 503.955 341.033 505.159 341.033 506.575C341.033 507.731 340.789 508.789 340.301 509.749C339.829 510.709 339.137 511.539 338.226 512.239C337.33 512.923 336.256 513.46 335.003 513.851C333.766 514.225 332.374 514.412 330.828 514.412C328.501 514.412 326.531 513.997 324.92 513.167C323.309 512.337 322.088 511.263 321.258 509.944C320.428 508.626 320.013 507.234 320.013 505.77H324.554C324.619 507.007 324.977 507.991 325.628 508.724C326.279 509.44 327.076 509.952 328.021 510.262C328.965 510.555 329.9 510.701 330.828 510.701C332.065 510.701 333.099 510.538 333.929 510.213C334.775 509.887 335.418 509.44 335.857 508.87C336.297 508.3 336.517 507.649 336.517 506.917ZM363.616 508.797V476.424H368.157V513.924H364.007L363.616 508.797ZM345.843 501.009V500.496C345.843 498.478 346.087 496.647 346.575 495.003C347.08 493.343 347.788 491.919 348.699 490.73C349.627 489.542 350.726 488.631 351.995 487.996C353.281 487.345 354.713 487.02 356.292 487.02C357.952 487.02 359.401 487.312 360.638 487.898C361.891 488.468 362.949 489.306 363.812 490.413C364.69 491.504 365.382 492.822 365.887 494.368C366.391 495.914 366.741 497.664 366.937 499.617V501.863C366.757 503.8 366.408 505.542 365.887 507.088C365.382 508.634 364.69 509.952 363.812 511.043C362.949 512.133 361.891 512.972 360.638 513.558C359.384 514.127 357.92 514.412 356.243 514.412C354.697 514.412 353.281 514.078 351.995 513.411C350.726 512.744 349.627 511.808 348.699 510.604C347.788 509.399 347.08 507.983 346.575 506.355C346.087 504.712 345.843 502.929 345.843 501.009ZM350.384 500.496V501.009C350.384 502.327 350.514 503.564 350.774 504.72C351.051 505.875 351.474 506.893 352.044 507.771C352.614 508.65 353.338 509.342 354.217 509.847C355.096 510.335 356.146 510.579 357.366 510.579C358.864 510.579 360.092 510.262 361.053 509.627C362.029 508.992 362.811 508.154 363.396 507.112C363.982 506.071 364.438 504.939 364.764 503.719V497.835C364.568 496.94 364.284 496.077 363.909 495.247C363.551 494.401 363.079 493.652 362.493 493.001C361.924 492.334 361.215 491.805 360.369 491.414C359.539 491.023 358.554 490.828 357.415 490.828C356.178 490.828 355.112 491.089 354.217 491.609C353.338 492.114 352.614 492.814 352.044 493.709C351.474 494.588 351.051 495.613 350.774 496.785C350.514 497.941 350.384 499.178 350.384 500.496ZM390.765 509.407V495.809C390.765 494.767 390.553 493.864 390.13 493.099C389.723 492.317 389.104 491.715 388.274 491.292C387.444 490.869 386.419 490.657 385.198 490.657C384.059 490.657 383.058 490.853 382.195 491.243C381.349 491.634 380.682 492.146 380.193 492.781C379.721 493.416 379.485 494.1 379.485 494.832H374.969C374.969 493.888 375.213 492.952 375.701 492.024C376.189 491.097 376.889 490.258 377.801 489.51C378.729 488.745 379.835 488.143 381.121 487.703C382.423 487.247 383.872 487.02 385.467 487.02C387.387 487.02 389.08 487.345 390.545 487.996C392.026 488.647 393.182 489.632 394.012 490.95C394.858 492.252 395.281 493.888 395.281 495.857V508.162C395.281 509.041 395.354 509.977 395.501 510.97C395.664 511.963 395.9 512.817 396.209 513.533V513.924H391.497C391.269 513.403 391.09 512.711 390.96 511.849C390.83 510.97 390.765 510.156 390.765 509.407ZM391.546 497.908L391.595 501.082H387.029C385.743 501.082 384.596 501.188 383.587 501.399C382.578 501.595 381.731 501.896 381.048 502.303C380.364 502.71 379.843 503.222 379.485 503.841C379.127 504.443 378.948 505.151 378.948 505.965C378.948 506.795 379.135 507.552 379.51 508.235C379.884 508.919 380.446 509.464 381.194 509.871C381.959 510.262 382.895 510.457 384.002 510.457C385.385 510.457 386.606 510.164 387.664 509.578C388.722 508.992 389.56 508.276 390.179 507.43C390.813 506.583 391.155 505.761 391.204 504.964L393.133 507.137C393.019 507.82 392.71 508.577 392.205 509.407C391.701 510.237 391.025 511.035 390.179 511.8C389.349 512.549 388.356 513.175 387.2 513.68C386.061 514.168 384.775 514.412 383.343 514.412C381.552 514.412 379.982 514.062 378.631 513.362C377.296 512.662 376.255 511.727 375.506 510.555C374.773 509.367 374.407 508.04 374.407 506.575C374.407 505.159 374.684 503.914 375.237 502.84C375.791 501.749 376.588 500.846 377.63 500.13C378.672 499.397 379.925 498.844 381.39 498.47C382.854 498.095 384.49 497.908 386.297 497.908H391.546ZM409.417 511.189L416.766 487.508H421.6L411.004 518.001C410.76 518.652 410.434 519.352 410.027 520.101C409.637 520.866 409.132 521.59 408.514 522.273C407.895 522.957 407.146 523.51 406.268 523.934C405.405 524.373 404.371 524.593 403.167 524.593C402.809 524.593 402.353 524.544 401.8 524.446C401.246 524.349 400.856 524.267 400.628 524.202L400.604 520.54C400.734 520.556 400.937 520.573 401.214 520.589C401.507 520.621 401.71 520.638 401.824 520.638C402.85 520.638 403.72 520.499 404.437 520.223C405.153 519.962 405.755 519.515 406.243 518.88C406.748 518.261 407.179 517.407 407.537 516.316L409.417 511.189ZM404.021 487.508L410.882 508.016L412.054 512.776L408.807 514.437L399.09 487.508H404.021ZM443.475 478.377V513.924H438.763V478.377H443.475ZM458.367 494.368V498.226H442.449V494.368H458.367ZM460.784 478.377V482.234H442.449V478.377H460.784ZM476.141 514.412C474.301 514.412 472.633 514.103 471.136 513.484C469.655 512.85 468.377 511.963 467.303 510.823C466.245 509.684 465.431 508.333 464.861 506.771C464.292 505.208 464.007 503.499 464.007 501.644V500.618C464.007 498.47 464.324 496.557 464.959 494.881C465.594 493.188 466.456 491.756 467.547 490.584C468.637 489.412 469.874 488.525 471.258 487.923C472.641 487.321 474.074 487.02 475.555 487.02C477.443 487.02 479.07 487.345 480.438 487.996C481.821 488.647 482.952 489.559 483.831 490.73C484.71 491.886 485.361 493.253 485.784 494.832C486.207 496.395 486.419 498.104 486.419 499.959V501.985H466.692V498.299H481.902V497.957C481.837 496.785 481.593 495.646 481.17 494.539C480.763 493.432 480.112 492.521 479.217 491.805C478.322 491.089 477.101 490.73 475.555 490.73C474.529 490.73 473.585 490.95 472.723 491.39C471.86 491.813 471.119 492.448 470.501 493.294C469.882 494.14 469.402 495.174 469.061 496.395C468.719 497.615 468.548 499.023 468.548 500.618V501.644C468.548 502.897 468.719 504.077 469.061 505.184C469.419 506.274 469.931 507.234 470.599 508.064C471.282 508.895 472.104 509.546 473.064 510.018C474.041 510.49 475.148 510.726 476.385 510.726C477.98 510.726 479.331 510.4 480.438 509.749C481.544 509.098 482.513 508.227 483.343 507.137L486.077 509.31C485.507 510.172 484.783 510.994 483.904 511.775C483.025 512.557 481.943 513.191 480.657 513.68C479.388 514.168 477.882 514.412 476.141 514.412ZM491.668 476.424H496.209V508.797L495.818 513.924H491.668V476.424ZM514.056 500.496V501.009C514.056 502.929 513.828 504.712 513.372 506.355C512.916 507.983 512.249 509.399 511.37 510.604C510.491 511.808 509.417 512.744 508.147 513.411C506.878 514.078 505.421 514.412 503.777 514.412C502.101 514.412 500.628 514.127 499.358 513.558C498.105 512.972 497.047 512.133 496.185 511.043C495.322 509.952 494.63 508.634 494.109 507.088C493.605 505.542 493.255 503.8 493.06 501.863V499.617C493.255 497.664 493.605 495.914 494.109 494.368C494.63 492.822 495.322 491.504 496.185 490.413C497.047 489.306 498.105 488.468 499.358 487.898C500.612 487.312 502.068 487.02 503.729 487.02C505.389 487.02 506.862 487.345 508.147 487.996C509.433 488.631 510.507 489.542 511.37 490.73C512.249 491.919 512.916 493.343 513.372 495.003C513.828 496.647 514.056 498.478 514.056 500.496ZM509.515 501.009V500.496C509.515 499.178 509.393 497.941 509.148 496.785C508.904 495.613 508.514 494.588 507.977 493.709C507.439 492.814 506.731 492.114 505.853 491.609C504.974 491.089 503.891 490.828 502.605 490.828C501.466 490.828 500.473 491.023 499.627 491.414C498.797 491.805 498.089 492.334 497.503 493.001C496.917 493.652 496.437 494.401 496.062 495.247C495.704 496.077 495.436 496.94 495.257 497.835V503.719C495.517 504.858 495.94 505.957 496.526 507.015C497.129 508.056 497.926 508.911 498.919 509.578C499.928 510.245 501.173 510.579 502.654 510.579C503.875 510.579 504.917 510.335 505.779 509.847C506.658 509.342 507.366 508.65 507.903 507.771C508.457 506.893 508.864 505.875 509.124 504.72C509.384 503.564 509.515 502.327 509.515 501.009ZM554.974 510.213V513.924H531.707V510.677L543.353 497.713C544.785 496.118 545.892 494.767 546.673 493.66C547.47 492.537 548.024 491.536 548.333 490.657C548.659 489.762 548.821 488.851 548.821 487.923C548.821 486.751 548.577 485.693 548.089 484.749C547.617 483.789 546.917 483.024 545.989 482.454C545.062 481.884 543.938 481.6 542.62 481.6C541.041 481.6 539.723 481.909 538.665 482.527C537.623 483.13 536.842 483.976 536.321 485.066C535.8 486.157 535.54 487.41 535.54 488.826H531.023C531.023 486.824 531.463 484.993 532.342 483.333C533.221 481.673 534.523 480.354 536.248 479.378C537.973 478.385 540.097 477.889 542.62 477.889C544.866 477.889 546.787 478.287 548.382 479.085C549.977 479.866 551.198 480.973 552.044 482.405C552.907 483.821 553.338 485.481 553.338 487.386C553.338 488.427 553.159 489.485 552.801 490.56C552.459 491.618 551.979 492.675 551.36 493.733C550.758 494.791 550.05 495.833 549.236 496.858C548.439 497.884 547.584 498.893 546.673 499.886L537.151 510.213H554.974ZM583.831 501.961V505.672H558.147V503.011L574.065 478.377H577.752L573.797 485.506L563.274 501.961H583.831ZM578.875 478.377V513.924H574.358V478.377H578.875ZM592.522 508.553V512.19C592.522 513.672 592.148 515.234 591.399 516.878C590.651 518.538 589.601 519.922 588.25 521.028L585.687 519.246C586.207 518.53 586.647 517.798 587.005 517.049C587.363 516.316 587.632 515.551 587.811 514.754C588.006 513.973 588.104 513.143 588.104 512.264V508.553H592.522ZM633.489 510.213V513.924H610.223V510.677L621.868 497.713C623.3 496.118 624.407 494.767 625.188 493.66C625.986 492.537 626.539 491.536 626.849 490.657C627.174 489.762 627.337 488.851 627.337 487.923C627.337 486.751 627.093 485.693 626.604 484.749C626.132 483.789 625.433 483.024 624.505 482.454C623.577 481.884 622.454 481.6 621.136 481.6C619.557 481.6 618.239 481.909 617.181 482.527C616.139 483.13 615.358 483.976 614.837 485.066C614.316 486.157 614.056 487.41 614.056 488.826H609.539C609.539 486.824 609.979 484.993 610.857 483.333C611.736 481.673 613.038 480.354 614.764 479.378C616.489 478.385 618.613 477.889 621.136 477.889C623.382 477.889 625.302 478.287 626.897 479.085C628.493 479.866 629.713 480.973 630.56 482.405C631.422 483.821 631.854 485.481 631.854 487.386C631.854 488.427 631.674 489.485 631.316 490.56C630.975 491.618 630.494 492.675 629.876 493.733C629.274 494.791 628.566 495.833 627.752 496.858C626.954 497.884 626.1 498.893 625.188 499.886L615.667 510.213H633.489ZM660.638 493.318V498.738C660.638 501.652 660.377 504.109 659.856 506.111C659.336 508.113 658.587 509.725 657.61 510.945C656.634 512.166 655.454 513.053 654.07 513.606C652.703 514.144 651.157 514.412 649.432 514.412C648.064 514.412 646.803 514.241 645.647 513.899C644.492 513.558 643.45 513.012 642.522 512.264C641.611 511.499 640.83 510.506 640.179 509.285C639.528 508.064 639.031 506.583 638.689 504.842C638.348 503.1 638.177 501.066 638.177 498.738V493.318C638.177 490.405 638.437 487.964 638.958 485.994C639.495 484.025 640.252 482.446 641.229 481.258C642.205 480.053 643.377 479.191 644.744 478.67C646.128 478.149 647.674 477.889 649.383 477.889C650.766 477.889 652.036 478.06 653.191 478.401C654.363 478.727 655.405 479.256 656.316 479.988C657.228 480.704 658.001 481.665 658.636 482.869C659.287 484.057 659.783 485.514 660.125 487.239C660.467 488.965 660.638 490.991 660.638 493.318ZM656.097 499.471V492.562C656.097 490.966 655.999 489.567 655.804 488.362C655.625 487.142 655.356 486.1 654.998 485.237C654.64 484.375 654.184 483.675 653.631 483.138C653.094 482.601 652.467 482.21 651.751 481.966C651.051 481.705 650.262 481.575 649.383 481.575C648.309 481.575 647.356 481.779 646.526 482.186C645.696 482.576 644.996 483.203 644.427 484.065C643.873 484.928 643.45 486.059 643.157 487.459C642.864 488.859 642.718 490.56 642.718 492.562V499.471C642.718 501.066 642.807 502.474 642.986 503.694C643.182 504.915 643.466 505.973 643.841 506.868C644.215 507.747 644.671 508.471 645.208 509.041C645.745 509.611 646.364 510.034 647.063 510.311C647.78 510.571 648.569 510.701 649.432 510.701C650.538 510.701 651.507 510.49 652.337 510.066C653.167 509.643 653.859 508.984 654.412 508.089C654.982 507.177 655.405 506.014 655.682 504.598C655.958 503.165 656.097 501.456 656.097 499.471ZM689.739 510.213V513.924H666.473V510.677L678.118 497.713C679.55 496.118 680.657 494.767 681.438 493.66C682.236 492.537 682.789 491.536 683.099 490.657C683.424 489.762 683.587 488.851 683.587 487.923C683.587 486.751 683.343 485.693 682.854 484.749C682.382 483.789 681.683 483.024 680.755 482.454C679.827 481.884 678.704 481.6 677.386 481.6C675.807 481.6 674.489 481.909 673.431 482.527C672.389 483.13 671.608 483.976 671.087 485.066C670.566 486.157 670.306 487.41 670.306 488.826H665.789C665.789 486.824 666.229 484.993 667.107 483.333C667.986 481.673 669.288 480.354 671.014 479.378C672.739 478.385 674.863 477.889 677.386 477.889C679.632 477.889 681.552 478.287 683.147 479.085C684.743 479.866 685.963 480.973 686.81 482.405C687.672 483.821 688.104 485.481 688.104 487.386C688.104 488.427 687.924 489.485 687.566 490.56C687.225 491.618 686.744 492.675 686.126 493.733C685.524 494.791 684.816 495.833 684.002 496.858C683.204 497.884 682.35 498.893 681.438 499.886L671.917 510.213H689.739ZM717.864 510.213V513.924H694.598V510.677L706.243 497.713C707.675 496.118 708.782 494.767 709.563 493.66C710.361 492.537 710.914 491.536 711.224 490.657C711.549 489.762 711.712 488.851 711.712 487.923C711.712 486.751 711.468 485.693 710.979 484.749C710.507 483.789 709.808 483.024 708.88 482.454C707.952 481.884 706.829 481.6 705.511 481.6C703.932 481.6 702.614 481.909 701.556 482.527C700.514 483.13 699.733 483.976 699.212 485.066C698.691 486.157 698.431 487.41 698.431 488.826H693.914C693.914 486.824 694.354 484.993 695.232 483.333C696.111 481.673 697.413 480.354 699.139 479.378C700.864 478.385 702.988 477.889 705.511 477.889C707.757 477.889 709.677 478.287 711.272 479.085C712.868 479.866 714.088 480.973 714.935 482.405C715.797 483.821 716.229 485.481 716.229 487.386C716.229 488.427 716.049 489.485 715.691 490.56C715.35 491.618 714.869 492.675 714.251 493.733C713.649 494.791 712.941 495.833 712.127 496.858C711.329 497.884 710.475 498.893 709.563 499.886L700.042 510.213H717.864Z" fill="#FD0404"/>
<path d="M215.789 518.807H719.72V521.248H215.789V518.807Z" fill="#FD0404"/>
</g>
<path d="M28 28V26H26V28H28ZM1110 28H1112V26H1110V28ZM1110 638.884V640.884H1112V638.884H1110ZM28 638.884H26V640.884H28V638.884ZM28 30H1110V26H28V30ZM1108 28V638.884H1112V28H1108ZM1110 636.884H28V640.884H1110V636.884ZM30 638.884V28H26V638.884H30Z" fill="black"/>
</g>
<defs>
<filter id="filter0_d_146_3036" x="0" y="0" width="1154" height="682.885" filterUnits="userSpaceOnUse" color-interpolation-filters="sRGB">
<feFlood flood-opacity="0" result="BackgroundImageFix"/>
<feColorMatrix in="SourceAlpha" type="matrix" values="0 0 0 0 0 0 0 0 0 0 0 0 0 0 0 0 0 0 127 0" result="hardAlpha"/>
<feOffset dx="8" dy="8"/>
<feGaussianBlur stdDeviation="17"/>
<feComposite in2="hardAlpha" operator="out"/>
<feColorMatrix type="matrix" values="0 0 0 0 0 0 0 0 0 0 0 0 0 0 0 0 0 0 0.25 0"/>
<feBlend mode="normal" in2="BackgroundImageFix" result="effect1_dropShadow_146_3036"/>
<feBlend mode="normal" in="SourceGraphic" in2="effect1_dropShadow_146_3036" result="shape"/>
</filter>
<clipPath id="clip0_146_3036">
<path d="M28 28H1110V638.884H28V28Z" fill="white"/>
</clipPath>
</defs>
</svg>
