<svg width="1154" height="683" viewBox="0 0 1154 683" fill="none" xmlns="http://www.w3.org/2000/svg">
<g filter="url(#filter0_d_157_7097)">
<g clip-path="url(#clip0_157_7097)">
<path d="M28 28H1110V638.884H28V28Z" fill="#FFF87B"/>
<rect width="1081" height="99" transform="translate(28 27.9414)" fill="#FFF87B"/>
<line x1="914.004" y1="76.4121" x2="953.947" y2="76.4121" stroke="#FD0404" stroke-width="3"/>
<rect x="975.031" y="56.4414" width="42.9428" height="42.9428" stroke="#FD0404" stroke-width="3"/>
<line x1="1037.99" y1="96.8241" x2="1077.94" y2="56.8813" stroke="#FD0404" stroke-width="3"/>
<line x1="1040.12" y1="56.8807" x2="1080.06" y2="96.8235" stroke="#FD0404" stroke-width="3"/>
<path d="M151.36 162.453H163.128C165.797 162.453 168.051 162.86 169.891 163.674C171.746 164.488 173.154 165.692 174.114 167.287C175.091 168.866 175.579 170.811 175.579 173.122C175.579 174.75 175.245 176.239 174.578 177.59C173.927 178.924 172.983 180.064 171.746 181.008C170.525 181.936 169.061 182.627 167.352 183.083L166.033 183.596H154.974L154.925 179.763H163.274C164.967 179.763 166.375 179.47 167.498 178.884C168.621 178.282 169.467 177.476 170.037 176.467C170.607 175.458 170.892 174.343 170.892 173.122C170.892 171.755 170.623 170.559 170.086 169.533C169.549 168.508 168.702 167.718 167.547 167.165C166.408 166.595 164.935 166.311 163.128 166.311H156.072V198H151.36V162.453ZM172.137 198L163.494 181.887L168.401 181.862L177.166 197.707V198H172.137ZM192.449 198.488C190.61 198.488 188.942 198.179 187.444 197.561C185.963 196.926 184.686 196.039 183.611 194.899C182.553 193.76 181.74 192.409 181.17 190.847C180.6 189.284 180.315 187.575 180.315 185.72V184.694C180.315 182.546 180.633 180.633 181.268 178.957C181.902 177.264 182.765 175.832 183.855 174.66C184.946 173.488 186.183 172.601 187.566 171.999C188.95 171.397 190.382 171.096 191.863 171.096C193.751 171.096 195.379 171.421 196.746 172.072C198.13 172.723 199.261 173.635 200.14 174.807C201.019 175.962 201.67 177.329 202.093 178.908C202.516 180.471 202.728 182.18 202.728 184.035V186.062H183.001V182.375H198.211V182.033C198.146 180.861 197.902 179.722 197.479 178.615C197.072 177.508 196.421 176.597 195.525 175.881C194.63 175.165 193.41 174.807 191.863 174.807C190.838 174.807 189.894 175.026 189.031 175.466C188.169 175.889 187.428 176.524 186.81 177.37C186.191 178.216 185.711 179.25 185.369 180.471C185.027 181.691 184.856 183.099 184.856 184.694V185.72C184.856 186.973 185.027 188.153 185.369 189.26C185.727 190.35 186.24 191.311 186.907 192.141C187.591 192.971 188.413 193.622 189.373 194.094C190.35 194.566 191.456 194.802 192.693 194.802C194.288 194.802 195.639 194.476 196.746 193.825C197.853 193.174 198.821 192.303 199.651 191.213L202.386 193.386C201.816 194.248 201.092 195.07 200.213 195.852C199.334 196.633 198.252 197.268 196.966 197.756C195.696 198.244 194.191 198.488 192.449 198.488ZM212.493 176.833V198H207.952V171.584H212.249L212.493 176.833ZM211.565 183.791L209.466 183.718C209.482 181.911 209.718 180.243 210.174 178.713C210.63 177.167 211.305 175.824 212.2 174.685C213.095 173.545 214.21 172.666 215.545 172.048C216.88 171.413 218.426 171.096 220.184 171.096C221.421 171.096 222.56 171.275 223.602 171.633C224.643 171.975 225.547 172.52 226.312 173.269C227.076 174.017 227.671 174.978 228.094 176.149C228.517 177.321 228.729 178.737 228.729 180.397V198H224.212V180.617C224.212 179.234 223.976 178.127 223.504 177.297C223.048 176.467 222.397 175.865 221.551 175.49C220.704 175.1 219.712 174.904 218.572 174.904C217.238 174.904 216.123 175.14 215.228 175.612C214.332 176.084 213.616 176.735 213.079 177.565C212.542 178.396 212.151 179.348 211.907 180.422C211.679 181.48 211.565 182.603 211.565 183.791ZM228.68 181.301L225.652 182.229C225.669 180.78 225.905 179.388 226.36 178.054C226.832 176.719 227.508 175.531 228.387 174.489C229.282 173.448 230.381 172.626 231.683 172.023C232.985 171.405 234.474 171.096 236.15 171.096C237.566 171.096 238.82 171.283 239.91 171.657C241.017 172.032 241.945 172.609 242.693 173.391C243.458 174.156 244.036 175.14 244.427 176.345C244.817 177.549 245.013 178.981 245.013 180.642V198H240.472V180.593C240.472 179.112 240.236 177.964 239.764 177.15C239.308 176.32 238.657 175.743 237.811 175.417C236.98 175.075 235.988 174.904 234.832 174.904C233.839 174.904 232.96 175.075 232.195 175.417C231.43 175.759 230.787 176.231 230.267 176.833C229.746 177.419 229.347 178.094 229.07 178.859C228.81 179.624 228.68 180.438 228.68 181.301ZM256.756 171.584V198H252.215V171.584H256.756ZM251.873 164.577C251.873 163.845 252.093 163.226 252.532 162.722C252.988 162.217 253.655 161.965 254.534 161.965C255.397 161.965 256.056 162.217 256.512 162.722C256.984 163.226 257.22 163.845 257.22 164.577C257.22 165.277 256.984 165.879 256.512 166.384C256.056 166.872 255.397 167.116 254.534 167.116C253.655 167.116 252.988 166.872 252.532 166.384C252.093 165.879 251.873 165.277 251.873 164.577ZM268.523 177.224V198H264.007V171.584H268.279L268.523 177.224ZM267.449 183.791L265.569 183.718C265.586 181.911 265.854 180.243 266.375 178.713C266.896 177.167 267.628 175.824 268.572 174.685C269.516 173.545 270.639 172.666 271.941 172.048C273.26 171.413 274.716 171.096 276.312 171.096C277.614 171.096 278.785 171.275 279.827 171.633C280.869 171.975 281.756 172.528 282.488 173.293C283.237 174.058 283.807 175.051 284.197 176.271C284.588 177.476 284.783 178.949 284.783 180.69V198H280.242V180.642C280.242 179.258 280.039 178.151 279.632 177.321C279.225 176.475 278.631 175.865 277.85 175.49C277.068 175.1 276.108 174.904 274.969 174.904C273.846 174.904 272.82 175.14 271.893 175.612C270.981 176.084 270.192 176.735 269.524 177.565C268.873 178.396 268.361 179.348 267.986 180.422C267.628 181.48 267.449 182.603 267.449 183.791ZM308.294 192.873V160.5H312.835V198H308.685L308.294 192.873ZM290.521 185.085V184.572C290.521 182.554 290.765 180.723 291.253 179.079C291.757 177.419 292.465 175.995 293.377 174.807C294.305 173.618 295.403 172.707 296.673 172.072C297.959 171.421 299.391 171.096 300.97 171.096C302.63 171.096 304.078 171.389 305.315 171.975C306.569 172.544 307.627 173.382 308.489 174.489C309.368 175.58 310.06 176.898 310.564 178.444C311.069 179.991 311.419 181.74 311.614 183.693V185.939C311.435 187.876 311.085 189.618 310.564 191.164C310.06 192.71 309.368 194.029 308.489 195.119C307.627 196.21 306.569 197.048 305.315 197.634C304.062 198.203 302.597 198.488 300.921 198.488C299.375 198.488 297.959 198.155 296.673 197.487C295.403 196.82 294.305 195.884 293.377 194.68C292.465 193.475 291.757 192.059 291.253 190.432C290.765 188.788 290.521 187.006 290.521 185.085ZM295.062 184.572V185.085C295.062 186.403 295.192 187.64 295.452 188.796C295.729 189.951 296.152 190.969 296.722 191.848C297.291 192.727 298.016 193.418 298.895 193.923C299.773 194.411 300.823 194.655 302.044 194.655C303.541 194.655 304.77 194.338 305.73 193.703C306.707 193.068 307.488 192.23 308.074 191.188C308.66 190.147 309.116 189.016 309.441 187.795V181.911C309.246 181.016 308.961 180.153 308.587 179.323C308.229 178.477 307.757 177.728 307.171 177.077C306.601 176.41 305.893 175.881 305.047 175.49C304.217 175.1 303.232 174.904 302.093 174.904C300.856 174.904 299.79 175.165 298.895 175.686C298.016 176.19 297.291 176.89 296.722 177.785C296.152 178.664 295.729 179.689 295.452 180.861C295.192 182.017 295.062 183.254 295.062 184.572ZM330.828 198.488C328.989 198.488 327.321 198.179 325.823 197.561C324.342 196.926 323.064 196.039 321.99 194.899C320.932 193.76 320.118 192.409 319.549 190.847C318.979 189.284 318.694 187.575 318.694 185.72V184.694C318.694 182.546 319.012 180.633 319.646 178.957C320.281 177.264 321.144 175.832 322.234 174.66C323.325 173.488 324.562 172.601 325.945 171.999C327.329 171.397 328.761 171.096 330.242 171.096C332.13 171.096 333.758 171.421 335.125 172.072C336.508 172.723 337.64 173.635 338.519 174.807C339.397 175.962 340.049 177.329 340.472 178.908C340.895 180.471 341.106 182.18 341.106 184.035V186.062H321.38V182.375H336.59V182.033C336.525 180.861 336.281 179.722 335.857 178.615C335.451 177.508 334.799 176.597 333.904 175.881C333.009 175.165 331.788 174.807 330.242 174.807C329.217 174.807 328.273 175.026 327.41 175.466C326.548 175.889 325.807 176.524 325.188 177.37C324.57 178.216 324.09 179.25 323.748 180.471C323.406 181.691 323.235 183.099 323.235 184.694V185.72C323.235 186.973 323.406 188.153 323.748 189.26C324.106 190.35 324.619 191.311 325.286 192.141C325.97 192.971 326.792 193.622 327.752 194.094C328.729 194.566 329.835 194.802 331.072 194.802C332.667 194.802 334.018 194.476 335.125 193.825C336.232 193.174 337.2 192.303 338.03 191.213L340.765 193.386C340.195 194.248 339.471 195.07 338.592 195.852C337.713 196.633 336.631 197.268 335.345 197.756C334.075 198.244 332.57 198.488 330.828 198.488ZM350.896 175.734V198H346.38V171.584H350.774L350.896 175.734ZM359.148 171.438L359.124 175.637C358.75 175.555 358.392 175.507 358.05 175.49C357.724 175.458 357.35 175.441 356.927 175.441C355.885 175.441 354.965 175.604 354.168 175.93C353.37 176.255 352.695 176.711 352.142 177.297C351.588 177.883 351.149 178.583 350.823 179.396C350.514 180.194 350.311 181.073 350.213 182.033L348.943 182.766C348.943 181.171 349.098 179.673 349.407 178.273C349.733 176.874 350.229 175.637 350.896 174.562C351.564 173.472 352.41 172.626 353.436 172.023C354.477 171.405 355.714 171.096 357.146 171.096C357.472 171.096 357.846 171.136 358.27 171.218C358.693 171.283 358.986 171.356 359.148 171.438Z" fill="#FD0404"/>
<path d="M156.36 283.195H165.042L177.825 319.733L190.608 283.195H199.29L181.312 332.961H174.339L156.36 283.195ZM151.678 283.195H160.325L161.897 318.811V332.961H151.678V283.195ZM195.325 283.195H204.007V332.961H193.753V318.811L195.325 283.195ZM232.342 324.621V308.146C232.342 306.962 232.148 305.948 231.761 305.104C231.373 304.239 230.77 303.566 229.949 303.088C229.152 302.609 228.115 302.37 226.839 302.37C225.745 302.37 224.799 302.564 224.002 302.951C223.204 303.316 222.589 303.851 222.156 304.558C221.723 305.241 221.507 306.05 221.507 306.984H211.663C211.663 305.412 212.028 303.92 212.757 302.507C213.486 301.094 214.546 299.852 215.936 298.781C217.326 297.688 218.978 296.833 220.892 296.218C222.828 295.603 224.993 295.295 227.386 295.295C230.257 295.295 232.809 295.773 235.042 296.73C237.275 297.688 239.03 299.123 240.306 301.037C241.604 302.951 242.254 305.344 242.254 308.215V324.04C242.254 326.068 242.379 327.731 242.63 329.03C242.881 330.306 243.245 331.423 243.724 332.38V332.961H233.777C233.299 331.958 232.934 330.705 232.684 329.201C232.456 327.674 232.342 326.148 232.342 324.621ZM233.641 310.437L233.709 316.008H228.206C226.907 316.008 225.779 316.156 224.822 316.452C223.865 316.748 223.079 317.17 222.464 317.717C221.849 318.241 221.393 318.856 221.097 319.562C220.823 320.269 220.687 321.044 220.687 321.887C220.687 322.73 220.88 323.493 221.268 324.177C221.655 324.838 222.213 325.362 222.942 325.749C223.672 326.114 224.526 326.296 225.506 326.296C226.987 326.296 228.274 326 229.368 325.407C230.462 324.815 231.305 324.086 231.897 323.22C232.513 322.354 232.832 321.534 232.854 320.759L235.452 324.929C235.088 325.863 234.586 326.831 233.948 327.834C233.333 328.837 232.547 329.782 231.59 330.671C230.633 331.537 229.482 332.255 228.138 332.824C226.793 333.371 225.198 333.645 223.353 333.645C221.006 333.645 218.875 333.177 216.961 332.243C215.07 331.286 213.566 329.976 212.449 328.312C211.355 326.626 210.809 324.712 210.809 322.57C210.809 320.633 211.173 318.913 211.902 317.409C212.632 315.905 213.702 314.641 215.115 313.615C216.551 312.567 218.34 311.781 220.481 311.257C222.623 310.71 225.107 310.437 227.933 310.437H233.641ZM259.686 304.045V332.961H249.842V295.979H259.104L259.686 304.045ZM270.828 295.739L270.657 304.865C270.179 304.797 269.598 304.74 268.914 304.694C268.253 304.626 267.649 304.592 267.103 304.592C265.713 304.592 264.505 304.774 263.479 305.139C262.477 305.48 261.634 305.993 260.95 306.677C260.289 307.36 259.788 308.192 259.446 309.172C259.127 310.152 258.945 311.268 258.899 312.521L256.917 311.906C256.917 309.514 257.156 307.315 257.635 305.31C258.113 303.282 258.808 301.516 259.72 300.012C260.654 298.508 261.793 297.346 263.138 296.525C264.482 295.705 266.02 295.295 267.752 295.295C268.299 295.295 268.857 295.34 269.427 295.432C269.996 295.5 270.464 295.603 270.828 295.739ZM290.071 325.954C291.279 325.954 292.35 325.726 293.284 325.271C294.218 324.792 294.948 324.131 295.472 323.288C296.019 322.422 296.303 321.408 296.326 320.246H305.589C305.566 322.844 304.871 325.157 303.504 327.185C302.137 329.19 300.302 330.773 298.001 331.936C295.7 333.075 293.125 333.645 290.276 333.645C287.405 333.645 284.899 333.166 282.757 332.209C280.638 331.252 278.872 329.93 277.459 328.244C276.046 326.535 274.987 324.553 274.28 322.297C273.574 320.018 273.221 317.58 273.221 314.982V313.991C273.221 311.371 273.574 308.933 274.28 306.677C274.987 304.398 276.046 302.416 277.459 300.729C278.872 299.021 280.638 297.688 282.757 296.73C284.876 295.773 287.36 295.295 290.208 295.295C293.239 295.295 295.893 295.876 298.172 297.038C300.473 298.2 302.273 299.864 303.572 302.028C304.894 304.17 305.566 306.711 305.589 309.65H296.326C296.303 308.42 296.041 307.303 295.54 306.301C295.062 305.298 294.355 304.501 293.421 303.908C292.509 303.293 291.382 302.985 290.037 302.985C288.602 302.985 287.428 303.293 286.517 303.908C285.605 304.501 284.899 305.321 284.397 306.369C283.896 307.395 283.543 308.568 283.338 309.89C283.156 311.188 283.064 312.556 283.064 313.991V314.982C283.064 316.418 283.156 317.797 283.338 319.118C283.52 320.44 283.862 321.613 284.363 322.639C284.887 323.664 285.605 324.473 286.517 325.065C287.428 325.658 288.613 325.954 290.071 325.954ZM320.901 280.461V332.961H311.058V280.461H320.901ZM319.5 313.171H316.8C316.823 310.596 317.164 308.226 317.825 306.062C318.486 303.874 319.432 301.983 320.662 300.388C321.893 298.77 323.362 297.517 325.071 296.628C326.803 295.739 328.717 295.295 330.813 295.295C332.636 295.295 334.288 295.557 335.77 296.081C337.273 296.582 338.561 297.403 339.632 298.542C340.726 299.659 341.569 301.128 342.161 302.951C342.754 304.774 343.05 306.984 343.05 309.582V332.961H333.138V309.514C333.138 307.873 332.898 306.586 332.42 305.651C331.964 304.694 331.292 304.022 330.403 303.635C329.537 303.225 328.466 303.02 327.19 303.02C325.778 303.02 324.57 303.282 323.567 303.806C322.588 304.33 321.801 305.059 321.209 305.993C320.617 306.905 320.184 307.976 319.91 309.206C319.637 310.437 319.5 311.758 319.5 313.171ZM378.836 283.195V332.961H368.582V283.195H378.836ZM398.66 304.455V312.453H376.033V304.455H398.66ZM401.053 283.195V291.228H376.033V283.195H401.053ZM422.654 333.645C419.783 333.645 417.208 333.189 414.93 332.277C412.651 331.343 410.714 330.056 409.119 328.415C407.547 326.774 406.339 324.872 405.496 322.707C404.653 320.52 404.231 318.195 404.231 315.734V314.367C404.231 311.564 404.63 309.001 405.428 306.677C406.225 304.353 407.365 302.336 408.846 300.627C410.35 298.918 412.173 297.608 414.314 296.696C416.456 295.762 418.872 295.295 421.561 295.295C424.181 295.295 426.505 295.728 428.533 296.594C430.561 297.46 432.259 298.69 433.626 300.285C435.016 301.88 436.064 303.794 436.771 306.027C437.477 308.238 437.83 310.699 437.83 313.41V317.512H408.436V310.949H428.157V310.197C428.157 308.83 427.907 307.611 427.405 306.54C426.927 305.446 426.198 304.58 425.218 303.942C424.238 303.304 422.985 302.985 421.458 302.985C420.159 302.985 419.043 303.27 418.108 303.84C417.174 304.41 416.411 305.207 415.818 306.232C415.249 307.258 414.816 308.465 414.52 309.855C414.246 311.223 414.109 312.727 414.109 314.367V315.734C414.109 317.215 414.314 318.583 414.725 319.836C415.158 321.089 415.761 322.172 416.536 323.083C417.334 323.994 418.291 324.701 419.407 325.202C420.547 325.703 421.834 325.954 423.27 325.954C425.047 325.954 426.699 325.612 428.226 324.929C429.775 324.222 431.108 323.163 432.225 321.75L437.01 326.945C436.235 328.062 435.175 329.133 433.831 330.158C432.509 331.184 430.914 332.027 429.046 332.688C427.177 333.326 425.047 333.645 422.654 333.645ZM463.431 322.741C463.431 322.035 463.226 321.397 462.815 320.827C462.405 320.257 461.642 319.733 460.525 319.255C459.432 318.754 457.848 318.298 455.774 317.888C453.906 317.478 452.163 316.965 450.545 316.35C448.95 315.712 447.56 314.948 446.375 314.06C445.213 313.171 444.301 312.123 443.641 310.915C442.98 309.685 442.649 308.283 442.649 306.711C442.649 305.161 442.98 303.703 443.641 302.336C444.324 300.969 445.293 299.761 446.546 298.713C447.822 297.642 449.371 296.81 451.194 296.218C453.04 295.603 455.114 295.295 457.415 295.295C460.628 295.295 463.385 295.808 465.687 296.833C468.011 297.858 469.788 299.271 471.019 301.071C472.272 302.849 472.898 304.877 472.898 307.155H463.055C463.055 306.198 462.85 305.344 462.439 304.592C462.052 303.817 461.437 303.213 460.594 302.78C459.773 302.325 458.702 302.097 457.381 302.097C456.287 302.097 455.341 302.29 454.544 302.678C453.746 303.042 453.131 303.544 452.698 304.182C452.288 304.797 452.083 305.48 452.083 306.232C452.083 306.802 452.197 307.315 452.425 307.771C452.675 308.203 453.074 308.602 453.621 308.967C454.168 309.331 454.874 309.673 455.74 309.992C456.629 310.288 457.723 310.562 459.021 310.812C461.688 311.359 464.069 312.077 466.165 312.966C468.261 313.832 469.925 315.017 471.155 316.521C472.386 318.002 473.001 319.95 473.001 322.365C473.001 324.006 472.636 325.51 471.907 326.877C471.178 328.244 470.13 329.44 468.763 330.466C467.396 331.468 465.755 332.255 463.841 332.824C461.95 333.371 459.819 333.645 457.449 333.645C454.008 333.645 451.092 333.029 448.699 331.799C446.329 330.568 444.529 329.007 443.299 327.116C442.091 325.202 441.487 323.243 441.487 321.237H450.818C450.864 322.582 451.206 323.664 451.844 324.484C452.505 325.305 453.336 325.897 454.339 326.262C455.364 326.626 456.469 326.809 457.654 326.809C458.93 326.809 459.99 326.638 460.833 326.296C461.676 325.931 462.314 325.453 462.747 324.86C463.203 324.245 463.431 323.539 463.431 322.741ZM497.508 295.979V302.951H475.975V295.979H497.508ZM481.307 286.853H491.15V321.818C491.15 322.889 491.287 323.71 491.561 324.279C491.857 324.849 492.29 325.248 492.859 325.476C493.429 325.681 494.147 325.783 495.013 325.783C495.628 325.783 496.175 325.76 496.653 325.715C497.155 325.646 497.576 325.578 497.918 325.51L497.952 332.756C497.109 333.029 496.198 333.246 495.218 333.405C494.238 333.565 493.156 333.645 491.971 333.645C489.806 333.645 487.915 333.291 486.297 332.585C484.702 331.856 483.471 330.694 482.605 329.099C481.74 327.504 481.307 325.407 481.307 322.81V286.853ZM513.504 295.979V332.961H503.626V295.979H513.504ZM503.011 286.34C503.011 284.904 503.512 283.719 504.515 282.785C505.517 281.851 506.862 281.384 508.548 281.384C510.211 281.384 511.544 281.851 512.547 282.785C513.572 283.719 514.085 284.904 514.085 286.34C514.085 287.775 513.572 288.96 512.547 289.895C511.544 290.829 510.211 291.296 508.548 291.296C506.862 291.296 505.517 290.829 504.515 289.895C503.512 288.96 503.011 287.775 503.011 286.34ZM534.217 325.783L542.42 295.979H552.708L540.232 332.961H534.012L534.217 325.783ZM528.577 295.979L536.814 325.817L536.985 332.961H530.73L518.255 295.979H528.577ZM576.531 324.621V308.146C576.531 306.962 576.338 305.948 575.95 305.104C575.563 304.239 574.959 303.566 574.139 303.088C573.341 302.609 572.304 302.37 571.028 302.37C569.935 302.37 568.989 302.564 568.191 302.951C567.394 303.316 566.779 303.851 566.346 304.558C565.913 305.241 565.696 306.05 565.696 306.984H555.853C555.853 305.412 556.217 303.92 556.946 302.507C557.675 301.094 558.735 299.852 560.125 298.781C561.515 297.688 563.167 296.833 565.081 296.218C567.018 295.603 569.183 295.295 571.575 295.295C574.446 295.295 576.998 295.773 579.231 296.73C581.465 297.688 583.219 299.123 584.495 301.037C585.794 302.951 586.443 305.344 586.443 308.215V324.04C586.443 326.068 586.569 327.731 586.819 329.03C587.07 330.306 587.435 331.423 587.913 332.38V332.961H577.967C577.488 331.958 577.124 330.705 576.873 329.201C576.645 327.674 576.531 326.148 576.531 324.621ZM577.83 310.437L577.898 316.008H572.396C571.097 316.008 569.969 316.156 569.012 316.452C568.055 316.748 567.269 317.17 566.653 317.717C566.038 318.241 565.582 318.856 565.286 319.562C565.013 320.269 564.876 321.044 564.876 321.887C564.876 322.73 565.07 323.493 565.457 324.177C565.844 324.838 566.403 325.362 567.132 325.749C567.861 326.114 568.715 326.296 569.695 326.296C571.176 326.296 572.464 326 573.558 325.407C574.651 324.815 575.494 324.086 576.087 323.22C576.702 322.354 577.021 321.534 577.044 320.759L579.642 324.929C579.277 325.863 578.776 326.831 578.138 327.834C577.522 328.837 576.736 329.782 575.779 330.671C574.822 331.537 573.672 332.255 572.327 332.824C570.983 333.371 569.388 333.645 567.542 333.645C565.195 333.645 563.064 333.177 561.15 332.243C559.259 331.286 557.755 329.976 556.639 328.312C555.545 326.626 554.998 324.712 554.998 322.57C554.998 320.633 555.363 318.913 556.092 317.409C556.821 315.905 557.892 314.641 559.305 313.615C560.74 312.567 562.529 311.781 564.671 311.257C566.813 310.71 569.297 310.437 572.122 310.437H577.83ZM604.422 280.461V332.961H594.544V280.461H604.422ZM192.557 388.916V391.274C192.557 395.057 192.044 398.452 191.019 401.46C189.993 404.468 188.546 407.031 186.678 409.15C184.809 411.247 182.576 412.853 179.979 413.97C177.404 415.086 174.544 415.645 171.399 415.645C168.278 415.645 165.418 415.086 162.82 413.97C160.245 412.853 158.012 411.247 156.121 409.15C154.23 407.031 152.76 404.468 151.712 401.46C150.687 398.452 150.174 395.057 150.174 391.274V388.916C150.174 385.111 150.687 381.715 151.712 378.73C152.737 375.723 154.184 373.159 156.053 371.04C157.944 368.921 160.177 367.303 162.752 366.187C165.35 365.07 168.209 364.512 171.331 364.512C174.476 364.512 177.335 365.07 179.91 366.187C182.508 367.303 184.741 368.921 186.609 371.04C188.501 373.159 189.959 375.723 190.984 378.73C192.033 381.715 192.557 385.111 192.557 388.916ZM182.2 391.274V388.848C182.2 386.204 181.961 383.88 181.482 381.875C181.004 379.87 180.298 378.184 179.363 376.816C178.429 375.449 177.29 374.424 175.945 373.74C174.601 373.034 173.063 372.681 171.331 372.681C169.599 372.681 168.061 373.034 166.717 373.74C165.395 374.424 164.267 375.449 163.333 376.816C162.422 378.184 161.727 379.87 161.248 381.875C160.77 383.88 160.53 386.204 160.53 388.848V391.274C160.53 393.895 160.77 396.219 161.248 398.247C161.727 400.252 162.433 401.95 163.367 403.34C164.301 404.707 165.441 405.744 166.785 406.45C168.13 407.157 169.668 407.51 171.399 407.51C173.131 407.51 174.669 407.157 176.014 406.45C177.358 405.744 178.486 404.707 179.397 403.34C180.309 401.95 181.004 400.252 181.482 398.247C181.961 396.219 182.2 393.895 182.2 391.274ZM221.199 406.108V377.979H231.043V414.961H221.78L221.199 406.108ZM222.293 398.521L225.198 398.452C225.198 400.913 224.913 403.203 224.344 405.322C223.774 407.419 222.92 409.242 221.78 410.791C220.641 412.318 219.205 413.514 217.474 414.38C215.742 415.223 213.702 415.645 211.355 415.645C209.555 415.645 207.892 415.394 206.365 414.893C204.861 414.368 203.562 413.56 202.469 412.466C201.398 411.349 200.555 409.925 199.939 408.193C199.347 406.439 199.051 404.331 199.051 401.87V377.979H208.895V401.938C208.895 403.032 209.02 403.955 209.271 404.707C209.544 405.459 209.92 406.074 210.398 406.553C210.877 407.031 211.435 407.373 212.073 407.578C212.734 407.783 213.463 407.886 214.261 407.886C216.289 407.886 217.884 407.476 219.046 406.655C220.231 405.835 221.062 404.718 221.541 403.306C222.042 401.87 222.293 400.275 222.293 398.521ZM256.678 377.979V384.951H235.145V377.979H256.678ZM240.477 368.853H250.32V403.818C250.32 404.889 250.457 405.71 250.73 406.279C251.027 406.849 251.46 407.248 252.029 407.476C252.599 407.681 253.317 407.783 254.183 407.783C254.798 407.783 255.345 407.76 255.823 407.715C256.325 407.646 256.746 407.578 257.088 407.51L257.122 414.756C256.279 415.029 255.368 415.246 254.388 415.405C253.408 415.565 252.326 415.645 251.141 415.645C248.976 415.645 247.085 415.291 245.467 414.585C243.872 413.856 242.641 412.694 241.775 411.099C240.91 409.504 240.477 407.407 240.477 404.81V368.853ZM272.127 386.045V414.961H262.283V377.979H271.546L272.127 386.045ZM283.27 377.739L283.099 386.865C282.62 386.797 282.039 386.74 281.355 386.694C280.695 386.626 280.091 386.592 279.544 386.592C278.154 386.592 276.946 386.774 275.921 387.139C274.918 387.48 274.075 387.993 273.392 388.677C272.731 389.36 272.229 390.192 271.888 391.172C271.569 392.152 271.386 393.268 271.341 394.521L269.358 393.906C269.358 391.514 269.598 389.315 270.076 387.31C270.555 385.282 271.25 383.516 272.161 382.012C273.095 380.508 274.235 379.346 275.579 378.525C276.924 377.705 278.462 377.295 280.193 377.295C280.74 377.295 281.299 377.34 281.868 377.432C282.438 377.5 282.905 377.603 283.27 377.739ZM304.256 415.645C301.385 415.645 298.81 415.189 296.531 414.277C294.253 413.343 292.316 412.056 290.721 410.415C289.148 408.774 287.941 406.872 287.098 404.707C286.255 402.52 285.833 400.195 285.833 397.734V396.367C285.833 393.564 286.232 391.001 287.029 388.677C287.827 386.353 288.966 384.336 290.447 382.627C291.951 380.918 293.774 379.608 295.916 378.696C298.058 377.762 300.473 377.295 303.162 377.295C305.783 377.295 308.107 377.728 310.135 378.594C312.163 379.46 313.86 380.69 315.228 382.285C316.618 383.88 317.666 385.794 318.372 388.027C319.078 390.238 319.432 392.699 319.432 395.41V399.512H290.037V392.949H309.759V392.197C309.759 390.83 309.508 389.611 309.007 388.54C308.528 387.446 307.799 386.58 306.819 385.942C305.84 385.304 304.586 384.985 303.06 384.985C301.761 384.985 300.644 385.27 299.71 385.84C298.776 386.41 298.012 387.207 297.42 388.232C296.85 389.258 296.417 390.465 296.121 391.855C295.848 393.223 295.711 394.727 295.711 396.367V397.734C295.711 399.215 295.916 400.583 296.326 401.836C296.759 403.089 297.363 404.172 298.138 405.083C298.935 405.994 299.892 406.701 301.009 407.202C302.148 407.703 303.436 407.954 304.871 407.954C306.648 407.954 308.3 407.612 309.827 406.929C311.377 406.222 312.71 405.163 313.826 403.75L318.611 408.945C317.837 410.062 316.777 411.133 315.433 412.158C314.111 413.184 312.516 414.027 310.647 414.688C308.779 415.326 306.648 415.645 304.256 415.645ZM344.998 406.621V390.146C344.998 388.962 344.804 387.948 344.417 387.104C344.03 386.239 343.426 385.566 342.605 385.088C341.808 384.609 340.771 384.37 339.495 384.37C338.401 384.37 337.456 384.564 336.658 384.951C335.861 385.316 335.245 385.851 334.812 386.558C334.38 387.241 334.163 388.05 334.163 388.984H324.319C324.319 387.412 324.684 385.92 325.413 384.507C326.142 383.094 327.202 381.852 328.592 380.781C329.982 379.688 331.634 378.833 333.548 378.218C335.485 377.603 337.649 377.295 340.042 377.295C342.913 377.295 345.465 377.773 347.698 378.73C349.931 379.688 351.686 381.123 352.962 383.037C354.261 384.951 354.91 387.344 354.91 390.215V406.04C354.91 408.068 355.035 409.731 355.286 411.03C355.537 412.306 355.901 413.423 356.38 414.38V414.961H346.434C345.955 413.958 345.59 412.705 345.34 411.201C345.112 409.674 344.998 408.148 344.998 406.621ZM346.297 392.437L346.365 398.008H340.862C339.563 398.008 338.436 398.156 337.479 398.452C336.521 398.748 335.735 399.17 335.12 399.717C334.505 400.241 334.049 400.856 333.753 401.562C333.479 402.269 333.343 403.044 333.343 403.887C333.343 404.73 333.536 405.493 333.924 406.177C334.311 406.838 334.869 407.362 335.599 407.749C336.328 408.114 337.182 408.296 338.162 408.296C339.643 408.296 340.931 408 342.024 407.407C343.118 406.815 343.961 406.086 344.554 405.22C345.169 404.354 345.488 403.534 345.511 402.759L348.108 406.929C347.744 407.863 347.243 408.831 346.604 409.834C345.989 410.837 345.203 411.782 344.246 412.671C343.289 413.537 342.138 414.255 340.794 414.824C339.45 415.371 337.854 415.645 336.009 415.645C333.662 415.645 331.531 415.177 329.617 414.243C327.726 413.286 326.222 411.976 325.105 410.312C324.012 408.626 323.465 406.712 323.465 404.57C323.465 402.633 323.829 400.913 324.559 399.409C325.288 397.905 326.359 396.641 327.771 395.615C329.207 394.567 330.996 393.781 333.138 393.257C335.28 392.71 337.763 392.437 340.589 392.437H346.297ZM377.776 407.954C378.984 407.954 380.055 407.726 380.989 407.271C381.924 406.792 382.653 406.131 383.177 405.288C383.724 404.422 384.008 403.408 384.031 402.246H393.294C393.271 404.844 392.576 407.157 391.209 409.185C389.842 411.19 388.007 412.773 385.706 413.936C383.405 415.075 380.83 415.645 377.981 415.645C375.11 415.645 372.604 415.166 370.462 414.209C368.343 413.252 366.577 411.93 365.164 410.244C363.751 408.535 362.692 406.553 361.985 404.297C361.279 402.018 360.926 399.58 360.926 396.982V395.991C360.926 393.371 361.279 390.933 361.985 388.677C362.692 386.398 363.751 384.416 365.164 382.729C366.577 381.021 368.343 379.688 370.462 378.73C372.581 377.773 375.065 377.295 377.913 377.295C380.944 377.295 383.598 377.876 385.877 379.038C388.178 380.2 389.979 381.864 391.277 384.028C392.599 386.17 393.271 388.711 393.294 391.65H384.031C384.008 390.42 383.746 389.303 383.245 388.301C382.767 387.298 382.06 386.501 381.126 385.908C380.215 385.293 379.087 384.985 377.742 384.985C376.307 384.985 375.133 385.293 374.222 385.908C373.31 386.501 372.604 387.321 372.103 388.369C371.601 389.395 371.248 390.568 371.043 391.89C370.861 393.188 370.77 394.556 370.77 395.991V396.982C370.77 398.418 370.861 399.797 371.043 401.118C371.225 402.44 371.567 403.613 372.068 404.639C372.592 405.664 373.31 406.473 374.222 407.065C375.133 407.658 376.318 407.954 377.776 407.954ZM408.606 362.461V414.961H398.763V362.461H408.606ZM407.205 395.171H404.505C404.528 392.596 404.869 390.226 405.53 388.062C406.191 385.874 407.137 383.983 408.367 382.388C409.598 380.77 411.067 379.517 412.776 378.628C414.508 377.739 416.422 377.295 418.519 377.295C420.341 377.295 421.993 377.557 423.475 378.081C424.979 378.582 426.266 379.403 427.337 380.542C428.431 381.659 429.274 383.128 429.866 384.951C430.459 386.774 430.755 388.984 430.755 391.582V414.961H420.843V391.514C420.843 389.873 420.604 388.586 420.125 387.651C419.669 386.694 418.997 386.022 418.108 385.635C417.243 385.225 416.172 385.02 414.896 385.02C413.483 385.02 412.275 385.282 411.272 385.806C410.293 386.33 409.507 387.059 408.914 387.993C408.322 388.905 407.889 389.976 407.615 391.206C407.342 392.437 407.205 393.758 407.205 395.171ZM448.631 377.979V414.961H438.753V377.979H448.631ZM438.138 368.34C438.138 366.904 438.639 365.719 439.642 364.785C440.644 363.851 441.989 363.384 443.675 363.384C445.338 363.384 446.671 363.851 447.674 364.785C448.699 365.719 449.212 366.904 449.212 368.34C449.212 369.775 448.699 370.96 447.674 371.895C446.671 372.829 445.338 373.296 443.675 373.296C441.989 373.296 440.644 372.829 439.642 371.895C438.639 370.96 438.138 369.775 438.138 368.34ZM466.404 385.874V414.961H456.561V377.979H465.789L466.404 385.874ZM464.969 395.171H462.303C462.303 392.437 462.656 389.976 463.362 387.788C464.069 385.578 465.06 383.698 466.336 382.148C467.612 380.576 469.127 379.38 470.882 378.56C472.659 377.716 474.642 377.295 476.829 377.295C478.561 377.295 480.145 377.546 481.58 378.047C483.016 378.548 484.246 379.346 485.271 380.439C486.32 381.533 487.117 382.98 487.664 384.78C488.234 386.58 488.519 388.779 488.519 391.377V414.961H478.606V391.343C478.606 389.702 478.379 388.426 477.923 387.515C477.467 386.603 476.795 385.965 475.906 385.601C475.04 385.213 473.969 385.02 472.693 385.02C471.372 385.02 470.221 385.282 469.241 385.806C468.284 386.33 467.487 387.059 466.849 387.993C466.233 388.905 465.766 389.976 465.447 391.206C465.128 392.437 464.969 393.758 464.969 395.171ZM519.417 377.979H528.338V413.73C528.338 417.103 527.586 419.963 526.082 422.31C524.601 424.679 522.527 426.468 519.861 427.676C517.195 428.906 514.096 429.521 510.564 429.521C509.015 429.521 507.374 429.316 505.643 428.906C503.934 428.496 502.293 427.858 500.721 426.992C499.171 426.126 497.872 425.033 496.824 423.711L501.165 417.9C502.304 419.222 503.626 420.247 505.13 420.977C506.634 421.729 508.297 422.104 510.12 422.104C511.897 422.104 513.401 421.774 514.632 421.113C515.862 420.475 516.808 419.53 517.469 418.276C518.13 417.046 518.46 415.553 518.46 413.799V386.523L519.417 377.979ZM494.534 396.914V396.196C494.534 393.371 494.876 390.807 495.56 388.506C496.266 386.182 497.257 384.188 498.533 382.524C499.832 380.861 501.404 379.574 503.25 378.662C505.096 377.751 507.181 377.295 509.505 377.295C511.966 377.295 514.028 377.751 515.691 378.662C517.355 379.574 518.722 380.872 519.793 382.559C520.864 384.222 521.696 386.193 522.288 388.472C522.903 390.728 523.382 393.2 523.724 395.889V397.461C523.382 400.036 522.869 402.428 522.186 404.639C521.502 406.849 520.602 408.786 519.485 410.449C518.369 412.09 516.979 413.366 515.315 414.277C513.675 415.189 511.715 415.645 509.437 415.645C507.158 415.645 505.096 415.177 503.25 414.243C501.427 413.309 499.866 411.999 498.567 410.312C497.269 408.626 496.266 406.644 495.56 404.365C494.876 402.087 494.534 399.603 494.534 396.914ZM504.378 396.196V396.914C504.378 398.441 504.526 399.865 504.822 401.187C505.118 402.508 505.574 403.682 506.189 404.707C506.827 405.71 507.614 406.496 508.548 407.065C509.505 407.612 510.633 407.886 511.932 407.886C513.732 407.886 515.201 407.51 516.341 406.758C517.48 405.983 518.335 404.924 518.904 403.579C519.474 402.235 519.804 400.685 519.896 398.931V394.453C519.85 393.018 519.656 391.73 519.314 390.591C518.973 389.429 518.494 388.438 517.879 387.617C517.264 386.797 516.466 386.159 515.486 385.703C514.507 385.247 513.344 385.02 512 385.02C510.701 385.02 509.573 385.316 508.616 385.908C507.682 386.478 506.896 387.264 506.258 388.267C505.643 389.269 505.175 390.454 504.856 391.821C504.537 393.166 504.378 394.624 504.378 396.196ZM593.484 388.95V408.672C592.71 409.606 591.513 410.62 589.896 411.714C588.278 412.785 586.193 413.708 583.641 414.482C581.089 415.257 578.001 415.645 574.378 415.645C571.165 415.645 568.237 415.12 565.594 414.072C562.951 413.001 560.672 411.44 558.758 409.39C556.867 407.339 555.408 404.832 554.383 401.87C553.357 398.885 552.845 395.479 552.845 391.65V388.54C552.845 384.712 553.335 381.305 554.314 378.32C555.317 375.335 556.741 372.817 558.587 370.767C560.433 368.716 562.632 367.155 565.184 366.084C567.736 365.013 570.573 364.478 573.694 364.478C578.024 364.478 581.578 365.184 584.358 366.597C587.138 367.987 589.257 369.924 590.716 372.407C592.197 374.868 593.108 377.694 593.45 380.884H583.504C583.253 379.198 582.775 377.728 582.068 376.475C581.362 375.221 580.348 374.242 579.026 373.535C577.728 372.829 576.041 372.476 573.968 372.476C572.259 372.476 570.732 372.829 569.388 373.535C568.066 374.219 566.95 375.233 566.038 376.577C565.127 377.922 564.432 379.585 563.953 381.567C563.475 383.55 563.235 385.851 563.235 388.472V391.65C563.235 394.248 563.486 396.549 563.987 398.555C564.489 400.537 565.229 402.212 566.209 403.579C567.212 404.924 568.442 405.938 569.9 406.621C571.359 407.305 573.056 407.646 574.993 407.646C576.611 407.646 577.955 407.51 579.026 407.236C580.12 406.963 580.997 406.632 581.658 406.245C582.342 405.835 582.866 405.448 583.23 405.083V396.265H573.865V388.95H593.484ZM610.984 386.045V414.961H601.141V377.979H610.403L610.984 386.045ZM622.127 377.739L621.956 386.865C621.478 386.797 620.896 386.74 620.213 386.694C619.552 386.626 618.948 386.592 618.401 386.592C617.011 386.592 615.804 386.774 614.778 387.139C613.776 387.48 612.933 387.993 612.249 388.677C611.588 389.36 611.087 390.192 610.745 391.172C610.426 392.152 610.244 393.268 610.198 394.521L608.216 393.906C608.216 391.514 608.455 389.315 608.934 387.31C609.412 385.282 610.107 383.516 611.019 382.012C611.953 380.508 613.092 379.346 614.437 378.525C615.781 377.705 617.319 377.295 619.051 377.295C619.598 377.295 620.156 377.34 620.726 377.432C621.295 377.5 621.762 377.603 622.127 377.739ZM645.574 406.621V390.146C645.574 388.962 645.381 387.948 644.993 387.104C644.606 386.239 644.002 385.566 643.182 385.088C642.384 384.609 641.347 384.37 640.071 384.37C638.978 384.37 638.032 384.564 637.234 384.951C636.437 385.316 635.822 385.851 635.389 386.558C634.956 387.241 634.739 388.05 634.739 388.984H624.896C624.896 387.412 625.26 385.92 625.989 384.507C626.718 383.094 627.778 381.852 629.168 380.781C630.558 379.688 632.21 378.833 634.124 378.218C636.061 377.603 638.226 377.295 640.618 377.295C643.489 377.295 646.041 377.773 648.274 378.73C650.507 379.688 652.262 381.123 653.538 383.037C654.837 384.951 655.486 387.344 655.486 390.215V406.04C655.486 408.068 655.612 409.731 655.862 411.03C656.113 412.306 656.478 413.423 656.956 414.38V414.961H647.01C646.531 413.958 646.167 412.705 645.916 411.201C645.688 409.674 645.574 408.148 645.574 406.621ZM646.873 392.437L646.941 398.008H641.438C640.14 398.008 639.012 398.156 638.055 398.452C637.098 398.748 636.312 399.17 635.696 399.717C635.081 400.241 634.625 400.856 634.329 401.562C634.056 402.269 633.919 403.044 633.919 403.887C633.919 404.73 634.113 405.493 634.5 406.177C634.887 406.838 635.446 407.362 636.175 407.749C636.904 408.114 637.758 408.296 638.738 408.296C640.219 408.296 641.507 408 642.601 407.407C643.694 406.815 644.537 406.086 645.13 405.22C645.745 404.354 646.064 403.534 646.087 402.759L648.685 406.929C648.32 407.863 647.819 408.831 647.181 409.834C646.565 410.837 645.779 411.782 644.822 412.671C643.865 413.537 642.715 414.255 641.37 414.824C640.026 415.371 638.431 415.645 636.585 415.645C634.238 415.645 632.107 415.177 630.193 414.243C628.302 413.286 626.798 411.976 625.682 410.312C624.588 408.626 624.041 406.712 624.041 404.57C624.041 402.633 624.406 400.913 625.135 399.409C625.864 397.905 626.935 396.641 628.348 395.615C629.783 394.567 631.572 393.781 633.714 393.257C635.856 392.71 638.34 392.437 641.165 392.437H646.873ZM672.918 385.088V429.18H663.074V377.979H672.2L672.918 385.088ZM696.331 396.06V396.777C696.331 399.466 696.012 401.961 695.374 404.263C694.759 406.564 693.847 408.569 692.64 410.278C691.432 411.965 689.928 413.286 688.128 414.243C686.351 415.177 684.3 415.645 681.976 415.645C679.72 415.645 677.76 415.189 676.097 414.277C674.433 413.366 673.032 412.09 671.893 410.449C670.776 408.786 669.876 406.86 669.192 404.673C668.509 402.485 667.985 400.138 667.62 397.632V395.752C667.985 393.063 668.509 390.602 669.192 388.369C669.876 386.113 670.776 384.165 671.893 382.524C673.032 380.861 674.422 379.574 676.062 378.662C677.726 377.751 679.674 377.295 681.907 377.295C684.254 377.295 686.316 377.739 688.094 378.628C689.894 379.517 691.398 380.793 692.605 382.456C693.836 384.119 694.759 386.102 695.374 388.403C696.012 390.705 696.331 393.257 696.331 396.06ZM686.453 396.777V396.06C686.453 394.487 686.316 393.04 686.043 391.719C685.792 390.374 685.382 389.201 684.812 388.198C684.266 387.196 683.536 386.421 682.625 385.874C681.736 385.304 680.654 385.02 679.378 385.02C678.034 385.02 676.883 385.236 675.926 385.669C674.992 386.102 674.228 386.729 673.636 387.549C673.043 388.369 672.599 389.349 672.303 390.488C672.007 391.628 671.824 392.915 671.756 394.351V399.102C671.87 400.788 672.189 402.303 672.713 403.647C673.237 404.969 674.046 406.017 675.14 406.792C676.233 407.567 677.669 407.954 679.446 407.954C680.745 407.954 681.839 407.669 682.728 407.1C683.616 406.507 684.334 405.698 684.881 404.673C685.451 403.647 685.849 402.463 686.077 401.118C686.328 399.774 686.453 398.327 686.453 396.777ZM712.054 362.461V414.961H702.21V362.461H712.054ZM710.652 395.171H707.952C707.975 392.596 708.317 390.226 708.978 388.062C709.638 385.874 710.584 383.983 711.814 382.388C713.045 380.77 714.515 379.517 716.224 378.628C717.955 377.739 719.869 377.295 721.966 377.295C723.789 377.295 725.441 377.557 726.922 378.081C728.426 378.582 729.713 379.403 730.784 380.542C731.878 381.659 732.721 383.128 733.313 384.951C733.906 386.774 734.202 388.984 734.202 391.582V414.961H724.29V391.514C724.29 389.873 724.051 388.586 723.572 387.651C723.117 386.694 722.444 386.022 721.556 385.635C720.69 385.225 719.619 385.02 718.343 385.02C716.93 385.02 715.722 385.282 714.72 385.806C713.74 386.33 712.954 387.059 712.361 387.993C711.769 388.905 711.336 389.976 711.062 391.206C710.789 392.437 710.652 393.758 710.652 395.171ZM752.078 377.979V414.961H742.2V377.979H752.078ZM741.585 368.34C741.585 366.904 742.086 365.719 743.089 364.785C744.091 363.851 745.436 363.384 747.122 363.384C748.785 363.384 750.118 363.851 751.121 364.785C752.146 365.719 752.659 366.904 752.659 368.34C752.659 369.775 752.146 370.96 751.121 371.895C750.118 372.829 748.785 373.296 747.122 373.296C745.436 373.296 744.091 372.829 743.089 371.895C742.086 370.96 741.585 369.775 741.585 368.34ZM775.491 407.954C776.699 407.954 777.77 407.726 778.704 407.271C779.638 406.792 780.368 406.131 780.892 405.288C781.438 404.422 781.723 403.408 781.746 402.246H791.009C790.986 404.844 790.291 407.157 788.924 409.185C787.557 411.19 785.722 412.773 783.421 413.936C781.119 415.075 778.545 415.645 775.696 415.645C772.825 415.645 770.319 415.166 768.177 414.209C766.058 413.252 764.292 411.93 762.879 410.244C761.466 408.535 760.407 406.553 759.7 404.297C758.994 402.018 758.641 399.58 758.641 396.982V395.991C758.641 393.371 758.994 390.933 759.7 388.677C760.407 386.398 761.466 384.416 762.879 382.729C764.292 381.021 766.058 379.688 768.177 378.73C770.296 377.773 772.78 377.295 775.628 377.295C778.659 377.295 781.313 377.876 783.592 379.038C785.893 380.2 787.693 381.864 788.992 384.028C790.314 386.17 790.986 388.711 791.009 391.65H781.746C781.723 390.42 781.461 389.303 780.96 388.301C780.481 387.298 779.775 386.501 778.841 385.908C777.929 385.293 776.801 384.985 775.457 384.985C774.021 384.985 772.848 385.293 771.937 385.908C771.025 386.501 770.319 387.321 769.817 388.369C769.316 389.395 768.963 390.568 768.758 391.89C768.576 393.188 768.484 394.556 768.484 395.991V396.982C768.484 398.418 768.576 399.797 768.758 401.118C768.94 402.44 769.282 403.613 769.783 404.639C770.307 405.664 771.025 406.473 771.937 407.065C772.848 407.658 774.033 407.954 775.491 407.954ZM816.712 404.741C816.712 404.035 816.507 403.397 816.097 402.827C815.687 402.257 814.923 401.733 813.807 401.255C812.713 400.754 811.129 400.298 809.056 399.888C807.187 399.478 805.444 398.965 803.826 398.35C802.231 397.712 800.841 396.948 799.656 396.06C798.494 395.171 797.583 394.123 796.922 392.915C796.261 391.685 795.931 390.283 795.931 388.711C795.931 387.161 796.261 385.703 796.922 384.336C797.605 382.969 798.574 381.761 799.827 380.713C801.103 379.642 802.653 378.81 804.476 378.218C806.321 377.603 808.395 377.295 810.696 377.295C813.909 377.295 816.666 377.808 818.968 378.833C821.292 379.858 823.069 381.271 824.3 383.071C825.553 384.849 826.18 386.877 826.18 389.155H816.336C816.336 388.198 816.131 387.344 815.721 386.592C815.333 385.817 814.718 385.213 813.875 384.78C813.055 384.325 811.984 384.097 810.662 384.097C809.568 384.097 808.623 384.29 807.825 384.678C807.028 385.042 806.412 385.544 805.979 386.182C805.569 386.797 805.364 387.48 805.364 388.232C805.364 388.802 805.478 389.315 805.706 389.771C805.957 390.203 806.355 390.602 806.902 390.967C807.449 391.331 808.156 391.673 809.021 391.992C809.91 392.288 811.004 392.562 812.303 392.812C814.969 393.359 817.35 394.077 819.446 394.966C821.543 395.832 823.206 397.017 824.437 398.521C825.667 400.002 826.282 401.95 826.282 404.365C826.282 406.006 825.918 407.51 825.188 408.877C824.459 410.244 823.411 411.44 822.044 412.466C820.677 413.468 819.036 414.255 817.122 414.824C815.231 415.371 813.1 415.645 810.73 415.645C807.29 415.645 804.373 415.029 801.98 413.799C799.611 412.568 797.811 411.007 796.58 409.116C795.372 407.202 794.769 405.243 794.769 403.237H804.1C804.145 404.582 804.487 405.664 805.125 406.484C805.786 407.305 806.618 407.897 807.62 408.262C808.646 408.626 809.751 408.809 810.936 408.809C812.212 408.809 813.271 408.638 814.114 408.296C814.957 407.931 815.595 407.453 816.028 406.86C816.484 406.245 816.712 405.539 816.712 404.741Z" fill="#FD0404"/>
<path d="M149.48 501.009V500.447C149.48 498.543 149.757 496.777 150.311 495.149C150.864 493.506 151.661 492.081 152.703 490.877C153.745 489.656 155.006 488.712 156.487 488.045C157.968 487.361 159.629 487.02 161.468 487.02C163.323 487.02 164.992 487.361 166.473 488.045C167.97 488.712 169.24 489.656 170.281 490.877C171.339 492.081 172.145 493.506 172.698 495.149C173.252 496.777 173.528 498.543 173.528 500.447V501.009C173.528 502.913 173.252 504.679 172.698 506.307C172.145 507.934 171.339 509.358 170.281 510.579C169.24 511.784 167.978 512.728 166.497 513.411C165.032 514.078 163.372 514.412 161.517 514.412C159.661 514.412 157.993 514.078 156.512 513.411C155.031 512.728 153.761 511.784 152.703 510.579C151.661 509.358 150.864 507.934 150.311 506.307C149.757 504.679 149.48 502.913 149.48 501.009ZM153.997 500.447V501.009C153.997 502.327 154.152 503.572 154.461 504.744C154.77 505.9 155.234 506.925 155.853 507.82C156.487 508.715 157.277 509.424 158.221 509.944C159.165 510.449 160.263 510.701 161.517 510.701C162.754 510.701 163.836 510.449 164.764 509.944C165.708 509.424 166.489 508.715 167.107 507.82C167.726 506.925 168.19 505.9 168.499 504.744C168.825 503.572 168.987 502.327 168.987 501.009V500.447C168.987 499.145 168.825 497.916 168.499 496.761C168.19 495.589 167.718 494.555 167.083 493.66C166.465 492.749 165.683 492.033 164.739 491.512C163.812 490.991 162.721 490.73 161.468 490.73C160.231 490.73 159.14 490.991 158.196 491.512C157.269 492.033 156.487 492.749 155.853 493.66C155.234 494.555 154.77 495.589 154.461 496.761C154.152 497.916 153.997 499.145 153.997 500.447ZM183.709 493.147V513.924H179.192V487.508H183.465L183.709 493.147ZM182.635 499.715L180.755 499.642C180.771 497.835 181.04 496.167 181.561 494.637C182.081 493.09 182.814 491.748 183.758 490.608C184.702 489.469 185.825 488.59 187.127 487.972C188.445 487.337 189.902 487.02 191.497 487.02C192.799 487.02 193.971 487.199 195.013 487.557C196.054 487.898 196.941 488.452 197.674 489.217C198.423 489.982 198.992 490.975 199.383 492.195C199.773 493.4 199.969 494.873 199.969 496.614V513.924H195.428V496.565C195.428 495.182 195.224 494.075 194.817 493.245C194.41 492.399 193.816 491.788 193.035 491.414C192.254 491.023 191.294 490.828 190.154 490.828C189.031 490.828 188.006 491.064 187.078 491.536C186.167 492.008 185.377 492.659 184.71 493.489C184.059 494.319 183.546 495.271 183.172 496.346C182.814 497.404 182.635 498.527 182.635 499.715ZM221.404 478.377H225.97L237.615 507.356L249.236 478.377H253.826L239.373 513.924H235.809L221.404 478.377ZM219.915 478.377H223.943L224.603 500.057V513.924H219.915V478.377ZM251.263 478.377H255.291V513.924H250.604V500.057L251.263 478.377ZM261.688 501.009V500.447C261.688 498.543 261.964 496.777 262.518 495.149C263.071 493.506 263.868 492.081 264.91 490.877C265.952 489.656 267.213 488.712 268.694 488.045C270.175 487.361 271.836 487.02 273.675 487.02C275.53 487.02 277.199 487.361 278.68 488.045C280.177 488.712 281.447 489.656 282.488 490.877C283.546 492.081 284.352 493.506 284.905 495.149C285.459 496.777 285.735 498.543 285.735 500.447V501.009C285.735 502.913 285.459 504.679 284.905 506.307C284.352 507.934 283.546 509.358 282.488 510.579C281.447 511.784 280.185 512.728 278.704 513.411C277.239 514.078 275.579 514.412 273.724 514.412C271.868 514.412 270.2 514.078 268.719 513.411C267.238 512.728 265.968 511.784 264.91 510.579C263.868 509.358 263.071 507.934 262.518 506.307C261.964 504.679 261.688 502.913 261.688 501.009ZM266.204 500.447V501.009C266.204 502.327 266.359 503.572 266.668 504.744C266.977 505.9 267.441 506.925 268.06 507.82C268.694 508.715 269.484 509.424 270.428 509.944C271.372 510.449 272.47 510.701 273.724 510.701C274.961 510.701 276.043 510.449 276.971 509.944C277.915 509.424 278.696 508.715 279.314 507.82C279.933 506.925 280.397 505.9 280.706 504.744C281.032 503.572 281.194 502.327 281.194 501.009V500.447C281.194 499.145 281.032 497.916 280.706 496.761C280.397 495.589 279.925 494.555 279.29 493.66C278.672 492.749 277.89 492.033 276.946 491.512C276.019 490.991 274.928 490.73 273.675 490.73C272.438 490.73 271.347 490.991 270.403 491.512C269.476 492.033 268.694 492.749 268.06 493.66C267.441 494.555 266.977 495.589 266.668 496.761C266.359 497.916 266.204 499.145 266.204 500.447ZM295.916 493.147V513.924H291.399V487.508H295.672L295.916 493.147ZM294.842 499.715L292.962 499.642C292.978 497.835 293.247 496.167 293.768 494.637C294.288 493.09 295.021 491.748 295.965 490.608C296.909 489.469 298.032 488.59 299.334 487.972C300.652 487.337 302.109 487.02 303.704 487.02C305.006 487.02 306.178 487.199 307.22 487.557C308.261 487.898 309.148 488.452 309.881 489.217C310.63 489.982 311.199 490.975 311.59 492.195C311.98 493.4 312.176 494.873 312.176 496.614V513.924H307.635V496.565C307.635 495.182 307.431 494.075 307.024 493.245C306.618 492.399 306.023 491.788 305.242 491.414C304.461 491.023 303.501 490.828 302.361 490.828C301.238 490.828 300.213 491.064 299.285 491.536C298.374 492.008 297.584 492.659 296.917 493.489C296.266 494.319 295.753 495.271 295.379 496.346C295.021 497.404 294.842 498.527 294.842 499.715ZM335.687 508.797V476.424H340.228V513.924H336.077L335.687 508.797ZM317.913 501.009V500.496C317.913 498.478 318.157 496.647 318.646 495.003C319.15 493.343 319.858 491.919 320.77 490.73C321.697 489.542 322.796 488.631 324.065 487.996C325.351 487.345 326.784 487.02 328.362 487.02C330.022 487.02 331.471 487.312 332.708 487.898C333.961 488.468 335.019 489.306 335.882 490.413C336.761 491.504 337.452 492.822 337.957 494.368C338.462 495.914 338.812 497.664 339.007 499.617V501.863C338.828 503.8 338.478 505.542 337.957 507.088C337.452 508.634 336.761 509.952 335.882 511.043C335.019 512.133 333.961 512.972 332.708 513.558C331.455 514.127 329.99 514.412 328.313 514.412C326.767 514.412 325.351 514.078 324.065 513.411C322.796 512.744 321.697 511.808 320.77 510.604C319.858 509.399 319.15 507.983 318.646 506.355C318.157 504.712 317.913 502.929 317.913 501.009ZM322.454 500.496V501.009C322.454 502.327 322.584 503.564 322.845 504.72C323.121 505.875 323.545 506.893 324.114 507.771C324.684 508.65 325.408 509.342 326.287 509.847C327.166 510.335 328.216 510.579 329.437 510.579C330.934 510.579 332.163 510.262 333.123 509.627C334.1 508.992 334.881 508.154 335.467 507.112C336.053 506.071 336.508 504.939 336.834 503.719V497.835C336.639 496.94 336.354 496.077 335.979 495.247C335.621 494.401 335.149 493.652 334.563 493.001C333.994 492.334 333.286 491.805 332.439 491.414C331.609 491.023 330.625 490.828 329.485 490.828C328.248 490.828 327.182 491.089 326.287 491.609C325.408 492.114 324.684 492.814 324.114 493.709C323.545 494.588 323.121 495.613 322.845 496.785C322.584 497.941 322.454 499.178 322.454 500.496ZM362.835 509.407V495.809C362.835 494.767 362.623 493.864 362.2 493.099C361.793 492.317 361.175 491.715 360.345 491.292C359.515 490.869 358.489 490.657 357.269 490.657C356.129 490.657 355.128 490.853 354.266 491.243C353.419 491.634 352.752 492.146 352.264 492.781C351.792 493.416 351.556 494.1 351.556 494.832H347.039C347.039 493.888 347.283 492.952 347.771 492.024C348.26 491.097 348.96 490.258 349.871 489.51C350.799 488.745 351.906 488.143 353.191 487.703C354.493 487.247 355.942 487.02 357.537 487.02C359.458 487.02 361.15 487.345 362.615 487.996C364.096 488.647 365.252 489.632 366.082 490.95C366.928 492.252 367.352 493.888 367.352 495.857V508.162C367.352 509.041 367.425 509.977 367.571 510.97C367.734 511.963 367.97 512.817 368.279 513.533V513.924H363.567C363.34 513.403 363.16 512.711 363.03 511.849C362.9 510.97 362.835 510.156 362.835 509.407ZM363.616 497.908L363.665 501.082H359.1C357.814 501.082 356.666 501.188 355.657 501.399C354.648 501.595 353.802 501.896 353.118 502.303C352.435 502.71 351.914 503.222 351.556 503.841C351.198 504.443 351.019 505.151 351.019 505.965C351.019 506.795 351.206 507.552 351.58 508.235C351.954 508.919 352.516 509.464 353.265 509.871C354.03 510.262 354.965 510.457 356.072 510.457C357.456 510.457 358.676 510.164 359.734 509.578C360.792 508.992 361.631 508.276 362.249 507.43C362.884 506.583 363.226 505.761 363.274 504.964L365.203 507.137C365.089 507.82 364.78 508.577 364.275 509.407C363.771 510.237 363.095 511.035 362.249 511.8C361.419 512.549 360.426 513.175 359.271 513.68C358.131 514.168 356.845 514.412 355.413 514.412C353.623 514.412 352.052 514.062 350.701 513.362C349.367 512.662 348.325 511.727 347.576 510.555C346.844 509.367 346.478 508.04 346.478 506.575C346.478 505.159 346.754 503.914 347.308 502.84C347.861 501.749 348.659 500.846 349.7 500.13C350.742 499.397 351.995 498.844 353.46 498.47C354.925 498.095 356.561 497.908 358.367 497.908H363.616ZM381.487 511.189L388.836 487.508H393.67L383.074 518.001C382.83 518.652 382.505 519.352 382.098 520.101C381.707 520.866 381.202 521.59 380.584 522.273C379.965 522.957 379.217 523.51 378.338 523.934C377.475 524.373 376.442 524.593 375.237 524.593C374.879 524.593 374.424 524.544 373.87 524.446C373.317 524.349 372.926 524.267 372.698 524.202L372.674 520.54C372.804 520.556 373.007 520.573 373.284 520.589C373.577 520.621 373.781 520.638 373.895 520.638C374.92 520.638 375.791 520.499 376.507 520.223C377.223 519.962 377.825 519.515 378.313 518.88C378.818 518.261 379.249 517.407 379.607 516.316L381.487 511.189ZM376.092 487.508L382.952 508.016L384.124 512.776L380.877 514.437L371.16 487.508H376.092ZM415.545 478.377V513.924H410.833V478.377H415.545ZM430.438 494.368V498.226H414.52V494.368H430.438ZM432.854 478.377V482.234H414.52V478.377H432.854ZM448.211 514.412C446.372 514.412 444.703 514.103 443.206 513.484C441.725 512.85 440.447 511.963 439.373 510.823C438.315 509.684 437.501 508.333 436.932 506.771C436.362 505.208 436.077 503.499 436.077 501.644V500.618C436.077 498.47 436.395 496.557 437.029 494.881C437.664 493.188 438.527 491.756 439.617 490.584C440.708 489.412 441.945 488.525 443.328 487.923C444.712 487.321 446.144 487.02 447.625 487.02C449.513 487.02 451.141 487.345 452.508 487.996C453.891 488.647 455.022 489.559 455.901 490.73C456.78 491.886 457.431 493.253 457.854 494.832C458.278 496.395 458.489 498.104 458.489 499.959V501.985H438.763V498.299H453.973V497.957C453.908 496.785 453.663 495.646 453.24 494.539C452.833 493.432 452.182 492.521 451.287 491.805C450.392 491.089 449.171 490.73 447.625 490.73C446.6 490.73 445.656 490.95 444.793 491.39C443.93 491.813 443.19 492.448 442.571 493.294C441.953 494.14 441.473 495.174 441.131 496.395C440.789 497.615 440.618 499.023 440.618 500.618V501.644C440.618 502.897 440.789 504.077 441.131 505.184C441.489 506.274 442.002 507.234 442.669 508.064C443.353 508.895 444.174 509.546 445.135 510.018C446.111 510.49 447.218 510.726 448.455 510.726C450.05 510.726 451.401 510.4 452.508 509.749C453.615 509.098 454.583 508.227 455.413 507.137L458.147 509.31C457.578 510.172 456.854 510.994 455.975 511.775C455.096 512.557 454.013 513.191 452.728 513.68C451.458 514.168 449.952 514.412 448.211 514.412ZM463.738 476.424H468.279V508.797L467.889 513.924H463.738V476.424ZM486.126 500.496V501.009C486.126 502.929 485.898 504.712 485.442 506.355C484.987 507.983 484.319 509.399 483.44 510.604C482.562 511.808 481.487 512.744 480.218 513.411C478.948 514.078 477.492 514.412 475.848 514.412C474.171 514.412 472.698 514.127 471.429 513.558C470.175 512.972 469.118 512.133 468.255 511.043C467.392 509.952 466.701 508.634 466.18 507.088C465.675 505.542 465.325 503.8 465.13 501.863V499.617C465.325 497.664 465.675 495.914 466.18 494.368C466.701 492.822 467.392 491.504 468.255 490.413C469.118 489.306 470.175 488.468 471.429 487.898C472.682 487.312 474.139 487.02 475.799 487.02C477.459 487.02 478.932 487.345 480.218 487.996C481.504 488.631 482.578 489.542 483.44 490.73C484.319 491.919 484.987 493.343 485.442 495.003C485.898 496.647 486.126 498.478 486.126 500.496ZM481.585 501.009V500.496C481.585 499.178 481.463 497.941 481.219 496.785C480.975 495.613 480.584 494.588 480.047 493.709C479.51 492.814 478.802 492.114 477.923 491.609C477.044 491.089 475.962 490.828 474.676 490.828C473.536 490.828 472.544 491.023 471.697 491.414C470.867 491.805 470.159 492.334 469.573 493.001C468.987 493.652 468.507 494.401 468.133 495.247C467.775 496.077 467.506 496.94 467.327 497.835V503.719C467.588 504.858 468.011 505.957 468.597 507.015C469.199 508.056 469.996 508.911 470.989 509.578C471.998 510.245 473.243 510.579 474.725 510.579C475.945 510.579 476.987 510.335 477.85 509.847C478.729 509.342 479.437 508.65 479.974 507.771C480.527 506.893 480.934 505.875 481.194 504.72C481.455 503.564 481.585 502.327 481.585 501.009ZM527.044 510.213V513.924H503.777V510.677L515.423 497.713C516.855 496.118 517.962 494.767 518.743 493.66C519.541 492.537 520.094 491.536 520.403 490.657C520.729 489.762 520.892 488.851 520.892 487.923C520.892 486.751 520.647 485.693 520.159 484.749C519.687 483.789 518.987 483.024 518.06 482.454C517.132 481.884 516.009 481.6 514.69 481.6C513.112 481.6 511.793 481.909 510.735 482.527C509.694 483.13 508.912 483.976 508.392 485.066C507.871 486.157 507.61 487.41 507.61 488.826H503.094C503.094 486.824 503.533 484.993 504.412 483.333C505.291 481.673 506.593 480.354 508.318 479.378C510.044 478.385 512.168 477.889 514.69 477.889C516.937 477.889 518.857 478.287 520.452 479.085C522.047 479.866 523.268 480.973 524.114 482.405C524.977 483.821 525.408 485.481 525.408 487.386C525.408 488.427 525.229 489.485 524.871 490.56C524.529 491.618 524.049 492.675 523.431 493.733C522.828 494.791 522.12 495.833 521.307 496.858C520.509 497.884 519.655 498.893 518.743 499.886L509.222 510.213H527.044ZM554.29 504.305C554.29 506.469 553.785 508.309 552.776 509.822C551.784 511.32 550.433 512.459 548.724 513.24C547.031 514.021 545.118 514.412 542.986 514.412C540.854 514.412 538.934 514.021 537.225 513.24C535.516 512.459 534.165 511.32 533.172 509.822C532.179 508.309 531.683 506.469 531.683 504.305C531.683 502.889 531.951 501.595 532.488 500.423C533.042 499.235 533.815 498.201 534.808 497.322C535.817 496.443 537.005 495.768 538.372 495.296C539.756 494.808 541.277 494.563 542.938 494.563C545.118 494.563 547.063 494.987 548.772 495.833C550.481 496.663 551.824 497.811 552.801 499.275C553.794 500.74 554.29 502.417 554.29 504.305ZM549.749 504.207C549.749 502.889 549.464 501.725 548.895 500.716C548.325 499.69 547.527 498.893 546.502 498.323C545.477 497.754 544.288 497.469 542.938 497.469C541.554 497.469 540.358 497.754 539.349 498.323C538.356 498.893 537.583 499.69 537.029 500.716C536.476 501.725 536.199 502.889 536.199 504.207C536.199 505.574 536.468 506.746 537.005 507.723C537.558 508.683 538.34 509.424 539.349 509.944C540.374 510.449 541.587 510.701 542.986 510.701C544.386 510.701 545.59 510.449 546.6 509.944C547.609 509.424 548.382 508.683 548.919 507.723C549.472 506.746 549.749 505.574 549.749 504.207ZM553.46 487.63C553.46 489.355 553.004 490.91 552.093 492.293C551.181 493.676 549.936 494.767 548.357 495.564C546.779 496.362 544.988 496.761 542.986 496.761C540.952 496.761 539.137 496.362 537.542 495.564C535.963 494.767 534.726 493.676 533.831 492.293C532.936 490.91 532.488 489.355 532.488 487.63C532.488 485.563 532.936 483.805 533.831 482.356C534.743 480.908 535.988 479.801 537.566 479.036C539.145 478.271 540.944 477.889 542.962 477.889C544.996 477.889 546.803 478.271 548.382 479.036C549.961 479.801 551.198 480.908 552.093 482.356C553.004 483.805 553.46 485.563 553.46 487.63ZM548.943 487.703C548.943 486.515 548.691 485.465 548.187 484.554C547.682 483.642 546.982 482.926 546.087 482.405C545.192 481.868 544.15 481.6 542.962 481.6C541.774 481.6 540.732 481.852 539.837 482.356C538.958 482.845 538.266 483.545 537.762 484.456C537.273 485.368 537.029 486.45 537.029 487.703C537.029 488.924 537.273 489.99 537.762 490.901C538.266 491.813 538.966 492.521 539.861 493.025C540.757 493.53 541.798 493.782 542.986 493.782C544.174 493.782 545.208 493.53 546.087 493.025C546.982 492.521 547.682 491.813 548.187 490.901C548.691 489.99 548.943 488.924 548.943 487.703ZM564.593 508.553V512.19C564.593 513.672 564.218 515.234 563.47 516.878C562.721 518.538 561.671 519.922 560.32 521.028L557.757 519.246C558.278 518.53 558.717 517.798 559.075 517.049C559.433 516.316 559.702 515.551 559.881 514.754C560.076 513.973 560.174 513.143 560.174 512.264V508.553H564.593ZM605.56 510.213V513.924H582.293V510.677L593.938 497.713C595.371 496.118 596.478 494.767 597.259 493.66C598.056 492.537 598.61 491.536 598.919 490.657C599.244 489.762 599.407 488.851 599.407 487.923C599.407 486.751 599.163 485.693 598.675 484.749C598.203 483.789 597.503 483.024 596.575 482.454C595.647 481.884 594.524 481.6 593.206 481.6C591.627 481.6 590.309 481.909 589.251 482.527C588.209 483.13 587.428 483.976 586.907 485.066C586.386 486.157 586.126 487.41 586.126 488.826H581.609C581.609 486.824 582.049 484.993 582.928 483.333C583.807 481.673 585.109 480.354 586.834 479.378C588.559 478.385 590.683 477.889 593.206 477.889C595.452 477.889 597.373 478.287 598.968 479.085C600.563 479.866 601.784 480.973 602.63 482.405C603.493 483.821 603.924 485.481 603.924 487.386C603.924 488.427 603.745 489.485 603.387 490.56C603.045 491.618 602.565 492.675 601.946 493.733C601.344 494.791 600.636 495.833 599.822 496.858C599.025 497.884 598.17 498.893 597.259 499.886L587.737 510.213H605.56ZM632.708 493.318V498.738C632.708 501.652 632.448 504.109 631.927 506.111C631.406 508.113 630.657 509.725 629.681 510.945C628.704 512.166 627.524 513.053 626.141 513.606C624.773 514.144 623.227 514.412 621.502 514.412C620.135 514.412 618.873 514.241 617.718 513.899C616.562 513.558 615.521 513.012 614.593 512.264C613.681 511.499 612.9 510.506 612.249 509.285C611.598 508.064 611.102 506.583 610.76 504.842C610.418 503.1 610.247 501.066 610.247 498.738V493.318C610.247 490.405 610.507 487.964 611.028 485.994C611.565 484.025 612.322 482.446 613.299 481.258C614.275 480.053 615.447 479.191 616.814 478.67C618.198 478.149 619.744 477.889 621.453 477.889C622.837 477.889 624.106 478.06 625.262 478.401C626.434 478.727 627.475 479.256 628.387 479.988C629.298 480.704 630.071 481.665 630.706 482.869C631.357 484.057 631.854 485.514 632.195 487.239C632.537 488.965 632.708 490.991 632.708 493.318ZM628.167 499.471V492.562C628.167 490.966 628.069 489.567 627.874 488.362C627.695 487.142 627.426 486.1 627.068 485.237C626.71 484.375 626.255 483.675 625.701 483.138C625.164 482.601 624.537 482.21 623.821 481.966C623.121 481.705 622.332 481.575 621.453 481.575C620.379 481.575 619.427 481.779 618.597 482.186C617.767 482.576 617.067 483.203 616.497 484.065C615.944 484.928 615.521 486.059 615.228 487.459C614.935 488.859 614.788 490.56 614.788 492.562V499.471C614.788 501.066 614.878 502.474 615.057 503.694C615.252 504.915 615.537 505.973 615.911 506.868C616.285 507.747 616.741 508.471 617.278 509.041C617.815 509.611 618.434 510.034 619.134 510.311C619.85 510.571 620.639 510.701 621.502 510.701C622.609 510.701 623.577 510.49 624.407 510.066C625.237 509.643 625.929 508.984 626.482 508.089C627.052 507.177 627.475 506.014 627.752 504.598C628.029 503.165 628.167 501.456 628.167 499.471ZM661.81 510.213V513.924H638.543V510.677L650.188 497.713C651.621 496.118 652.728 494.767 653.509 493.66C654.306 492.537 654.86 491.536 655.169 490.657C655.494 489.762 655.657 488.851 655.657 487.923C655.657 486.751 655.413 485.693 654.925 484.749C654.453 483.789 653.753 483.024 652.825 482.454C651.897 481.884 650.774 481.6 649.456 481.6C647.877 481.6 646.559 481.909 645.501 482.527C644.459 483.13 643.678 483.976 643.157 485.066C642.636 486.157 642.376 487.41 642.376 488.826H637.859C637.859 486.824 638.299 484.993 639.178 483.333C640.057 481.673 641.359 480.354 643.084 479.378C644.809 478.385 646.933 477.889 649.456 477.889C651.702 477.889 653.623 478.287 655.218 479.085C656.813 479.866 658.034 480.973 658.88 482.405C659.743 483.821 660.174 485.481 660.174 487.386C660.174 488.427 659.995 489.485 659.637 490.56C659.295 491.618 658.815 492.675 658.196 493.733C657.594 494.791 656.886 495.833 656.072 496.858C655.275 497.884 654.42 498.893 653.509 499.886L643.987 510.213H661.81ZM689.935 510.213V513.924H666.668V510.677L678.313 497.713C679.746 496.118 680.853 494.767 681.634 493.66C682.431 492.537 682.985 491.536 683.294 490.657C683.619 489.762 683.782 488.851 683.782 487.923C683.782 486.751 683.538 485.693 683.05 484.749C682.578 483.789 681.878 483.024 680.95 482.454C680.022 481.884 678.899 481.6 677.581 481.6C676.002 481.6 674.684 481.909 673.626 482.527C672.584 483.13 671.803 483.976 671.282 485.066C670.761 486.157 670.501 487.41 670.501 488.826H665.984C665.984 486.824 666.424 484.993 667.303 483.333C668.182 481.673 669.484 480.354 671.209 479.378C672.934 478.385 675.058 477.889 677.581 477.889C679.827 477.889 681.748 478.287 683.343 479.085C684.938 479.866 686.159 480.973 687.005 482.405C687.868 483.821 688.299 485.481 688.299 487.386C688.299 488.427 688.12 489.485 687.762 490.56C687.42 491.618 686.94 492.675 686.321 493.733C685.719 494.791 685.011 495.833 684.197 496.858C683.4 497.884 682.545 498.893 681.634 499.886L672.112 510.213H689.935Z" fill="#FD0404"/>
<path d="M215.789 518.807H394.28V521.248H215.789V518.807Z" fill="#FD0404"/>
<path d="M394.305 518.807H691.79V521.248H394.305V518.807Z" fill="#FD0404"/>
</g>
<path d="M28 28V26H26V28H28ZM1110 28H1112V26H1110V28ZM1110 638.884V640.884H1112V638.884H1110ZM28 638.884H26V640.884H28V638.884ZM28 30H1110V26H28V30ZM1108 28V638.884H1112V28H1108ZM1110 636.884H28V640.884H1110V636.884ZM30 638.884V28H26V638.884H30Z" fill="black"/>
</g>
<defs>
<filter id="filter0_d_157_7097" x="0" y="0" width="1154" height="682.885" filterUnits="userSpaceOnUse" color-interpolation-filters="sRGB">
<feFlood flood-opacity="0" result="BackgroundImageFix"/>
<feColorMatrix in="SourceAlpha" type="matrix" values="0 0 0 0 0 0 0 0 0 0 0 0 0 0 0 0 0 0 127 0" result="hardAlpha"/>
<feOffset dx="8" dy="8"/>
<feGaussianBlur stdDeviation="17"/>
<feComposite in2="hardAlpha" operator="out"/>
<feColorMatrix type="matrix" values="0 0 0 0 0 0 0 0 0 0 0 0 0 0 0 0 0 0 0.25 0"/>
<feBlend mode="normal" in2="BackgroundImageFix" result="effect1_dropShadow_157_7097"/>
<feBlend mode="normal" in="SourceGraphic" in2="effect1_dropShadow_157_7097" result="shape"/>
</filter>
<clipPath id="clip0_157_7097">
<path d="M28 28H1110V638.884H28V28Z" fill="white"/>
</clipPath>
</defs>
</svg>
