<svg width="1179" height="611" viewBox="0 0 1179 611" fill="none" xmlns="http://www.w3.org/2000/svg">
<path d="M32.7557 73.5963L51.9993 5.94399H61.3215L55.9279 32.2458L35.2194 102.895H25.9638L32.7557 73.5963ZM12.8462 5.94399L28.1612 72.2646L32.7557 102.895H23.5667L0.0614964 5.94399H12.8462ZM86.225 72.198L101.207 5.94399H114.058L90.6197 102.895H81.4307L86.225 72.198ZM62.7198 5.94399L81.4307 73.5963L88.2226 102.895H78.967L58.9909 32.2458L53.5308 5.94399H62.7198ZM138.762 0.617035V102.895H126.443V0.617035H138.762ZM135.832 64.1409L130.705 63.9412C130.749 59.0138 131.482 54.4637 132.902 50.2909C134.323 46.0737 136.321 42.4114 138.895 39.304C141.47 36.1966 144.533 33.7995 148.084 32.1126C151.68 30.3814 155.653 29.5158 160.003 29.5158C163.555 29.5158 166.751 30.0041 169.592 30.9807C172.433 31.9129 174.852 33.4222 176.85 35.5086C178.892 37.595 180.445 40.3028 181.511 43.6322C182.576 46.9171 183.109 50.9345 183.109 55.6844V102.895H170.724V55.5512C170.724 51.778 170.169 48.7594 169.059 46.4954C167.949 44.1871 166.329 42.5224 164.198 41.5014C162.067 40.436 159.448 39.9033 156.341 39.9033C153.278 39.9033 150.481 40.547 147.951 41.8343C145.465 43.1217 143.312 44.8973 141.492 47.1613C139.716 49.4252 138.318 52.0221 137.297 54.952C136.321 57.8374 135.832 60.9004 135.832 64.1409ZM244.036 90.576V53.487C244.036 50.646 243.459 48.1823 242.305 46.0959C241.195 43.9651 239.508 42.3226 237.244 41.1685C234.98 40.0143 232.183 39.4372 228.854 39.4372C225.747 39.4372 223.017 39.9699 220.664 41.0353C218.356 42.1007 216.536 43.499 215.204 45.2303C213.916 46.9615 213.273 48.826 213.273 50.8236H200.954C200.954 48.2489 201.62 45.6964 202.952 43.1661C204.284 40.6358 206.192 38.3496 208.678 36.3076C211.209 34.2212 214.227 32.5788 217.734 31.3802C221.285 30.1372 225.236 29.5158 229.587 29.5158C234.825 29.5158 239.441 30.4036 243.437 32.1792C247.476 33.9549 250.628 36.6406 252.892 40.2362C255.2 43.7875 256.355 48.2489 256.355 53.6202V87.18C256.355 89.5771 256.554 92.1296 256.954 94.8375C257.398 97.5454 258.041 99.8759 258.885 101.829V102.895H246.034C245.412 101.474 244.924 99.5874 244.569 97.2346C244.214 94.8375 244.036 92.618 244.036 90.576ZM246.167 59.2135L246.3 67.8698H233.848C230.341 67.8698 227.212 68.1584 224.459 68.7354C221.707 69.2681 219.399 70.0894 217.534 71.1992C215.67 72.3089 214.249 73.7073 213.273 75.3941C212.296 77.0366 211.808 78.9676 211.808 81.1872C211.808 83.4512 212.318 85.5153 213.339 87.3798C214.36 89.2442 215.892 90.7313 217.934 91.8411C220.02 92.9065 222.573 93.4392 225.591 93.4392C229.365 93.4392 232.694 92.6401 235.579 91.0421C238.465 89.444 240.751 87.4908 242.438 85.1824C244.169 82.8741 245.101 80.6323 245.235 78.4571L250.495 84.3834C250.184 86.2478 249.341 88.312 247.965 90.576C246.588 92.8399 244.746 95.0151 242.438 97.1015C240.174 99.1435 237.466 100.853 234.314 102.229C231.207 103.56 227.7 104.226 223.794 104.226C218.91 104.226 214.627 103.272 210.942 101.363C207.302 99.4542 204.461 96.9017 202.419 93.7055C200.422 90.465 199.423 86.8471 199.423 82.8519C199.423 78.9898 200.177 75.5939 201.687 72.6641C203.196 69.6899 205.371 67.2261 208.212 65.2729C211.053 63.2753 214.471 61.766 218.467 60.745C222.462 59.724 226.923 59.2135 231.851 59.2135H246.167ZM305.895 30.8475V40.3028H266.942V30.8475H305.895ZM280.126 13.3351H292.445V85.0492C292.445 87.4908 292.822 89.333 293.577 90.576C294.331 91.8189 295.308 92.6401 296.506 93.0397C297.705 93.4392 298.992 93.639 300.368 93.639C301.389 93.639 302.455 93.5502 303.565 93.3726C304.719 93.1506 305.584 92.9731 306.162 92.8399L306.228 102.895C305.251 103.205 303.964 103.494 302.366 103.76C300.812 104.071 298.926 104.226 296.706 104.226C293.688 104.226 290.913 103.627 288.383 102.428C285.852 101.23 283.833 99.2323 282.323 96.4356C280.858 93.5946 280.126 89.7769 280.126 84.9827V13.3351ZM367.555 0.617035V102.895H355.17V0.617035H367.555ZM400.715 30.8475V102.895H388.33V30.8475H400.715ZM387.398 11.737C387.398 9.73944 387.997 8.05257 389.195 6.67644C390.438 5.30031 392.258 4.61225 394.656 4.61225C397.008 4.61225 398.806 5.30031 400.049 6.67644C401.336 8.05257 401.98 9.73944 401.98 11.737C401.98 13.6459 401.336 15.2884 400.049 16.6645C398.806 17.9962 397.008 18.6621 394.656 18.6621C392.258 18.6621 390.438 17.9962 389.195 16.6645C387.997 15.2884 387.398 13.6459 387.398 11.737ZM450.389 104.226C445.373 104.226 440.822 103.383 436.739 101.696C432.699 99.9647 429.214 97.5454 426.284 94.438C423.399 91.3306 421.179 87.6461 419.626 83.3846C418.072 79.123 417.295 74.4619 417.295 69.4013V66.6047C417.295 60.745 418.161 55.529 419.892 50.9567C421.623 46.34 423.976 42.4336 426.95 39.2374C429.924 36.0413 433.298 33.6219 437.071 31.9795C440.845 30.337 444.751 29.5158 448.791 29.5158C453.94 29.5158 458.379 30.4036 462.108 32.1792C465.881 33.9549 468.967 36.4408 471.364 39.637C473.761 42.7887 475.536 46.5176 476.691 50.8236C477.845 55.0851 478.422 59.7462 478.422 64.8068V70.3335H424.62V60.2789H466.103V59.3467C465.926 56.1505 465.26 53.0431 464.106 50.0245C462.996 47.0059 461.22 44.52 458.779 42.5668C456.337 40.6136 453.008 39.637 448.791 39.637C445.994 39.637 443.419 40.2362 441.067 41.4348C438.714 42.589 436.694 44.3202 435.007 46.6286C433.32 48.9369 432.011 51.7558 431.079 55.0851C430.146 58.4145 429.68 62.2543 429.68 66.6047V69.4013C429.68 72.8194 430.146 76.0378 431.079 79.0564C432.055 82.0306 433.454 84.6497 435.274 86.9137C437.138 89.1776 439.38 90.9533 441.999 92.2406C444.662 93.528 447.681 94.1716 451.055 94.1716C455.405 94.1716 459.09 93.2838 462.108 91.5082C465.127 89.7325 467.768 87.3576 470.032 84.3834L477.49 90.3096C475.936 92.6623 473.961 94.9041 471.563 97.0349C469.166 99.1657 466.214 100.897 462.707 102.229C459.245 103.56 455.139 104.226 450.389 104.226ZM534.754 83.7841C534.754 82.0084 534.355 80.366 533.556 78.8567C532.801 77.303 531.225 75.9046 528.828 74.6617C526.475 73.3743 522.924 72.2646 518.174 71.3323C514.179 70.4889 510.561 69.4901 507.321 68.3359C504.124 67.1818 501.394 65.7834 499.13 64.1409C496.911 62.4985 495.202 60.5675 494.003 58.3479C492.805 56.1283 492.205 53.5314 492.205 50.5572C492.205 47.7162 492.827 45.0305 494.07 42.5002C495.357 39.9699 497.155 37.7281 499.463 35.7749C501.816 33.8217 504.635 32.2902 507.92 31.1804C511.205 30.0706 514.867 29.5158 518.907 29.5158C524.678 29.5158 529.605 30.5368 533.689 32.5788C537.773 34.6208 540.903 37.3508 543.078 40.7689C545.253 44.1427 546.341 47.8937 546.341 52.0221H534.022C534.022 50.0245 533.423 48.0935 532.224 46.2291C531.07 44.3202 529.361 42.7444 527.097 41.5014C524.877 40.2584 522.147 39.637 518.907 39.637C515.489 39.637 512.714 40.1697 510.583 41.2351C508.497 42.2561 506.965 43.5656 505.989 45.1637C505.057 46.7618 504.591 48.4486 504.591 50.2243C504.591 51.556 504.812 52.7546 505.256 53.82C505.745 54.841 506.588 55.7954 507.787 56.6832C508.985 57.5266 510.672 58.3257 512.847 59.0803C515.022 59.835 517.797 60.5896 521.171 61.3443C527.075 62.676 531.936 64.2741 535.753 66.1386C539.571 68.003 542.412 70.2891 544.276 72.997C546.141 75.7049 547.073 78.9898 547.073 82.8519C547.073 86.0037 546.407 88.8891 545.075 91.5082C543.788 94.1273 541.901 96.3912 539.415 98.3C536.974 100.164 534.044 101.629 530.626 102.695C527.252 103.716 523.457 104.226 519.24 104.226C512.892 104.226 507.52 103.094 503.126 100.83C498.731 98.5664 495.402 95.6366 493.138 92.0409C490.874 88.4452 489.742 84.6497 489.742 80.6545H502.127C502.304 84.0282 503.281 86.7139 505.057 88.7115C506.832 90.6647 509.007 92.0631 511.582 92.9065C514.157 93.7055 516.709 94.1051 519.24 94.1051C522.613 94.1051 525.432 93.6611 527.696 92.7733C530.005 91.8855 531.758 90.6647 532.957 89.111C534.155 87.5573 534.754 85.7817 534.754 83.7841ZM597.013 0.617035H609.398V88.9113L608.333 102.895H597.013V0.617035ZM658.073 66.2717V67.6701C658.073 72.9082 657.452 77.7691 656.209 82.2526C654.966 86.6917 653.146 90.5538 650.749 93.8387C648.352 97.1237 645.422 99.6762 641.959 101.496C638.497 103.316 634.524 104.226 630.04 104.226C625.468 104.226 621.451 103.449 617.988 101.896C614.57 100.298 611.684 98.0115 609.332 95.0373C606.979 92.0631 605.092 88.4674 603.672 84.2502C602.296 80.033 601.341 75.2832 600.809 70.0006V63.8746C601.341 58.5476 602.296 53.7756 603.672 49.5584C605.092 45.3412 606.979 41.7456 609.332 38.7713C611.684 35.7527 614.57 33.4666 617.988 31.9129C621.406 30.3148 625.379 29.5158 629.907 29.5158C634.435 29.5158 638.452 30.4036 641.959 32.1792C645.466 33.9105 648.396 36.3964 650.749 39.637C653.146 42.8775 654.966 46.7618 656.209 51.2897C657.452 55.7732 658.073 60.7672 658.073 66.2717ZM645.688 67.6701V66.2717C645.688 62.676 645.355 59.3023 644.689 56.1505C644.024 52.9543 642.958 50.1577 641.493 47.7606C640.028 45.319 638.097 43.4102 635.7 42.0341C633.303 40.6136 630.351 39.9033 626.844 39.9033C623.737 39.9033 621.029 40.436 618.72 41.5014C616.457 42.5668 614.526 44.0095 612.927 45.8295C611.329 47.6052 610.02 49.6472 608.999 51.9555C608.022 54.2195 607.29 56.5722 606.801 59.0138V75.0612C607.512 78.1686 608.666 81.165 610.264 84.0504C611.906 86.8915 614.082 89.222 616.789 91.0421C619.542 92.8621 622.938 93.7721 626.977 93.7721C630.307 93.7721 633.148 93.1063 635.5 91.7745C637.898 90.3984 639.829 88.5118 641.293 86.1146C642.803 83.7175 643.913 80.943 644.623 77.7913C645.333 74.6395 645.688 71.2657 645.688 67.6701ZM703.552 104.226C698.536 104.226 693.986 103.383 689.902 101.696C685.862 99.9647 682.378 97.5454 679.448 94.438C676.562 91.3306 674.343 87.6461 672.789 83.3846C671.235 79.123 670.458 74.4619 670.458 69.4013V66.6047C670.458 60.745 671.324 55.529 673.055 50.9567C674.787 46.34 677.139 42.4336 680.114 39.2374C683.088 36.0413 686.462 33.6219 690.235 31.9795C694.008 30.337 697.914 29.5158 701.954 29.5158C707.103 29.5158 711.543 30.4036 715.271 32.1792C719.045 33.9549 722.13 36.4408 724.527 39.637C726.924 42.7887 728.7 46.5176 729.854 50.8236C731.008 55.0851 731.585 59.7462 731.585 64.8068V70.3335H677.783V60.2789H719.267V59.3467C719.089 56.1505 718.423 53.0431 717.269 50.0245C716.159 47.0059 714.384 44.52 711.942 42.5668C709.501 40.6136 706.171 39.637 701.954 39.637C699.157 39.637 696.583 40.2362 694.23 41.4348C691.877 42.589 689.857 44.3202 688.171 46.6286C686.484 48.9369 685.174 51.7558 684.242 55.0851C683.31 58.4145 682.844 62.2543 682.844 66.6047V69.4013C682.844 72.8194 683.31 76.0378 684.242 79.0564C685.219 82.0306 686.617 84.6497 688.437 86.9137C690.301 89.1776 692.543 90.9533 695.162 92.2406C697.826 93.528 700.844 94.1716 704.218 94.1716C708.568 94.1716 712.253 93.2838 715.271 91.5082C718.29 89.7325 720.931 87.3576 723.195 84.3834L730.653 90.3096C729.099 92.6623 727.124 94.9041 724.727 97.0349C722.33 99.1657 719.378 100.897 715.871 102.229C712.408 103.56 708.302 104.226 703.552 104.226ZM758.287 46.2291V102.895H745.968V30.8475H757.621L758.287 46.2291ZM755.357 64.1409L750.23 63.9412C750.274 59.0138 751.007 54.4637 752.427 50.2909C753.848 46.0737 755.845 42.4114 758.42 39.304C760.995 36.1966 764.058 33.7995 767.609 32.1126C771.205 30.3814 775.178 29.5158 779.528 29.5158C783.079 29.5158 786.275 30.0041 789.116 30.9807C791.957 31.9129 794.377 33.4222 796.374 35.5086C798.416 37.595 799.97 40.3028 801.035 43.6322C802.101 46.9171 802.634 50.9345 802.634 55.6844V102.895H790.248V55.5512C790.248 51.778 789.694 48.7594 788.584 46.4954C787.474 44.1871 785.854 42.5224 783.723 41.5014C781.592 40.436 778.973 39.9033 775.866 39.9033C772.803 39.9033 770.006 40.547 767.476 41.8343C764.99 43.1217 762.837 44.8973 761.017 47.1613C759.241 49.4252 757.843 52.0221 756.822 54.952C755.845 57.8374 755.357 60.9004 755.357 64.1409ZM851.242 104.226C846.226 104.226 841.676 103.383 837.592 101.696C833.552 99.9647 830.067 97.5454 827.138 94.438C824.252 91.3306 822.033 87.6461 820.479 83.3846C818.925 79.123 818.148 74.4619 818.148 69.4013V66.6047C818.148 60.745 819.014 55.529 820.745 50.9567C822.476 46.34 824.829 42.4336 827.803 39.2374C830.778 36.0413 834.151 33.6219 837.925 31.9795C841.698 30.337 845.604 29.5158 849.644 29.5158C854.793 29.5158 859.232 30.4036 862.961 32.1792C866.735 33.9549 869.82 36.4408 872.217 39.637C874.614 42.7887 876.39 46.5176 877.544 50.8236C878.698 55.0851 879.275 59.7462 879.275 64.8068V70.3335H825.473V60.2789H866.956V59.3467C866.779 56.1505 866.113 53.0431 864.959 50.0245C863.849 47.0059 862.073 44.52 859.632 42.5668C857.19 40.6136 853.861 39.637 849.644 39.637C846.847 39.637 844.273 40.2362 841.92 41.4348C839.567 42.589 837.547 44.3202 835.86 46.6286C834.174 48.9369 832.864 51.7558 831.932 55.0851C831 58.4145 830.533 62.2543 830.533 66.6047V69.4013C830.533 72.8194 831 76.0378 831.932 79.0564C832.908 82.0306 834.307 84.6497 836.127 86.9137C837.991 89.1776 840.233 90.9533 842.852 92.2406C845.515 93.528 848.534 94.1716 851.908 94.1716C856.258 94.1716 859.943 93.2838 862.961 91.5082C865.98 89.7325 868.621 87.3576 870.885 84.3834L878.343 90.3096C876.789 92.6623 874.814 94.9041 872.417 97.0349C870.019 99.1657 867.067 100.897 863.561 102.229C860.098 103.56 855.992 104.226 851.242 104.226ZM936.14 90.576V53.487C936.14 50.646 935.563 48.1823 934.409 46.0959C933.299 43.9651 931.612 42.3226 929.348 41.1685C927.084 40.0143 924.288 39.4372 920.958 39.4372C917.851 39.4372 915.121 39.9699 912.768 41.0353C910.46 42.1007 908.64 43.499 907.308 45.2303C906.021 46.9615 905.377 48.826 905.377 50.8236H893.059C893.059 48.2489 893.724 45.6964 895.056 43.1661C896.388 40.6358 898.297 38.3496 900.783 36.3076C903.313 34.2212 906.332 32.5788 909.838 31.3802C913.39 30.1372 917.341 29.5158 921.691 29.5158C926.929 29.5158 931.546 30.4036 935.541 32.1792C939.581 33.9549 942.732 36.6406 944.996 40.2362C947.305 43.7875 948.459 48.2489 948.459 53.6202V87.18C948.459 89.5771 948.659 92.1296 949.058 94.8375C949.502 97.5454 950.146 99.8759 950.989 101.829V102.895H938.138C937.516 101.474 937.028 99.5874 936.673 97.2346C936.318 94.8375 936.14 92.618 936.14 90.576ZM938.271 59.2135L938.404 67.8698H925.952C922.446 67.8698 919.316 68.1584 916.564 68.7354C913.811 69.2681 911.503 70.0894 909.639 71.1992C907.774 72.3089 906.354 73.7073 905.377 75.3941C904.4 77.0366 903.912 78.9676 903.912 81.1872C903.912 83.4512 904.423 85.5153 905.444 87.3798C906.465 89.2442 907.996 90.7313 910.038 91.8411C912.125 92.9065 914.677 93.4392 917.696 93.4392C921.469 93.4392 924.798 92.6401 927.684 91.0421C930.569 89.444 932.855 87.4908 934.542 85.1824C936.273 82.8741 937.206 80.6323 937.339 78.4571L942.599 84.3834C942.288 86.2478 941.445 88.312 940.069 90.576C938.693 92.8399 936.851 95.0151 934.542 97.1015C932.278 99.1435 929.57 100.853 926.419 102.229C923.311 103.56 919.804 104.226 915.898 104.226C911.015 104.226 906.731 103.272 903.047 101.363C899.406 99.4542 896.565 96.9017 894.523 93.7055C892.526 90.465 891.527 86.8471 891.527 82.8519C891.527 78.9898 892.282 75.5939 893.791 72.6641C895.3 69.6899 897.475 67.2261 900.316 65.2729C903.158 63.2753 906.576 61.766 910.571 60.745C914.566 59.724 919.027 59.2135 923.955 59.2135H938.271ZM998 30.8475V40.3028H959.046V30.8475H998ZM972.23 13.3351H984.549V85.0492C984.549 87.4908 984.926 89.333 985.681 90.576C986.436 91.8189 987.412 92.6401 988.611 93.0397C989.809 93.4392 991.097 93.639 992.473 93.639C993.494 93.639 994.559 93.5502 995.669 93.3726C996.823 93.1506 997.689 92.9731 998.266 92.8399L998.332 102.895C997.356 103.205 996.069 103.494 994.47 103.76C992.917 104.071 991.03 104.226 988.811 104.226C985.792 104.226 983.017 103.627 980.487 102.428C977.957 101.23 975.937 99.2323 974.428 96.4356C972.963 93.5946 972.23 89.7769 972.23 84.9827V13.3351ZM1024.77 0.617035V102.895H1012.45V0.617035H1024.77ZM1021.84 64.1409L1016.71 63.9412C1016.75 59.0138 1017.49 54.4637 1018.91 50.2909C1020.33 46.0737 1022.33 42.4114 1024.9 39.304C1027.48 36.1966 1030.54 33.7995 1034.09 32.1126C1037.69 30.3814 1041.66 29.5158 1046.01 29.5158C1049.56 29.5158 1052.76 30.0041 1055.6 30.9807C1058.44 31.9129 1060.86 33.4222 1062.86 35.5086C1064.9 37.595 1066.45 40.3028 1067.52 43.6322C1068.58 46.9171 1069.11 50.9345 1069.11 55.6844V102.895H1056.73V55.5512C1056.73 51.778 1056.17 48.7594 1055.06 46.4954C1053.95 44.1871 1052.33 42.5224 1050.2 41.5014C1048.07 40.436 1045.45 39.9033 1042.35 39.9033C1039.28 39.9033 1036.49 40.547 1033.96 41.8343C1031.47 43.1217 1029.32 44.8973 1027.5 47.1613C1025.72 49.4252 1024.32 52.0221 1023.3 54.952C1022.33 57.8374 1021.84 60.9004 1021.84 64.1409ZM1163.87 90.576V53.487C1163.87 50.646 1163.29 48.1823 1162.14 46.0959C1161.03 43.9651 1159.34 42.3226 1157.08 41.1685C1154.81 40.0143 1152.02 39.4372 1148.69 39.4372C1145.58 39.4372 1142.85 39.9699 1140.5 41.0353C1138.19 42.1007 1136.37 43.499 1135.04 45.2303C1133.75 46.9615 1133.1 48.826 1133.1 50.8236H1120.79C1120.79 48.2489 1121.45 45.6964 1122.78 43.1661C1124.12 40.6358 1126.02 38.3496 1128.51 36.3076C1131.04 34.2212 1134.06 32.5788 1137.57 31.3802C1141.12 30.1372 1145.07 29.5158 1149.42 29.5158C1154.66 29.5158 1159.27 30.4036 1163.27 32.1792C1167.31 33.9549 1170.46 36.6406 1172.72 40.2362C1175.03 43.7875 1176.19 48.2489 1176.19 53.6202V87.18C1176.19 89.5771 1176.39 92.1296 1176.79 94.8375C1177.23 97.5454 1177.87 99.8759 1178.72 101.829V102.895H1165.87C1165.24 101.474 1164.76 99.5874 1164.4 97.2346C1164.05 94.8375 1163.87 92.618 1163.87 90.576ZM1166 59.2135L1166.13 67.8698H1153.68C1150.17 67.8698 1147.04 68.1584 1144.29 68.7354C1141.54 69.2681 1139.23 70.0894 1137.37 71.1992C1135.5 72.3089 1134.08 73.7073 1133.1 75.3941C1132.13 77.0366 1131.64 78.9676 1131.64 81.1872C1131.64 83.4512 1132.15 85.5153 1133.17 87.3798C1134.19 89.2442 1135.72 90.7313 1137.77 91.8411C1139.85 92.9065 1142.4 93.4392 1145.42 93.4392C1149.2 93.4392 1152.53 92.6401 1155.41 91.0421C1158.3 89.444 1160.58 87.4908 1162.27 85.1824C1164 82.8741 1164.93 80.6323 1165.07 78.4571L1170.33 84.3834C1170.02 86.2478 1169.17 88.312 1167.8 90.576C1166.42 92.8399 1164.58 95.0151 1162.27 97.1015C1160.01 99.1435 1157.3 100.853 1154.15 102.229C1151.04 103.56 1147.53 104.226 1143.63 104.226C1138.74 104.226 1134.46 103.272 1130.77 101.363C1127.13 99.4542 1124.29 96.9017 1122.25 93.7055C1120.25 90.465 1119.25 86.8471 1119.25 82.8519C1119.25 78.9898 1120.01 75.5939 1121.52 72.6641C1123.03 69.6899 1125.2 67.2261 1128.04 65.2729C1130.88 63.2753 1134.3 61.766 1138.3 60.745C1142.29 59.724 1146.75 59.2135 1151.68 59.2135H1166ZM288.516 250.11L307.027 190.847H315.151L313.553 202.633L294.709 262.895H286.785L288.516 250.11ZM276.064 190.847L291.845 250.776L292.977 262.895H284.654L263.746 190.847H276.064ZM332.863 250.31L347.912 190.847H360.164L339.255 262.895H330.998L332.863 250.31ZM316.949 190.847L335.06 249.111L337.124 262.895H329.267L309.89 202.5L308.292 190.847H316.949ZM369.552 227.67V226.139C369.552 220.945 370.307 216.128 371.816 211.689C373.326 207.206 375.501 203.321 378.342 200.036C381.183 196.707 384.623 194.132 388.663 192.312C392.702 190.448 397.23 189.516 402.246 189.516C407.307 189.516 411.857 190.448 415.897 192.312C419.981 194.132 423.443 196.707 426.284 200.036C429.17 203.321 431.367 207.206 432.876 211.689C434.386 216.128 435.14 220.945 435.14 226.139V227.67C435.14 232.864 434.386 237.68 432.876 242.119C431.367 246.559 429.17 250.443 426.284 253.772C423.443 257.057 420.003 259.632 415.963 261.496C411.968 263.316 407.44 264.226 402.38 264.226C397.319 264.226 392.769 263.316 388.729 261.496C384.69 259.632 381.227 257.057 378.342 253.772C375.501 250.443 373.326 246.559 371.816 242.119C370.307 237.68 369.552 232.864 369.552 227.67ZM381.871 226.139V227.67C381.871 231.266 382.293 234.662 383.136 237.858C383.979 241.01 385.245 243.806 386.931 246.248C388.663 248.689 390.816 250.62 393.39 252.041C395.965 253.417 398.961 254.105 402.38 254.105C405.753 254.105 408.705 253.417 411.236 252.041C413.81 250.62 415.941 248.689 417.628 246.248C419.315 243.806 420.58 241.01 421.423 237.858C422.311 234.662 422.755 231.266 422.755 227.67V226.139C422.755 222.587 422.311 219.236 421.423 216.084C420.58 212.888 419.293 210.069 417.561 207.627C415.875 205.141 413.744 203.188 411.169 201.768C408.639 200.347 405.665 199.637 402.246 199.637C398.873 199.637 395.898 200.347 393.324 201.768C390.793 203.188 388.663 205.141 386.931 207.627C385.245 210.069 383.979 212.888 383.136 216.084C382.293 219.236 381.871 222.587 381.871 226.139ZM462.907 202.167V262.895H450.589V190.847H462.574L462.907 202.167ZM485.414 190.448L485.347 201.901C484.326 201.679 483.349 201.546 482.417 201.501C481.529 201.413 480.508 201.368 479.354 201.368C476.513 201.368 474.005 201.812 471.83 202.7C469.655 203.588 467.812 204.831 466.303 206.429C464.794 208.027 463.595 209.936 462.707 212.155C461.864 214.33 461.309 216.728 461.043 219.347L457.58 221.344C457.58 216.994 458.002 212.91 458.845 209.092C459.733 205.275 461.087 201.901 462.907 198.971C464.727 195.997 467.036 193.689 469.832 192.046C472.673 190.359 476.047 189.516 479.953 189.516C480.841 189.516 481.862 189.627 483.016 189.849C484.171 190.026 484.97 190.226 485.414 190.448ZM509.185 160.617V262.895H496.8V160.617H509.185ZM553.199 190.847L521.77 224.474L504.191 242.719L503.192 229.601L515.777 214.552L538.15 190.847H553.199ZM541.946 262.895L516.243 228.536L522.636 217.549L556.462 262.895H541.946ZM608.4 250.576V213.487C608.4 210.646 607.822 208.182 606.668 206.096C605.558 203.965 603.872 202.323 601.608 201.168C599.344 200.014 596.547 199.437 593.218 199.437C590.11 199.437 587.38 199.97 585.028 201.035C582.719 202.101 580.899 203.499 579.567 205.23C578.28 206.962 577.636 208.826 577.636 210.824H565.318C565.318 208.249 565.984 205.696 567.315 203.166C568.647 200.636 570.556 198.35 573.042 196.308C575.572 194.221 578.591 192.579 582.098 191.38C585.649 190.137 589.6 189.516 593.95 189.516C599.188 189.516 603.805 190.404 607.8 192.179C611.84 193.955 614.992 196.641 617.256 200.236C619.564 203.788 620.718 208.249 620.718 213.62V247.18C620.718 249.577 620.918 252.13 621.317 254.838C621.761 257.545 622.405 259.876 623.248 261.829V262.895H610.397C609.776 261.474 609.287 259.587 608.932 257.235C608.577 254.838 608.4 252.618 608.4 250.576ZM610.53 219.214L610.663 227.87H598.212C594.705 227.87 591.575 228.158 588.823 228.735C586.071 229.268 583.762 230.089 581.898 231.199C580.034 232.309 578.613 233.707 577.636 235.394C576.66 237.037 576.171 238.968 576.171 241.187C576.171 243.451 576.682 245.515 577.703 247.38C578.724 249.244 580.255 250.731 582.297 251.841C584.384 252.906 586.936 253.439 589.955 253.439C593.728 253.439 597.058 252.64 599.943 251.042C602.828 249.444 605.115 247.491 606.801 245.182C608.533 242.874 609.465 240.632 609.598 238.457L614.858 244.383C614.548 246.248 613.704 248.312 612.328 250.576C610.952 252.84 609.11 255.015 606.801 257.101C604.537 259.143 601.83 260.853 598.678 262.229C595.57 263.56 592.064 264.226 588.157 264.226C583.274 264.226 578.99 263.272 575.306 261.363C571.666 259.454 568.825 256.902 566.783 253.706C564.785 250.465 563.786 246.847 563.786 242.852C563.786 238.99 564.541 235.594 566.05 232.664C567.56 229.69 569.735 227.226 572.576 225.273C575.417 223.275 578.835 221.766 582.83 220.745C586.825 219.724 591.287 219.214 596.214 219.214H610.53ZM652.414 160.617V262.895H640.095V160.617H652.414ZM649.484 224.141L644.356 223.941C644.401 219.014 645.133 214.464 646.554 210.291C647.974 206.074 649.972 202.411 652.547 199.304C655.121 196.197 658.184 193.8 661.736 192.113C665.331 190.381 669.304 189.516 673.655 189.516C677.206 189.516 680.402 190.004 683.243 190.981C686.084 191.913 688.504 193.422 690.501 195.509C692.543 197.595 694.097 200.303 695.162 203.632C696.228 206.917 696.76 210.935 696.76 215.684V262.895H684.375V215.551C684.375 211.778 683.82 208.759 682.711 206.495C681.601 204.187 679.98 202.522 677.85 201.501C675.719 200.436 673.1 199.903 669.992 199.903C666.929 199.903 664.133 200.547 661.603 201.834C659.117 203.122 656.964 204.897 655.144 207.161C653.368 209.425 651.97 212.022 650.949 214.952C649.972 217.837 649.484 220.9 649.484 224.141ZM711.942 227.67V226.139C711.942 220.945 712.697 216.128 714.206 211.689C715.715 207.206 717.891 203.321 720.732 200.036C723.573 196.707 727.013 194.132 731.053 192.312C735.092 190.448 739.62 189.516 744.636 189.516C749.697 189.516 754.247 190.448 758.287 192.312C762.371 194.132 765.833 196.707 768.674 200.036C771.56 203.321 773.757 207.206 775.266 211.689C776.776 216.128 777.53 220.945 777.53 226.139V227.67C777.53 232.864 776.776 237.68 775.266 242.119C773.757 246.559 771.56 250.443 768.674 253.772C765.833 257.057 762.393 259.632 758.353 261.496C754.358 263.316 749.83 264.226 744.77 264.226C739.709 264.226 735.159 263.316 731.119 261.496C727.08 259.632 723.617 257.057 720.732 253.772C717.891 250.443 715.715 246.559 714.206 242.119C712.697 237.68 711.942 232.864 711.942 227.67ZM724.261 226.139V227.67C724.261 231.266 724.682 234.662 725.526 237.858C726.369 241.01 727.634 243.806 729.321 246.248C731.053 248.689 733.206 250.62 735.78 252.041C738.355 253.417 741.351 254.105 744.77 254.105C748.143 254.105 751.095 253.417 753.626 252.041C756.2 250.62 758.331 248.689 760.018 246.248C761.705 243.806 762.97 241.01 763.813 237.858C764.701 234.662 765.145 231.266 765.145 227.67V226.139C765.145 222.587 764.701 219.236 763.813 216.084C762.97 212.888 761.683 210.069 759.951 207.627C758.264 205.141 756.134 203.188 753.559 201.768C751.029 200.347 748.054 199.637 744.636 199.637C741.263 199.637 738.288 200.347 735.714 201.768C733.183 203.188 731.053 205.141 729.321 207.627C727.634 210.069 726.369 212.888 725.526 216.084C724.682 219.236 724.261 222.587 724.261 226.139ZM806.362 160.617V262.895H793.977V160.617H806.362ZM839.523 190.847V262.895H827.138V190.847H839.523ZM826.205 171.737C826.205 169.739 826.805 168.053 828.003 166.676C829.246 165.3 831.066 164.612 833.463 164.612C835.816 164.612 837.614 165.3 838.857 166.676C840.144 168.053 840.788 169.739 840.788 171.737C840.788 173.646 840.144 175.288 838.857 176.664C837.614 177.996 835.816 178.662 833.463 178.662C831.066 178.662 829.246 177.996 828.003 176.664C826.805 175.288 826.205 173.646 826.205 171.737ZM888.131 254.105C891.061 254.105 893.769 253.506 896.255 252.307C898.741 251.109 900.783 249.466 902.381 247.38C903.979 245.249 904.889 242.83 905.111 240.122H916.83C916.608 244.383 915.165 248.356 912.502 252.041C909.883 255.681 906.443 258.633 902.181 260.897C897.919 263.116 893.236 264.226 888.131 264.226C882.715 264.226 877.988 263.272 873.948 261.363C869.953 259.454 866.624 256.835 863.96 253.506C861.341 250.176 859.366 246.359 858.034 242.053C856.747 237.702 856.103 233.108 856.103 228.269V225.473C856.103 220.634 856.747 216.062 858.034 211.756C859.366 207.405 861.341 203.566 863.96 200.236C866.624 196.907 869.953 194.288 873.948 192.379C877.988 190.47 882.715 189.516 888.131 189.516C893.769 189.516 898.696 190.67 902.913 192.978C907.131 195.242 910.438 198.35 912.835 202.3C915.276 206.207 916.608 210.646 916.83 215.618H905.111C904.889 212.644 904.045 209.958 902.581 207.561C901.16 205.164 899.207 203.255 896.721 201.834C894.279 200.369 891.416 199.637 888.131 199.637C884.358 199.637 881.184 200.392 878.609 201.901C876.079 203.366 874.059 205.363 872.55 207.894C871.085 210.38 870.02 213.154 869.354 216.217C868.732 219.236 868.421 222.321 868.421 225.473V228.269C868.421 231.421 868.732 234.529 869.354 237.592C869.975 240.655 871.018 243.429 872.483 245.915C873.993 248.401 876.012 250.398 878.543 251.908C881.117 253.373 884.314 254.105 888.131 254.105ZM508.053 350.847V422.895H495.668V350.847H508.053ZM494.736 331.737C494.736 329.739 495.335 328.053 496.534 326.676C497.776 325.3 499.597 324.612 501.994 324.612C504.346 324.612 506.144 325.3 507.387 326.676C508.675 328.053 509.318 329.739 509.318 331.737C509.318 333.646 508.675 335.288 507.387 336.664C506.144 337.996 504.346 338.662 501.994 338.662C499.597 338.662 497.776 337.996 496.534 336.664C495.335 335.288 494.736 333.646 494.736 331.737ZM569.779 403.784C569.779 402.008 569.38 400.366 568.581 398.857C567.826 397.303 566.25 395.905 563.853 394.662C561.5 393.374 557.949 392.265 553.199 391.332C549.204 390.489 545.586 389.49 542.345 388.336C539.149 387.182 536.419 385.783 534.155 384.141C531.936 382.498 530.226 380.567 529.028 378.348C527.829 376.128 527.23 373.531 527.23 370.557C527.23 367.716 527.852 365.031 529.095 362.5C530.382 359.97 532.18 357.728 534.488 355.775C536.841 353.822 539.66 352.29 542.945 351.18C546.23 350.071 549.892 349.516 553.931 349.516C559.702 349.516 564.63 350.537 568.714 352.579C572.798 354.621 575.927 357.351 578.102 360.769C580.278 364.143 581.365 367.894 581.365 372.022H569.047C569.047 370.025 568.447 368.094 567.249 366.229C566.095 364.32 564.386 362.744 562.122 361.501C559.902 360.258 557.172 359.637 553.931 359.637C550.513 359.637 547.739 360.17 545.608 361.235C543.522 362.256 541.99 363.566 541.014 365.164C540.081 366.762 539.615 368.449 539.615 370.224C539.615 371.556 539.837 372.755 540.281 373.82C540.769 374.841 541.613 375.795 542.811 376.683C544.01 377.527 545.697 378.326 547.872 379.08C550.047 379.835 552.822 380.59 556.195 381.344C562.099 382.676 566.96 384.274 570.778 386.139C574.596 388.003 577.437 390.289 579.301 392.997C581.165 395.705 582.098 398.99 582.098 402.852C582.098 406.004 581.432 408.889 580.1 411.508C578.813 414.127 576.926 416.391 574.44 418.3C571.999 420.164 569.069 421.629 565.651 422.695C562.277 423.716 558.482 424.226 554.264 424.226C547.916 424.226 542.545 423.094 538.15 420.83C533.756 418.566 530.426 415.637 528.162 412.041C525.898 408.445 524.766 404.65 524.766 400.655H537.152C537.329 404.028 538.306 406.714 540.081 408.712C541.857 410.665 544.032 412.063 546.607 412.906C549.182 413.706 551.734 414.105 554.264 414.105C557.638 414.105 560.457 413.661 562.721 412.773C565.029 411.885 566.783 410.665 567.981 409.111C569.18 407.557 569.779 405.782 569.779 403.784ZM674.587 410.576V373.487C674.587 370.646 674.01 368.182 672.856 366.096C671.746 363.965 670.059 362.323 667.795 361.168C665.531 360.014 662.734 359.437 659.405 359.437C656.298 359.437 653.568 359.97 651.215 361.035C648.907 362.101 647.087 363.499 645.755 365.23C644.467 366.962 643.824 368.826 643.824 370.824H631.505C631.505 368.249 632.171 365.696 633.503 363.166C634.835 360.636 636.743 358.35 639.229 356.308C641.76 354.221 644.778 352.579 648.285 351.38C651.836 350.137 655.787 349.516 660.138 349.516C665.376 349.516 669.992 350.404 673.988 352.179C678.027 353.955 681.179 356.641 683.443 360.236C685.751 363.788 686.905 368.249 686.905 373.62V407.18C686.905 409.577 687.105 412.13 687.505 414.838C687.949 417.545 688.592 419.876 689.436 421.829V422.895H676.585C675.963 421.474 675.475 419.587 675.12 417.235C674.764 414.838 674.587 412.618 674.587 410.576ZM676.718 379.214L676.851 387.87H664.399C660.892 387.87 657.763 388.158 655.01 388.735C652.258 389.268 649.95 390.089 648.085 391.199C646.221 392.309 644.8 393.707 643.824 395.394C642.847 397.037 642.359 398.968 642.359 401.187C642.359 403.451 642.869 405.515 643.89 407.38C644.911 409.244 646.443 410.731 648.485 411.841C650.571 412.906 653.124 413.439 656.142 413.439C659.916 413.439 663.245 412.64 666.13 411.042C669.016 409.444 671.302 407.491 672.989 405.182C674.72 402.874 675.652 400.632 675.785 398.457L681.046 404.383C680.735 406.248 679.892 408.312 678.516 410.576C677.139 412.84 675.297 415.015 672.989 417.101C670.725 419.143 668.017 420.853 664.865 422.229C661.758 423.56 658.251 424.226 654.344 424.226C649.461 424.226 645.178 423.272 641.493 421.363C637.853 419.454 635.012 416.902 632.97 413.706C630.972 410.465 629.974 406.847 629.974 402.852C629.974 398.99 630.728 395.594 632.238 392.664C633.747 389.69 635.922 387.226 638.763 385.273C641.604 383.275 645.022 381.766 649.018 380.745C653.013 379.724 657.474 379.214 662.401 379.214H676.718ZM247.299 524.698V610.595H234.914V510.847H246.233L247.299 524.698ZM295.841 546.272V547.67C295.841 552.908 295.219 557.769 293.976 562.253C292.733 566.692 290.913 570.554 288.516 573.839C286.163 577.124 283.256 579.676 279.793 581.496C276.331 583.316 272.358 584.226 267.874 584.226C263.302 584.226 259.262 583.472 255.755 581.962C252.248 580.453 249.274 578.256 246.833 575.37C244.391 572.485 242.438 569.022 240.973 564.983C239.552 560.943 238.576 556.393 238.043 551.332V543.875C238.576 538.548 239.575 533.776 241.04 529.558C242.504 525.341 244.435 521.746 246.833 518.771C249.274 515.753 252.226 513.467 255.689 511.913C259.151 510.315 263.146 509.516 267.674 509.516C272.202 509.516 276.22 510.404 279.727 512.179C283.233 513.91 286.185 516.396 288.583 519.637C290.98 522.878 292.778 526.762 293.976 531.29C295.219 535.773 295.841 540.767 295.841 546.272ZM283.455 547.67V546.272C283.455 542.676 283.078 539.302 282.323 536.151C281.569 532.954 280.392 530.158 278.794 527.761C277.241 525.319 275.243 523.41 272.801 522.034C270.36 520.614 267.452 519.903 264.079 519.903C260.971 519.903 258.263 520.436 255.955 521.501C253.691 522.567 251.76 524.01 250.162 525.83C248.564 527.605 247.254 529.647 246.233 531.956C245.257 534.219 244.524 536.572 244.036 539.014V556.26C244.924 559.367 246.167 562.297 247.765 565.049C249.363 567.757 251.494 569.954 254.157 571.641C256.821 573.284 260.172 574.105 264.212 574.105C267.541 574.105 270.404 573.417 272.801 572.041C275.243 570.62 277.241 568.689 278.794 566.248C280.392 563.806 281.569 561.01 282.323 557.858C283.078 554.662 283.455 551.266 283.455 547.67ZM341.453 584.226C336.436 584.226 331.886 583.383 327.802 581.696C323.763 579.965 320.278 577.545 317.348 574.438C314.463 571.331 312.243 567.646 310.689 563.385C309.136 559.123 308.359 554.462 308.359 549.401V546.605C308.359 540.745 309.225 535.529 310.956 530.957C312.687 526.34 315.04 522.434 318.014 519.237C320.988 516.041 324.362 513.622 328.135 511.979C331.908 510.337 335.815 509.516 339.855 509.516C345.004 509.516 349.443 510.404 353.172 512.179C356.945 513.955 360.03 516.441 362.427 519.637C364.825 522.789 366.6 526.518 367.754 530.824C368.909 535.085 369.486 539.746 369.486 544.807V550.334H315.683V540.279H357.167V539.347C356.99 536.151 356.324 533.043 355.17 530.025C354.06 527.006 352.284 524.52 349.843 522.567C347.401 520.614 344.072 519.637 339.855 519.637C337.058 519.637 334.483 520.236 332.13 521.435C329.778 522.589 327.758 524.32 326.071 526.629C324.384 528.937 323.075 531.756 322.142 535.085C321.21 538.414 320.744 542.254 320.744 546.605V549.401C320.744 552.819 321.21 556.038 322.142 559.056C323.119 562.031 324.517 564.65 326.337 566.914C328.202 569.178 330.444 570.953 333.063 572.241C335.726 573.528 338.745 574.172 342.118 574.172C346.469 574.172 350.153 573.284 353.172 571.508C356.191 569.733 358.832 567.358 361.096 564.383L368.553 570.31C367 572.662 365.024 574.904 362.627 577.035C360.23 579.166 357.278 580.897 353.771 582.229C350.309 583.56 346.202 584.226 341.453 584.226ZM396.187 522.167V582.895H383.868V510.847H395.854L396.187 522.167ZM418.693 510.448L418.627 521.901C417.606 521.679 416.629 521.546 415.697 521.501C414.809 521.413 413.788 521.368 412.634 521.368C409.793 521.368 407.285 521.812 405.11 522.7C402.935 523.588 401.092 524.831 399.583 526.429C398.074 528.027 396.875 529.936 395.987 532.155C395.144 534.33 394.589 536.728 394.323 539.347L390.86 541.344C390.86 536.994 391.282 532.91 392.125 529.092C393.013 525.275 394.367 521.901 396.187 518.971C398.007 515.997 400.315 513.689 403.112 512.046C405.953 510.359 409.327 509.516 413.233 509.516C414.121 509.516 415.142 509.627 416.296 509.849C417.45 510.026 418.25 510.226 418.693 510.448ZM449.523 582.895H437.205V503.257C437.205 498.063 438.137 493.69 440.001 490.139C441.91 486.543 444.64 483.835 448.191 482.015C451.743 480.151 455.96 479.219 460.843 479.219C462.263 479.219 463.684 479.307 465.104 479.485C466.569 479.663 467.99 479.929 469.366 480.284L468.7 490.339C467.768 490.117 466.703 489.961 465.504 489.873C464.35 489.784 463.196 489.739 462.041 489.739C459.422 489.739 457.158 490.272 455.25 491.338C453.385 492.359 451.965 493.868 450.988 495.865C450.011 497.863 449.523 500.327 449.523 503.257V582.895ZM464.838 510.847V520.303H425.818V510.847H464.838ZM506.855 584.226C501.838 584.226 497.288 583.383 493.204 581.696C489.165 579.965 485.68 577.545 482.75 574.438C479.865 571.331 477.645 567.646 476.091 563.385C474.538 559.123 473.761 554.462 473.761 549.401V546.605C473.761 540.745 474.626 535.529 476.358 530.957C478.089 526.34 480.442 522.434 483.416 519.237C486.39 516.041 489.764 513.622 493.537 511.979C497.31 510.337 501.217 509.516 505.256 509.516C510.406 509.516 514.845 510.404 518.574 512.179C522.347 513.955 525.432 516.441 527.829 519.637C530.227 522.789 532.002 526.518 533.156 530.824C534.311 535.085 534.888 539.746 534.888 544.807V550.334H481.085V540.279H522.569V539.347C522.391 536.151 521.726 533.043 520.571 530.025C519.462 527.006 517.686 524.52 515.244 522.567C512.803 520.614 509.474 519.637 505.256 519.637C502.46 519.637 499.885 520.236 497.532 521.435C495.18 522.589 493.16 524.32 491.473 526.629C489.786 528.937 488.477 531.756 487.544 535.085C486.612 538.414 486.146 542.254 486.146 546.605V549.401C486.146 552.819 486.612 556.038 487.544 559.056C488.521 562.031 489.919 564.65 491.739 566.914C493.604 569.178 495.845 570.953 498.465 572.241C501.128 573.528 504.147 574.172 507.52 574.172C511.871 574.172 515.555 573.284 518.574 571.508C521.592 569.733 524.234 567.358 526.498 564.383L533.955 570.31C532.402 572.662 530.426 574.904 528.029 577.035C525.632 579.166 522.68 580.897 519.173 582.229C515.711 583.56 511.604 584.226 506.855 584.226ZM578.102 574.105C581.032 574.105 583.74 573.506 586.226 572.307C588.712 571.109 590.754 569.466 592.352 567.38C593.95 565.249 594.86 562.83 595.082 560.122H606.801C606.579 564.383 605.137 568.356 602.473 572.041C599.854 575.681 596.414 578.633 592.152 580.897C587.891 583.116 583.207 584.226 578.102 584.226C572.687 584.226 567.959 583.272 563.919 581.363C559.924 579.454 556.595 576.835 553.931 573.506C551.312 570.176 549.337 566.359 548.005 562.053C546.718 557.702 546.074 553.108 546.074 548.269V545.473C546.074 540.634 546.718 536.062 548.005 531.756C549.337 527.405 551.312 523.566 553.931 520.236C556.595 516.907 559.924 514.288 563.919 512.379C567.959 510.47 572.687 509.516 578.102 509.516C583.74 509.516 588.668 510.67 592.885 512.978C597.102 515.242 600.409 518.35 602.806 522.3C605.248 526.207 606.579 530.646 606.801 535.618H595.082C594.86 532.644 594.017 529.958 592.552 527.561C591.131 525.164 589.178 523.255 586.692 521.834C584.251 520.369 581.387 519.637 578.102 519.637C574.329 519.637 571.155 520.392 568.581 521.901C566.05 523.366 564.03 525.363 562.521 527.894C561.056 530.38 559.991 533.154 559.325 536.217C558.703 539.236 558.393 542.321 558.393 545.473V548.269C558.393 551.421 558.703 554.529 559.325 557.592C559.946 560.655 560.99 563.429 562.455 565.915C563.964 568.401 565.984 570.398 568.514 571.908C571.089 573.373 574.285 574.105 578.102 574.105ZM650.815 510.847V520.303H611.862V510.847H650.815ZM625.046 493.335H637.365V565.049C637.365 567.491 637.742 569.333 638.497 570.576C639.251 571.819 640.228 572.64 641.427 573.04C642.625 573.439 643.912 573.639 645.289 573.639C646.31 573.639 647.375 573.55 648.485 573.373C649.639 573.151 650.505 572.973 651.082 572.84L651.148 582.895C650.172 583.205 648.884 583.494 647.286 583.76C645.733 584.071 643.846 584.226 641.626 584.226C638.608 584.226 635.833 583.627 633.303 582.428C630.773 581.23 628.753 579.232 627.244 576.436C625.779 573.595 625.046 569.777 625.046 564.983V493.335ZM678.649 510.847V582.895H666.264V510.847H678.649ZM665.331 491.737C665.331 489.739 665.931 488.053 667.129 486.676C668.372 485.3 670.192 484.612 672.589 484.612C674.942 484.612 676.74 485.3 677.983 486.676C679.27 488.053 679.914 489.739 679.914 491.737C679.914 493.646 679.27 495.288 677.983 496.664C676.74 497.996 674.942 498.662 672.589 498.662C670.192 498.662 668.372 497.996 667.129 496.664C665.931 495.288 665.331 493.646 665.331 491.737ZM695.162 547.67V546.139C695.162 540.945 695.917 536.128 697.426 531.689C698.936 527.206 701.111 523.321 703.952 520.036C706.793 516.707 710.233 514.132 714.273 512.312C718.312 510.448 722.84 509.516 727.856 509.516C732.917 509.516 737.467 510.448 741.507 512.312C745.591 514.132 749.053 516.707 751.894 520.036C754.78 523.321 756.977 527.206 758.486 531.689C759.996 536.128 760.75 540.945 760.75 546.139V547.67C760.75 552.864 759.996 557.68 758.486 562.119C756.977 566.559 754.78 570.443 751.894 573.772C749.053 577.057 745.613 579.632 741.573 581.496C737.578 583.316 733.05 584.226 727.99 584.226C722.929 584.226 718.379 583.316 714.339 581.496C710.3 579.632 706.837 577.057 703.952 573.772C701.111 570.443 698.936 566.559 697.426 562.119C695.917 557.68 695.162 552.864 695.162 547.67ZM707.481 546.139V547.67C707.481 551.266 707.903 554.662 708.746 557.858C709.589 561.01 710.855 563.806 712.541 566.248C714.273 568.689 716.426 570.62 719 572.041C721.575 573.417 724.571 574.105 727.99 574.105C731.363 574.105 734.315 573.417 736.846 572.041C739.42 570.62 741.551 568.689 743.238 566.248C744.925 563.806 746.19 561.01 747.033 557.858C747.921 554.662 748.365 551.266 748.365 547.67V546.139C748.365 542.587 747.921 539.236 747.033 536.084C746.19 532.888 744.903 530.069 743.171 527.627C741.485 525.141 739.354 523.188 736.779 521.768C734.249 520.347 731.275 519.637 727.856 519.637C724.483 519.637 721.508 520.347 718.934 521.768C716.403 523.188 714.273 525.141 712.541 527.627C710.855 530.069 709.589 532.888 708.746 536.084C707.903 539.236 707.481 542.587 707.481 546.139ZM788.517 526.229V582.895H776.199V510.847H787.851L788.517 526.229ZM785.587 544.141L780.46 543.941C780.505 539.014 781.237 534.464 782.657 530.291C784.078 526.074 786.076 522.411 788.65 519.304C791.225 516.197 794.288 513.8 797.839 512.113C801.435 510.381 805.408 509.516 809.758 509.516C813.31 509.516 816.506 510.004 819.347 510.981C822.188 511.913 824.607 513.422 826.605 515.509C828.647 517.595 830.201 520.303 831.266 523.632C832.331 526.917 832.864 530.935 832.864 535.684V582.895H820.479V535.551C820.479 531.778 819.924 528.759 818.814 526.495C817.704 524.187 816.084 522.522 813.953 521.501C811.823 520.436 809.203 519.903 806.096 519.903C803.033 519.903 800.236 520.547 797.706 521.834C795.22 523.122 793.067 524.897 791.247 527.161C789.472 529.425 788.073 532.022 787.052 534.952C786.076 537.837 785.587 540.9 785.587 544.141ZM864.959 510.847V582.895H852.574V510.847H864.959ZM851.641 491.737C851.641 489.739 852.241 488.053 853.439 486.676C854.682 485.3 856.502 484.612 858.899 484.612C861.252 484.612 863.05 485.3 864.293 486.676C865.58 488.053 866.224 489.739 866.224 491.737C866.224 493.646 865.58 495.288 864.293 496.664C863.05 497.996 861.252 498.662 858.899 498.662C856.502 498.662 854.682 497.996 853.439 496.664C852.241 495.288 851.641 493.646 851.641 491.737ZM926.685 563.784C926.685 562.008 926.285 560.366 925.486 558.857C924.732 557.303 923.156 555.905 920.759 554.662C918.406 553.374 914.855 552.265 910.105 551.332C906.11 550.489 902.492 549.49 899.251 548.336C896.055 547.182 893.325 545.783 891.061 544.141C888.841 542.498 887.132 540.567 885.934 538.348C884.735 536.128 884.136 533.531 884.136 530.557C884.136 527.716 884.757 525.031 886 522.5C887.288 519.97 889.086 517.728 891.394 515.775C893.747 513.822 896.565 512.29 899.85 511.18C903.135 510.071 906.798 509.516 910.837 509.516C916.608 509.516 921.536 510.537 925.62 512.579C929.704 514.621 932.833 517.351 935.008 520.769C937.183 524.143 938.271 527.894 938.271 532.022H925.952C925.952 530.025 925.353 528.094 924.155 526.229C923 524.32 921.291 522.744 919.027 521.501C916.808 520.258 914.078 519.637 910.837 519.637C907.419 519.637 904.645 520.17 902.514 521.235C900.428 522.256 898.896 523.566 897.919 525.164C896.987 526.762 896.521 528.449 896.521 530.224C896.521 531.556 896.743 532.755 897.187 533.82C897.675 534.841 898.519 535.795 899.717 536.683C900.916 537.527 902.603 538.326 904.778 539.08C906.953 539.835 909.727 540.59 913.101 541.344C919.005 542.676 923.866 544.274 927.684 546.139C931.501 548.003 934.342 550.289 936.207 552.997C938.071 555.705 939.004 558.99 939.004 562.852C939.004 566.004 938.338 568.889 937.006 571.508C935.719 574.127 933.832 576.391 931.346 578.3C928.905 580.164 925.975 581.629 922.557 582.695C919.183 583.716 915.387 584.226 911.17 584.226C904.822 584.226 899.451 583.094 895.056 580.83C890.661 578.566 887.332 575.637 885.068 572.041C882.804 568.445 881.672 564.65 881.672 560.655H894.057C894.235 564.028 895.212 566.714 896.987 568.712C898.763 570.665 900.938 572.063 903.513 572.906C906.087 573.706 908.64 574.105 911.17 574.105C914.544 574.105 917.363 573.661 919.627 572.773C921.935 571.885 923.689 570.665 924.887 569.111C926.086 567.557 926.685 565.782 926.685 563.784ZM985.348 510.847V520.303H946.395V510.847H985.348ZM959.579 493.335H971.897V565.049C971.897 567.491 972.275 569.333 973.029 570.576C973.784 571.819 974.761 572.64 975.959 573.04C977.158 573.439 978.445 573.639 979.821 573.639C980.842 573.639 981.908 573.55 983.017 573.373C984.172 573.151 985.037 572.973 985.614 572.84L985.681 582.895C984.704 583.205 983.417 583.494 981.819 583.76C980.265 584.071 978.379 584.226 976.159 584.226C973.14 584.226 970.366 583.627 967.836 582.428C965.305 581.23 963.286 579.232 961.776 576.436C960.311 573.595 959.579 569.777 959.579 564.983V493.335Z" fill="white"/>
</svg>
