<svg width="1039" height="615" viewBox="0 0 1039 615" fill="none" xmlns="http://www.w3.org/2000/svg">
<g filter="url(#filter0_d_146_3034)">
<g clip-path="url(#clip0_146_3034)">
<path d="M25.9863 70.9477C25.9863 46.1238 46.1101 26 70.934 26H953.706C978.53 26 998.654 46.1238 998.654 70.9477V530.209C998.654 555.033 978.53 575.156 953.706 575.156H70.9339C46.11 575.156 25.9863 555.033 25.9863 530.209V70.9477Z" fill="white"/>
<rect width="971.768" height="79.1079" transform="translate(25.9863 25.9473)" fill="white"/>
<line x1="822.465" y1="69.5207" x2="858.372" y2="69.5207" stroke="#554E4E" stroke-width="2.69686"/>
<rect x="877.323" y="51.5676" width="38.6035" height="38.6035" stroke="#554E4E" stroke-width="2.69686"/>
<line x1="933.925" y1="87.8688" x2="969.832" y2="51.9621" stroke="#554E4E" stroke-width="2.69686"/>
<line x1="935.832" y1="51.9625" x2="971.739" y2="87.8692" stroke="#554E4E" stroke-width="2.69686"/>
<path d="M156.172 168.409H160.386C160.167 170.428 159.589 172.235 158.652 173.83C157.716 175.425 156.392 176.69 154.68 177.627C152.968 178.548 150.832 179.009 148.271 179.009C146.399 179.009 144.694 178.658 143.158 177.956C141.636 177.253 140.327 176.259 139.229 174.971C138.132 173.669 137.283 172.111 136.683 170.296C136.098 168.467 135.806 166.434 135.806 164.195V161.013C135.806 158.774 136.098 156.748 136.683 154.933C137.283 153.104 138.139 151.539 139.251 150.237C140.378 148.934 141.731 147.932 143.311 147.23C144.892 146.528 146.669 146.176 148.645 146.176C151.059 146.176 153.1 146.63 154.768 147.537C156.436 148.444 157.731 149.703 158.652 151.312C159.589 152.907 160.167 154.758 160.386 156.865H156.172C155.968 155.372 155.587 154.092 155.031 153.024C154.475 151.941 153.685 151.107 152.661 150.522C151.637 149.937 150.298 149.644 148.645 149.644C147.225 149.644 145.974 149.915 144.892 150.456C143.824 150.997 142.924 151.766 142.192 152.761C141.475 153.755 140.934 154.948 140.568 156.338C140.202 157.728 140.019 159.271 140.019 160.969V164.195C140.019 165.761 140.18 167.231 140.502 168.606C140.839 169.982 141.344 171.189 142.017 172.228C142.69 173.266 143.546 174.086 144.584 174.686C145.623 175.271 146.852 175.564 148.271 175.564C150.071 175.564 151.505 175.278 152.573 174.708C153.641 174.137 154.446 173.318 154.987 172.25C155.543 171.181 155.938 169.901 156.172 168.409ZM179.546 174.51V162.286C179.546 161.349 179.356 160.537 178.975 159.849C178.61 159.147 178.054 158.606 177.307 158.225C176.561 157.845 175.64 157.655 174.542 157.655C173.518 157.655 172.618 157.83 171.843 158.181C171.082 158.533 170.482 158.994 170.043 159.564C169.619 160.135 169.407 160.749 169.407 161.408H165.346C165.346 160.559 165.566 159.718 166.005 158.884C166.444 158.05 167.073 157.296 167.892 156.623C168.726 155.936 169.721 155.394 170.877 154.999C172.048 154.589 173.35 154.385 174.784 154.385C176.51 154.385 178.032 154.677 179.349 155.262C180.68 155.848 181.719 156.733 182.465 157.918C183.226 159.089 183.606 160.559 183.606 162.329V173.391C183.606 174.181 183.672 175.022 183.804 175.915C183.95 176.807 184.162 177.575 184.44 178.219V178.57H180.205C180 178.102 179.839 177.48 179.722 176.705C179.605 175.915 179.546 175.183 179.546 174.51ZM180.248 164.173L180.292 167.026H176.188C175.032 167.026 174.001 167.121 173.094 167.311C172.187 167.487 171.426 167.758 170.811 168.123C170.197 168.489 169.728 168.95 169.407 169.506C169.085 170.048 168.924 170.684 168.924 171.416C168.924 172.162 169.092 172.842 169.428 173.457C169.765 174.071 170.27 174.561 170.943 174.927C171.631 175.278 172.472 175.454 173.467 175.454C174.71 175.454 175.808 175.19 176.759 174.664C177.71 174.137 178.463 173.493 179.019 172.732C179.59 171.972 179.897 171.233 179.941 170.516L181.675 172.469C181.573 173.084 181.295 173.764 180.841 174.51C180.387 175.256 179.78 175.973 179.019 176.661C178.273 177.334 177.381 177.897 176.342 178.351C175.318 178.79 174.162 179.009 172.874 179.009C171.265 179.009 169.853 178.695 168.638 178.066C167.439 177.436 166.502 176.595 165.829 175.542C165.171 174.474 164.842 173.281 164.842 171.964C164.842 170.691 165.09 169.572 165.588 168.606C166.085 167.626 166.802 166.814 167.739 166.17C168.675 165.512 169.802 165.014 171.118 164.678C172.435 164.341 173.906 164.173 175.53 164.173H180.248ZM194.053 159.893V178.57H189.993V154.824H193.834L194.053 159.893ZM193.087 165.797L191.398 165.731C191.412 164.107 191.654 162.607 192.122 161.232C192.59 159.842 193.248 158.635 194.097 157.611C194.946 156.587 195.955 155.797 197.126 155.241C198.311 154.67 199.62 154.385 201.054 154.385C202.225 154.385 203.278 154.546 204.215 154.867C205.151 155.175 205.948 155.672 206.607 156.36C207.28 157.048 207.792 157.94 208.143 159.037C208.494 160.12 208.67 161.444 208.67 163.01V178.57H204.588V162.966C204.588 161.722 204.405 160.727 204.039 159.981C203.673 159.22 203.139 158.672 202.437 158.335C201.735 157.984 200.871 157.808 199.847 157.808C198.838 157.808 197.916 158.021 197.082 158.445C196.262 158.869 195.553 159.454 194.953 160.201C194.368 160.947 193.907 161.803 193.57 162.768C193.248 163.719 193.087 164.729 193.087 165.797ZM224.34 175.673C225.306 175.673 226.198 175.476 227.018 175.081C227.837 174.686 228.51 174.144 229.037 173.457C229.564 172.754 229.863 171.957 229.937 171.064H233.799C233.726 172.469 233.251 173.779 232.373 174.993C231.51 176.193 230.376 177.166 228.971 177.912C227.566 178.643 226.023 179.009 224.34 179.009C222.555 179.009 220.997 178.695 219.665 178.066C218.349 177.436 217.251 176.573 216.373 175.476C215.51 174.378 214.859 173.12 214.42 171.701C213.996 170.267 213.784 168.753 213.784 167.158V166.236C213.784 164.641 213.996 163.134 214.42 161.715C214.859 160.281 215.51 159.015 216.373 157.918C217.251 156.821 218.349 155.957 219.665 155.328C220.997 154.699 222.555 154.385 224.34 154.385C226.198 154.385 227.822 154.765 229.212 155.526C230.602 156.272 231.692 157.296 232.483 158.598C233.287 159.886 233.726 161.349 233.799 162.988H229.937C229.863 162.008 229.585 161.122 229.103 160.332C228.634 159.542 227.991 158.913 227.171 158.445C226.367 157.962 225.423 157.721 224.34 157.721C223.096 157.721 222.05 157.969 221.202 158.467C220.368 158.95 219.702 159.608 219.205 160.442C218.722 161.261 218.371 162.176 218.151 163.185C217.946 164.18 217.844 165.197 217.844 166.236V167.158C217.844 168.197 217.946 169.221 218.151 170.23C218.356 171.24 218.7 172.154 219.183 172.974C219.68 173.793 220.346 174.452 221.18 174.949C222.028 175.432 223.082 175.673 224.34 175.673ZM248.219 179.009C246.565 179.009 245.065 178.731 243.719 178.175C242.388 177.605 241.239 176.807 240.274 175.783C239.323 174.759 238.591 173.544 238.079 172.14C237.567 170.735 237.311 169.199 237.311 167.531V166.609C237.311 164.678 237.596 162.959 238.167 161.452C238.737 159.93 239.513 158.642 240.493 157.589C241.473 156.535 242.585 155.738 243.829 155.197C245.073 154.655 246.36 154.385 247.692 154.385C249.389 154.385 250.852 154.677 252.081 155.262C253.325 155.848 254.342 156.667 255.132 157.721C255.922 158.759 256.507 159.988 256.888 161.408C257.268 162.812 257.458 164.349 257.458 166.017V167.838H239.725V164.524H253.398V164.217C253.34 163.163 253.12 162.139 252.74 161.144C252.374 160.149 251.789 159.33 250.984 158.686C250.179 158.042 249.082 157.721 247.692 157.721C246.77 157.721 245.921 157.918 245.146 158.313C244.371 158.694 243.705 159.264 243.149 160.025C242.593 160.786 242.161 161.715 241.854 162.812C241.547 163.91 241.393 165.175 241.393 166.609V167.531C241.393 168.658 241.547 169.718 241.854 170.713C242.176 171.694 242.637 172.557 243.237 173.303C243.851 174.049 244.59 174.634 245.453 175.059C246.331 175.483 247.326 175.695 248.438 175.695C249.872 175.695 251.086 175.403 252.081 174.817C253.076 174.232 253.947 173.449 254.693 172.469L257.151 174.422C256.639 175.198 255.988 175.937 255.198 176.639C254.408 177.341 253.435 177.912 252.279 178.351C251.138 178.79 249.784 179.009 248.219 179.009ZM266.61 144.86V178.57H262.528V144.86H266.61ZM277.54 144.86V178.57H273.458V144.86H277.54ZM293.912 179.009C292.259 179.009 290.759 178.731 289.413 178.175C288.082 177.605 286.933 176.807 285.968 175.783C285.017 174.759 284.285 173.544 283.773 172.14C283.261 170.735 283.005 169.199 283.005 167.531V166.609C283.005 164.678 283.29 162.959 283.861 161.452C284.431 159.93 285.207 158.642 286.187 157.589C287.167 156.535 288.279 155.738 289.523 155.197C290.767 154.655 292.054 154.385 293.386 154.385C295.083 154.385 296.546 154.677 297.775 155.262C299.019 155.848 300.036 156.667 300.826 157.721C301.616 158.759 302.201 159.988 302.582 161.408C302.962 162.812 303.152 164.349 303.152 166.017V167.838H285.419V164.524H299.092V164.217C299.033 163.163 298.814 162.139 298.434 161.144C298.068 160.149 297.482 159.33 296.678 158.686C295.873 158.042 294.776 157.721 293.386 157.721C292.464 157.721 291.615 157.918 290.84 158.313C290.064 158.694 289.399 159.264 288.843 160.025C288.287 160.786 287.855 161.715 287.548 162.812C287.241 163.91 287.087 165.175 287.087 166.609V167.531C287.087 168.658 287.241 169.718 287.548 170.713C287.87 171.694 288.331 172.557 288.93 173.303C289.545 174.049 290.284 174.634 291.147 175.059C292.025 175.483 293.02 175.695 294.132 175.695C295.566 175.695 296.78 175.403 297.775 174.817C298.77 174.232 299.641 173.449 300.387 172.469L302.845 174.422C302.333 175.198 301.682 175.937 300.892 176.639C300.102 177.341 299.129 177.912 297.973 178.351C296.831 178.79 295.478 179.009 293.912 179.009ZM322.861 173.961V144.86H326.943V178.57H323.212L322.861 173.961ZM306.883 166.96V166.499C306.883 164.685 307.103 163.039 307.542 161.561C307.995 160.069 308.632 158.789 309.451 157.721C310.285 156.652 311.273 155.833 312.414 155.262C313.57 154.677 314.857 154.385 316.277 154.385C317.769 154.385 319.071 154.648 320.183 155.175C321.31 155.687 322.261 156.44 323.036 157.435C323.826 158.416 324.448 159.601 324.902 160.991C325.355 162.381 325.67 163.954 325.845 165.709V167.728C325.685 169.47 325.37 171.035 324.902 172.425C324.448 173.815 323.826 175 323.036 175.981C322.261 176.961 321.31 177.714 320.183 178.241C319.056 178.753 317.74 179.009 316.233 179.009C314.843 179.009 313.57 178.709 312.414 178.109C311.273 177.51 310.285 176.668 309.451 175.586C308.632 174.503 307.995 173.23 307.542 171.767C307.103 170.289 306.883 168.687 306.883 166.96ZM310.965 166.499V166.96C310.965 168.145 311.082 169.257 311.316 170.296C311.565 171.335 311.946 172.25 312.458 173.04C312.97 173.83 313.621 174.452 314.411 174.905C315.201 175.344 316.145 175.564 317.242 175.564C318.588 175.564 319.693 175.278 320.556 174.708C321.434 174.137 322.136 173.383 322.663 172.447C323.19 171.511 323.6 170.494 323.892 169.396V164.107C323.717 163.302 323.461 162.527 323.124 161.781C322.802 161.02 322.378 160.347 321.851 159.762C321.339 159.162 320.703 158.686 319.942 158.335C319.195 157.984 318.31 157.808 317.286 157.808C316.174 157.808 315.216 158.042 314.411 158.511C313.621 158.964 312.97 159.593 312.458 160.398C311.946 161.188 311.565 162.11 311.316 163.163C311.082 164.202 310.965 165.314 310.965 166.499ZM333.088 176.419C333.088 175.732 333.3 175.154 333.724 174.686C334.163 174.203 334.793 173.961 335.612 173.961C336.431 173.961 337.053 174.203 337.477 174.686C337.916 175.154 338.136 175.732 338.136 176.419C338.136 177.093 337.916 177.663 337.477 178.131C337.053 178.6 336.431 178.834 335.612 178.834C334.793 178.834 334.163 178.6 333.724 178.131C333.3 177.663 333.088 177.093 333.088 176.419ZM333.11 157.04C333.11 156.353 333.322 155.775 333.746 155.306C334.185 154.824 334.815 154.582 335.634 154.582C336.453 154.582 337.075 154.824 337.499 155.306C337.938 155.775 338.158 156.353 338.158 157.04C338.158 157.713 337.938 158.284 337.499 158.752C337.075 159.22 336.453 159.454 335.634 159.454C334.815 159.454 334.185 159.22 333.746 158.752C333.322 158.284 333.11 157.713 333.11 157.04ZM355.913 146.615H366.491C368.891 146.615 370.917 146.981 372.571 147.713C374.239 148.444 375.504 149.527 376.368 150.961C377.246 152.38 377.685 154.129 377.685 156.206C377.685 157.669 377.385 159.008 376.785 160.223C376.199 161.422 375.351 162.447 374.239 163.295C373.141 164.129 371.825 164.751 370.288 165.161L369.103 165.622H359.161L359.117 162.176H366.623C368.145 162.176 369.41 161.912 370.42 161.386C371.43 160.844 372.19 160.12 372.703 159.213C373.215 158.306 373.471 157.304 373.471 156.206C373.471 154.977 373.229 153.902 372.746 152.98C372.264 152.058 371.503 151.349 370.464 150.851C369.44 150.339 368.116 150.083 366.491 150.083H360.149V178.57H355.913V146.615ZM374.59 178.57L366.821 164.085L371.232 164.063L379.111 178.307V178.57H374.59ZM392.85 179.009C391.197 179.009 389.697 178.731 388.351 178.175C387.019 177.605 385.871 176.807 384.905 175.783C383.954 174.759 383.222 173.544 382.71 172.14C382.198 170.735 381.942 169.199 381.942 167.531V166.609C381.942 164.678 382.228 162.959 382.798 161.452C383.369 159.93 384.144 158.642 385.125 157.589C386.105 156.535 387.217 155.738 388.461 155.197C389.704 154.655 390.992 154.385 392.323 154.385C394.02 154.385 395.484 154.677 396.713 155.262C397.956 155.848 398.973 156.667 399.763 157.721C400.553 158.759 401.139 159.988 401.519 161.408C401.899 162.812 402.09 164.349 402.09 166.017V167.838H384.356V164.524H398.029V164.217C397.971 163.163 397.751 162.139 397.371 161.144C397.005 160.149 396.42 159.33 395.615 158.686C394.811 158.042 393.713 157.721 392.323 157.721C391.401 157.721 390.553 157.918 389.777 158.313C389.002 158.694 388.336 159.264 387.78 160.025C387.224 160.786 386.793 161.715 386.485 162.812C386.178 163.91 386.024 165.175 386.024 166.609V167.531C386.024 168.658 386.178 169.718 386.485 170.713C386.807 171.694 387.268 172.557 387.868 173.303C388.482 174.049 389.221 174.634 390.085 175.059C390.962 175.483 391.957 175.695 393.069 175.695C394.503 175.695 395.718 175.403 396.713 174.817C397.708 174.232 398.578 173.449 399.324 172.469L401.782 174.422C401.27 175.198 400.619 175.937 399.829 176.639C399.039 177.341 398.066 177.912 396.91 178.351C395.769 178.79 394.416 179.009 392.85 179.009ZM410.869 159.542V178.57H406.786V154.824H410.649L410.869 159.542ZM410.035 165.797L408.147 165.731C408.162 164.107 408.374 162.607 408.784 161.232C409.193 159.842 409.8 158.635 410.605 157.611C411.41 156.587 412.412 155.797 413.612 155.241C414.812 154.67 416.202 154.385 417.782 154.385C418.894 154.385 419.918 154.546 420.854 154.867C421.791 155.175 422.603 155.665 423.291 156.338C423.978 157.011 424.512 157.874 424.893 158.928C425.273 159.981 425.463 161.254 425.463 162.746V178.57H421.403V162.944C421.403 161.7 421.191 160.705 420.767 159.959C420.357 159.213 419.772 158.672 419.011 158.335C418.25 157.984 417.358 157.808 416.333 157.808C415.134 157.808 414.131 158.021 413.327 158.445C412.522 158.869 411.878 159.454 411.395 160.201C410.912 160.947 410.561 161.803 410.342 162.768C410.137 163.719 410.035 164.729 410.035 165.797ZM425.419 163.558L422.698 164.392C422.713 163.09 422.925 161.839 423.334 160.64C423.759 159.44 424.366 158.372 425.156 157.435C425.961 156.499 426.948 155.76 428.119 155.219C429.289 154.663 430.628 154.385 432.135 154.385C433.408 154.385 434.535 154.553 435.515 154.889C436.51 155.226 437.344 155.745 438.017 156.448C438.705 157.135 439.224 158.021 439.575 159.103C439.926 160.186 440.102 161.474 440.102 162.966V178.57H436.02V162.922C436.02 161.591 435.808 160.559 435.383 159.827C434.974 159.081 434.388 158.562 433.628 158.269C432.881 157.962 431.989 157.808 430.95 157.808C430.058 157.808 429.268 157.962 428.58 158.269C427.892 158.577 427.314 159.001 426.846 159.542C426.378 160.069 426.019 160.676 425.771 161.364C425.537 162.051 425.419 162.783 425.419 163.558ZM450.659 154.824V178.57H446.576V154.824H450.659ZM446.269 148.525C446.269 147.866 446.467 147.31 446.862 146.857C447.271 146.403 447.871 146.176 448.661 146.176C449.437 146.176 450.029 146.403 450.439 146.857C450.863 147.31 451.076 147.866 451.076 148.525C451.076 149.154 450.863 149.695 450.439 150.149C450.029 150.588 449.437 150.807 448.661 150.807C447.871 150.807 447.271 150.588 446.862 150.149C446.467 149.695 446.269 149.154 446.269 148.525ZM461.237 159.893V178.57H457.177V154.824H461.018L461.237 159.893ZM460.271 165.797L458.581 165.731C458.596 164.107 458.838 162.607 459.306 161.232C459.774 159.842 460.432 158.635 461.281 157.611C462.13 156.587 463.139 155.797 464.31 155.241C465.495 154.67 466.804 154.385 468.238 154.385C469.409 154.385 470.462 154.546 471.399 154.867C472.335 155.175 473.132 155.672 473.791 156.36C474.464 157.048 474.976 157.94 475.327 159.037C475.678 160.12 475.854 161.444 475.854 163.01V178.57H471.772V162.966C471.772 161.722 471.589 160.727 471.223 159.981C470.857 159.22 470.323 158.672 469.621 158.335C468.919 157.984 468.055 157.808 467.031 157.808C466.022 157.808 465.1 158.021 464.266 158.445C463.446 158.869 462.737 159.454 462.137 160.201C461.552 160.947 461.091 161.803 460.754 162.768C460.432 163.719 460.271 164.729 460.271 165.797ZM496.989 173.961V144.86H501.071V178.57H497.34L496.989 173.961ZM481.011 166.96V166.499C481.011 164.685 481.231 163.039 481.67 161.561C482.123 160.069 482.76 158.789 483.579 157.721C484.413 156.652 485.401 155.833 486.542 155.262C487.698 154.677 488.986 154.385 490.405 154.385C491.897 154.385 493.199 154.648 494.311 155.175C495.438 155.687 496.389 156.44 497.164 157.435C497.955 158.416 498.576 159.601 499.03 160.991C499.484 162.381 499.798 163.954 499.974 165.709V167.728C499.813 169.47 499.498 171.035 499.03 172.425C498.576 173.815 497.955 175 497.164 175.981C496.389 176.961 495.438 177.714 494.311 178.241C493.185 178.753 491.868 179.009 490.361 179.009C488.971 179.009 487.698 178.709 486.542 178.109C485.401 177.51 484.413 176.668 483.579 175.586C482.76 174.503 482.123 173.23 481.67 171.767C481.231 170.289 481.011 168.687 481.011 166.96ZM485.094 166.499V166.96C485.094 168.145 485.211 169.257 485.445 170.296C485.693 171.335 486.074 172.25 486.586 173.04C487.098 173.83 487.749 174.452 488.539 174.905C489.329 175.344 490.273 175.564 491.37 175.564C492.717 175.564 493.821 175.278 494.684 174.708C495.562 174.137 496.265 173.383 496.791 172.447C497.318 171.511 497.728 170.494 498.02 169.396V164.107C497.845 163.302 497.589 162.527 497.252 161.781C496.93 161.02 496.506 160.347 495.979 159.762C495.467 159.162 494.831 158.686 494.07 158.335C493.324 157.984 492.439 157.808 491.414 157.808C490.302 157.808 489.344 158.042 488.539 158.511C487.749 158.964 487.098 159.593 486.586 160.398C486.074 161.188 485.693 162.11 485.445 163.163C485.211 164.202 485.094 165.314 485.094 166.499ZM517.246 179.009C515.593 179.009 514.093 178.731 512.747 178.175C511.415 177.605 510.267 176.807 509.301 175.783C508.35 174.759 507.619 173.544 507.107 172.14C506.594 170.735 506.338 169.199 506.338 167.531V166.609C506.338 164.678 506.624 162.959 507.194 161.452C507.765 159.93 508.54 158.642 509.521 157.589C510.501 156.535 511.613 155.738 512.857 155.197C514.1 154.655 515.388 154.385 516.719 154.385C518.417 154.385 519.88 154.677 521.109 155.262C522.352 155.848 523.369 156.667 524.159 157.721C524.95 158.759 525.535 159.988 525.915 161.408C526.296 162.812 526.486 164.349 526.486 166.017V167.838H508.753V164.524H522.426V164.217C522.367 163.163 522.148 162.139 521.767 161.144C521.401 160.149 520.816 159.33 520.011 158.686C519.207 158.042 518.109 157.721 516.719 157.721C515.798 157.721 514.949 157.918 514.173 158.313C513.398 158.694 512.732 159.264 512.176 160.025C511.62 160.786 511.189 161.715 510.881 162.812C510.574 163.91 510.421 165.175 510.421 166.609V167.531C510.421 168.658 510.574 169.718 510.881 170.713C511.203 171.694 511.664 172.557 512.264 173.303C512.879 174.049 513.618 174.634 514.481 175.059C515.359 175.483 516.354 175.695 517.466 175.695C518.899 175.695 520.114 175.403 521.109 174.817C522.104 174.232 522.974 173.449 523.72 172.469L526.179 174.422C525.666 175.198 525.015 175.937 524.225 176.639C523.435 177.341 522.462 177.912 521.306 178.351C520.165 178.79 518.812 179.009 517.246 179.009ZM535.287 158.555V178.57H531.226V154.824H535.177L535.287 158.555ZM542.705 154.692L542.683 158.467C542.346 158.394 542.024 158.35 541.717 158.335C541.424 158.306 541.088 158.291 540.708 158.291C539.771 158.291 538.944 158.438 538.228 158.73C537.511 159.023 536.903 159.432 536.406 159.959C535.908 160.486 535.513 161.115 535.221 161.847C534.943 162.564 534.76 163.354 534.672 164.217L533.531 164.875C533.531 163.441 533.67 162.095 533.948 160.837C534.24 159.579 534.687 158.467 535.287 157.501C535.887 156.521 536.647 155.76 537.569 155.219C538.506 154.663 539.618 154.385 540.905 154.385C541.198 154.385 541.534 154.421 541.915 154.494C542.295 154.553 542.558 154.619 542.705 154.692Z" fill="#858282"/>
<path d="M172.624 277.33V295.059C171.928 295.899 170.852 296.811 169.398 297.794C167.943 298.757 166.069 299.586 163.775 300.283C161.481 300.979 158.705 301.327 155.448 301.327C152.56 301.327 149.928 300.856 147.552 299.914C145.175 298.951 143.127 297.548 141.406 295.705C139.706 293.861 138.395 291.608 137.474 288.945C136.552 286.261 136.091 283.199 136.091 279.758V276.962C136.091 273.52 136.531 270.458 137.412 267.775C138.313 265.091 139.594 262.828 141.253 260.984C142.912 259.141 144.889 257.738 147.183 256.775C149.477 255.812 152.027 255.331 154.834 255.331C158.726 255.331 161.921 255.966 164.42 257.236C166.919 258.485 168.824 260.226 170.135 262.459C171.467 264.671 172.286 267.211 172.593 270.079H163.652C163.427 268.563 162.997 267.242 162.362 266.115C161.727 264.989 160.815 264.108 159.627 263.473C158.459 262.838 156.944 262.521 155.079 262.521C153.543 262.521 152.171 262.838 150.962 263.473C149.774 264.088 148.77 264.999 147.951 266.208C147.132 267.416 146.507 268.912 146.077 270.694C145.647 272.476 145.432 274.545 145.432 276.9V279.758C145.432 282.093 145.657 284.162 146.107 285.964C146.558 287.747 147.224 289.252 148.105 290.481C149.006 291.69 150.112 292.601 151.423 293.216C152.734 293.83 154.26 294.138 156.001 294.138C157.456 294.138 158.664 294.015 159.627 293.769C160.61 293.523 161.399 293.226 161.993 292.878C162.607 292.509 163.078 292.161 163.406 291.833V283.906H154.987V277.33H172.624ZM178.093 284.428V283.783C178.093 281.345 178.441 279.102 179.138 277.054C179.834 274.985 180.848 273.193 182.18 271.677C183.511 270.161 185.15 268.983 187.096 268.143C189.042 267.283 191.275 266.853 193.794 266.853C196.314 266.853 198.557 267.283 200.523 268.143C202.49 268.983 204.139 270.161 205.47 271.677C206.822 273.193 207.846 274.985 208.543 277.054C209.239 279.102 209.587 281.345 209.587 283.783V284.428C209.587 286.845 209.239 289.088 208.543 291.157C207.846 293.206 206.822 294.998 205.47 296.534C204.139 298.05 202.5 299.228 200.554 300.068C198.608 300.907 196.375 301.327 193.856 301.327C191.336 301.327 189.093 300.907 187.127 300.068C185.181 299.228 183.532 298.05 182.18 296.534C180.848 294.998 179.834 293.206 179.138 291.157C178.441 289.088 178.093 286.845 178.093 284.428ZM186.942 283.783V284.428C186.942 285.821 187.065 287.122 187.311 288.33C187.557 289.539 187.946 290.604 188.479 291.526C189.032 292.427 189.749 293.134 190.629 293.646C191.51 294.158 192.586 294.414 193.856 294.414C195.085 294.414 196.14 294.158 197.02 293.646C197.901 293.134 198.608 292.427 199.14 291.526C199.673 290.604 200.062 289.539 200.308 288.33C200.574 287.122 200.707 285.821 200.707 284.428V283.783C200.707 282.431 200.574 281.161 200.308 279.973C200.062 278.764 199.663 277.699 199.11 276.777C198.577 275.835 197.87 275.098 196.99 274.565C196.109 274.033 195.044 273.766 193.794 273.766C192.545 273.766 191.479 274.033 190.599 274.565C189.738 275.098 189.032 275.835 188.479 276.777C187.946 277.699 187.557 278.764 187.311 279.973C187.065 281.161 186.942 282.431 186.942 283.783ZM242.003 294.26L249.377 267.467H258.626L247.411 300.713H241.819L242.003 294.26ZM236.933 267.467L244.338 294.291L244.492 300.713H238.869L227.654 267.467H236.933ZM271.93 267.467V300.713H263.05V267.467H271.93ZM262.497 258.803C262.497 257.512 262.948 256.447 263.849 255.607C264.751 254.767 265.959 254.347 267.475 254.347C268.97 254.347 270.169 254.767 271.07 255.607C271.992 256.447 272.453 257.512 272.453 258.803C272.453 260.093 271.992 261.158 271.07 261.998C270.169 262.838 268.97 263.258 267.475 263.258C265.959 263.258 264.751 262.838 263.849 261.998C262.948 261.158 262.497 260.093 262.497 258.803ZM297.218 291.526C297.218 290.891 297.033 290.317 296.665 289.805C296.296 289.293 295.61 288.822 294.606 288.392C293.623 287.941 292.199 287.531 290.335 287.163C288.655 286.794 287.088 286.333 285.634 285.78C284.2 285.207 282.951 284.52 281.885 283.721C280.841 282.923 280.021 281.98 279.427 280.895C278.833 279.789 278.536 278.529 278.536 277.115C278.536 275.722 278.833 274.411 279.427 273.182C280.042 271.953 280.912 270.868 282.039 269.926C283.186 268.963 284.579 268.215 286.218 267.683C287.877 267.129 289.741 266.853 291.81 266.853C294.698 266.853 297.177 267.314 299.246 268.236C301.335 269.157 302.933 270.427 304.039 272.046C305.165 273.643 305.729 275.466 305.729 277.515H296.88C296.88 276.654 296.695 275.886 296.327 275.21C295.978 274.514 295.425 273.971 294.667 273.582C293.93 273.172 292.967 272.967 291.779 272.967C290.796 272.967 289.946 273.141 289.229 273.49C288.512 273.817 287.959 274.268 287.57 274.842C287.201 275.395 287.017 276.009 287.017 276.685C287.017 277.197 287.119 277.658 287.324 278.068C287.549 278.457 287.908 278.816 288.399 279.143C288.891 279.471 289.526 279.778 290.304 280.065C291.103 280.331 292.086 280.577 293.254 280.802C295.651 281.294 297.791 281.939 299.676 282.738C301.56 283.517 303.056 284.582 304.162 285.934C305.268 287.265 305.821 289.017 305.821 291.188C305.821 292.663 305.493 294.015 304.838 295.244C304.182 296.473 303.24 297.548 302.011 298.47C300.782 299.371 299.307 300.078 297.586 300.59C295.886 301.082 293.971 301.327 291.841 301.327C288.748 301.327 286.126 300.774 283.975 299.668C281.844 298.562 280.226 297.159 279.12 295.459C278.034 293.738 277.492 291.976 277.492 290.174H285.88C285.921 291.382 286.228 292.355 286.802 293.093C287.396 293.83 288.143 294.363 289.045 294.691C289.966 295.018 290.96 295.182 292.025 295.182C293.172 295.182 294.125 295.029 294.882 294.721C295.64 294.394 296.214 293.963 296.603 293.431C297.013 292.878 297.218 292.243 297.218 291.526ZM320.907 267.467V300.713H312.028V267.467H320.907ZM311.474 258.803C311.474 257.512 311.925 256.447 312.826 255.607C313.728 254.767 314.936 254.347 316.452 254.347C317.947 254.347 319.146 254.767 320.047 255.607C320.969 256.447 321.43 257.512 321.43 258.803C321.43 260.093 320.969 261.158 320.047 261.998C319.146 262.838 317.947 263.258 316.452 263.258C314.936 263.258 313.728 262.838 312.826 261.998C311.925 261.158 311.474 260.093 311.474 258.803ZM344.505 267.467V273.736H325.148V267.467H344.505ZM329.941 259.264H338.79V290.696C338.79 291.659 338.913 292.396 339.159 292.909C339.425 293.421 339.814 293.779 340.326 293.984C340.838 294.168 341.483 294.26 342.262 294.26C342.815 294.26 343.307 294.24 343.737 294.199C344.187 294.138 344.566 294.076 344.874 294.015L344.904 300.529C344.146 300.774 343.327 300.969 342.446 301.112C341.565 301.256 340.592 301.327 339.527 301.327C337.581 301.327 335.881 301.01 334.427 300.375C332.993 299.719 331.887 298.675 331.108 297.241C330.33 295.807 329.941 293.922 329.941 291.587V259.264ZM374.063 274.35V300.713H365.183V267.467H373.51L374.063 274.35ZM372.834 282.923H370.376C370.376 280.608 370.653 278.478 371.206 276.532C371.779 274.565 372.609 272.865 373.695 271.431C374.801 269.977 376.163 268.85 377.781 268.051C379.399 267.252 381.274 266.853 383.404 266.853C384.879 266.853 386.231 267.078 387.46 267.529C388.689 267.959 389.744 268.645 390.624 269.588C391.526 270.509 392.222 271.718 392.714 273.213C393.205 274.688 393.451 276.46 393.451 278.529V300.713H384.602V279.512C384.602 277.996 384.397 276.829 383.988 276.009C383.578 275.19 382.994 274.616 382.236 274.289C381.499 273.961 380.608 273.797 379.563 273.797C378.416 273.797 377.412 274.033 376.552 274.504C375.712 274.975 375.016 275.63 374.463 276.47C373.91 277.289 373.5 278.252 373.234 279.358C372.967 280.464 372.834 281.653 372.834 282.923ZM392.622 281.909L389.457 282.308C389.457 280.137 389.723 278.119 390.256 276.255C390.809 274.391 391.618 272.752 392.683 271.339C393.769 269.926 395.11 268.83 396.708 268.051C398.306 267.252 400.15 266.853 402.239 266.853C403.837 266.853 405.291 267.088 406.602 267.56C407.913 268.01 409.029 268.737 409.951 269.741C410.893 270.724 411.61 272.015 412.102 273.613C412.614 275.21 412.87 277.167 412.87 279.481V300.713H403.99V279.481C403.99 277.945 403.785 276.777 403.376 275.979C402.987 275.159 402.413 274.596 401.655 274.289C400.918 273.961 400.037 273.797 399.013 273.797C397.948 273.797 397.015 274.012 396.217 274.442C395.418 274.852 394.752 275.425 394.219 276.163C393.687 276.9 393.287 277.761 393.021 278.744C392.755 279.707 392.622 280.762 392.622 281.909ZM418.309 284.428V283.783C418.309 281.345 418.657 279.102 419.353 277.054C420.05 274.985 421.064 273.193 422.395 271.677C423.727 270.161 425.365 268.983 427.311 268.143C429.257 267.283 431.49 266.853 434.01 266.853C436.529 266.853 438.772 267.283 440.739 268.143C442.705 268.983 444.354 270.161 445.685 271.677C447.037 273.193 448.062 274.985 448.758 277.054C449.454 279.102 449.803 281.345 449.803 283.783V284.428C449.803 286.845 449.454 289.088 448.758 291.157C448.062 293.206 447.037 294.998 445.685 296.534C444.354 298.05 442.715 299.228 440.769 300.068C438.823 300.907 436.591 301.327 434.071 301.327C431.551 301.327 429.308 300.907 427.342 300.068C425.396 299.228 423.747 298.05 422.395 296.534C421.064 294.998 420.05 293.206 419.353 291.157C418.657 289.088 418.309 286.845 418.309 284.428ZM427.158 283.783V284.428C427.158 285.821 427.281 287.122 427.526 288.33C427.772 289.539 428.161 290.604 428.694 291.526C429.247 292.427 429.964 293.134 430.845 293.646C431.726 294.158 432.801 294.414 434.071 294.414C435.3 294.414 436.355 294.158 437.236 293.646C438.117 293.134 438.823 292.427 439.356 291.526C439.888 290.604 440.278 289.539 440.523 288.33C440.79 287.122 440.923 285.821 440.923 284.428V283.783C440.923 282.431 440.79 281.161 440.523 279.973C440.278 278.764 439.878 277.699 439.325 276.777C438.793 275.835 438.086 275.098 437.205 274.565C436.324 274.033 435.259 273.766 434.01 273.766C432.76 273.766 431.695 274.033 430.814 274.565C429.954 275.098 429.247 275.835 428.694 276.777C428.161 277.699 427.772 278.764 427.526 279.973C427.281 281.161 427.158 282.431 427.158 283.783ZM464.09 274.35V300.713H455.21V267.467H463.537L464.09 274.35ZM462.861 282.923H460.403C460.403 280.608 460.68 278.478 461.233 276.532C461.806 274.565 462.636 272.865 463.721 271.431C464.828 269.977 466.19 268.85 467.808 268.051C469.426 267.252 471.301 266.853 473.431 266.853C474.906 266.853 476.258 267.078 477.487 267.529C478.716 267.959 479.771 268.645 480.651 269.588C481.553 270.509 482.249 271.718 482.741 273.213C483.232 274.688 483.478 276.46 483.478 278.529V300.713H474.629V279.512C474.629 277.996 474.424 276.829 474.015 276.009C473.605 275.19 473.021 274.616 472.263 274.289C471.526 273.961 470.635 273.797 469.59 273.797C468.443 273.797 467.439 274.033 466.579 274.504C465.739 274.975 465.043 275.63 464.49 276.47C463.937 277.289 463.527 278.252 463.261 279.358C462.994 280.464 462.861 281.653 462.861 282.923ZM482.649 281.909L479.484 282.308C479.484 280.137 479.75 278.119 480.283 276.255C480.836 274.391 481.645 272.752 482.71 271.339C483.796 269.926 485.137 268.83 486.735 268.051C488.333 267.252 490.177 266.853 492.266 266.853C493.864 266.853 495.318 267.088 496.629 267.56C497.94 268.01 499.056 268.737 499.978 269.741C500.92 270.724 501.637 272.015 502.129 273.613C502.641 275.21 502.897 277.167 502.897 279.481V300.713H494.017V279.481C494.017 277.945 493.812 276.777 493.403 275.979C493.014 275.159 492.44 274.596 491.682 274.289C490.945 273.961 490.064 273.797 489.04 273.797C487.975 273.797 487.042 274.012 486.244 274.442C485.445 274.852 484.779 275.425 484.246 276.163C483.714 276.9 483.314 277.761 483.048 278.744C482.782 279.707 482.649 280.762 482.649 281.909ZM543.363 293.216V278.406C543.363 277.341 543.189 276.429 542.841 275.671C542.493 274.893 541.95 274.289 541.212 273.858C540.495 273.428 539.563 273.213 538.416 273.213C537.433 273.213 536.583 273.387 535.866 273.736C535.149 274.063 534.596 274.545 534.207 275.18C533.818 275.794 533.623 276.521 533.623 277.361H524.774C524.774 275.948 525.102 274.606 525.757 273.336C526.413 272.066 527.365 270.95 528.615 269.987C529.864 269.004 531.349 268.236 533.07 267.683C534.811 267.129 536.757 266.853 538.908 266.853C541.489 266.853 543.783 267.283 545.79 268.143C547.798 269.004 549.375 270.294 550.522 272.015C551.69 273.736 552.274 275.886 552.274 278.467V292.693C552.274 294.516 552.386 296.012 552.612 297.179C552.837 298.327 553.165 299.33 553.595 300.191V300.713H544.654C544.223 299.812 543.896 298.685 543.67 297.333C543.466 295.961 543.363 294.588 543.363 293.216ZM544.531 280.464L544.592 285.473H539.645C538.478 285.473 537.464 285.606 536.603 285.872C535.743 286.139 535.036 286.518 534.483 287.009C533.93 287.48 533.521 288.033 533.254 288.668C533.008 289.303 532.886 290 532.886 290.758C532.886 291.516 533.06 292.202 533.408 292.816C533.756 293.41 534.258 293.881 534.913 294.23C535.569 294.557 536.337 294.721 537.218 294.721C538.549 294.721 539.707 294.455 540.69 293.922C541.673 293.39 542.431 292.734 542.964 291.956C543.517 291.178 543.804 290.44 543.824 289.744L546.159 293.492C545.831 294.332 545.381 295.203 544.807 296.104C544.254 297.005 543.547 297.855 542.687 298.654C541.827 299.433 540.792 300.078 539.584 300.59C538.375 301.082 536.941 301.327 535.282 301.327C533.172 301.327 531.257 300.907 529.536 300.068C527.836 299.207 526.484 298.029 525.481 296.534C524.497 295.018 524.006 293.298 524.006 291.372C524.006 289.631 524.334 288.085 524.989 286.733C525.645 285.381 526.607 284.244 527.877 283.322C529.168 282.38 530.776 281.673 532.701 281.202C534.627 280.71 536.859 280.464 539.399 280.464H544.531ZM567.76 274.565V300.713H558.91V267.467H567.206L567.76 274.565ZM566.469 282.923H564.072C564.072 280.464 564.39 278.252 565.025 276.286C565.66 274.299 566.551 272.609 567.698 271.216C568.845 269.803 570.207 268.727 571.785 267.99C573.382 267.232 575.164 266.853 577.131 266.853C578.688 266.853 580.111 267.078 581.402 267.529C582.692 267.98 583.798 268.696 584.72 269.68C585.663 270.663 586.379 271.964 586.871 273.582C587.383 275.2 587.639 277.177 587.639 279.512V300.713H578.729V279.481C578.729 278.006 578.524 276.859 578.114 276.04C577.704 275.221 577.1 274.647 576.301 274.319C575.523 273.971 574.56 273.797 573.413 273.797C572.225 273.797 571.191 274.033 570.31 274.504C569.449 274.975 568.733 275.63 568.159 276.47C567.606 277.289 567.186 278.252 566.899 279.358C566.612 280.464 566.469 281.653 566.469 282.923ZM614.002 293.462V253.518H622.913V300.713H614.893L614.002 293.462ZM592.986 284.49V283.844C592.986 281.304 593.272 279 593.846 276.931C594.419 274.842 595.259 273.049 596.365 271.554C597.472 270.059 598.834 268.901 600.452 268.082C602.07 267.263 603.914 266.853 605.983 266.853C607.929 266.853 609.629 267.263 611.083 268.082C612.558 268.901 613.807 270.069 614.832 271.585C615.876 273.08 616.716 274.852 617.351 276.9C617.986 278.928 618.447 281.151 618.734 283.568V284.981C618.447 287.296 617.986 289.447 617.351 291.434C616.716 293.421 615.876 295.162 614.832 296.657C613.807 298.132 612.558 299.279 611.083 300.098C609.608 300.918 607.888 301.327 605.921 301.327C603.852 301.327 602.009 300.907 600.39 300.068C598.793 299.228 597.441 298.05 596.335 296.534C595.249 295.018 594.419 293.236 593.846 291.188C593.272 289.139 592.986 286.907 592.986 284.49ZM601.835 283.844V284.49C601.835 285.862 601.937 287.142 602.142 288.33C602.367 289.518 602.726 290.573 603.217 291.495C603.729 292.396 604.385 293.103 605.184 293.615C606.003 294.107 606.997 294.353 608.164 294.353C609.68 294.353 610.929 294.015 611.913 293.339C612.896 292.642 613.644 291.69 614.156 290.481C614.688 289.273 614.996 287.88 615.077 286.302V282.277C615.016 280.987 614.832 279.829 614.524 278.805C614.238 277.761 613.807 276.87 613.234 276.132C612.681 275.395 611.984 274.821 611.145 274.411C610.325 274.002 609.352 273.797 608.226 273.797C607.078 273.797 606.095 274.063 605.276 274.596C604.457 275.108 603.791 275.815 603.279 276.716C602.787 277.617 602.418 278.682 602.173 279.911C601.947 281.12 601.835 282.431 601.835 283.844ZM665.13 293.462V253.518H674.041V300.713H666.021L665.13 293.462ZM644.113 284.49V283.844C644.113 281.304 644.4 279 644.974 276.931C645.547 274.842 646.387 273.049 647.493 271.554C648.599 270.059 649.962 268.901 651.58 268.082C653.198 267.263 655.042 266.853 657.111 266.853C659.057 266.853 660.757 267.263 662.211 268.082C663.686 268.901 664.935 270.069 665.96 271.585C667.004 273.08 667.844 274.852 668.479 276.9C669.114 278.928 669.575 281.151 669.862 283.568V284.981C669.575 287.296 669.114 289.447 668.479 291.434C667.844 293.421 667.004 295.162 665.96 296.657C664.935 298.132 663.686 299.279 662.211 300.098C660.736 300.918 659.016 301.327 657.049 301.327C654.98 301.327 653.137 300.907 651.518 300.068C649.921 299.228 648.569 298.05 647.463 296.534C646.377 295.018 645.547 293.236 644.974 291.188C644.4 289.139 644.113 286.907 644.113 284.49ZM652.963 283.844V284.49C652.963 285.862 653.065 287.142 653.27 288.33C653.495 289.518 653.854 290.573 654.345 291.495C654.857 292.396 655.513 293.103 656.312 293.615C657.131 294.107 658.125 294.353 659.292 294.353C660.808 294.353 662.057 294.015 663.041 293.339C664.024 292.642 664.772 291.69 665.284 290.481C665.816 289.273 666.123 287.88 666.205 286.302V282.277C666.144 280.987 665.96 279.829 665.652 278.805C665.366 277.761 664.935 276.87 664.362 276.132C663.809 275.395 663.112 274.821 662.273 274.411C661.453 274.002 660.48 273.797 659.354 273.797C658.206 273.797 657.223 274.063 656.404 274.596C655.584 275.108 654.919 275.815 654.407 276.716C653.915 277.617 653.546 278.682 653.301 279.911C653.075 281.12 652.963 282.431 652.963 283.844ZM698.898 293.216V278.406C698.898 277.341 698.724 276.429 698.375 275.671C698.027 274.893 697.484 274.289 696.747 273.858C696.03 273.428 695.098 273.213 693.951 273.213C692.968 273.213 692.118 273.387 691.401 273.736C690.684 274.063 690.131 274.545 689.741 275.18C689.352 275.794 689.158 276.521 689.158 277.361H680.309C680.309 275.948 680.636 274.606 681.292 273.336C681.947 272.066 682.9 270.95 684.149 269.987C685.399 269.004 686.884 268.236 688.605 267.683C690.346 267.129 692.292 266.853 694.443 266.853C697.024 266.853 699.318 267.283 701.325 268.143C703.333 269.004 704.91 270.294 706.057 272.015C707.225 273.736 707.808 275.886 707.808 278.467V292.693C707.808 294.516 707.921 296.012 708.146 297.179C708.372 298.327 708.699 299.33 709.13 300.191V300.713H700.188C699.758 299.812 699.43 298.685 699.205 297.333C699 295.961 698.898 294.588 698.898 293.216ZM700.065 280.464L700.127 285.473H695.18C694.012 285.473 692.998 285.606 692.138 285.872C691.278 286.139 690.571 286.518 690.018 287.009C689.465 287.48 689.055 288.033 688.789 288.668C688.543 289.303 688.42 290 688.42 290.758C688.42 291.516 688.594 292.202 688.943 292.816C689.291 293.41 689.793 293.881 690.448 294.23C691.104 294.557 691.872 294.721 692.753 294.721C694.084 294.721 695.241 294.455 696.225 293.922C697.208 293.39 697.966 292.734 698.498 291.956C699.051 291.178 699.338 290.44 699.359 289.744L701.694 293.492C701.366 294.332 700.915 295.203 700.342 296.104C699.789 297.005 699.082 297.855 698.222 298.654C697.362 299.433 696.327 300.078 695.119 300.59C693.91 301.082 692.476 301.327 690.817 301.327C688.707 301.327 686.792 300.907 685.071 300.068C683.371 299.207 682.019 298.029 681.015 296.534C680.032 295.018 679.54 293.298 679.54 291.372C679.54 289.631 679.868 288.085 680.524 286.733C681.179 285.381 682.142 284.244 683.412 283.322C684.702 282.38 686.31 281.673 688.236 281.202C690.161 280.71 692.394 280.464 694.934 280.464H700.065ZM734.263 293.462V253.518H743.174V300.713H735.154L734.263 293.462ZM713.247 284.49V283.844C713.247 281.304 713.534 279 714.107 276.931C714.681 274.842 715.521 273.049 716.627 271.554C717.733 270.059 719.095 268.901 720.713 268.082C722.332 267.263 724.175 266.853 726.244 266.853C728.19 266.853 729.89 267.263 731.344 268.082C732.819 268.901 734.069 270.069 735.093 271.585C736.138 273.08 736.978 274.852 737.613 276.9C738.248 278.928 738.708 281.151 738.995 283.568V284.981C738.708 287.296 738.248 289.447 737.613 291.434C736.978 293.421 736.138 295.162 735.093 296.657C734.069 298.132 732.819 299.279 731.344 300.098C729.87 300.918 728.149 301.327 726.182 301.327C724.114 301.327 722.27 300.907 720.652 300.068C719.054 299.228 717.702 298.05 716.596 296.534C715.51 295.018 714.681 293.236 714.107 291.188C713.534 289.139 713.247 286.907 713.247 284.49ZM722.096 283.844V284.49C722.096 285.862 722.198 287.142 722.403 288.33C722.629 289.518 722.987 290.573 723.479 291.495C723.991 292.396 724.646 293.103 725.445 293.615C726.264 294.107 727.258 294.353 728.425 294.353C729.941 294.353 731.191 294.015 732.174 293.339C733.157 292.642 733.905 291.69 734.417 290.481C734.95 289.273 735.257 287.88 735.339 286.302V282.277C735.277 280.987 735.093 279.829 734.786 278.805C734.499 277.761 734.069 276.87 733.495 276.132C732.942 275.395 732.246 274.821 731.406 274.411C730.587 274.002 729.614 273.797 728.487 273.797C727.34 273.797 726.357 274.063 725.537 274.596C724.718 275.108 724.052 275.815 723.54 276.716C723.048 277.617 722.68 278.682 722.434 279.911C722.209 281.12 722.096 282.431 722.096 283.844Z" fill="#554E4E"/>
<path d="M135.191 450.962V450.457C135.191 448.746 135.44 447.158 135.937 445.695C136.435 444.217 137.152 442.937 138.088 441.854C139.024 440.757 140.158 439.908 141.49 439.308C142.821 438.694 144.314 438.387 145.967 438.387C147.635 438.387 149.135 438.694 150.466 439.308C151.812 439.908 152.954 440.757 153.89 441.854C154.841 442.937 155.565 444.217 156.063 445.695C156.56 447.158 156.809 448.746 156.809 450.457V450.962C156.809 452.674 156.56 454.262 156.063 455.725C155.565 457.188 154.841 458.468 153.89 459.566C152.954 460.648 151.82 461.497 150.488 462.111C149.171 462.711 147.679 463.011 146.011 463.011C144.343 463.011 142.843 462.711 141.512 462.111C140.18 461.497 139.039 460.648 138.088 459.566C137.152 458.468 136.435 457.188 135.937 455.725C135.44 454.262 135.191 452.674 135.191 450.962ZM139.251 450.457V450.962C139.251 452.147 139.39 453.267 139.668 454.32C139.946 455.359 140.363 456.281 140.919 457.085C141.49 457.89 142.199 458.527 143.048 458.995C143.897 459.448 144.884 459.675 146.011 459.675C147.123 459.675 148.096 459.448 148.93 458.995C149.779 458.527 150.481 457.89 151.037 457.085C151.593 456.281 152.01 455.359 152.288 454.32C152.58 453.267 152.727 452.147 152.727 450.962V450.457C152.727 449.287 152.58 448.182 152.288 447.143C152.01 446.09 151.585 445.161 151.015 444.356C150.459 443.537 149.757 442.893 148.908 442.425C148.074 441.957 147.094 441.723 145.967 441.723C144.855 441.723 143.875 441.957 143.026 442.425C142.192 442.893 141.49 443.537 140.919 444.356C140.363 445.161 139.946 446.09 139.668 447.143C139.39 448.182 139.251 449.287 139.251 450.457ZM165.961 443.895V462.572H161.901V438.826H165.741L165.961 443.895ZM164.995 449.799L163.305 449.733C163.32 448.109 163.561 446.609 164.029 445.234C164.498 443.844 165.156 442.637 166.005 441.613C166.853 440.589 167.863 439.798 169.033 439.242C170.219 438.672 171.528 438.387 172.962 438.387C174.132 438.387 175.186 438.548 176.122 438.869C177.059 439.177 177.856 439.674 178.515 440.362C179.188 441.049 179.7 441.942 180.051 443.039C180.402 444.122 180.578 445.446 180.578 447.012V462.572H176.495V446.968C176.495 445.724 176.313 444.729 175.947 443.983C175.581 443.222 175.047 442.674 174.345 442.337C173.642 441.986 172.779 441.81 171.755 441.81C170.745 441.81 169.824 442.022 168.99 442.447C168.17 442.871 167.461 443.456 166.861 444.203C166.275 444.949 165.815 445.805 165.478 446.77C165.156 447.721 164.995 448.731 164.995 449.799Z" fill="#554E4E"/>
<path d="M215.539 454.496C215.539 453.75 215.422 453.091 215.188 452.52C214.969 451.935 214.574 451.409 214.003 450.94C213.447 450.472 212.672 450.026 211.677 449.602C210.696 449.177 209.453 448.746 207.946 448.307C206.365 447.838 204.939 447.319 203.666 446.748C202.393 446.163 201.303 445.497 200.396 444.751C199.489 444.005 198.794 443.149 198.311 442.183C197.828 441.218 197.587 440.113 197.587 438.869C197.587 437.626 197.843 436.477 198.355 435.424C198.867 434.37 199.598 433.456 200.549 432.68C201.515 431.89 202.664 431.276 203.995 430.837C205.327 430.398 206.812 430.178 208.45 430.178C210.85 430.178 212.884 430.639 214.552 431.561C216.234 432.468 217.515 433.661 218.392 435.138C219.27 436.602 219.709 438.167 219.709 439.835H215.495C215.495 438.635 215.239 437.575 214.727 436.653C214.215 435.716 213.44 434.985 212.401 434.458C211.362 433.917 210.045 433.646 208.45 433.646C206.943 433.646 205.7 433.873 204.719 434.326C203.739 434.78 203.008 435.394 202.525 436.17C202.057 436.945 201.822 437.831 201.822 438.826C201.822 439.499 201.961 440.113 202.239 440.669C202.532 441.21 202.978 441.715 203.578 442.183C204.193 442.652 204.968 443.083 205.905 443.478C206.856 443.873 207.99 444.254 209.306 444.62C211.121 445.132 212.686 445.702 214.003 446.331C215.32 446.961 216.403 447.67 217.251 448.46C218.114 449.236 218.751 450.121 219.161 451.116C219.585 452.096 219.797 453.208 219.797 454.452C219.797 455.754 219.534 456.932 219.007 457.985C218.48 459.039 217.727 459.939 216.746 460.685C215.766 461.431 214.588 462.009 213.213 462.419C211.852 462.814 210.331 463.011 208.648 463.011C207.17 463.011 205.714 462.806 204.28 462.397C202.861 461.987 201.566 461.372 200.396 460.553C199.24 459.734 198.311 458.724 197.609 457.524C196.921 456.31 196.577 454.905 196.577 453.311H200.791C200.791 454.408 201.003 455.352 201.427 456.142C201.852 456.917 202.43 457.561 203.161 458.073C203.907 458.585 204.749 458.966 205.685 459.214C206.636 459.448 207.624 459.566 208.648 459.566C210.126 459.566 211.377 459.361 212.401 458.951C213.425 458.541 214.201 457.956 214.727 457.195C215.269 456.434 215.539 455.535 215.539 454.496ZM239.111 457.085V438.826H243.193V462.572H239.308L239.111 457.085ZM239.879 452.082L241.569 452.038C241.569 453.618 241.4 455.081 241.064 456.427C240.742 457.759 240.215 458.914 239.484 459.895C238.752 460.875 237.794 461.643 236.609 462.199C235.423 462.741 233.982 463.011 232.285 463.011C231.129 463.011 230.068 462.843 229.103 462.506C228.152 462.17 227.332 461.65 226.645 460.948C225.957 460.246 225.423 459.331 225.042 458.205C224.677 457.078 224.494 455.725 224.494 454.145V438.826H228.554V454.188C228.554 455.257 228.671 456.142 228.905 456.844C229.154 457.532 229.483 458.08 229.893 458.49C230.317 458.885 230.785 459.163 231.297 459.324C231.824 459.485 232.365 459.566 232.921 459.566C234.648 459.566 236.016 459.236 237.026 458.578C238.035 457.905 238.759 457.005 239.198 455.878C239.652 454.737 239.879 453.472 239.879 452.082ZM253.442 443.895V462.572H249.382V438.826H253.223L253.442 443.895ZM252.476 449.799L250.786 449.733C250.801 448.109 251.042 446.609 251.511 445.234C251.979 443.844 252.637 442.637 253.486 441.613C254.334 440.589 255.344 439.798 256.515 439.242C257.7 438.672 259.009 438.387 260.443 438.387C261.614 438.387 262.667 438.548 263.603 438.869C264.54 439.177 265.337 439.674 265.996 440.362C266.669 441.049 267.181 441.942 267.532 443.039C267.883 444.122 268.059 445.446 268.059 447.012V462.572H263.977V446.968C263.977 445.724 263.794 444.729 263.428 443.983C263.062 443.222 262.528 442.674 261.826 442.337C261.123 441.986 260.26 441.81 259.236 441.81C258.226 441.81 257.305 442.022 256.471 442.447C255.651 442.871 254.942 443.456 254.342 444.203C253.757 444.949 253.296 445.805 252.959 446.77C252.637 447.721 252.476 448.731 252.476 449.799ZM289.194 457.963V428.862H293.276V462.572H289.545L289.194 457.963ZM273.216 450.962V450.501C273.216 448.687 273.436 447.041 273.875 445.563C274.328 444.071 274.965 442.791 275.784 441.723C276.618 440.654 277.606 439.835 278.747 439.264C279.903 438.679 281.19 438.387 282.61 438.387C284.102 438.387 285.404 438.65 286.516 439.177C287.643 439.689 288.594 440.442 289.369 441.437C290.159 442.418 290.781 443.603 291.235 444.993C291.688 446.383 292.003 447.955 292.179 449.711V451.73C292.018 453.472 291.703 455.037 291.235 456.427C290.781 457.817 290.159 459.002 289.369 459.983C288.594 460.963 287.643 461.716 286.516 462.243C285.39 462.755 284.073 463.011 282.566 463.011C281.176 463.011 279.903 462.711 278.747 462.111C277.606 461.511 276.618 460.67 275.784 459.587C274.965 458.505 274.328 457.232 273.875 455.769C273.436 454.291 273.216 452.689 273.216 450.962ZM277.298 450.501V450.962C277.298 452.147 277.416 453.259 277.65 454.298C277.898 455.337 278.279 456.252 278.791 457.042C279.303 457.832 279.954 458.454 280.744 458.907C281.534 459.346 282.478 459.566 283.575 459.566C284.921 459.566 286.026 459.28 286.889 458.71C287.767 458.139 288.47 457.385 288.996 456.449C289.523 455.513 289.933 454.496 290.225 453.398V448.109C290.05 447.304 289.794 446.529 289.457 445.783C289.135 445.022 288.711 444.349 288.184 443.764C287.672 443.164 287.036 442.688 286.275 442.337C285.529 441.986 284.643 441.81 283.619 441.81C282.507 441.81 281.549 442.044 280.744 442.513C279.954 442.966 279.303 443.595 278.791 444.4C278.279 445.19 277.898 446.112 277.65 447.165C277.416 448.204 277.298 449.316 277.298 450.501ZM313.599 458.512V446.288C313.599 445.351 313.409 444.539 313.028 443.851C312.663 443.149 312.107 442.608 311.36 442.227C310.614 441.847 309.692 441.657 308.595 441.657C307.571 441.657 306.671 441.832 305.896 442.183C305.135 442.535 304.535 442.995 304.096 443.566C303.672 444.137 303.459 444.751 303.459 445.41H299.399C299.399 444.561 299.619 443.72 300.058 442.886C300.497 442.052 301.126 441.298 301.945 440.625C302.779 439.937 303.774 439.396 304.93 439.001C306.1 438.591 307.403 438.387 308.836 438.387C310.563 438.387 312.085 438.679 313.401 439.264C314.733 439.85 315.772 440.735 316.518 441.92C317.279 443.091 317.659 444.561 317.659 446.331V457.393C317.659 458.183 317.725 459.024 317.857 459.917C318.003 460.809 318.215 461.577 318.493 462.221V462.572H314.257C314.053 462.104 313.892 461.482 313.775 460.707C313.657 459.917 313.599 459.185 313.599 458.512ZM314.301 448.175L314.345 451.028H310.241C309.085 451.028 308.054 451.123 307.147 451.313C306.239 451.489 305.479 451.76 304.864 452.125C304.25 452.491 303.781 452.952 303.459 453.508C303.138 454.049 302.977 454.686 302.977 455.418C302.977 456.164 303.145 456.844 303.481 457.459C303.818 458.073 304.323 458.563 304.996 458.929C305.683 459.28 306.525 459.456 307.52 459.456C308.763 459.456 309.861 459.192 310.812 458.666C311.763 458.139 312.516 457.495 313.072 456.734C313.643 455.974 313.95 455.235 313.994 454.518L315.728 456.471C315.625 457.085 315.347 457.766 314.894 458.512C314.44 459.258 313.833 459.975 313.072 460.663C312.326 461.336 311.434 461.899 310.395 462.353C309.37 462.792 308.215 463.011 306.927 463.011C305.318 463.011 303.906 462.697 302.691 462.067C301.491 461.438 300.555 460.597 299.882 459.544C299.224 458.475 298.894 457.283 298.894 455.966C298.894 454.693 299.143 453.574 299.641 452.608C300.138 451.628 300.855 450.816 301.791 450.172C302.728 449.514 303.854 449.016 305.171 448.68C306.488 448.343 307.959 448.175 309.583 448.175H314.301ZM330.367 460.114L336.973 438.826H341.318L331.793 466.237C331.574 466.823 331.281 467.452 330.915 468.125C330.564 468.813 330.111 469.464 329.555 470.078C328.999 470.693 328.325 471.19 327.535 471.571C326.76 471.966 325.831 472.163 324.748 472.163C324.426 472.163 324.017 472.119 323.519 472.031C323.022 471.944 322.67 471.871 322.466 471.812L322.444 468.52C322.561 468.535 322.744 468.549 322.992 468.564C323.256 468.593 323.439 468.608 323.541 468.608C324.463 468.608 325.246 468.483 325.889 468.235C326.533 468.001 327.074 467.598 327.513 467.028C327.967 466.472 328.355 465.703 328.677 464.723L330.367 460.114ZM325.516 438.826L331.683 457.261L332.737 461.541L329.818 463.033L321.083 438.826H325.516ZM360.983 430.617V462.572H356.747V430.617H360.983ZM374.37 444.993V448.46H360.061V444.993H374.37ZM376.543 430.617V434.085H360.061V430.617H376.543ZM390.348 463.011C388.695 463.011 387.195 462.733 385.849 462.177C384.517 461.607 383.369 460.809 382.403 459.785C381.452 458.761 380.721 457.546 380.208 456.142C379.696 454.737 379.44 453.201 379.44 451.533V450.611C379.44 448.68 379.726 446.961 380.296 445.454C380.867 443.932 381.642 442.644 382.623 441.591C383.603 440.537 384.715 439.74 385.959 439.199C387.202 438.657 388.49 438.387 389.821 438.387C391.518 438.387 392.982 438.679 394.211 439.264C395.454 439.85 396.471 440.669 397.261 441.723C398.051 442.761 398.637 443.99 399.017 445.41C399.397 446.814 399.588 448.351 399.588 450.019V451.84H381.854V448.526H395.527V448.219C395.469 447.165 395.249 446.141 394.869 445.146C394.503 444.151 393.918 443.332 393.113 442.688C392.309 442.044 391.211 441.723 389.821 441.723C388.899 441.723 388.051 441.92 387.275 442.315C386.5 442.696 385.834 443.266 385.278 444.027C384.722 444.788 384.291 445.717 383.983 446.814C383.676 447.912 383.522 449.177 383.522 450.611V451.533C383.522 452.659 383.676 453.72 383.983 454.715C384.305 455.696 384.766 456.559 385.366 457.305C385.981 458.051 386.719 458.636 387.583 459.061C388.461 459.485 389.455 459.697 390.567 459.697C392.001 459.697 393.216 459.405 394.211 458.819C395.206 458.234 396.076 457.451 396.822 456.471L399.28 458.424C398.768 459.2 398.117 459.939 397.327 460.641C396.537 461.343 395.564 461.914 394.408 462.353C393.267 462.792 391.914 463.011 390.348 463.011ZM404.306 428.862H408.388V457.963L408.037 462.572H404.306V428.862ZM424.432 450.501V450.962C424.432 452.689 424.227 454.291 423.817 455.769C423.408 457.232 422.808 458.505 422.018 459.587C421.228 460.67 420.262 461.511 419.121 462.111C417.979 462.711 416.67 463.011 415.192 463.011C413.685 463.011 412.361 462.755 411.22 462.243C410.093 461.716 409.142 460.963 408.367 459.983C407.591 459.002 406.969 457.817 406.501 456.427C406.047 455.037 405.733 453.472 405.557 451.73V449.711C405.733 447.955 406.047 446.383 406.501 444.993C406.969 443.603 407.591 442.418 408.367 441.437C409.142 440.442 410.093 439.689 411.22 439.177C412.346 438.65 413.656 438.387 415.148 438.387C416.641 438.387 417.965 438.679 419.121 439.264C420.277 439.835 421.242 440.654 422.018 441.723C422.808 442.791 423.408 444.071 423.817 445.563C424.227 447.041 424.432 448.687 424.432 450.501ZM420.35 450.962V450.501C420.35 449.316 420.24 448.204 420.02 447.165C419.801 446.112 419.45 445.19 418.967 444.4C418.484 443.595 417.848 442.966 417.058 442.513C416.267 442.044 415.295 441.81 414.139 441.81C413.114 441.81 412.222 441.986 411.461 442.337C410.715 442.688 410.078 443.164 409.552 443.764C409.025 444.349 408.593 445.022 408.257 445.783C407.935 446.529 407.693 447.304 407.533 448.109V453.398C407.767 454.423 408.147 455.41 408.674 456.361C409.215 457.298 409.932 458.066 410.825 458.666C411.732 459.266 412.851 459.566 414.183 459.566C415.28 459.566 416.216 459.346 416.992 458.907C417.782 458.454 418.418 457.832 418.901 457.042C419.399 456.252 419.764 455.337 419.999 454.298C420.233 453.259 420.35 452.147 420.35 450.962ZM461.215 459.236V462.572H440.3V459.653L450.768 447.999C452.056 446.566 453.051 445.351 453.753 444.356C454.47 443.347 454.968 442.447 455.246 441.657C455.538 440.852 455.685 440.033 455.685 439.199C455.685 438.145 455.465 437.194 455.026 436.345C454.602 435.482 453.973 434.795 453.139 434.282C452.305 433.77 451.295 433.514 450.11 433.514C448.691 433.514 447.506 433.792 446.555 434.348C445.618 434.89 444.916 435.65 444.448 436.631C443.979 437.611 443.745 438.738 443.745 440.011H439.685C439.685 438.211 440.08 436.565 440.87 435.073C441.66 433.58 442.831 432.395 444.382 431.517C445.933 430.625 447.842 430.178 450.11 430.178C452.129 430.178 453.856 430.537 455.289 431.254C456.723 431.956 457.821 432.951 458.582 434.239C459.357 435.511 459.745 437.004 459.745 438.716C459.745 439.652 459.584 440.603 459.262 441.569C458.955 442.52 458.523 443.471 457.967 444.422C457.426 445.373 456.789 446.309 456.058 447.231C455.341 448.153 454.573 449.06 453.753 449.953L445.194 459.236H461.215ZM486.213 430.617V432.9L472.979 462.572H468.699L481.911 433.953H464.617V430.617H486.213ZM494.97 457.744V461.014C494.97 462.345 494.633 463.75 493.96 465.228C493.287 466.72 492.343 467.964 491.129 468.959L488.825 467.357C489.293 466.713 489.688 466.055 490.01 465.381C490.332 464.723 490.573 464.035 490.734 463.318C490.91 462.616 490.997 461.87 490.997 461.08V457.744H494.97ZM531.797 459.236V462.572H510.881V459.653L521.35 447.999C522.638 446.566 523.633 445.351 524.335 444.356C525.052 443.347 525.549 442.447 525.827 441.657C526.12 440.852 526.266 440.033 526.266 439.199C526.266 438.145 526.047 437.194 525.608 436.345C525.184 435.482 524.554 434.795 523.72 434.282C522.886 433.77 521.877 433.514 520.692 433.514C519.273 433.514 518.087 433.792 517.136 434.348C516.2 434.89 515.498 435.65 515.029 436.631C514.561 437.611 514.327 438.738 514.327 440.011H510.267C510.267 438.211 510.662 436.565 511.452 435.073C512.242 433.58 513.413 432.395 514.964 431.517C516.515 430.625 518.424 430.178 520.692 430.178C522.711 430.178 524.437 430.537 525.871 431.254C527.305 431.956 528.403 432.951 529.163 434.239C529.939 435.511 530.327 437.004 530.327 438.716C530.327 439.652 530.166 440.603 529.844 441.569C529.536 442.52 529.105 443.471 528.549 444.422C528.007 445.373 527.371 446.309 526.639 447.231C525.923 448.153 525.154 449.06 524.335 449.953L515.776 459.236H531.797ZM556.202 444.049V448.921C556.202 451.54 555.968 453.75 555.5 455.549C555.032 457.349 554.359 458.797 553.481 459.895C552.603 460.992 551.542 461.789 550.298 462.287C549.069 462.77 547.679 463.011 546.128 463.011C544.899 463.011 543.766 462.858 542.727 462.55C541.688 462.243 540.751 461.753 539.917 461.08C539.098 460.392 538.396 459.5 537.811 458.402C537.225 457.305 536.779 455.974 536.472 454.408C536.165 452.842 536.011 451.013 536.011 448.921V444.049C536.011 441.43 536.245 439.235 536.713 437.465C537.196 435.694 537.876 434.275 538.754 433.207C539.632 432.124 540.686 431.349 541.915 430.881C543.158 430.412 544.548 430.178 546.085 430.178C547.328 430.178 548.47 430.332 549.508 430.639C550.562 430.932 551.498 431.407 552.318 432.066C553.137 432.71 553.832 433.573 554.403 434.656C554.988 435.724 555.434 437.033 555.741 438.584C556.049 440.135 556.202 441.957 556.202 444.049ZM552.12 449.58V443.369C552.12 441.935 552.032 440.676 551.857 439.594C551.696 438.496 551.454 437.56 551.132 436.784C550.811 436.009 550.401 435.38 549.903 434.897C549.421 434.414 548.857 434.063 548.213 433.844C547.584 433.609 546.875 433.492 546.085 433.492C545.119 433.492 544.263 433.675 543.517 434.041C542.771 434.392 542.141 434.955 541.629 435.731C541.132 436.506 540.751 437.523 540.488 438.782C540.225 440.04 540.093 441.569 540.093 443.369V449.58C540.093 451.013 540.174 452.279 540.334 453.376C540.51 454.474 540.766 455.425 541.103 456.23C541.439 457.02 541.849 457.671 542.332 458.183C542.814 458.695 543.37 459.075 544 459.324C544.643 459.558 545.353 459.675 546.128 459.675C547.123 459.675 547.994 459.485 548.74 459.105C549.486 458.724 550.108 458.132 550.606 457.327C551.118 456.508 551.498 455.461 551.747 454.188C551.996 452.901 552.12 451.365 552.12 449.58ZM582.363 459.236V462.572H561.448V459.653L571.916 447.999C573.204 446.566 574.199 445.351 574.901 444.356C575.618 443.347 576.116 442.447 576.394 441.657C576.686 440.852 576.832 440.033 576.832 439.199C576.832 438.145 576.613 437.194 576.174 436.345C575.75 435.482 575.121 434.795 574.287 434.282C573.453 433.77 572.443 433.514 571.258 433.514C569.839 433.514 568.654 433.792 567.702 434.348C566.766 434.89 566.064 435.65 565.596 436.631C565.127 437.611 564.893 438.738 564.893 440.011H560.833C560.833 438.211 561.228 436.565 562.018 435.073C562.808 433.58 563.979 432.395 565.53 431.517C567.081 430.625 568.99 430.178 571.258 430.178C573.277 430.178 575.004 430.537 576.437 431.254C577.871 431.956 578.969 432.951 579.729 434.239C580.505 435.511 580.893 437.004 580.893 438.716C580.893 439.652 580.732 440.603 580.41 441.569C580.103 442.52 579.671 443.471 579.115 444.422C578.574 445.373 577.937 446.309 577.206 447.231C576.489 448.153 575.72 449.06 574.901 449.953L566.342 459.236H582.363ZM607.646 459.236V462.572H586.731V459.653L597.199 447.999C598.487 446.566 599.482 445.351 600.184 444.356C600.901 443.347 601.399 442.447 601.677 441.657C601.969 440.852 602.116 440.033 602.116 439.199C602.116 438.145 601.896 437.194 601.457 436.345C601.033 435.482 600.404 434.795 599.57 434.282C598.736 433.77 597.726 433.514 596.541 433.514C595.122 433.514 593.937 433.792 592.986 434.348C592.049 434.89 591.347 435.65 590.879 436.631C590.41 437.611 590.176 438.738 590.176 440.011H586.116C586.116 438.211 586.511 436.565 587.301 435.073C588.091 433.58 589.262 432.395 590.813 431.517C592.364 430.625 594.273 430.178 596.541 430.178C598.56 430.178 600.287 430.537 601.72 431.254C603.154 431.956 604.252 432.951 605.013 434.239C605.788 435.511 606.176 437.004 606.176 438.716C606.176 439.652 606.015 440.603 605.693 441.569C605.386 442.52 604.954 443.471 604.398 444.422C603.857 445.373 603.22 446.309 602.489 447.231C601.772 448.153 601.004 449.06 600.184 449.953L591.625 459.236H607.646Z" fill="#858282"/>
<path d="M194.799 466.962H609.314V469.156H194.799V466.962Z" fill="#858282"/>
</g>
<path d="M70.934 27.7979H953.706V24.2021H70.934V27.7979ZM996.856 70.9477V530.209H1000.45V70.9477H996.856ZM953.706 573.358H70.9339V576.954H953.706V573.358ZM27.7842 530.209V70.9477H24.1884V530.209H27.7842ZM70.9339 573.358C47.103 573.358 27.7842 554.04 27.7842 530.209H24.1884C24.1884 556.026 45.117 576.954 70.9339 576.954V573.358ZM996.856 530.209C996.856 554.04 977.537 573.358 953.706 573.358V576.954C979.523 576.954 1000.45 556.026 1000.45 530.209H996.856ZM953.706 27.7979C977.537 27.7979 996.856 47.1167 996.856 70.9477H1000.45C1000.45 45.1308 979.523 24.2021 953.706 24.2021V27.7979ZM70.934 24.2021C45.1171 24.2021 24.1884 45.1308 24.1884 70.9477H27.7842C27.7842 47.1167 47.103 27.7979 70.934 27.7979V24.2021Z" fill="#554E4E"/>
</g>
<defs>
<filter id="filter0_d_146_3034" x="0.814718" y="0.82839" width="1037.39" height="613.883" filterUnits="userSpaceOnUse" color-interpolation-filters="sRGB">
<feFlood flood-opacity="0" result="BackgroundImageFix"/>
<feColorMatrix in="SourceAlpha" type="matrix" values="0 0 0 0 0 0 0 0 0 0 0 0 0 0 0 0 0 0 127 0" result="hardAlpha"/>
<feOffset dx="7.19163" dy="7.19163"/>
<feGaussianBlur stdDeviation="15.2822"/>
<feComposite in2="hardAlpha" operator="out"/>
<feColorMatrix type="matrix" values="0 0 0 0 0 0 0 0 0 0 0 0 0 0 0 0 0 0 0.25 0"/>
<feBlend mode="normal" in2="BackgroundImageFix" result="effect1_dropShadow_146_3034"/>
<feBlend mode="normal" in="SourceGraphic" in2="effect1_dropShadow_146_3034" result="shape"/>
</filter>
<clipPath id="clip0_146_3034">
<path d="M25.9863 70.9477C25.9863 46.1238 46.1101 26 70.934 26H953.706C978.53 26 998.654 46.1238 998.654 70.9477V530.209C998.654 555.033 978.53 575.156 953.706 575.156H70.9339C46.11 575.156 25.9863 555.033 25.9863 530.209V70.9477Z" fill="white"/>
</clipPath>
</defs>
</svg>
